<svg width="32" height="32" viewBox="0 0 32 32" fill="none" xmlns="http://www.w3.org/2000/svg">
<g clip-path="url(#clip0_5877_28675)">
<path d="M13.7317 2.08084C14.1688 1.77989 14.4561 2.39431 14.6559 2.69534C12.5951 4.82734 10.4593 6.88407 8.38592 9.016C7.97377 9.41733 8.2735 10.2451 8.84805 10.2702C9.2602 10.3203 9.53502 9.94404 9.80976 9.70577C12.1829 7.323 14.5685 4.95273 16.9167 2.54486C17.129 2.35678 17.3413 2.16863 17.5787 2.03066C18.1282 1.88025 18.5029 2.70792 18.0532 3.03397C15.2929 5.85567 12.4951 8.65235 9.69735 11.4615C9.46005 11.7123 9.19776 11.9507 9.02291 12.2516C8.76062 12.8034 9.41007 13.4556 9.9597 13.2423C10.3094 13.0668 10.5342 12.7281 10.8215 12.4648C14.0689 9.32954 17.1414 6.01873 20.4139 2.90858C20.8136 2.53235 21.4756 3.14685 21.2382 3.59828C21.0134 3.9244 20.7136 4.17518 20.4513 4.46362C16.2547 8.66486 12.058 12.8912 7.84882 17.105C7.58653 17.3809 7.24935 17.6317 7.13693 18.0205C6.97453 18.5472 7.54908 19.1367 8.07365 18.9485C8.44836 18.8356 8.69818 18.4971 8.97293 18.2336C13.5443 13.6311 18.1282 9.0411 22.712 4.43853C22.9369 4.22536 23.2991 3.97451 23.5988 4.21285C23.9111 4.41344 23.9111 4.86495 23.6488 5.11579C22.6996 6.20681 21.6004 7.15994 20.6012 8.20085C16.7917 12.0384 12.9573 15.8384 9.1853 19.701C8.86051 20.0396 8.34847 20.3531 8.44836 20.8924C8.48581 21.3188 8.89803 21.5069 9.24774 21.6197C9.88473 21.3439 10.3219 20.7921 10.809 20.3155C12.2828 18.8607 13.6817 17.3433 15.1805 15.9136C18.353 12.7658 21.488 9.56781 24.648 6.38238C24.8728 6.1567 25.1351 5.86825 25.4849 5.90586C25.7346 5.90586 25.9095 6.1567 26.0095 6.35736C26.0843 6.67083 25.8221 6.92174 25.6347 7.12234L10.8964 21.9208C10.6466 22.2092 10.2469 22.5603 10.4343 22.9742C10.5467 23.5511 11.3835 23.7392 11.7707 23.3002C16.6793 18.3591 21.6004 13.4305 26.509 8.48929C26.7089 8.28863 26.9337 8.08797 27.221 8.05037C27.4957 8.07546 27.7706 8.28863 27.7456 8.58966C27.7706 8.90313 27.5207 9.12888 27.3334 9.32954C22.737 13.8945 18.1907 18.472 13.6568 23.062C13.3945 23.3504 13.0072 23.6013 12.9948 24.0276C12.9198 24.5293 13.4694 25.0058 13.9565 24.8428C14.3062 24.7299 14.5185 24.4289 14.7683 24.1907C19.2648 19.7136 23.6988 15.1737 28.2202 10.7216C28.6198 10.4081 29.2444 10.9097 29.0695 11.3738C28.9197 11.6622 28.6573 11.8503 28.4575 12.0886C25.2725 15.3242 22.0251 18.4971 18.8651 21.7577C18.2156 22.297 19.2023 23.388 19.8143 22.8613C22.9369 19.8891 25.872 16.7288 28.9821 13.744C29.4567 13.3803 30.1811 14.1704 29.7065 14.5843C27.1086 17.2931 24.3982 19.8891 21.8003 22.5979C21.3256 22.9742 21.6629 23.8019 22.2374 23.8395C22.5621 23.9022 22.8244 23.6639 23.0368 23.4633C24.9103 21.5821 26.7713 19.6885 28.6573 17.8324C28.8571 17.6568 29.0445 17.3558 29.3568 17.4311C29.744 17.4687 30.0687 17.9829 29.7565 18.3089C28.3576 19.9141 26.7339 21.3063 25.285 22.8613C25.0727 23.0996 24.7604 23.3253 24.7479 23.6765C24.7854 24.0653 25.0602 24.4289 25.4723 24.4666C26.0719 24.3286 26.4216 23.7642 26.9712 23.5386C27.2959 23.6138 27.5832 23.9273 27.5207 24.2659C27.0461 24.9682 26.3966 25.5325 25.7846 26.1094C23.1741 28.6678 19.5021 30.0724 15.855 29.9971C12.7699 29.9846 9.73487 28.8685 7.32425 26.9497C4.72638 24.9055 2.90277 21.9082 2.27824 18.6601C1.69123 15.7631 2.04095 12.6905 3.25248 9.99422C4.21427 7.88731 5.71301 6.05633 7.44919 4.55141C7.59899 4.38835 7.83629 4.31314 8.0362 4.42602C8.24851 4.58908 8.37339 4.83985 8.5108 5.06561C8.13609 5.46693 7.69895 5.84316 7.47411 6.35736C7.33678 6.95928 8.22352 7.52366 8.67319 7.03455C10.4218 5.44184 11.9456 3.62337 13.7317 2.08084V2.08084ZM39.1491 11.8251C40.6854 11.4991 42.3841 11.637 43.758 12.4647C45.0694 13.2548 46.0687 14.5967 46.3434 16.1142C46.5558 17.3181 46.5183 18.5973 46.0687 19.7511C45.4067 21.4316 43.8704 22.7358 42.1093 23.0995C40.6355 23.4005 39.0367 23.2751 37.7128 22.5352C36.3014 21.7576 35.2648 20.3531 34.9775 18.7604C34.7152 17.3306 34.8651 15.7756 35.5895 14.4964C36.3264 13.1671 37.6503 12.1638 39.1491 11.8251V11.8251ZM39.8611 13.9069C38.637 14.1578 37.6753 15.2238 37.413 16.4277C37.1507 17.6944 37.3381 19.1366 38.2499 20.1022C39.4614 21.4692 41.8345 21.4567 43.0586 20.1147C44.4574 18.5848 44.3575 15.8257 42.7088 14.5089C41.9219 13.8693 40.8353 13.6938 39.8611 13.9069V13.9069ZM47.7672 11.8758C48.5416 11.8632 49.3284 11.8632 50.1028 11.8632C50.2777 11.8256 50.3527 12.0137 50.4526 12.1141C52.0763 14.3464 53.7125 16.5787 55.3612 18.7984V11.8632H57.7718V23.0122C56.9974 23.0247 56.223 23.0122 55.4361 23.0122C53.6875 20.6168 51.9514 18.1965 50.1903 15.8136C50.1653 18.209 50.1903 20.6168 50.1778 23.0122H47.7672C47.7672 19.3126 47.7797 15.6004 47.7672 11.8758V11.8758ZM59.5829 11.8754H67.4891V13.9824H61.9935V16.3401H67.3643V18.4344H61.9935V20.9426H67.4891V23.0495H59.5829V11.8754ZM118.711 23.0246C120.147 19.2999 121.571 15.5878 123.008 11.8631H126.018C127.44 15.5858 128.868 19.3063 130.301 23.0246H127.554C127.329 22.3976 127.104 21.7706 126.867 21.1435H122.145C121.921 21.7706 121.671 22.3851 121.471 23.0121C120.546 23.0497 119.635 23.0246 118.711 23.0246ZM124.506 14.3337C123.944 15.9139 123.357 17.4815 122.807 19.0617C123.944 19.0492 125.081 19.0617 126.217 19.0617C125.63 17.4815 125.093 15.8888 124.506 14.3337V14.3337ZM132.612 11.8752C133.437 11.8752 134.273 11.8627 135.098 11.8877C136.784 14.2078 138.483 16.5153 140.194 18.8229C140.206 16.5028 140.194 14.1953 140.194 11.8752H142.604V23.0367H140.256C138.507 20.6288 136.771 18.2335 135.01 15.8381V23.0367H132.6C132.612 19.312 132.612 15.5873 132.612 11.8752ZM145.264 11.8754H153.133V13.9824H147.637V16.3275H153.045V18.4219H147.65V20.9301H153.146V23.037H145.277C145.264 19.3123 145.264 15.5877 145.264 11.8754ZM154.095 11.8754H163V13.9824H159.753V23.037H157.343V13.9824C156.256 13.9699 155.182 13.9824 154.095 13.9824V11.8754ZM110.542 11.9633H112.915V21.0305H117.637V23.1249H110.555C110.53 19.4002 110.542 15.688 110.542 11.9633Z" fill="#4DA1FF"/>
</g>
<defs>
<clipPath id="clip0_5877_28675">
<rect width="32" height="32" fill="white"/>
</clipPath>
</defs>
</svg>
