<svg width="26" height="26" viewBox="0 0 26 26" fill="none" xmlns="http://www.w3.org/2000/svg">
<g clip-path="url(#clip0_580_3589)">
<path d="M13.0018 4.33334C3.23616 4.33334 1.7334 7.21272 1.7334 9.80926C1.7334 10.6413 1.94974 11.218 2.18027 11.5984C2.41774 11.9876 2.87412 12.1741 3.31439 12.0589C4.41419 11.7711 6.78659 11.1507 7.88639 10.8638C8.24779 10.7693 8.52408 10.4872 8.61595 10.1258L9.07975 8.29259C9.18375 7.88265 9.52357 7.58031 9.94303 7.52918C10.6684 7.43991 11.8604 7.31928 13.0018 7.31928C14.1432 7.31928 15.3325 7.43991 16.0588 7.52918C16.4783 7.58118 16.8181 7.88265 16.9221 8.29259L17.3859 10.1258C17.4777 10.4881 17.7574 10.7702 18.1188 10.8638L22.6824 12.0572C23.1244 12.1724 23.5849 11.9851 23.8216 11.5951C24.0512 11.2163 24.2667 10.6387 24.2667 9.80926C24.2667 7.21272 22.7674 4.33334 13.0018 4.33334ZM12.9865 11.2548C12.757 11.2584 12.5382 11.3529 12.3783 11.5176C12.2183 11.6823 12.1303 11.9038 12.1334 12.1333V20.2922L10.5795 18.7383C10.4987 18.6553 10.4021 18.5893 10.2954 18.5442C10.1887 18.4991 10.0741 18.4759 9.95827 18.4759C9.78586 18.476 9.61738 18.5274 9.47437 18.6237C9.33136 18.72 9.22032 18.8568 9.15545 19.0165C9.09057 19.1763 9.07481 19.3517 9.11017 19.5205C9.14554 19.6892 9.23042 19.8436 9.35397 19.9638L12.3873 22.9971C12.5498 23.1596 12.7703 23.2509 13.0001 23.2509C13.2299 23.2509 13.4503 23.1596 13.6128 22.9971L16.6462 19.9638C16.7293 19.884 16.7957 19.7883 16.8415 19.6825C16.8872 19.5766 16.9114 19.4627 16.9126 19.3474C16.9138 19.2321 16.8919 19.1177 16.8483 19.011C16.8047 18.9042 16.7403 18.8072 16.6588 18.7257C16.5772 18.6442 16.4802 18.5797 16.3735 18.5361C16.2667 18.4925 16.1524 18.4707 16.0371 18.4719C15.9217 18.473 15.8078 18.4972 15.702 18.543C15.5961 18.5887 15.5005 18.6551 15.4206 18.7383L13.8667 20.2922V12.1333C13.8683 12.0174 13.8466 11.9023 13.8029 11.7949C13.7592 11.6875 13.6944 11.5899 13.6124 11.508C13.5303 11.4261 13.4326 11.3615 13.3251 11.318C13.2176 11.2745 13.1025 11.253 12.9865 11.2548Z" fill="#FF6060"/>
</g>
<defs>
<clipPath id="clip0_580_3589">
<rect width="26" height="26" fill="white"/>
</clipPath>
</defs>
</svg>
