<svg width="26" height="26" viewBox="0 0 26 26" fill="none" xmlns="http://www.w3.org/2000/svg">
<path d="M19.9249 2.59154C19.7525 2.59158 19.584 2.64304 19.441 2.73934C19.298 2.83564 19.187 2.9724 19.1221 3.13214C19.0572 3.29188 19.0414 3.46733 19.0768 3.63607C19.1122 3.80482 19.1971 3.95918 19.3206 4.07943L21.3078 6.06667H13.8667C13.7519 6.06504 13.6378 6.08626 13.5313 6.12909C13.4247 6.17191 13.3277 6.23549 13.2459 6.31613C13.1641 6.39677 13.0992 6.49286 13.0548 6.59881C13.0105 6.70477 12.9877 6.81848 12.9877 6.93333C12.9877 7.04819 13.0105 7.1619 13.0548 7.26786C13.0992 7.37381 13.1641 7.4699 13.2459 7.55054C13.3277 7.63118 13.4247 7.69476 13.5313 7.73758C13.6378 7.78041 13.7519 7.80163 13.8667 7.8H21.3078L19.3206 9.78724C19.2374 9.8671 19.171 9.96275 19.1253 10.0686C19.0795 10.1744 19.0554 10.2884 19.0542 10.4037C19.053 10.519 19.0749 10.6333 19.1184 10.7401C19.162 10.8468 19.2265 10.9438 19.308 11.0254C19.3895 11.1069 19.4865 11.1713 19.5933 11.2149C19.7 11.2585 19.8144 11.2804 19.9297 11.2792C20.045 11.278 20.1589 11.2538 20.2648 11.2081C20.3706 11.1623 20.4663 11.0959 20.5461 11.0128L24.0128 7.54609C24.1753 7.38356 24.2665 7.16315 24.2665 6.93333C24.2665 6.70352 24.1753 6.48311 24.0128 6.32057L20.5461 2.85391C20.4654 2.77089 20.3688 2.70489 20.2621 2.65983C20.1554 2.61477 20.0407 2.59154 19.9249 2.59154ZM6.70655 4.33672C6.59785 4.32771 6.48719 4.33672 6.37647 4.3638C5.9466 4.46867 5.38894 4.72333 4.80394 5.30833C2.97268 7.1396 2.00109 10.2267 8.88676 17.1133C15.7724 23.9998 18.8596 23.0282 20.6917 21.1961C21.2784 20.6094 21.5331 20.0509 21.6379 19.6202C21.7445 19.1791 21.554 18.725 21.1623 18.4962C20.1847 17.9242 18.0749 16.6875 17.0964 16.1146C16.7749 15.9265 16.3803 15.9299 16.0605 16.1197L14.4422 17.0845C14.08 17.3003 13.6274 17.2759 13.2946 17.0168C12.72 16.5679 11.7959 15.8118 10.9908 15.0076C10.1857 14.2024 9.42961 13.2784 8.98155 12.7038C8.72241 12.3718 8.69717 11.9184 8.91384 11.5561L9.87868 9.93789C10.0693 9.61809 10.0701 9.2201 9.88207 8.89857L7.50551 4.84115C7.33261 4.54735 7.03264 4.36374 6.70655 4.33672Z" fill="#2D3282"/>
<circle cx="8" cy="18" r="6" fill="#12B76A"/>
<path d="M5 18.5L7 20.5L11 16.5" stroke="white" stroke-linecap="round"/>
</svg>
