<svg width="26" height="26" viewBox="0 0 26 26" fill="none" xmlns="http://www.w3.org/2000/svg">
<g clip-path="url(#clip0_580_3598)">
<path d="M19.9165 3.45822C19.8842 3.45924 19.852 3.46206 19.82 3.46668H15.6441C15.5292 3.46506 15.4152 3.48627 15.3086 3.5291C15.2021 3.57192 15.1051 3.6355 15.0233 3.71614C14.9415 3.79678 14.8765 3.89287 14.8322 3.99883C14.7879 4.10478 14.7651 4.21849 14.7651 4.33335C14.7651 4.4482 14.7879 4.56191 14.8322 4.66787C14.8765 4.77382 14.9415 4.86991 15.0233 4.95055C15.1051 5.03119 15.2021 5.09477 15.3086 5.13759C15.4152 5.18042 15.5292 5.20164 15.6441 5.20001H17.8412L13.0001 10.0412L7.54616 4.58725C7.4663 4.50408 7.37065 4.43767 7.2648 4.39192C7.15896 4.34618 7.04505 4.32201 6.92975 4.32084C6.81445 4.31967 6.70007 4.34151 6.59332 4.3851C6.48656 4.42868 6.38958 4.49313 6.30805 4.57466C6.22651 4.65619 6.16206 4.75318 6.11848 4.85993C6.0749 4.96668 6.05305 5.08106 6.05422 5.19636C6.0554 5.31166 6.07956 5.42557 6.12531 5.53142C6.17106 5.63726 6.23746 5.73291 6.32064 5.81277L12.3873 11.8794C12.5498 12.0419 12.7703 12.1332 13.0001 12.1332C13.2299 12.1332 13.4503 12.0419 13.6128 11.8794L19.0667 6.42553V8.62267C19.0651 8.73751 19.0863 8.85153 19.1292 8.95811C19.172 9.06468 19.2356 9.16168 19.3162 9.24346C19.3968 9.32525 19.4929 9.3902 19.5989 9.43452C19.7048 9.47885 19.8185 9.50168 19.9334 9.50168C20.0483 9.50168 20.162 9.47885 20.2679 9.43452C20.3739 9.3902 20.47 9.32525 20.5506 9.24346C20.6312 9.16168 20.6948 9.06468 20.7376 8.95811C20.7805 8.85153 20.8017 8.73751 20.8001 8.62267V4.44337C20.8173 4.31859 20.8072 4.19155 20.7703 4.0711C20.7335 3.95064 20.6708 3.83966 20.5867 3.74588C20.5026 3.65211 20.3991 3.5778 20.2833 3.52811C20.1676 3.47843 20.0424 3.45458 19.9165 3.45822ZM13.0018 13.8667C3.23616 13.8667 1.7334 16.7461 1.7334 19.3426C1.7334 20.1746 1.94974 20.7513 2.18027 21.1318C2.41774 21.5209 2.87412 21.7075 3.31439 21.5922C4.41419 21.3045 6.78659 20.684 7.88639 20.3971C8.24779 20.3027 8.52408 20.0205 8.61595 19.6591L9.07975 17.8259C9.18375 17.416 9.52357 17.1136 9.94303 17.0625C10.6684 16.9732 11.8604 16.8526 13.0018 16.8526C14.1432 16.8526 15.3325 16.9732 16.0588 17.0625C16.4783 17.1145 16.8181 17.416 16.9221 17.8259L17.3859 19.6591C17.4777 20.0214 17.7574 20.3035 18.1188 20.3971L22.6824 21.5905C23.1244 21.7058 23.5849 21.5184 23.8216 21.1284C24.0512 20.7497 24.2667 20.172 24.2667 19.3426C24.2667 16.7461 22.7674 13.8667 13.0018 13.8667Z" fill="#FEC84B"/>
</g>
<defs>
<clipPath id="clip0_580_3598">
<rect width="26" height="26" fill="white"/>
</clipPath>
</defs>
</svg>
