<svg width="26" height="26" viewBox="0 0 26 26" fill="none" xmlns="http://www.w3.org/2000/svg">
<g clip-path="url(#clip0_4792_24462)">
<path opacity="0.2" d="M22.7503 6.93335L21.992 7.36669C20.042 4.11669 16.5753 2.16669 12.7837 2.16669C7.69201 2.16669 3.35868 5.63335 2.16701 10.6167C2.05868 11.1584 2.38368 11.8084 3.03368 11.9167C3.14201 11.9167 3.14201 11.9167 3.25035 11.9167C3.79201 11.9167 4.22535 11.5917 4.33368 11.05C5.20035 7.15002 8.66701 4.33335 12.6753 4.33335C15.7087 4.33335 18.5253 5.95835 20.042 8.55835L19.1753 9.10002C18.6337 9.42502 18.742 10.2917 19.392 10.4L21.667 10.9417C22.317 11.1584 22.967 10.725 23.1837 10.075L23.8337 7.80002C23.942 7.15002 23.292 6.60835 22.7503 6.93335Z" fill="black"/>
<path opacity="0.2" d="M3.24957 19.0666L4.00791 18.6333C5.95791 21.8833 9.42457 23.8333 13.2162 23.8333C18.3079 23.8333 22.6412 20.3666 23.7246 15.3833C23.8329 14.8416 23.5079 14.1916 22.8579 14.0833C22.7496 14.0833 22.7496 14.0833 22.6412 14.0833C22.0996 14.0833 21.6662 14.4083 21.5579 14.95C20.6912 18.9583 17.2246 21.6666 13.1079 21.6666C10.0746 21.6666 7.25791 20.0416 5.74124 17.4416L6.60791 16.9C7.14957 16.575 7.04124 15.7083 6.39124 15.6L4.11624 15.0583C3.46624 14.8416 2.81624 15.275 2.59957 15.925L2.16624 18.2C2.05791 18.85 2.70791 19.3916 3.24957 19.0666Z" fill="black"/>
<path d="M9.25731 7.35212C9.32544 7.33545 9.39354 7.32991 9.46043 7.33545C9.6611 7.35208 9.84569 7.46506 9.95208 7.64586L11.4145 10.1427C11.5303 10.3405 11.5298 10.5854 11.4125 10.7822L10.8187 11.778C10.6854 12.001 10.7009 12.28 10.8604 12.4843C11.1361 12.8379 11.6014 13.4065 12.0968 13.9019C12.5923 14.3968 13.1609 14.8621 13.5145 15.1384C13.7193 15.2978 13.9978 15.3128 14.2207 15.18L15.2165 14.5863C15.4133 14.4695 15.6561 14.4674 15.854 14.5832C16.4561 14.9357 17.7544 15.6968 18.356 16.0487C18.5971 16.1895 18.7143 16.4689 18.6487 16.7404C18.5842 17.0054 18.4275 17.3491 18.0664 17.7102C16.939 18.8376 15.0393 19.4355 10.8021 15.1977C6.56485 10.96 7.16273 9.06025 8.28963 7.93335C8.64962 7.57336 8.99279 7.41665 9.25731 7.35212Z" fill="#2D3282"/>
</g>
<defs>
<clipPath id="clip0_4792_24462">
<rect width="26" height="26" fill="white"/>
</clipPath>
</defs>
</svg>
