<svg width="26" height="26" viewBox="0 0 26 26" fill="none" xmlns="http://www.w3.org/2000/svg">
<g clip-path="url(#clip0_580_3598)">
<g clip-path="url(#clip1_580_3598)">
<path d="M13.0018 4.86668C3.23616 4.86668 1.7334 7.74606 1.7334 10.3426C1.7334 11.1746 1.94974 11.7513 2.18027 12.1318C2.41774 12.5209 2.87412 12.7075 3.31439 12.5922C4.41419 12.3045 6.78659 11.684 7.88639 11.3972C8.24779 11.3027 8.52408 11.0205 8.61595 10.6591L9.07975 8.82593C9.18375 8.41599 9.52357 8.11365 9.94303 8.06251C10.6684 7.97325 11.8604 7.85262 13.0018 7.85262C14.1432 7.85262 15.3325 7.97325 16.0588 8.06251C16.4783 8.11451 16.8181 8.41599 16.9221 8.82593L17.3859 10.6591C17.4777 11.0214 17.7574 11.3036 18.1188 11.3972L22.6824 12.5905C23.1244 12.7058 23.585 12.5184 23.8216 12.1284C24.0512 11.7497 24.2667 11.172 24.2667 10.3426C24.2667 7.74606 22.7674 4.86668 13.0018 4.86668Z" fill="#FF6060"/>
<rect x="8" y="18" width="4" height="2" rx="1" fill="#FF6060"/>
<rect x="14" y="18" width="4" height="2" rx="1" fill="#FF6060"/>
</g>
</g>
<defs>
<clipPath id="clip0_580_3598">
<rect width="26" height="26" fill="white"/>
</clipPath>
<clipPath id="clip1_580_3598">
<rect width="26" height="26" fill="white"/>
</clipPath>
</defs>
</svg>
