<svg width="26" height="26" viewBox="0 0 26 26" fill="none" xmlns="http://www.w3.org/2000/svg">
<g clip-path="url(#clip0_2848_16739)">
<path d="M7.37647 4.3638C7.48719 4.33672 7.59785 4.32771 7.70655 4.33672C8.03264 4.36374 8.33261 4.54735 8.50551 4.84115L10.8821 8.89857C11.0701 9.2201 11.0693 9.61809 10.8787 9.93789L9.91384 11.5561C9.69717 11.9184 9.72241 12.3718 9.98155 12.7038C10.4296 13.2784 11.1857 14.2024 11.9908 15.0076C12.7959 15.8118 13.72 16.5679 14.2946 17.0168C14.6274 17.2759 15.08 17.3003 15.4422 17.0845L17.0605 16.1197C17.3803 15.9299 17.7749 15.9265 18.0964 16.1146C19.0749 16.6875 21.1847 17.9242 22.1623 18.4962C22.554 18.725 22.7445 19.1791 22.6379 19.6202C22.5331 20.0509 22.2784 20.6094 21.6917 21.1961C19.8596 23.0282 16.7724 23.9998 9.88675 17.1133C3.00109 10.2267 3.97268 7.1396 5.80394 5.30833C6.38894 4.72333 6.9466 4.46867 7.37647 4.3638Z" fill="#9DA4AE"/>
<circle cx="18" cy="9" r="6" fill="#FF6060"/>
<path d="M15.6594 5.99348C15.5268 5.99365 15.3973 6.03333 15.2874 6.10745C15.1775 6.18158 15.0922 6.28678 15.0424 6.40963C14.9925 6.53248 14.9805 6.66739 15.0077 6.79713C15.0349 6.92687 15.1002 7.04556 15.1952 7.13802L17.0572 8.99999L15.1952 10.862C15.1312 10.9234 15.0801 10.997 15.045 11.0784C15.0098 11.1598 14.9912 11.2474 14.9903 11.3361C14.9894 11.4248 15.0062 11.5128 15.0397 11.5949C15.0732 11.677 15.1228 11.7517 15.1855 11.8144C15.2482 11.8771 15.3228 11.9267 15.405 11.9602C15.4871 11.9937 15.5751 12.0105 15.6638 12.0096C15.7524 12.0087 15.8401 11.9901 15.9215 11.9549C16.0029 11.9197 16.0765 11.8687 16.1379 11.8047L17.9999 9.9427L19.8619 11.8047C19.9233 11.8687 19.9969 11.9197 20.0783 11.9549C20.1597 11.9901 20.2473 12.0087 20.336 12.0096C20.4247 12.0105 20.5127 11.9937 20.5948 11.9602C20.677 11.9267 20.7516 11.8771 20.8143 11.8144C20.877 11.7517 20.9266 11.6771 20.9601 11.5949C20.9936 11.5128 21.0104 11.4248 21.0095 11.3361C21.0086 11.2474 20.99 11.1598 20.9548 11.0784C20.9196 10.997 20.8686 10.9234 20.8046 10.862L18.9426 8.99999L20.8046 7.13802C20.9009 7.04437 20.9667 6.92381 20.9934 6.79213C21.02 6.66045 21.0062 6.5238 20.9539 6.40007C20.9015 6.27635 20.813 6.17133 20.6999 6.09878C20.5868 6.02623 20.4545 5.98952 20.3202 5.99348C20.147 5.99865 19.9826 6.07103 19.8619 6.19531L17.9999 8.05729L16.1379 6.19531C16.0757 6.13137 16.0013 6.08056 15.9191 6.04589C15.8369 6.01122 15.7486 5.9934 15.6594 5.99348Z" fill="white"/>
</g>
<defs>
<clipPath id="clip0_2848_16739">
<rect width="26" height="26" fill="white"/>
</clipPath>
</defs>
</svg>
