<svg width="26" height="26" viewBox="0 0 26 26" fill="none" xmlns="http://www.w3.org/2000/svg">
<g clip-path="url(#clip0_1634_14211)">
<path d="M19.493 0.458168C19.465 0.459053 19.4371 0.461502 19.4093 0.465504H15.79C15.6905 0.464096 15.5916 0.482485 15.4993 0.519603C15.4069 0.55672 15.3228 0.611825 15.252 0.681716C15.1811 0.751606 15.1248 0.834889 15.0864 0.926723C15.0479 1.01856 15.0282 1.11711 15.0282 1.21666C15.0282 1.3162 15.0479 1.41476 15.0864 1.50659C15.1248 1.59843 15.1811 1.68171 15.252 1.7516C15.3228 1.82149 15.4069 1.8766 15.4993 1.91371C15.5916 1.95083 15.6905 1.96922 15.79 1.96781H17.6943L13.4984 6.16371L8.77141 1.43672C8.7022 1.36463 8.61929 1.30708 8.52755 1.26743C8.43582 1.22778 8.33709 1.20683 8.23716 1.20582C8.13722 1.2048 8.03809 1.22373 7.94557 1.26151C7.85304 1.29928 7.76899 1.35514 7.69832 1.42581C7.62765 1.49648 7.57179 1.58053 7.53402 1.67306C7.49624 1.76558 7.47731 1.86471 7.47833 1.96465C7.47934 2.06458 7.50029 2.16331 7.53994 2.25504C7.57959 2.34678 7.63714 2.42969 7.70923 2.4989L12.9673 7.75698C13.1082 7.89779 13.2992 7.9769 13.4984 7.9769C13.6976 7.9769 13.8886 7.89779 14.0295 7.75698L18.7565 3.02999V4.93428C18.7551 5.03382 18.7735 5.13264 18.8106 5.22501C18.8477 5.31738 18.9028 5.40145 18.9727 5.47233C19.0426 5.54322 19.1259 5.59951 19.2177 5.63793C19.3095 5.67635 19.4081 5.69613 19.5076 5.69613C19.6072 5.69613 19.7057 5.67635 19.7976 5.63793C19.8894 5.59951 19.9727 5.54322 20.0426 5.47233C20.1125 5.40145 20.1676 5.31738 20.2047 5.22501C20.2418 5.13264 20.2602 5.03382 20.2588 4.93428V1.31202C20.2737 1.20387 20.2649 1.09376 20.233 0.989361C20.2011 0.884958 20.1468 0.78877 20.0739 0.707495C20.001 0.626219 19.9113 0.56181 19.8109 0.51875C19.7106 0.475691 19.6021 0.455017 19.493 0.458168ZM13.4999 9.47935C5.03586 9.47935 3.7334 11.975 3.7334 14.2254C3.7334 14.9465 3.92091 15.4464 4.12071 15.7761C4.32653 16.1134 4.72208 16.2751 5.10367 16.1752C6.05688 15.9258 8.11308 15.388 9.0663 15.1394C9.37953 15.0575 9.61899 14.813 9.69862 14.4998L10.1006 12.9109C10.1907 12.5556 10.4853 12.2935 10.8488 12.2492C11.4775 12.1719 12.5106 12.0673 13.4999 12.0673C14.4891 12.0673 15.52 12.1719 16.1494 12.2492C16.513 12.2943 16.8075 12.5556 16.8977 12.9109L17.2996 14.4998C17.3793 14.8137 17.6217 15.0583 17.9349 15.1394L21.8902 16.1737C22.2733 16.2736 22.6725 16.1112 22.8776 15.7732C23.0766 15.4449 23.2634 14.9443 23.2634 14.2254C23.2634 11.975 21.9639 9.47935 13.4999 9.47935Z" fill="#FEC84B"/>
<circle cx="13" cy="19.6211" r="6" fill="#12B76A"/>
<path d="M10 20.1212L12 22.1212L16 18.1212" stroke="white" stroke-linecap="round"/>
</g>
<defs>
<clipPath id="clip0_1634_14211">
<rect width="26" height="26" fill="white"/>
</clipPath>
</defs>
</svg>
