<svg width="26" height="26" viewBox="0 0 26 26" fill="none" xmlns="http://www.w3.org/2000/svg">
<g clip-path="url(#clip0_2848_16695)">
<path d="M13 3C7.4775 3 3 7.4775 3 13C3 18.5225 7.4775 23 13 23C18.5225 23 23 18.5225 23 13C23 7.4775 18.5225 3 13 3ZM13 19.25C12.31 19.25 11.75 18.69 11.75 18C11.75 17.31 12.31 16.75 13 16.75C13.69 16.75 14.25 17.31 14.25 18C14.25 18.69 13.69 19.25 13 19.25ZM14.7233 13.4167C14.1717 13.9258 13.8333 14.26 13.8333 14.6667H12.1667C12.1667 13.5092 12.9575 12.7792 13.5925 12.1917C14.2583 11.5767 14.6667 11.1658 14.6667 10.5C14.6667 9.58083 13.9192 8.83333 13 8.83333C12.0808 8.83333 11.3333 9.58083 11.3333 10.5H9.66667C9.66667 8.66167 11.1617 7.16667 13 7.16667C14.8383 7.16667 16.3333 8.66167 16.3333 10.5C16.3333 11.9292 15.4408 12.7533 14.7233 13.4167Z" fill="#FF6060"/>
</g>
<defs>
<clipPath id="clip0_2848_16695">
<rect width="26" height="26" fill="white"/>
</clipPath>
</defs>
</svg>
