<svg width="26" height="26" viewBox="0 0 26 26" fill="none" xmlns="http://www.w3.org/2000/svg">
<g clip-path="url(#clip0_4771_29374)">
<path d="M7.37647 4.3638C7.48719 4.33672 7.59785 4.32771 7.70655 4.33672C8.03264 4.36374 8.33261 4.54735 8.50551 4.84115L10.8821 8.89857C11.0701 9.2201 11.0693 9.61809 10.8787 9.93789L9.91384 11.5561C9.69717 11.9184 9.72241 12.3718 9.98155 12.7038C10.4296 13.2784 11.1857 14.2024 11.9908 15.0076C12.7959 15.8118 13.72 16.5679 14.2946 17.0168C14.6274 17.2759 15.08 17.3003 15.4422 17.0845L17.0605 16.1197C17.3803 15.9299 17.7749 15.9265 18.0964 16.1146C19.0749 16.6875 21.1847 17.9242 22.1623 18.4962C22.554 18.725 22.7445 19.1791 22.6379 19.6202C22.5331 20.0509 22.2784 20.6094 21.6917 21.1961C19.8596 23.0282 16.7724 23.9998 9.88675 17.1133C3.00109 10.2267 3.97268 7.1396 5.80394 5.30833C6.38894 4.72333 6.9466 4.46867 7.37647 4.3638Z" fill="#FEC84B"/>
<rect x="14" y="9" width="4" height="2" rx="1" fill="#FEC84B"/>
<rect x="20" y="9" width="4" height="2" rx="1" fill="#FEC84B"/>
</g>
<defs>
<clipPath id="clip0_4771_29374">
<rect width="26" height="26" fill="white"/>
</clipPath>
</defs>
</svg>
