<svg width="26" height="26" viewBox="0 0 26 26" fill="none" xmlns="http://www.w3.org/2000/svg">
<path d="M5.9052 3.3568C5.99037 3.33597 6.07549 3.32904 6.15911 3.33597C6.40995 3.35675 6.64069 3.49799 6.77369 3.72399L8.60182 6.84509C8.74648 7.09242 8.74588 7.39856 8.59921 7.64456L7.85702 8.88936C7.69036 9.16802 7.70977 9.51684 7.90911 9.77217C8.25377 10.2142 8.83535 10.925 9.45468 11.5443C10.074 12.163 10.7848 12.7445 11.2268 13.0899C11.4828 13.2892 11.831 13.308 12.1096 13.142L13.3544 12.3998C13.6004 12.2538 13.904 12.2512 14.1513 12.3959C14.904 12.8365 16.5269 13.7879 17.2789 14.2279C17.5802 14.4039 17.7268 14.7531 17.6448 15.0925C17.5641 15.4238 17.3683 15.8534 16.9169 16.3047C15.5076 17.7141 13.1329 18.4614 7.83619 13.1641C2.53952 7.86676 3.2869 5.49203 4.69557 4.08337C5.14557 3.63337 5.57453 3.43747 5.9052 3.3568Z" fill="#9DA4AE"/>
<mask id="mask0_5892_28682" style="mask-type:alpha" maskUnits="userSpaceOnUse" x="11" y="1" width="10" height="10">
<circle cx="16" cy="6" r="5" fill="white"/>
</mask>
<g mask="url(#mask0_5892_28682)">
<circle cx="16" cy="6" r="5" fill="#FF6060"/>
<path d="M17.1752 0.300049L14 4.5L17.1752 8L14.5752 11.15" stroke="white" stroke-width="1.4"/>
</g>
<rect x="2" y="20" width="4" height="4" rx="1" fill="#9DA4AE"/>
<rect x="8" y="20" width="4" height="4" rx="1" fill="#9DA4AE"/>
<rect x="14" y="20" width="4" height="4" rx="1" fill="#9DA4AE"/>
<rect x="20" y="20" width="4" height="4" rx="1" fill="#9DA4AE"/>
</svg>
