<svg width="26" height="26" viewBox="0 0 26 26" fill="none" xmlns="http://www.w3.org/2000/svg">
<path d="M19.0587 3.02884C18.8863 3.02888 18.7178 3.08035 18.5748 3.17664C18.4318 3.27294 18.3208 3.4097 18.2559 3.56944C18.191 3.72918 18.1752 3.90463 18.2106 4.07338C18.246 4.24212 18.3308 4.39648 18.4544 4.51673L20.4416 6.50397H13.0005C12.8856 6.50235 12.7716 6.52356 12.6651 6.56639C12.5585 6.60921 12.4615 6.67279 12.3797 6.75343C12.2979 6.83407 12.233 6.93016 12.1886 7.03612C12.1443 7.14207 12.1215 7.25578 12.1215 7.37064C12.1215 7.48549 12.1443 7.5992 12.1886 7.70516C12.233 7.81111 12.2979 7.9072 12.3797 7.98784C12.4615 8.06848 12.5585 8.13206 12.6651 8.17488C12.7716 8.21771 12.8856 8.23893 13.0005 8.2373H20.4416L18.4544 10.2245C18.3712 10.3044 18.3048 10.4001 18.2591 10.5059C18.2133 10.6117 18.1891 10.7257 18.188 10.841C18.1868 10.9563 18.2086 11.0706 18.2522 11.1774C18.2958 11.2841 18.3603 11.3811 18.4418 11.4627C18.5233 11.5442 18.6203 11.6086 18.7271 11.6522C18.8338 11.6958 18.9482 11.7177 19.0635 11.7165C19.1788 11.7153 19.2927 11.6911 19.3986 11.6454C19.5044 11.5996 19.6001 11.5332 19.6799 11.4501L23.1466 7.9834C23.3091 7.82086 23.4003 7.60045 23.4003 7.37064C23.4003 7.14082 23.3091 6.92041 23.1466 6.75788L19.6799 3.29121C19.5992 3.20819 19.5026 3.14219 19.3959 3.09713C19.2892 3.05207 19.1745 3.02885 19.0587 3.02884ZM5.84034 4.77402C5.73164 4.76502 5.62097 4.77402 5.51026 4.8011C5.08039 4.90597 4.52273 5.16064 3.93773 5.74564C2.10647 7.5769 1.13488 10.6641 8.02054 17.5506C14.9062 24.4371 17.9934 23.4655 19.8255 21.6334C20.4122 21.0467 20.6668 20.4882 20.7717 20.0575C20.8783 19.6164 20.6878 19.1623 20.2961 18.9335C19.3185 18.3615 17.2086 17.1248 16.2302 16.5519C15.9086 16.3638 15.514 16.3672 15.1942 16.557L13.576 17.5218C13.2137 17.7376 12.7612 17.7132 12.4284 17.4541C11.8538 17.0052 10.9297 16.2491 10.1246 15.4449C9.31945 14.6397 8.5634 13.7157 8.11534 13.1411C7.8562 12.8091 7.83096 12.3557 8.04763 11.9934L9.01247 10.3752C9.20314 10.0554 9.20392 9.6574 9.01586 9.33587L6.63929 5.27845C6.46639 4.98465 6.16643 4.80104 5.84034 4.77402Z" fill="#2D3282"/>
</svg>
