<svg width="26" height="26" viewBox="0 0 26 26" fill="none" xmlns="http://www.w3.org/2000/svg">
<g clip-path="url(#clip0_5899_28702)">
<path d="M18.99 0.458199C18.962 0.459083 18.9341 0.461532 18.9064 0.465534H15.2871C15.1875 0.464126 15.0887 0.482516 14.9963 0.519633C14.904 0.55675 14.8199 0.611855 14.749 0.681746C14.6781 0.751637 14.6218 0.834919 14.5834 0.926753C14.545 1.01859 14.5252 1.11714 14.5252 1.21669C14.5252 1.31623 14.545 1.41479 14.5834 1.50662C14.6218 1.59846 14.6781 1.68174 14.749 1.75163C14.8199 1.82152 14.904 1.87663 14.9963 1.91374C15.0887 1.95086 15.1875 1.96925 15.2871 1.96784H17.1914L12.9955 6.16374L8.26848 1.43675C8.19927 1.36466 8.11636 1.30711 8.02463 1.26746C7.93289 1.22781 7.83416 1.20686 7.73423 1.20585C7.63429 1.20483 7.53516 1.22376 7.44264 1.26154C7.35011 1.29931 7.26606 1.35517 7.19539 1.42584C7.12472 1.49651 7.06886 1.58056 7.03109 1.67309C6.99331 1.76561 6.97438 1.86474 6.9754 1.96468C6.97641 2.06461 6.99736 2.16334 7.03701 2.25507C7.07666 2.34681 7.13421 2.42972 7.2063 2.49893L12.4644 7.75701C12.6053 7.89782 12.7963 7.97693 12.9955 7.97693C13.1947 7.97693 13.3857 7.89782 13.5266 7.75701L18.2535 3.03002V4.93431C18.2521 5.03385 18.2705 5.13267 18.3076 5.22504C18.3448 5.31741 18.3999 5.40148 18.4698 5.47237C18.5396 5.54325 18.6229 5.59954 18.7148 5.63796C18.8066 5.67638 18.9052 5.69616 19.0047 5.69616C19.1042 5.69616 19.2028 5.67638 19.2946 5.63796C19.3865 5.59954 19.4698 5.54325 19.5396 5.47237C19.6095 5.40148 19.6646 5.31741 19.7018 5.22504C19.7389 5.13267 19.7573 5.03385 19.7559 4.93431V1.31205C19.7708 1.2039 19.762 1.09379 19.7301 0.989391C19.6982 0.884989 19.6439 0.788801 19.571 0.707525C19.4981 0.62625 19.4083 0.56184 19.308 0.518781C19.2077 0.475722 19.0992 0.455048 18.99 0.458199ZM12.9969 9.47938C4.53293 9.47938 3.23047 11.975 3.23047 14.2254C3.23047 14.9465 3.41798 15.4464 3.61778 15.7762C3.8236 16.1134 4.21915 16.2751 4.60074 16.1752C5.55395 15.9258 7.61015 15.3881 8.56337 15.1394C8.8766 15.0576 9.11606 14.813 9.19569 14.4998L9.59767 12.9109C9.68781 12.5556 9.98233 12.2936 10.3459 12.2493C10.9746 12.1719 12.0077 12.0673 12.9969 12.0673C13.9862 12.0673 15.017 12.1719 15.6465 12.2493C16.0101 12.2943 16.3046 12.5556 16.3947 12.9109L16.7967 14.4998C16.8763 14.8138 17.1187 15.0583 17.432 15.1394L21.3873 16.1737C21.7704 16.2736 22.1696 16.1112 22.3746 15.7732C22.5737 15.445 22.7605 14.9443 22.7605 14.2254C22.7605 11.975 21.4609 9.47938 12.9969 9.47938Z" fill="#FEC84B"/>
<circle cx="13" cy="19.6211" r="4" stroke="#9DA4AE" stroke-width="2"/>
</g>
<defs>
<clipPath id="clip0_5899_28702">
<rect width="26" height="26" fill="white"/>
</clipPath>
</defs>
</svg>
