<svg width="26" height="26" viewBox="0 0 26 26" fill="none" xmlns="http://www.w3.org/2000/svg">
<g clip-path="url(#clip0_580_3576)">
<path d="M7.37647 4.3638C7.48719 4.33672 7.59785 4.32771 7.70655 4.33672C8.03264 4.36374 8.33261 4.54735 8.50551 4.84115L10.8821 8.89857C11.0701 9.2201 11.0693 9.61809 10.8787 9.93789L9.91384 11.5561C9.69717 11.9184 9.72241 12.3718 9.98155 12.7038C10.4296 13.2784 11.1857 14.2024 11.9908 15.0076C12.7959 15.8118 13.72 16.5679 14.2946 17.0168C14.6274 17.2759 15.08 17.3003 15.4422 17.0845L17.0605 16.1197C17.3803 15.9299 17.7749 15.9265 18.0964 16.1146C19.0749 16.6875 21.1847 17.9242 22.1623 18.4962C22.554 18.725 22.7445 19.1791 22.6379 19.6202C22.5331 20.0509 22.2784 20.6094 21.6917 21.1961C19.8596 23.0282 16.7724 23.9998 9.88675 17.1133C3.00109 10.2267 3.97268 7.1396 5.80394 5.30833C6.38894 4.72333 6.9466 4.46867 7.37647 4.3638Z" fill="#2D3282"/>
<circle cx="9" cy="18" r="6" fill="#FF6060"/>
<rect x="14" y="9" width="4" height="2" rx="1" fill="#2D3282"/>
<rect x="20" y="9" width="4" height="2" rx="1" fill="#2D3282"/>
<path d="M6.6594 14.9935C6.52683 14.9936 6.39732 15.0333 6.28742 15.1075C6.17751 15.1816 6.0922 15.2868 6.04237 15.4096C5.99255 15.5325 5.98048 15.6674 6.0077 15.7971C6.03492 15.9269 6.1002 16.0456 6.19521 16.138L8.05718 18L6.19521 19.862C6.13122 19.9234 6.08014 19.997 6.04495 20.0784C6.00976 20.1598 5.99117 20.2474 5.99027 20.3361C5.98937 20.4248 6.00617 20.5128 6.0397 20.5949C6.07322 20.677 6.1228 20.7517 6.18552 20.8144C6.24824 20.8771 6.32284 20.9267 6.40496 20.9602C6.48707 20.9937 6.57506 21.0105 6.66375 21.0096C6.75244 21.0087 6.84007 20.9901 6.92149 20.9549C7.0029 20.9197 7.07648 20.8687 7.13791 20.8047L8.99989 18.9427L10.8619 20.8047C10.9233 20.8687 10.9969 20.9197 11.0783 20.9549C11.1597 20.9901 11.2473 21.0087 11.336 21.0096C11.4247 21.0105 11.5127 20.9937 11.5948 20.9602C11.677 20.9267 11.7516 20.8771 11.8143 20.8144C11.877 20.7517 11.9266 20.6771 11.9601 20.5949C11.9936 20.5128 12.0104 20.4248 12.0095 20.3361C12.0086 20.2474 11.99 20.1598 11.9548 20.0784C11.9196 19.997 11.8686 19.9234 11.8046 19.862L9.9426 18L11.8046 16.138C11.9009 16.0444 11.9667 15.9238 11.9934 15.7921C12.02 15.6605 12.0062 15.5238 11.9539 15.4001C11.9015 15.2764 11.813 15.1713 11.6999 15.0988C11.5868 15.0262 11.4545 14.9895 11.3202 14.9935C11.147 14.9986 10.9826 15.071 10.8619 15.1953L8.99989 17.0573L7.13791 15.1953C7.07571 15.1314 7.00131 15.0806 6.91911 15.0459C6.83692 15.0112 6.7486 14.9934 6.6594 14.9935Z" fill="white"/>
</g>
<defs>
<clipPath id="clip0_580_3576">
<rect width="26" height="26" fill="white"/>
</clipPath>
</defs>
</svg>
