<svg width="498" height="188" viewBox="0 0 498 188" fill="none" xmlns="http://www.w3.org/2000/svg">
<path d="M0.511364 25.5227V20.4375H1.44886C1.77083 20.1439 2.07386 19.7296 2.35795 19.1946C2.64678 18.6548 2.89062 17.9351 3.08949 17.0355C3.29309 16.1312 3.42803 14.983 3.49432 13.5909L3.80682 7.45455H12.4432V20.4375H14.1193V25.4943H12.4432V22H2.1875V25.5227H0.511364ZM3.55114 20.4375H10.767V9.01705H5.39773L5.17045 13.5909C5.11364 14.6515 5.0142 15.6127 4.87216 16.4744C4.73011 17.3314 4.54782 18.0914 4.32528 18.7543C4.10275 19.4124 3.8447 19.9735 3.55114 20.4375ZM15.8718 19.2159H17.6616C17.6995 19.7083 17.922 20.0824 18.3292 20.3381C18.7411 20.5938 19.2762 20.7216 19.9343 20.7216C20.6067 20.7216 21.1819 20.5843 21.6602 20.3097C22.1384 20.0303 22.3775 19.5805 22.3775 18.9602C22.3775 18.5956 22.2875 18.2784 22.1076 18.0085C21.9277 17.7339 21.6744 17.5208 21.3477 17.3693C21.021 17.2178 20.6351 17.142 20.19 17.142H18.315V15.6364H20.19C20.8576 15.6364 21.35 15.4848 21.6673 15.1818C21.9892 14.8788 22.1502 14.5 22.1502 14.0455C22.1502 13.5578 21.9774 13.1671 21.6317 12.8736C21.2861 12.5753 20.796 12.4261 20.1616 12.4261C19.5224 12.4261 18.9897 12.5705 18.5636 12.8594C18.1374 13.1435 17.9125 13.5104 17.8888 13.9602H16.1275C16.1464 13.3731 16.3263 12.8546 16.6673 12.4048C17.0082 11.9503 17.4722 11.5952 18.0593 11.3395C18.6464 11.0791 19.3188 10.9489 20.0763 10.9489C20.8434 10.9489 21.5086 11.0838 22.0721 11.3537C22.6403 11.6188 23.0782 11.9811 23.386 12.4403C23.6985 12.8949 23.8548 13.411 23.8548 13.9886C23.8548 14.6042 23.6819 15.1013 23.3363 15.4801C22.9906 15.8589 22.5574 16.1288 22.0366 16.2898V16.4034C22.4485 16.4318 22.806 16.5644 23.109 16.8011C23.4168 17.0331 23.6559 17.3385 23.8263 17.7173C23.9968 18.0914 24.082 18.5057 24.082 18.9602C24.082 19.6231 23.9045 20.2008 23.5494 20.6932C23.1942 21.1809 22.7066 21.5597 22.0863 21.8295C21.466 22.0947 20.7582 22.2273 19.9627 22.2273C19.1909 22.2273 18.4996 22.1018 17.8888 21.8509C17.2781 21.5952 16.7927 21.2424 16.4329 20.7926C16.0778 20.3381 15.8907 19.8125 15.8718 19.2159ZM26.4364 22V11.0909H30.8967C32.0709 11.0909 33.0037 11.3561 33.695 11.8864C34.3862 12.4167 34.7319 13.1174 34.7319 13.9886C34.7319 14.6515 34.5354 15.1652 34.1424 15.5298C33.7494 15.8897 33.2451 16.1335 32.6296 16.2614C33.0321 16.3182 33.4227 16.4602 33.8015 16.6875C34.185 16.9148 34.5022 17.2273 34.7532 17.625C35.0041 18.018 35.1296 18.5009 35.1296 19.0739C35.1296 19.6326 34.9876 20.1321 34.7035 20.5724C34.4194 21.0128 34.0122 21.3608 33.4819 21.6165C32.9516 21.8722 32.3171 22 31.5785 22H26.4364ZM28.0273 20.4659H31.5785C32.1561 20.4659 32.6083 20.3286 32.935 20.054C33.2617 19.7794 33.4251 19.4053 33.4251 18.9318C33.4251 18.3684 33.2617 17.9257 32.935 17.6037C32.6083 17.277 32.1561 17.1136 31.5785 17.1136H28.0273V20.4659ZM28.0273 15.6648H30.8967C31.3465 15.6648 31.7324 15.6032 32.0543 15.4801C32.3763 15.3523 32.6225 15.1723 32.793 14.9403C32.9682 14.7036 33.0558 14.4242 33.0558 14.1023C33.0558 13.643 32.864 13.2831 32.4805 13.0227C32.0969 12.7576 31.569 12.625 30.8967 12.625H28.0273V15.6648ZM37.6669 22V11.0909H39.343V22H37.6669ZM38.5192 9.27273C38.1925 9.27273 37.9107 9.16146 37.674 8.93892C37.442 8.71638 37.326 8.44886 37.326 8.13636C37.326 7.82386 37.442 7.55634 37.674 7.33381C37.9107 7.11127 38.1925 7 38.5192 7C38.8459 7 39.1252 7.11127 39.3572 7.33381C39.594 7.55634 39.7124 7.82386 39.7124 8.13636C39.7124 8.44886 39.594 8.71638 39.3572 8.93892C39.1252 9.16146 38.8459 9.27273 38.5192 9.27273ZM49.7141 15.7784V17.3409H43.6914V15.7784H49.7141ZM44.0891 11.0909V22H42.413V11.0909H44.0891ZM50.9925 11.0909V22H49.3164V11.0909H50.9925ZM54.0536 22V11.0909H55.7298V15.8352H56.8377L60.7582 11.0909H62.9173L58.5138 16.3466L62.9741 22H60.815L57.2354 17.3977H55.7298V22H54.0536ZM66.4719 19.5284L71.7276 11.0909H73.6594V22H71.9833V13.5625L66.756 22H64.7958V11.0909H66.4719V19.5284ZM81.6726 19.2159H83.4624C83.5002 19.7083 83.7228 20.0824 84.13 20.3381C84.5419 20.5938 85.0769 20.7216 85.7351 20.7216C86.4074 20.7216 86.9827 20.5843 87.4609 20.3097C87.9392 20.0303 88.1783 19.5805 88.1783 18.9602C88.1783 18.5956 88.0883 18.2784 87.9084 18.0085C87.7285 17.7339 87.4751 17.5208 87.1484 17.3693C86.8217 17.2178 86.4358 17.142 85.9908 17.142H84.1158V15.6364H85.9908C86.6584 15.6364 87.1508 15.4848 87.468 15.1818C87.79 14.8788 87.951 14.5 87.951 14.0455C87.951 13.5578 87.7782 13.1671 87.4325 12.8736C87.0869 12.5753 86.5968 12.4261 85.9624 12.4261C85.3232 12.4261 84.7905 12.5705 84.3643 12.8594C83.9382 13.1435 83.7133 13.5104 83.6896 13.9602H81.9283C81.9472 13.3731 82.1271 12.8546 82.468 12.4048C82.8089 11.9503 83.273 11.5952 83.8601 11.3395C84.4472 11.0791 85.1196 10.9489 85.8771 10.9489C86.6442 10.9489 87.3094 11.0838 87.8729 11.3537C88.4411 11.6188 88.879 11.9811 89.1868 12.4403C89.4993 12.8949 89.6555 13.411 89.6555 13.9886C89.6555 14.6042 89.4827 15.1013 89.1371 15.4801C88.7914 15.8589 88.3582 16.1288 87.8374 16.2898V16.4034C88.2493 16.4318 88.6068 16.5644 88.9098 16.8011C89.2176 17.0331 89.4567 17.3385 89.6271 17.7173C89.7976 18.0914 89.8828 18.5057 89.8828 18.9602C89.8828 19.6231 89.7053 20.2008 89.3501 20.6932C88.995 21.1809 88.5073 21.5597 87.8871 21.8295C87.2668 22.0947 86.5589 22.2273 85.7635 22.2273C84.9917 22.2273 84.3004 22.1018 83.6896 21.8509C83.0788 21.5952 82.5935 21.2424 82.2337 20.7926C81.8786 20.3381 81.6915 19.8125 81.6726 19.2159ZM95.4474 22.2557C94.7562 22.2557 94.1288 22.1255 93.5653 21.8651C93.0019 21.5999 92.5545 21.2188 92.223 20.7216C91.8916 20.2197 91.7259 19.6136 91.7259 18.9034C91.7259 18.2784 91.849 17.7718 92.0952 17.3835C92.3414 16.9905 92.6705 16.6828 93.0824 16.4602C93.4943 16.2377 93.9489 16.072 94.446 15.9631C94.9479 15.8494 95.4522 15.7595 95.9588 15.6932C96.6217 15.608 97.1591 15.544 97.571 15.5014C97.9877 15.4541 98.2907 15.3759 98.4801 15.267C98.6742 15.1581 98.7713 14.9687 98.7713 14.6989V14.642C98.7713 13.9413 98.5795 13.3968 98.196 13.0085C97.8172 12.6203 97.242 12.4261 96.4702 12.4261C95.67 12.4261 95.0426 12.6013 94.5881 12.9517C94.1335 13.3021 93.8139 13.6761 93.6293 14.0739L92.0384 13.5057C92.3224 12.8428 92.7012 12.3267 93.1747 11.9574C93.6529 11.5833 94.1738 11.3229 94.7372 11.1761C95.3054 11.0246 95.8641 10.9489 96.4134 10.9489C96.7637 10.9489 97.1662 10.9915 97.6207 11.0767C98.08 11.1572 98.5227 11.3253 98.9489 11.581C99.3797 11.8366 99.7372 12.2225 100.021 12.7386C100.305 13.2547 100.447 13.946 100.447 14.8125V22H98.7713V20.5227H98.6861C98.5724 20.7595 98.383 21.0128 98.1179 21.2827C97.8527 21.5526 97.5 21.7822 97.0597 21.9716C96.6193 22.161 96.0819 22.2557 95.4474 22.2557ZM95.7031 20.75C96.366 20.75 96.9247 20.6198 97.3793 20.3594C97.8385 20.099 98.1842 19.7628 98.4162 19.3509C98.6529 18.9389 98.7713 18.5057 98.7713 18.0511V16.517C98.7003 16.6023 98.544 16.6804 98.3026 16.7514C98.0658 16.8177 97.7912 16.8769 97.4787 16.929C97.1709 16.9763 96.8703 17.0189 96.5767 17.0568C96.2879 17.09 96.0535 17.1184 95.8736 17.142C95.438 17.1989 95.0308 17.2912 94.652 17.419C94.2779 17.5421 93.9749 17.7292 93.7429 17.9801C93.5156 18.2263 93.402 18.5625 93.402 18.9886C93.402 19.571 93.6174 20.0114 94.0483 20.3097C94.4839 20.6032 95.0355 20.75 95.7031 20.75Z" fill="#384250"/>
<rect x="108" y="1" width="95" height="28" rx="6" fill="#F3F4F6"/>
<path d="M120.176 20.1591C119.46 20.1591 118.844 19.9901 118.327 19.652C117.81 19.3139 117.412 18.8482 117.134 18.255C116.855 17.6617 116.716 16.9839 116.716 16.2216C116.716 15.446 116.858 14.7616 117.143 14.1683C117.432 13.5717 117.833 13.1061 118.347 12.7713C118.864 12.4332 119.467 12.2642 120.156 12.2642C120.693 12.2642 121.177 12.3636 121.608 12.5625C122.039 12.7614 122.392 13.0398 122.667 13.3977C122.942 13.7557 123.113 14.1733 123.179 14.6506H122.006C121.916 14.3026 121.717 13.9943 121.409 13.7259C121.104 13.4541 120.693 13.3182 120.176 13.3182C119.719 13.3182 119.318 13.4375 118.973 13.6761C118.632 13.9115 118.365 14.2446 118.173 14.6754C117.984 15.103 117.889 15.6051 117.889 16.1818C117.889 16.7718 117.982 17.2855 118.168 17.723C118.357 18.1605 118.622 18.5002 118.963 18.7422C119.308 18.9841 119.712 19.1051 120.176 19.1051C120.481 19.1051 120.758 19.0521 121.006 18.946C121.255 18.84 121.465 18.6875 121.638 18.4886C121.81 18.2898 121.933 18.0511 122.006 17.7727H123.179C123.113 18.2235 122.949 18.6295 122.687 18.9908C122.428 19.3487 122.085 19.6338 121.658 19.8459C121.233 20.0547 120.74 20.1591 120.176 20.1591ZM125.908 15.1278H128.096C128.991 15.1278 129.675 15.3549 130.149 15.8089C130.623 16.263 130.86 16.8381 130.86 17.5341C130.86 17.9915 130.754 18.4074 130.542 18.782C130.33 19.1532 130.018 19.4498 129.607 19.6719C129.196 19.8906 128.692 20 128.096 20H124.894V12.3636H126.067V18.9062H128.096C128.56 18.9062 128.941 18.7836 129.239 18.5384C129.538 18.2931 129.687 17.9782 129.687 17.5938C129.687 17.1894 129.538 16.8596 129.239 16.6044C128.941 16.3492 128.56 16.2216 128.096 16.2216H125.908V15.1278ZM135.748 20.1591C135.059 20.1591 134.454 19.995 133.934 19.6669C133.417 19.3388 133.012 18.8797 132.721 18.2898C132.432 17.6998 132.288 17.0104 132.288 16.2216C132.288 15.4261 132.432 14.7318 132.721 14.1385C133.012 13.5452 133.417 13.0845 133.934 12.7564C134.454 12.4283 135.059 12.2642 135.748 12.2642C136.438 12.2642 137.041 12.4283 137.558 12.7564C138.078 13.0845 138.483 13.5452 138.771 14.1385C139.063 14.7318 139.209 15.4261 139.209 16.2216C139.209 17.0104 139.063 17.6998 138.771 18.2898C138.483 18.8797 138.078 19.3388 137.558 19.6669C137.041 19.995 136.438 20.1591 135.748 20.1591ZM135.748 19.1051C136.272 19.1051 136.703 18.9709 137.041 18.7024C137.379 18.4339 137.629 18.081 137.792 17.6435C137.954 17.206 138.035 16.732 138.035 16.2216C138.035 15.7112 137.954 15.2356 137.792 14.7947C137.629 14.3539 137.379 13.9976 137.041 13.7259C136.703 13.4541 136.272 13.3182 135.748 13.3182C135.225 13.3182 134.794 13.4541 134.456 13.7259C134.118 13.9976 133.867 14.3539 133.705 14.7947C133.543 15.2356 133.461 15.7112 133.461 16.2216C133.461 16.732 133.543 17.206 133.705 17.6435C133.867 18.081 134.118 18.4339 134.456 18.7024C134.794 18.9709 135.225 19.1051 135.748 19.1051ZM145.713 12.3636V13.4574H142.173V20H141V12.3636H145.713ZM150.131 20.1591C149.442 20.1591 148.837 19.995 148.317 19.6669C147.8 19.3388 147.395 18.8797 147.104 18.2898C146.815 17.6998 146.671 17.0104 146.671 16.2216C146.671 15.4261 146.815 14.7318 147.104 14.1385C147.395 13.5452 147.8 13.0845 148.317 12.7564C148.837 12.4283 149.442 12.2642 150.131 12.2642C150.821 12.2642 151.424 12.4283 151.941 12.7564C152.461 13.0845 152.866 13.5452 153.154 14.1385C153.446 14.7318 153.591 15.4261 153.591 16.2216C153.591 17.0104 153.446 17.6998 153.154 18.2898C152.866 18.8797 152.461 19.3388 151.941 19.6669C151.424 19.995 150.821 20.1591 150.131 20.1591ZM150.131 19.1051C150.655 19.1051 151.086 18.9709 151.424 18.7024C151.762 18.4339 152.012 18.081 152.175 17.6435C152.337 17.206 152.418 16.732 152.418 16.2216C152.418 15.7112 152.337 15.2356 152.175 14.7947C152.012 14.3539 151.762 13.9976 151.424 13.7259C151.086 13.4541 150.655 13.3182 150.131 13.3182C149.608 13.3182 149.177 13.4541 148.839 13.7259C148.501 13.9976 148.25 14.3539 148.088 14.7947C147.925 15.2356 147.844 15.7112 147.844 16.2216C147.844 16.732 147.925 17.206 148.088 17.6435C148.25 18.081 148.501 18.4339 148.839 18.7024C149.177 18.9709 149.608 19.1051 150.131 19.1051ZM154.567 22.1875V18.9062H155.203C155.359 18.7438 155.493 18.5682 155.606 18.3793C155.719 18.1903 155.817 17.9666 155.9 17.7081C155.986 17.4463 156.059 17.1281 156.118 16.7536C156.178 16.3757 156.231 15.92 156.277 15.3864L156.536 12.3636H161.388V18.9062H162.561V22.1875H161.388V20H155.74V22.1875H154.567ZM156.536 18.9062H160.215V13.4574H157.63L157.431 15.3864C157.348 16.1851 157.245 16.8828 157.123 17.4794C157 18.076 156.804 18.5516 156.536 18.9062ZM169.23 15.6449V16.7386H165.014V15.6449H169.23ZM165.292 12.3636V20H164.119V12.3636H165.292ZM170.124 12.3636V20H168.951V12.3636H170.124ZM172.267 20V12.3636H173.441V20H172.267ZM172.864 11.0909C172.635 11.0909 172.438 11.013 172.272 10.8572C172.11 10.7015 172.029 10.5142 172.029 10.2955C172.029 10.0767 172.11 9.88944 172.272 9.73366C172.438 9.57789 172.635 9.5 172.864 9.5C173.093 9.5 173.288 9.57789 173.45 9.73366C173.616 9.88944 173.699 10.0767 173.699 10.2955C173.699 10.5142 173.616 10.7015 173.45 10.8572C173.288 11.013 173.093 11.0909 172.864 11.0909Z" fill="#111927"/>
<path d="M183 13L187 17L191 13" stroke="#9DA4AE" stroke-width="1.66667" stroke-linecap="round" stroke-linejoin="round"/>
<rect y="45" width="241.5" height="64" rx="6" fill="#F9FAFB"/>
<path d="M27.085 89.74C26.5 89.155 25.5475 89.155 24.9625 89.74L23.6725 91.0337L18.9662 86.3275L20.26 85.0375C20.845 84.4525 20.845 83.5 20.26 82.915L17.4925 80.1475L15.3625 82.2775C14.9462 82.6937 14.7775 83.2975 14.9275 83.8712C15.2912 85.2587 16.3225 87.9625 19.18 90.82C22.0375 93.6775 24.7412 94.7087 26.1287 95.0725C26.7025 95.2225 27.3062 95.0537 27.7225 94.6375L29.8525 92.5075L27.085 89.74Z" fill="url(#paint0_linear_679_168)"/>
<path d="M39.233 66V55.8182H42.7926C43.5019 55.8182 44.0869 55.9408 44.5476 56.1861C45.0083 56.428 45.3513 56.7545 45.5767 57.1655C45.8021 57.5732 45.9148 58.0256 45.9148 58.5227C45.9148 58.9602 45.8369 59.3215 45.6811 59.6065C45.5286 59.8916 45.3265 60.117 45.0746 60.2827C44.826 60.4484 44.5559 60.571 44.2642 60.6506V60.75C44.5758 60.7699 44.889 60.8793 45.2038 61.0781C45.5187 61.277 45.7822 61.562 45.9943 61.9332C46.2064 62.3045 46.3125 62.7585 46.3125 63.2955C46.3125 63.8059 46.1965 64.2649 45.9645 64.6726C45.7325 65.0803 45.3662 65.4034 44.8658 65.642C44.3653 65.8807 43.714 66 42.9119 66H39.233ZM40.4659 64.9062H42.9119C43.7173 64.9062 44.2891 64.7505 44.6271 64.4389C44.9685 64.1241 45.1392 63.7429 45.1392 63.2955C45.1392 62.9508 45.0514 62.6326 44.8757 62.3409C44.7 62.0459 44.4498 61.8106 44.125 61.6349C43.8002 61.456 43.4157 61.3665 42.9716 61.3665H40.4659V64.9062ZM40.4659 60.2926H42.7528C43.1241 60.2926 43.4588 60.2197 43.7571 60.0739C44.0587 59.928 44.2973 59.7225 44.473 59.4574C44.652 59.1922 44.7415 58.8807 44.7415 58.5227C44.7415 58.0753 44.5857 57.6958 44.2741 57.3842C43.9626 57.0694 43.4688 56.9119 42.7926 56.9119H40.4659V60.2926ZM51.2816 66.1591C50.5657 66.1591 49.9492 65.9901 49.4322 65.652C48.9151 65.3139 48.5174 64.8482 48.239 64.255C47.9606 63.6617 47.8214 62.9839 47.8214 62.2216C47.8214 61.446 47.9639 60.7616 48.2489 60.1683C48.5373 59.5717 48.9383 59.1061 49.4521 58.7713C49.9691 58.4332 50.5723 58.2642 51.2617 58.2642C51.7987 58.2642 52.2826 58.3636 52.7134 58.5625C53.1443 58.7614 53.4973 59.0398 53.7724 59.3977C54.0475 59.7557 54.2182 60.1733 54.2844 60.6506H53.1112C53.0217 60.3026 52.8228 59.9943 52.5146 59.7259C52.2096 59.4541 51.7987 59.3182 51.2816 59.3182C50.8242 59.3182 50.4232 59.4375 50.0785 59.6761C49.7371 59.9115 49.4703 60.2446 49.2781 60.6754C49.0891 61.103 48.9947 61.6051 48.9947 62.1818C48.9947 62.7718 49.0875 63.2855 49.2731 63.723C49.462 64.1605 49.7272 64.5002 50.0685 64.7422C50.4132 64.9841 50.8176 65.1051 51.2816 65.1051C51.5865 65.1051 51.8633 65.0521 52.1119 64.946C52.3604 64.84 52.5709 64.6875 52.7433 64.4886C52.9156 64.2898 53.0382 64.0511 53.1112 63.7727H54.2844C54.2182 64.2235 54.0541 64.6295 53.7923 64.9908C53.5337 65.3487 53.1907 65.6338 52.7631 65.8459C52.3389 66.0547 51.8451 66.1591 51.2816 66.1591ZM57.0138 61.1278H59.2013C60.0962 61.1278 60.7807 61.3549 61.2546 61.8089C61.7286 62.263 61.9656 62.8381 61.9656 63.5341C61.9656 63.9915 61.8595 64.4074 61.6474 64.782C61.4353 65.1532 61.1237 65.4498 60.7127 65.6719C60.3017 65.8906 59.7979 66 59.2013 66H55.9996V58.3636H57.1729V64.9062H59.2013C59.6654 64.9062 60.0465 64.7836 60.3448 64.5384C60.6431 64.2931 60.7923 63.9782 60.7923 63.5938C60.7923 63.1894 60.6431 62.8596 60.3448 62.6044C60.0465 62.3492 59.6654 62.2216 59.2013 62.2216H57.0138V61.1278ZM66.8539 66.1591C66.1645 66.1591 65.5596 65.995 65.0392 65.6669C64.5222 65.3388 64.1178 64.8797 63.8262 64.2898C63.5378 63.6998 63.3936 63.0104 63.3936 62.2216C63.3936 61.4261 63.5378 60.7318 63.8262 60.1385C64.1178 59.5452 64.5222 59.0845 65.0392 58.7564C65.5596 58.4283 66.1645 58.2642 66.8539 58.2642C67.5433 58.2642 68.1465 58.4283 68.6635 58.7564C69.1839 59.0845 69.5882 59.5452 69.8766 60.1385C70.1683 60.7318 70.3141 61.4261 70.3141 62.2216C70.3141 63.0104 70.1683 63.6998 69.8766 64.2898C69.5882 64.8797 69.1839 65.3388 68.6635 65.6669C68.1465 65.995 67.5433 66.1591 66.8539 66.1591ZM66.8539 65.1051C67.3775 65.1051 67.8084 64.9709 68.1465 64.7024C68.4846 64.4339 68.7348 64.081 68.8972 63.6435C69.0596 63.206 69.1408 62.732 69.1408 62.2216C69.1408 61.7112 69.0596 61.2356 68.8972 60.7947C68.7348 60.3539 68.4846 59.9976 68.1465 59.7259C67.8084 59.4541 67.3775 59.3182 66.8539 59.3182C66.3302 59.3182 65.8993 59.4541 65.5613 59.7259C65.2232 59.9976 64.973 60.3539 64.8105 60.7947C64.6481 61.2356 64.5669 61.7112 64.5669 62.2216C64.5669 62.732 64.6481 63.206 64.8105 63.6435C64.973 64.081 65.2232 64.4339 65.5613 64.7024C65.8993 64.9709 66.3302 65.1051 66.8539 65.1051ZM76.8182 58.3636V59.4574H73.2784V66H72.1051V58.3636H76.8182ZM81.2367 66.1591C80.5473 66.1591 79.9424 65.995 79.4221 65.6669C78.905 65.3388 78.5007 64.8797 78.209 64.2898C77.9206 63.6998 77.7765 63.0104 77.7765 62.2216C77.7765 61.4261 77.9206 60.7318 78.209 60.1385C78.5007 59.5452 78.905 59.0845 79.4221 58.7564C79.9424 58.4283 80.5473 58.2642 81.2367 58.2642C81.9261 58.2642 82.5293 58.4283 83.0463 58.7564C83.5667 59.0845 83.9711 59.5452 84.2594 60.1385C84.5511 60.7318 84.6969 61.4261 84.6969 62.2216C84.6969 63.0104 84.5511 63.6998 84.2594 64.2898C83.9711 64.8797 83.5667 65.3388 83.0463 65.6669C82.5293 65.995 81.9261 66.1591 81.2367 66.1591ZM81.2367 65.1051C81.7604 65.1051 82.1912 64.9709 82.5293 64.7024C82.8674 64.4339 83.1176 64.081 83.28 63.6435C83.4424 63.206 83.5236 62.732 83.5236 62.2216C83.5236 61.7112 83.4424 61.2356 83.28 60.7947C83.1176 60.3539 82.8674 59.9976 82.5293 59.7259C82.1912 59.4541 81.7604 59.3182 81.2367 59.3182C80.713 59.3182 80.2821 59.4541 79.9441 59.7259C79.606 59.9976 79.3558 60.3539 79.1934 60.7947C79.031 61.2356 78.9498 61.7112 78.9498 62.2216C78.9498 62.732 79.031 63.206 79.1934 63.6435C79.3558 64.081 79.606 64.4339 79.9441 64.7024C80.2821 64.9709 80.713 65.1051 81.2367 65.1051Z" fill="#384250"/>
<path d="M46.3011 78.5455V96H43.6591V81.1875H43.5568L39.3807 83.9148V81.392L43.7358 78.5455H46.3011ZM57.6449 78.5455V96H55.0028V81.1875H54.9006L50.7244 83.9148V81.392L55.0795 78.5455H57.6449Z" fill="#101828"/>
<rect x="256.5" y="45" width="241.5" height="64" rx="6" fill="#F9FAFB"/>
<path d="M272.5 88H284.5M284.5 88L280 83.5M284.5 88L280 92.5" stroke="#12B76A" stroke-width="2" stroke-linecap="round" stroke-linejoin="round"/>
<path d="M295.733 66V55.8182H299.293C300.002 55.8182 300.587 55.9408 301.048 56.1861C301.508 56.428 301.851 56.7545 302.077 57.1655C302.302 57.5732 302.415 58.0256 302.415 58.5227C302.415 58.9602 302.337 59.3215 302.181 59.6065C302.029 59.8916 301.826 60.117 301.575 60.2827C301.326 60.4484 301.056 60.571 300.764 60.6506V60.75C301.076 60.7699 301.389 60.8793 301.704 61.0781C302.019 61.277 302.282 61.562 302.494 61.9332C302.706 62.3045 302.812 62.7585 302.812 63.2955C302.812 63.8059 302.696 64.2649 302.464 64.6726C302.232 65.0803 301.866 65.4034 301.366 65.642C300.865 65.8807 300.214 66 299.412 66H295.733ZM296.966 64.9062H299.412C300.217 64.9062 300.789 64.7505 301.127 64.4389C301.469 64.1241 301.639 63.7429 301.639 63.2955C301.639 62.9508 301.551 62.6326 301.376 62.3409C301.2 62.0459 300.95 61.8106 300.625 61.6349C300.3 61.456 299.916 61.3665 299.472 61.3665H296.966V64.9062ZM296.966 60.2926H299.253C299.624 60.2926 299.959 60.2197 300.257 60.0739C300.559 59.928 300.797 59.7225 300.973 59.4574C301.152 59.1922 301.241 58.8807 301.241 58.5227C301.241 58.0753 301.086 57.6958 300.774 57.3842C300.463 57.0694 299.969 56.9119 299.293 56.9119H296.966V60.2926ZM305.554 58.3636L307.384 61.4858L309.213 58.3636H310.566L308.1 62.1818L310.566 66H309.213L307.384 63.0369L305.554 66H304.202L306.628 62.1818L304.202 58.3636H305.554ZM312.24 66V58.3636H313.413V66H312.24ZM312.836 57.0909C312.608 57.0909 312.411 57.013 312.245 56.8572C312.082 56.7015 312.001 56.5142 312.001 56.2955C312.001 56.0767 312.082 55.8894 312.245 55.7337C312.411 55.5779 312.608 55.5 312.836 55.5C313.065 55.5 313.261 55.5779 313.423 55.7337C313.589 55.8894 313.672 56.0767 313.672 56.2955C313.672 56.5142 313.589 56.7015 313.423 56.8572C313.261 57.013 313.065 57.0909 312.836 57.0909ZM314.747 68.1875V64.9062H315.383C315.539 64.7438 315.673 64.5682 315.786 64.3793C315.899 64.1903 315.996 63.9666 316.079 63.7081C316.165 63.4463 316.238 63.1281 316.298 62.7536C316.358 62.3757 316.411 61.92 316.457 61.3864L316.716 58.3636H321.568V64.9062H322.741V68.1875H321.568V66H315.92V68.1875H314.747ZM316.716 64.9062H320.395V59.4574H317.809L317.61 61.3864C317.528 62.1851 317.425 62.8828 317.302 63.4794C317.18 64.076 316.984 64.5516 316.716 64.9062ZM329.409 61.6449V62.7386H325.193V61.6449H329.409ZM325.472 58.3636V66H324.298V58.3636H325.472ZM330.304 58.3636V66H329.131V58.3636H330.304ZM333.62 64.2699L337.299 58.3636H338.651V66H337.478V60.0938L333.819 66H332.447V58.3636H333.62V64.2699ZM341.675 58.3636L343.505 61.4858L345.335 58.3636H346.687L344.221 62.1818L346.687 66H345.335L343.505 63.0369L341.675 66H340.323L342.749 62.1818L340.323 58.3636H341.675Z" fill="#384250"/>
<path d="M296.767 96L304.386 80.9318V80.804H295.574V78.5455H307.114V80.8807L299.52 96H296.767Z" fill="#101828"/>
<rect y="124" width="241.5" height="64" rx="6" fill="#F9FAFB"/>
<path d="M28 167H16M16 167L20.5 162.5M16 167L20.5 171.5" stroke="#4D50D9" stroke-width="2" stroke-linecap="round" stroke-linejoin="round"/>
<path d="M39.233 145V134.818H42.7926C43.5019 134.818 44.0869 134.941 44.5476 135.186C45.0083 135.428 45.3513 135.754 45.5767 136.165C45.8021 136.573 45.9148 137.026 45.9148 137.523C45.9148 137.96 45.8369 138.321 45.6811 138.607C45.5286 138.892 45.3265 139.117 45.0746 139.283C44.826 139.448 44.5559 139.571 44.2642 139.651V139.75C44.5758 139.77 44.889 139.879 45.2038 140.078C45.5187 140.277 45.7822 140.562 45.9943 140.933C46.2064 141.304 46.3125 141.759 46.3125 142.295C46.3125 142.806 46.1965 143.265 45.9645 143.673C45.7325 144.08 45.3662 144.403 44.8658 144.642C44.3653 144.881 43.714 145 42.9119 145H39.233ZM40.4659 143.906H42.9119C43.7173 143.906 44.2891 143.75 44.6271 143.439C44.9685 143.124 45.1392 142.743 45.1392 142.295C45.1392 141.951 45.0514 141.633 44.8757 141.341C44.7 141.046 44.4498 140.811 44.125 140.635C43.8002 140.456 43.4157 140.366 42.9716 140.366H40.4659V143.906ZM40.4659 139.293H42.7528C43.1241 139.293 43.4588 139.22 43.7571 139.074C44.0587 138.928 44.2973 138.723 44.473 138.457C44.652 138.192 44.7415 137.881 44.7415 137.523C44.7415 137.075 44.5857 136.696 44.2741 136.384C43.9626 136.069 43.4688 135.912 42.7926 135.912H40.4659V139.293ZM49.3526 143.27L53.0316 137.364H54.3839V145H53.2106V139.094L49.5515 145H48.1793V137.364H49.3526V143.27ZM57.4078 137.364L59.2374 140.486L61.0669 137.364H62.4192L59.9533 141.182L62.4192 145H61.0669L59.2374 142.037L57.4078 145H56.0556L58.4817 141.182L56.0556 137.364H57.4078ZM64.0934 145V137.364H65.2667V145H64.0934ZM64.69 136.091C64.4613 136.091 64.2641 136.013 64.0984 135.857C63.936 135.701 63.8548 135.514 63.8548 135.295C63.8548 135.077 63.936 134.889 64.0984 134.734C64.2641 134.578 64.4613 134.5 64.69 134.5C64.9187 134.5 65.1142 134.578 65.2766 134.734C65.4424 134.889 65.5252 135.077 65.5252 135.295C65.5252 135.514 65.4424 135.701 65.2766 135.857C65.1142 136.013 64.9187 136.091 64.69 136.091ZM66.6003 147.188V143.906H67.2367C67.3925 143.744 67.5267 143.568 67.6394 143.379C67.7521 143.19 67.8498 142.967 67.9327 142.708C68.0189 142.446 68.0918 142.128 68.1515 141.754C68.2111 141.376 68.2641 140.92 68.3105 140.386L68.5691 137.364H73.4213V143.906H74.5946V147.188H73.4213V145H67.7736V147.188H66.6003ZM68.5691 143.906H72.248V138.457H69.6628L69.464 140.386C69.3811 141.185 69.2784 141.883 69.1557 142.479C69.0331 143.076 68.8375 143.552 68.5691 143.906ZM81.2628 140.645V141.739H77.0469V140.645H81.2628ZM77.3253 137.364V145H76.152V137.364H77.3253ZM82.1577 137.364V145H80.9844V137.364H82.1577ZM85.4737 143.27L89.1527 137.364H90.505V145H89.3317V139.094L85.6726 145H84.3004V137.364H85.4737V143.27ZM93.5289 137.364L95.3585 140.486L97.188 137.364H98.5403L96.0744 141.182L98.5403 145H97.188L95.3585 142.037L93.5289 145H92.1767L94.6028 141.182L92.1767 137.364H93.5289Z" fill="#384250"/>
<path d="M39.3125 171.591V169.46L46.8551 157.545H48.5341V160.682H47.4688L42.0739 169.222V169.358H52.4119V171.591H39.3125ZM47.5881 175V170.943L47.6051 169.972V157.545H50.1023V175H47.5881Z" fill="#101828"/>
<rect x="256.5" y="124" width="241.5" height="64" rx="6" fill="#F9FAFB"/>
<path d="M283.288 160.394C283.266 160.395 283.244 160.396 283.221 160.4H280.33C280.251 160.399 280.172 160.413 280.098 160.443C280.024 160.473 279.957 160.517 279.901 160.572C279.844 160.628 279.799 160.695 279.768 160.768C279.738 160.841 279.722 160.92 279.722 161C279.722 161.079 279.738 161.158 279.768 161.231C279.799 161.305 279.844 161.371 279.901 161.427C279.957 161.483 280.024 161.527 280.098 161.556C280.172 161.586 280.251 161.601 280.33 161.6H281.852L278.5 164.951L274.724 161.175C274.669 161.118 274.603 161.072 274.529 161.04C274.456 161.009 274.377 160.992 274.297 160.991C274.218 160.99 274.138 161.005 274.065 161.035C273.991 161.066 273.924 161.11 273.867 161.167C273.811 161.223 273.766 161.29 273.736 161.364C273.706 161.438 273.691 161.517 273.691 161.597C273.692 161.677 273.709 161.756 273.741 161.829C273.772 161.902 273.818 161.969 273.876 162.024L278.076 166.224C278.188 166.336 278.341 166.4 278.5 166.4C278.659 166.4 278.812 166.336 278.924 166.224L282.7 162.448V163.969C282.699 164.049 282.714 164.128 282.743 164.201C282.773 164.275 282.817 164.342 282.873 164.399C282.929 164.456 282.995 164.501 283.068 164.531C283.142 164.562 283.22 164.578 283.3 164.578C283.38 164.578 283.458 164.562 283.532 164.531C283.605 164.501 283.671 164.456 283.727 164.399C283.783 164.342 283.827 164.275 283.857 164.201C283.886 164.128 283.901 164.049 283.9 163.969V161.076C283.912 160.989 283.905 160.901 283.879 160.818C283.854 160.735 283.811 160.658 283.752 160.593C283.694 160.528 283.622 160.477 283.542 160.442C283.462 160.408 283.375 160.391 283.288 160.394V160.394ZM278.501 167.6C271.74 167.6 270.7 169.593 270.7 171.391C270.7 171.967 270.85 172.366 271.009 172.629C271.174 172.899 271.49 173.028 271.795 172.948C272.556 172.749 274.198 172.319 274.96 172.121C275.21 172.055 275.401 171.86 275.465 171.61L275.786 170.341C275.858 170.057 276.093 169.848 276.384 169.812C276.886 169.75 277.711 169.667 278.501 169.667C279.291 169.667 280.115 169.75 280.618 169.812C280.908 169.848 281.143 170.057 281.215 170.341L281.536 171.61C281.6 171.861 281.794 172.056 282.044 172.121L285.203 172.947C285.509 173.027 285.828 172.897 285.992 172.627C286.151 172.365 286.3 171.965 286.3 171.391C286.3 169.593 285.262 167.6 278.501 167.6Z" fill="#FEC84B"/>
<path d="M303.349 134.818V145H302.116V135.912H296.986V145H295.753V134.818H303.349ZM305.677 147.864V137.364H306.811V138.577H306.95C307.036 138.444 307.156 138.275 307.308 138.07C307.464 137.861 307.686 137.675 307.974 137.513C308.266 137.347 308.66 137.264 309.157 137.264C309.8 137.264 310.367 137.425 310.858 137.746C311.348 138.068 311.731 138.524 312.006 139.114C312.281 139.704 312.419 140.4 312.419 141.202C312.419 142.01 312.281 142.711 312.006 143.305C311.731 143.895 311.35 144.352 310.863 144.677C310.376 144.998 309.814 145.159 309.177 145.159C308.687 145.159 308.294 145.078 307.999 144.915C307.704 144.75 307.477 144.562 307.318 144.354C307.159 144.142 307.036 143.966 306.95 143.827H306.851V147.864H305.677ZM306.831 141.182C306.831 141.759 306.915 142.267 307.084 142.708C307.253 143.146 307.5 143.489 307.825 143.737C308.15 143.982 308.548 144.105 309.018 144.105C309.509 144.105 309.918 143.976 310.246 143.717C310.578 143.455 310.826 143.104 310.992 142.663C311.161 142.219 311.246 141.725 311.246 141.182C311.246 140.645 311.163 140.161 310.997 139.73C310.835 139.296 310.588 138.953 310.256 138.701C309.928 138.446 309.515 138.318 309.018 138.318C308.541 138.318 308.14 138.439 307.815 138.681C307.49 138.92 307.245 139.254 307.079 139.685C306.914 140.113 306.831 140.612 306.831 141.182ZM317.311 145.159C316.622 145.159 316.017 144.995 315.496 144.667C314.979 144.339 314.575 143.88 314.283 143.29C313.995 142.7 313.851 142.01 313.851 141.222C313.851 140.426 313.995 139.732 314.283 139.138C314.575 138.545 314.979 138.085 315.496 137.756C316.017 137.428 316.622 137.264 317.311 137.264C318 137.264 318.604 137.428 319.121 137.756C319.641 138.085 320.045 138.545 320.334 139.138C320.625 139.732 320.771 140.426 320.771 141.222C320.771 142.01 320.625 142.7 320.334 143.29C320.045 143.88 319.641 144.339 319.121 144.667C318.604 144.995 318 145.159 317.311 145.159ZM317.311 144.105C317.835 144.105 318.265 143.971 318.604 143.702C318.942 143.434 319.192 143.081 319.354 142.643C319.517 142.206 319.598 141.732 319.598 141.222C319.598 140.711 319.517 140.236 319.354 139.795C319.192 139.354 318.942 138.998 318.604 138.726C318.265 138.454 317.835 138.318 317.311 138.318C316.787 138.318 316.356 138.454 316.018 138.726C315.68 138.998 315.43 139.354 315.268 139.795C315.105 140.236 315.024 140.711 315.024 141.222C315.024 141.732 315.105 142.206 315.268 142.643C315.43 143.081 315.68 143.434 316.018 143.702C316.356 143.971 316.787 144.105 317.311 144.105ZM322.562 145V137.364H328.568V145H327.395V138.457H323.735V145H322.562ZM331.193 147.864C330.994 147.864 330.817 147.847 330.661 147.814C330.505 147.784 330.397 147.754 330.338 147.724L330.636 146.69C330.921 146.763 331.173 146.79 331.392 146.77C331.61 146.75 331.804 146.652 331.973 146.477C332.146 146.304 332.303 146.024 332.446 145.636L332.664 145.04L329.841 137.364H331.113L333.221 143.449H333.301L335.409 137.364H336.681L333.44 146.114C333.294 146.508 333.114 146.835 332.898 147.093C332.683 147.355 332.432 147.549 332.147 147.675C331.866 147.801 331.547 147.864 331.193 147.864ZM348.651 143.906L348.511 147.188H347.298V145H346.304V143.906H348.651ZM338.23 137.364H339.403V143.906H342.287V137.364H343.46V143.906H346.344V137.364H347.517V145H338.23V137.364ZM353.477 145.159C352.741 145.159 352.106 144.997 351.573 144.672C351.042 144.344 350.633 143.886 350.345 143.3C350.06 142.71 349.917 142.024 349.917 141.241C349.917 140.459 350.06 139.77 350.345 139.173C350.633 138.573 351.034 138.106 351.548 137.771C352.065 137.433 352.668 137.264 353.357 137.264C353.755 137.264 354.148 137.33 354.536 137.463C354.923 137.596 355.276 137.811 355.595 138.109C355.913 138.404 356.166 138.795 356.355 139.283C356.544 139.77 356.639 140.37 356.639 141.082V141.58H350.752V140.565H355.445C355.445 140.134 355.359 139.75 355.187 139.412C355.018 139.074 354.776 138.807 354.461 138.612C354.15 138.416 353.782 138.318 353.357 138.318C352.89 138.318 352.486 138.434 352.144 138.666C351.806 138.895 351.546 139.193 351.364 139.561C351.182 139.929 351.09 140.323 351.09 140.744V141.42C351.09 141.997 351.19 142.486 351.389 142.887C351.591 143.285 351.871 143.588 352.229 143.797C352.587 144.002 353.003 144.105 353.477 144.105C353.785 144.105 354.063 144.062 354.312 143.976C354.564 143.886 354.781 143.754 354.963 143.578C355.146 143.399 355.286 143.177 355.386 142.912L356.519 143.23C356.4 143.615 356.2 143.953 355.918 144.244C355.636 144.533 355.288 144.758 354.874 144.92C354.459 145.08 353.994 145.159 353.477 145.159ZM363.534 140.645V141.739H359.318V140.645H363.534ZM359.597 137.364V145H358.423V137.364H359.597ZM364.429 137.364V145H363.256V137.364H364.429ZM367.745 143.27L371.424 137.364H372.776V145H371.603V139.094L367.944 145H366.572V137.364H367.745V143.27ZM375.8 137.364L377.63 140.486L379.46 137.364H380.812L378.346 141.182L380.812 145H379.46L377.63 142.037L375.8 145H374.448L376.874 141.182L374.448 137.364H375.8Z" fill="#384250"/>
<path d="M296.179 175V173.091L302.085 166.972C302.716 166.307 303.236 165.724 303.645 165.224C304.06 164.719 304.369 164.239 304.574 163.784C304.778 163.33 304.881 162.847 304.881 162.335C304.881 161.756 304.744 161.256 304.472 160.835C304.199 160.409 303.827 160.082 303.355 159.855C302.884 159.622 302.352 159.506 301.761 159.506C301.136 159.506 300.591 159.634 300.125 159.889C299.659 160.145 299.301 160.506 299.051 160.972C298.801 161.437 298.676 161.983 298.676 162.608H296.162C296.162 161.545 296.406 160.616 296.895 159.821C297.384 159.026 298.054 158.409 298.906 157.972C299.759 157.528 300.727 157.307 301.812 157.307C302.909 157.307 303.875 157.526 304.71 157.963C305.551 158.395 306.207 158.986 306.679 159.736C307.151 160.48 307.386 161.321 307.386 162.259C307.386 162.906 307.264 163.54 307.02 164.159C306.781 164.778 306.364 165.469 305.767 166.23C305.17 166.986 304.341 167.903 303.278 168.983L299.81 172.614V172.741H307.668V175H296.179Z" fill="#101828"/>
<defs>
<linearGradient id="paint0_linear_679_168" x1="14.1561" y1="95.8438" x2="29.5356" y2="80.4643" gradientUnits="userSpaceOnUse">
<stop stop-color="#676AE6"/>
<stop offset="1" stop-color="#3538CD"/>
</linearGradient>
</defs>
</svg>
