<svg width="269" height="184" viewBox="0 0 269 184" fill="none" xmlns="http://www.w3.org/2000/svg">
<g filter="url(#filter0_dd_679_77)">
<g clip-path="url(#clip0_679_77)">
<rect x="12" width="245" height="160" rx="8" fill="white"/>
<rect width="245" height="40" transform="translate(12)" fill="#F9FAFB"/>
<path d="M30.4744 25.1705C29.7074 25.1705 29.0469 24.9893 28.4929 24.6271C27.9389 24.2649 27.5128 23.766 27.2145 23.1303C26.9162 22.4947 26.767 21.7685 26.767 20.9517C26.767 20.1207 26.9197 19.3874 27.2251 18.7518C27.5341 18.1126 27.9638 17.6136 28.5142 17.255C29.0682 16.8928 29.7145 16.7116 30.4531 16.7116C31.0284 16.7116 31.5469 16.8182 32.0085 17.0312C32.4702 17.2443 32.8484 17.5426 33.1431 17.9261C33.4379 18.3097 33.6207 18.7571 33.6918 19.2685H32.4347C32.3388 18.8956 32.1257 18.5653 31.7955 18.2777C31.4688 17.9865 31.0284 17.8409 30.4744 17.8409C29.9844 17.8409 29.5547 17.9687 29.1854 18.2244C28.8196 18.4766 28.5337 18.8335 28.3278 19.2951C28.1254 19.7532 28.0241 20.2912 28.0241 20.9091C28.0241 21.5412 28.1236 22.0916 28.3224 22.5604C28.5249 23.0291 28.8089 23.3931 29.1747 23.6523C29.544 23.9116 29.9773 24.0412 30.4744 24.0412C30.8011 24.0412 31.0977 23.9844 31.364 23.8707C31.6303 23.7571 31.8558 23.5938 32.0405 23.3807C32.2251 23.1676 32.3565 22.9119 32.4347 22.6136H33.6918C33.6207 23.0966 33.445 23.5316 33.1644 23.9187C32.8874 24.3022 32.5199 24.6076 32.0618 24.8349C31.6072 25.0586 31.0781 25.1705 30.4744 25.1705ZM36.6161 19.7798H38.9599C39.9187 19.7798 40.652 20.0231 41.1598 20.5096C41.6676 20.9961 41.9215 21.6122 41.9215 22.358C41.9215 22.848 41.8079 23.2937 41.5806 23.695C41.3533 24.0927 41.0195 24.4105 40.5792 24.6484C40.1388 24.8828 39.5991 25 38.9599 25H35.5295V16.8182H36.7866V23.8281H38.9599C39.457 23.8281 39.8654 23.6967 40.185 23.4339C40.5046 23.1712 40.6644 22.8338 40.6644 22.4219C40.6644 21.9886 40.5046 21.6353 40.185 21.3619C39.8654 21.0884 39.457 20.9517 38.9599 20.9517H36.6161V19.7798ZM47.159 25.1705C46.4204 25.1705 45.7723 24.9947 45.2148 24.6431C44.6608 24.2915 44.2275 23.7997 43.915 23.1676C43.6061 22.5355 43.4516 21.7969 43.4516 20.9517C43.4516 20.0994 43.6061 19.3555 43.915 18.7198C44.2275 18.0842 44.6608 17.5906 45.2148 17.239C45.7723 16.8874 46.4204 16.7116 47.159 16.7116C47.8976 16.7116 48.5439 16.8874 49.0979 17.239C49.6555 17.5906 50.0887 18.0842 50.3976 18.7198C50.7101 19.3555 50.8664 20.0994 50.8664 20.9517C50.8664 21.7969 50.7101 22.5355 50.3976 23.1676C50.0887 23.7997 49.6555 24.2915 49.0979 24.6431C48.5439 24.9947 47.8976 25.1705 47.159 25.1705ZM47.159 24.0412C47.7201 24.0412 48.1817 23.8974 48.5439 23.6097C48.9062 23.3221 49.1743 22.9439 49.3483 22.4751C49.5223 22.0064 49.6093 21.4986 49.6093 20.9517C49.6093 20.4048 49.5223 19.8952 49.3483 19.4229C49.1743 18.9506 48.9062 18.5689 48.5439 18.2777C48.1817 17.9865 47.7201 17.8409 47.159 17.8409C46.5979 17.8409 46.1363 17.9865 45.7741 18.2777C45.4118 18.5689 45.1437 18.9506 44.9697 19.4229C44.7957 19.8952 44.7087 20.4048 44.7087 20.9517C44.7087 21.4986 44.7957 22.0064 44.9697 22.4751C45.1437 22.9439 45.4118 23.3221 45.7741 23.6097C46.1363 23.8974 46.5979 24.0412 47.159 24.0412ZM57.835 16.8182V17.9901H54.0424V25H52.7853V16.8182H57.835ZM62.5692 25.1705C61.8305 25.1705 61.1824 24.9947 60.6249 24.6431C60.0709 24.2915 59.6377 23.7997 59.3252 23.1676C59.0162 22.5355 58.8618 21.7969 58.8618 20.9517C58.8618 20.0994 59.0162 19.3555 59.3252 18.7198C59.6377 18.0842 60.0709 17.5906 60.6249 17.239C61.1824 16.8874 61.8305 16.7116 62.5692 16.7116C63.3078 16.7116 63.9541 16.8874 64.5081 17.239C65.0656 17.5906 65.4988 18.0842 65.8078 18.7198C66.1203 19.3555 66.2765 20.0994 66.2765 20.9517C66.2765 21.7969 66.1203 22.5355 65.8078 23.1676C65.4988 23.7997 65.0656 24.2915 64.5081 24.6431C63.9541 24.9947 63.3078 25.1705 62.5692 25.1705ZM62.5692 24.0412C63.1302 24.0412 63.5919 23.8974 63.9541 23.6097C64.3163 23.3221 64.5844 22.9439 64.7584 22.4751C64.9324 22.0064 65.0194 21.4986 65.0194 20.9517C65.0194 20.4048 64.9324 19.8952 64.7584 19.4229C64.5844 18.9506 64.3163 18.5689 63.9541 18.2777C63.5919 17.9865 63.1302 17.8409 62.5692 17.8409C62.0081 17.8409 61.5464 17.9865 61.1842 18.2777C60.822 18.5689 60.5539 18.9506 60.3799 19.4229C60.2059 19.8952 60.1189 20.4048 60.1189 20.9517C60.1189 21.4986 60.2059 22.0064 60.3799 22.4751C60.5539 22.9439 60.822 23.3221 61.1842 23.6097C61.5464 23.8974 62.0081 24.0412 62.5692 24.0412ZM67.3219 27.3438V23.8281H68.0037C68.1706 23.6541 68.3145 23.4659 68.4352 23.2635C68.5559 23.0611 68.6607 22.8214 68.7495 22.5444C68.8418 22.2638 68.9199 21.9229 68.9838 21.5217C69.0478 21.1168 69.1046 20.6286 69.1543 20.0568L69.4313 16.8182H74.6301V23.8281H75.8873V27.3438H74.6301V25H68.579V27.3438H67.3219ZM69.4313 23.8281H73.373V17.9901H70.6032L70.3901 20.0568C70.3013 20.9126 70.1912 21.6602 70.0598 22.2994C69.9284 22.9386 69.7189 23.4482 69.4313 23.8281ZM83.0317 20.3338V21.5057H78.5146V20.3338H83.0317ZM78.8129 16.8182V25H77.5558V16.8182H78.8129ZM83.9905 16.8182V25H82.7334V16.8182H83.9905ZM86.2863 25V16.8182H87.5434V25H86.2863ZM86.9255 15.4545C86.6805 15.4545 86.4692 15.3711 86.2916 15.2042C86.1176 15.0373 86.0306 14.8366 86.0306 14.6023C86.0306 14.3679 86.1176 14.1673 86.2916 14.0004C86.4692 13.8335 86.6805 13.75 86.9255 13.75C87.1705 13.75 87.3801 13.8335 87.5541 14.0004C87.7316 14.1673 87.8204 14.3679 87.8204 14.6023C87.8204 14.8366 87.7316 15.0373 87.5541 15.2042C87.3801 15.3711 87.1705 15.4545 86.9255 15.4545Z" fill="#111927"/>
<path d="M228.345 20.0002L233.23 24.8852L243 15.1152" stroke="#3538CD" stroke-width="1.6" stroke-linecap="round"/>
<rect width="245" height="40" transform="translate(12 40)" fill="white"/>
<path d="M27.1506 65V56.8182H30.4957C31.3764 56.8182 32.076 57.017 32.5945 57.4148C33.1129 57.8125 33.3722 58.3381 33.3722 58.9915C33.3722 59.4886 33.2248 59.8739 32.93 60.1474C32.6353 60.4173 32.2571 60.6001 31.7955 60.696C32.0973 60.7386 32.3903 60.8452 32.6744 61.0156C32.962 61.1861 33.1999 61.4205 33.3881 61.7188C33.5763 62.0135 33.6705 62.3757 33.6705 62.8054C33.6705 63.2244 33.5639 63.5991 33.3509 63.9293C33.1378 64.2596 32.8324 64.5206 32.4347 64.7124C32.0369 64.9041 31.5611 65 31.0071 65H27.1506ZM28.3438 63.8494H31.0071C31.4403 63.8494 31.7795 63.7464 32.0245 63.5405C32.2695 63.3345 32.392 63.054 32.392 62.6989C32.392 62.2763 32.2695 61.9442 32.0245 61.7028C31.7795 61.4577 31.4403 61.3352 31.0071 61.3352H28.3438V63.8494ZM28.3438 60.2486H30.4957C30.8331 60.2486 31.1225 60.2024 31.364 60.1101C31.6055 60.0142 31.7901 59.8793 31.918 59.7053C32.0494 59.5277 32.1151 59.3182 32.1151 59.0767C32.1151 58.7322 31.9712 58.4624 31.6836 58.267C31.396 58.0682 31 57.9688 30.4957 57.9688H28.3438V60.2486ZM41.8802 56.8182V65H40.6231V56.8182H41.8802ZM41.3902 60.7173V61.8892C41.1061 61.9957 40.8238 62.0898 40.5432 62.1715C40.2627 62.2496 39.968 62.3118 39.659 62.358C39.3501 62.4006 39.0109 62.4219 38.6416 62.4219C37.7148 62.4219 36.9708 62.1715 36.4097 61.6708C35.8522 61.1701 35.5734 60.419 35.5734 59.4176V56.7969H36.8305V59.4176C36.8305 59.8366 36.9104 60.1811 37.0702 60.451C37.23 60.7209 37.4466 60.9215 37.7201 61.0529C37.9935 61.1843 38.3007 61.25 38.6416 61.25C39.1743 61.25 39.6555 61.2021 40.0851 61.1062C40.5184 61.0067 40.9534 60.8771 41.3902 60.7173ZM47.5106 65.1705C46.7719 65.1705 46.1238 64.9947 45.5663 64.6431C45.0123 64.2915 44.5791 63.7997 44.2666 63.1676C43.9577 62.5355 43.8032 61.7969 43.8032 60.9517C43.8032 60.0994 43.9577 59.3555 44.2666 58.7198C44.5791 58.0842 45.0123 57.5906 45.5663 57.239C46.1238 56.8874 46.7719 56.7116 47.5106 56.7116C48.2492 56.7116 48.8955 56.8874 49.4495 57.239C50.007 57.5906 50.4403 58.0842 50.7492 58.7198C51.0617 59.3555 51.218 60.0994 51.218 60.9517C51.218 61.7969 51.0617 62.5355 50.7492 63.1676C50.4403 63.7997 50.007 64.2915 49.4495 64.6431C48.8955 64.9947 48.2492 65.1705 47.5106 65.1705ZM47.5106 64.0412C48.0716 64.0412 48.5333 63.8974 48.8955 63.6097C49.2577 63.3221 49.5258 62.9439 49.6998 62.4751C49.8738 62.0064 49.9608 61.4986 49.9608 60.9517C49.9608 60.4048 49.8738 59.8952 49.6998 59.4229C49.5258 58.9506 49.2577 58.5689 48.8955 58.2777C48.5333 57.9865 48.0716 57.8409 47.5106 57.8409C46.9495 57.8409 46.4878 57.9865 46.1256 58.2777C45.7634 58.5689 45.4953 58.9506 45.3213 59.4229C45.1473 59.8952 45.0603 60.4048 45.0603 60.9517C45.0603 61.4986 45.1473 62.0064 45.3213 62.4751C45.4953 62.9439 45.7634 63.3221 46.1256 63.6097C46.4878 63.8974 46.9495 64.0412 47.5106 64.0412ZM53.1369 68.0682V56.8182H54.3514V58.1179H54.5005C54.5929 57.9759 54.7207 57.7947 54.8841 57.5746C55.051 57.3509 55.2889 57.152 55.5978 56.978C55.9103 56.8004 56.3329 56.7116 56.8656 56.7116C57.5545 56.7116 58.1618 56.8839 58.6873 57.2283C59.2129 57.5728 59.623 58.0611 59.9178 58.6932C60.2125 59.3253 60.3599 60.071 60.3599 60.9304C60.3599 61.7969 60.2125 62.5479 59.9178 63.1836C59.623 63.8157 59.2147 64.3058 58.6926 64.6538C58.1706 64.9982 57.5687 65.1705 56.8869 65.1705C56.3613 65.1705 55.9405 65.0835 55.6245 64.9094C55.3084 64.7319 55.0652 64.5312 54.8947 64.3075C54.7243 64.0803 54.5929 63.892 54.5005 63.7429H54.394V68.0682H53.1369ZM54.3727 60.9091C54.3727 61.527 54.4632 62.0721 54.6444 62.5444C54.8255 63.0131 55.09 63.3807 55.438 63.647C55.786 63.9098 56.2122 64.0412 56.7164 64.0412C57.242 64.0412 57.6806 63.9027 58.0321 63.6257C58.3873 63.3452 58.6536 62.9687 58.8311 62.4964C59.0123 62.0206 59.1028 61.4915 59.1028 60.9091C59.1028 60.3338 59.014 59.8153 58.8365 59.3537C58.6625 58.8885 58.3979 58.521 58.0428 58.2511C57.6912 57.9776 57.2491 57.8409 56.7164 57.8409C56.2051 57.8409 55.7754 57.9705 55.4274 58.2298C55.0794 58.4854 54.8166 58.8441 54.639 59.3058C54.4615 59.7638 54.3727 60.2983 54.3727 60.9091ZM64.6852 65.1918C64.1667 65.1918 63.6962 65.0941 63.2736 64.8988C62.851 64.6999 62.5154 64.4141 62.2669 64.0412C62.0183 63.6648 61.894 63.2102 61.894 62.6776C61.894 62.2088 61.9863 61.8288 62.171 61.5376C62.3556 61.2429 62.6025 61.0121 62.9114 60.8452C63.2203 60.6783 63.5613 60.554 63.9341 60.4723C64.3105 60.3871 64.6887 60.3196 65.0687 60.2699C65.5659 60.206 65.9689 60.158 66.2779 60.1261C66.5904 60.0906 66.8176 60.032 66.9597 59.9503C67.1053 59.8686 67.1781 59.7266 67.1781 59.5241V59.4815C67.1781 58.956 67.0343 58.5476 66.7466 58.2564C66.4625 57.9652 66.0311 57.8196 65.4522 57.8196C64.8521 57.8196 64.3816 57.951 64.0407 58.2138C63.6998 58.4766 63.46 58.7571 63.3216 59.0554L62.1284 58.6293C62.3414 58.1321 62.6255 57.745 62.9806 57.468C63.3393 57.1875 63.7299 56.9922 64.1525 56.8821C64.5787 56.7685 64.9977 56.7116 65.4096 56.7116C65.6724 56.7116 65.9743 56.7436 66.3152 56.8075C66.6596 56.8679 66.9917 56.994 67.3113 57.1857C67.6344 57.3775 67.9025 57.6669 68.1156 58.054C68.3287 58.4411 68.4352 58.9595 68.4352 59.6094V65H67.1781V63.892H67.1142C67.0289 64.0696 66.8869 64.2596 66.688 64.462C66.4892 64.6644 66.2246 64.8366 65.8944 64.9787C65.5641 65.1207 65.161 65.1918 64.6852 65.1918ZM64.877 64.0625C65.3741 64.0625 65.7931 63.9648 66.1341 63.7695C66.4785 63.5742 66.7377 63.3221 66.9118 63.0131C67.0893 62.7042 67.1781 62.3793 67.1781 62.0384V60.8878C67.1248 60.9517 67.0076 61.0103 66.8265 61.0636C66.649 61.1133 66.443 61.1577 66.2086 61.1967C65.9778 61.2322 65.7523 61.2642 65.5321 61.2926C65.3155 61.3175 65.1397 61.3388 65.0048 61.3565C64.6781 61.3991 64.3727 61.4684 64.0886 61.5643C63.8081 61.6566 63.5808 61.7969 63.4068 61.9851C63.2363 62.1697 63.1511 62.4219 63.1511 62.7415C63.1511 63.1783 63.3127 63.5085 63.6358 63.7322C63.9625 63.9524 64.3762 64.0625 64.877 64.0625Z" fill="#111927"/>
<path d="M26.6818 97.9901V96.8182H33.3295V97.9901H30.6449V105H29.3878V97.9901H26.6818ZM36.4204 103.146L40.3621 96.8182H41.811V105H40.5539V98.6719L36.6334 105H35.1633V96.8182H36.4204V103.146ZM43.6021 105L46.926 100.845L43.6447 96.8182H45.1362L47.8635 100.312H48.5453V96.8182H49.8024V100.312H50.4629L53.1902 96.8182H54.6816L51.4217 100.845L54.7243 105H53.2115L50.4416 101.484H49.8024V105H48.5453V101.484H47.9061L45.1149 105H43.6021ZM55.6471 107.344V103.828H56.3289C56.4958 103.654 56.6396 103.466 56.7604 103.263C56.8811 103.061 56.9859 102.821 57.0747 102.544C57.167 102.264 57.2451 101.923 57.309 101.522C57.373 101.117 57.4298 100.629 57.4795 100.057L57.7565 96.8182H62.9553V103.828H64.2124V107.344H62.9553V105H56.9042V107.344H55.6471ZM57.7565 103.828H61.6982V97.9901H58.9284L58.7153 100.057C58.6265 100.913 58.5164 101.66 58.385 102.299C58.2536 102.939 58.0441 103.448 57.7565 103.828ZM69.3114 105.17C68.5231 105.17 67.843 104.996 67.2713 104.648C66.7031 104.297 66.2646 103.807 65.9556 103.178C65.6502 102.546 65.4975 101.811 65.4975 100.973C65.4975 100.135 65.6502 99.3963 65.9556 98.7571C66.2646 98.1143 66.6942 97.6136 67.2447 97.255C67.7987 96.8928 68.445 96.7116 69.1836 96.7116C69.6097 96.7116 70.0305 96.7827 70.446 96.9247C70.8615 97.0668 71.2397 97.2976 71.5806 97.6172C71.9215 97.9332 72.1932 98.3523 72.3956 98.8743C72.598 99.3963 72.6992 100.039 72.6992 100.803V101.335H66.3924V100.249H71.4208C71.4208 99.7869 71.3285 99.375 71.1438 99.0128C70.9627 98.6506 70.7035 98.3647 70.3661 98.1552C70.0323 97.9457 69.6381 97.8409 69.1836 97.8409C68.6829 97.8409 68.2496 97.9652 67.8839 98.2138C67.5217 98.4588 67.2429 98.7784 67.0476 99.1726C66.8523 99.5668 66.7546 99.9893 66.7546 100.44V101.165C66.7546 101.783 66.8612 102.306 67.0742 102.736C67.2908 103.162 67.5909 103.487 67.9744 103.711C68.358 103.931 68.8036 104.041 69.3114 104.041C69.6417 104.041 69.94 103.995 70.2063 103.903C70.4762 103.807 70.7088 103.665 70.9041 103.477C71.0994 103.285 71.2504 103.047 71.3569 102.763L72.5714 103.104C72.4435 103.516 72.2287 103.878 71.9268 104.19C71.625 104.499 71.2521 104.741 70.8082 104.915C70.3643 105.085 69.8654 105.17 69.3114 105.17ZM80.0874 100.334V101.506H75.5703V100.334H80.0874ZM75.8686 96.8182V105H74.6115V96.8182H75.8686ZM81.0462 96.8182V105H79.7891V96.8182H81.0462ZM84.4286 99.7798H86.7724C87.7312 99.7798 88.4645 100.023 88.9723 100.51C89.4801 100.996 89.734 101.612 89.734 102.358C89.734 102.848 89.6204 103.294 89.3931 103.695C89.1658 104.093 88.832 104.411 88.3917 104.648C87.9513 104.883 87.4116 105 86.7724 105H83.342V96.8182H84.5991V103.828H86.7724C87.2695 103.828 87.6779 103.697 87.9975 103.434C88.3171 103.171 88.4769 102.834 88.4769 102.422C88.4769 101.989 88.3171 101.635 87.9975 101.362C87.6779 101.088 87.2695 100.952 86.7724 100.952H84.4286V99.7798Z" fill="#111927"/>
<path d="M103.688 105.149C102.885 105.149 102.201 104.931 101.637 104.494C101.072 104.054 100.641 103.416 100.342 102.582C100.044 101.744 99.8949 100.732 99.8949 99.5455C99.8949 98.3665 100.044 97.3597 100.342 96.5252C100.644 95.6871 101.077 95.0479 101.642 94.6076C102.21 94.1637 102.892 93.9418 103.688 93.9418C104.483 93.9418 105.163 94.1637 105.728 94.6076C106.296 95.0479 106.729 95.6871 107.027 96.5252C107.329 97.3597 107.48 98.3665 107.48 99.5455C107.48 100.732 107.331 101.744 107.033 102.582C106.734 103.416 106.303 104.054 105.738 104.494C105.174 104.931 104.49 105.149 103.688 105.149ZM103.688 103.977C104.483 103.977 105.101 103.594 105.541 102.827C105.982 102.06 106.202 100.966 106.202 99.5455C106.202 98.6009 106.1 97.7965 105.898 97.1325C105.699 96.4684 105.412 95.9624 105.035 95.6143C104.662 95.2663 104.213 95.0923 103.688 95.0923C102.899 95.0923 102.283 95.4812 101.839 96.2589C101.395 97.033 101.173 98.1286 101.173 99.5455C101.173 100.49 101.273 101.293 101.472 101.953C101.67 102.614 101.956 103.116 102.329 103.461C102.706 103.805 103.158 103.977 103.688 103.977ZM109.504 105V104.041L113.105 100.099C113.528 99.6378 113.876 99.2365 114.149 98.8956C114.423 98.5511 114.625 98.228 114.756 97.9261C114.891 97.6207 114.959 97.3011 114.959 96.9673C114.959 96.5838 114.866 96.2518 114.682 95.9712C114.501 95.6907 114.252 95.4741 113.936 95.3214C113.62 95.1687 113.265 95.0923 112.871 95.0923C112.452 95.0923 112.086 95.1793 111.773 95.3533C111.464 95.5238 111.225 95.7635 111.054 96.0724C110.887 96.3814 110.804 96.7436 110.804 97.1591H109.547C109.547 96.5199 109.694 95.9588 109.989 95.4759C110.284 94.9929 110.685 94.6165 111.193 94.3466C111.704 94.0767 112.278 93.9418 112.913 93.9418C113.553 93.9418 114.119 94.0767 114.613 94.3466C115.106 94.6165 115.493 94.9805 115.774 95.4386C116.054 95.8967 116.195 96.4062 116.195 96.9673C116.195 97.3686 116.122 97.761 115.976 98.1445C115.834 98.5245 115.586 98.9489 115.23 99.4176C114.879 99.8828 114.391 100.451 113.766 101.122L111.315 103.743V103.828H116.386V105H109.504ZM119.524 105.085C119.261 105.085 119.036 104.991 118.847 104.803C118.659 104.615 118.565 104.389 118.565 104.126C118.565 103.864 118.659 103.638 118.847 103.45C119.036 103.262 119.261 103.168 119.524 103.168C119.787 103.168 120.012 103.262 120.2 103.45C120.388 103.638 120.483 103.864 120.483 104.126C120.483 104.3 120.438 104.46 120.349 104.606C120.264 104.751 120.149 104.869 120.003 104.957C119.861 105.043 119.701 105.085 119.524 105.085ZM125.895 105.149C125.092 105.149 124.408 104.931 123.844 104.494C123.279 104.054 122.848 103.416 122.549 102.582C122.251 101.744 122.102 100.732 122.102 99.5455C122.102 98.3665 122.251 97.3597 122.549 96.5252C122.851 95.6871 123.284 95.0479 123.849 94.6076C124.417 94.1637 125.099 93.9418 125.895 93.9418C126.69 93.9418 127.37 94.1637 127.935 94.6076C128.503 95.0479 128.936 95.6871 129.234 96.5252C129.536 97.3597 129.687 98.3665 129.687 99.5455C129.687 100.732 129.538 101.744 129.24 102.582C128.941 103.416 128.51 104.054 127.945 104.494C127.381 104.931 126.697 105.149 125.895 105.149ZM125.895 103.977C126.69 103.977 127.308 103.594 127.748 102.827C128.189 102.06 128.409 100.966 128.409 99.5455C128.409 98.6009 128.308 97.7965 128.105 97.1325C127.906 96.4684 127.619 95.9624 127.242 95.6143C126.869 95.2663 126.42 95.0923 125.895 95.0923C125.106 95.0923 124.49 95.4812 124.046 96.2589C123.602 97.033 123.38 98.1286 123.38 99.5455C123.38 100.49 123.48 101.293 123.679 101.953C123.877 102.614 124.163 103.116 124.536 103.461C124.913 103.805 125.365 103.977 125.895 103.977ZM131.456 102.763V101.676L136.25 94.0909H137.038V95.7741H136.505L132.883 101.506V101.591H139.339V102.763H131.456ZM136.591 105V102.433V101.926V94.0909H137.848V105H136.591ZM150.263 98.9595V100.131H145.49V98.9595H150.263ZM160.23 105.149C159.428 105.149 158.744 104.931 158.18 104.494C157.615 104.054 157.184 103.416 156.885 102.582C156.587 101.744 156.438 100.732 156.438 99.5455C156.438 98.3665 156.587 97.3597 156.885 96.5252C157.187 95.6871 157.62 95.0479 158.185 94.6076C158.753 94.1637 159.435 93.9418 160.23 93.9418C161.026 93.9418 161.706 94.1637 162.271 94.6076C162.839 95.0479 163.272 95.6871 163.57 96.5252C163.872 97.3597 164.023 98.3665 164.023 99.5455C164.023 100.732 163.874 101.744 163.576 102.582C163.277 103.416 162.846 104.054 162.281 104.494C161.717 104.931 161.033 105.149 160.23 105.149ZM160.23 103.977C161.026 103.977 161.644 103.594 162.084 102.827C162.525 102.06 162.745 100.966 162.745 99.5455C162.745 98.6009 162.643 97.7965 162.441 97.1325C162.242 96.4684 161.955 95.9624 161.578 95.6143C161.205 95.2663 160.756 95.0923 160.23 95.0923C159.442 95.0923 158.826 95.4812 158.382 96.2589C157.938 97.033 157.716 98.1286 157.716 99.5455C157.716 100.49 157.816 101.293 158.015 101.953C158.213 102.614 158.499 103.116 158.872 103.461C159.249 103.805 159.701 103.977 160.23 103.977ZM169.52 93.9418C169.968 93.9453 170.415 94.0305 170.863 94.1974C171.31 94.3643 171.718 94.6413 172.088 95.0284C172.457 95.4119 172.754 95.9357 172.977 96.5998C173.201 97.2638 173.313 98.0966 173.313 99.098C173.313 100.067 173.221 100.929 173.036 101.681C172.855 102.431 172.592 103.063 172.248 103.578C171.907 104.093 171.491 104.483 171.001 104.75C170.515 105.016 169.964 105.149 169.35 105.149C168.739 105.149 168.194 105.028 167.714 104.787C167.239 104.542 166.848 104.203 166.543 103.77C166.241 103.333 166.047 102.827 165.962 102.251H167.262C167.379 102.752 167.612 103.166 167.96 103.493C168.311 103.816 168.775 103.977 169.35 103.977C170.191 103.977 170.855 103.61 171.342 102.875C171.832 102.14 172.077 101.101 172.077 99.7585H171.992C171.793 100.057 171.557 100.314 171.283 100.531C171.01 100.748 170.706 100.914 170.373 101.032C170.039 101.149 169.684 101.207 169.307 101.207C168.682 101.207 168.109 101.053 167.587 100.744C167.068 100.431 166.653 100.004 166.34 99.4602C166.031 98.9134 165.877 98.2884 165.877 97.5852C165.877 96.9176 166.026 96.3068 166.324 95.7528C166.626 95.1953 167.049 94.7514 167.592 94.4212C168.139 94.0909 168.782 93.9311 169.52 93.9418ZM169.52 95.1136C169.073 95.1136 168.67 95.2255 168.311 95.4492C167.956 95.6694 167.674 95.9677 167.464 96.3441C167.258 96.717 167.155 97.1307 167.155 97.5852C167.155 98.0398 167.255 98.4535 167.453 98.8263C167.656 99.1957 167.931 99.4904 168.279 99.7106C168.631 99.9272 169.03 100.036 169.478 100.036C169.815 100.036 170.129 99.9698 170.42 99.8384C170.712 99.7035 170.966 99.5206 171.182 99.2898C171.402 99.0554 171.575 98.7908 171.699 98.4961C171.823 98.1978 171.885 97.8871 171.885 97.5639C171.885 97.1378 171.782 96.7383 171.576 96.3654C171.374 95.9925 171.093 95.6907 170.735 95.4599C170.38 95.229 169.975 95.1136 169.52 95.1136ZM175.964 105.085C175.701 105.085 175.476 104.991 175.288 104.803C175.1 104.615 175.005 104.389 175.005 104.126C175.005 103.864 175.1 103.638 175.288 103.45C175.476 103.262 175.701 103.168 175.964 103.168C176.227 103.168 176.453 103.262 176.641 103.45C176.829 103.638 176.923 103.864 176.923 104.126C176.923 104.3 176.879 104.46 176.79 104.606C176.705 104.751 176.589 104.869 176.444 104.957C176.302 105.043 176.142 105.085 175.964 105.085ZM182.335 105.149C181.532 105.149 180.849 104.931 180.284 104.494C179.72 104.054 179.288 103.416 178.99 102.582C178.691 101.744 178.542 100.732 178.542 99.5455C178.542 98.3665 178.691 97.3597 178.99 96.5252C179.292 95.6871 179.725 95.0479 180.29 94.6076C180.858 94.1637 181.54 93.9418 182.335 93.9418C183.13 93.9418 183.81 94.1637 184.375 94.6076C184.943 95.0479 185.377 95.6871 185.675 96.5252C185.977 97.3597 186.128 98.3665 186.128 99.5455C186.128 100.732 185.978 101.744 185.68 102.582C185.382 103.416 184.95 104.054 184.386 104.494C183.821 104.931 183.138 105.149 182.335 105.149ZM182.335 103.977C183.13 103.977 183.748 103.594 184.189 102.827C184.629 102.06 184.849 100.966 184.849 99.5455C184.849 98.6009 184.748 97.7965 184.546 97.1325C184.347 96.4684 184.059 95.9624 183.683 95.6143C183.31 95.2663 182.861 95.0923 182.335 95.0923C181.547 95.0923 180.93 95.4812 180.487 96.2589C180.043 97.033 179.821 98.1286 179.821 99.5455C179.821 100.49 179.92 101.293 180.119 101.953C180.318 102.614 180.604 103.116 180.977 103.461C181.353 103.805 181.806 103.977 182.335 103.977ZM187.896 102.763V101.676L192.69 94.0909H193.478V95.7741H192.946L189.324 101.506V101.591H195.78V102.763H187.896ZM193.031 105V102.433V101.926V94.0909H194.288V105H193.031Z" fill="#667085"/>
<path d="M31.625 143.295L34.4801 136.818H35.6733L32.1364 145H31.1136L27.6406 136.818H28.8125L31.625 143.295ZM28.4077 136.818V145H27.1506V136.818H28.4077ZM34.8423 145V136.818H36.0994V145H34.8423ZM38.4006 145V136.818H39.6577V145H38.4006ZM39.0398 135.455C38.7947 135.455 38.5835 135.371 38.4059 135.204C38.2319 135.037 38.1449 134.837 38.1449 134.602C38.1449 134.368 38.2319 134.167 38.4059 134C38.5835 133.833 38.7947 133.75 39.0398 133.75C39.2848 133.75 39.4943 133.833 39.6683 134C39.8459 134.167 39.9347 134.368 39.9347 134.602C39.9347 134.837 39.8459 135.037 39.6683 135.204C39.4943 135.371 39.2848 135.455 39.0398 135.455ZM45.284 145.17C44.517 145.17 43.8564 144.989 43.3025 144.627C42.7485 144.265 42.3224 143.766 42.0241 143.13C41.7258 142.495 41.5766 141.768 41.5766 140.952C41.5766 140.121 41.7293 139.387 42.0347 138.752C42.3437 138.113 42.7733 137.614 43.3238 137.255C43.8778 136.893 44.5241 136.712 45.2627 136.712C45.838 136.712 46.3564 136.818 46.8181 137.031C47.2797 137.244 47.6579 137.543 47.9527 137.926C48.2474 138.31 48.4303 138.757 48.5013 139.268H47.2442C47.1483 138.896 46.9353 138.565 46.605 138.278C46.2783 137.987 45.838 137.841 45.284 137.841C44.7939 137.841 44.3643 137.969 43.9949 138.224C43.6292 138.477 43.3433 138.833 43.1373 139.295C42.9349 139.753 42.8337 140.291 42.8337 140.909C42.8337 141.541 42.9331 142.092 43.132 142.56C43.3344 143.029 43.6185 143.393 43.9843 143.652C44.3536 143.912 44.7868 144.041 45.284 144.041C45.6107 144.041 45.9072 143.984 46.1736 143.871C46.4399 143.757 46.6654 143.594 46.8501 143.381C47.0347 143.168 47.1661 142.912 47.2442 142.614H48.5013C48.4303 143.097 48.2545 143.532 47.974 143.919C47.697 144.302 47.3295 144.608 46.8714 144.835C46.4168 145.059 45.8877 145.17 45.284 145.17ZM55.2609 145V137.969H53.0876C52.5976 137.969 52.2123 138.082 51.9317 138.31C51.6512 138.537 51.5109 138.849 51.5109 139.247C51.5109 139.638 51.637 139.945 51.8891 140.169C52.1448 140.392 52.4946 140.504 52.9385 140.504H55.5805V141.676H52.9385C52.3845 141.676 51.9069 141.578 51.5056 141.383C51.1043 141.188 50.7954 140.909 50.5787 140.547C50.3621 140.181 50.2538 139.748 50.2538 139.247C50.2538 138.743 50.3675 138.31 50.5947 137.947C50.822 137.585 51.1469 137.306 51.5695 137.111C51.9956 136.916 52.5017 136.818 53.0876 136.818H56.4541V145H55.2609ZM49.8064 145L52.1288 140.93H53.4925L51.17 145H49.8064ZM65.1966 136.818V143.828H66.3471V147.642H65.09V145H58.7619V136.818H60.019V143.828H63.9395V136.818H65.1966ZM69.37 139.78H71.7138C72.6726 139.78 73.4059 140.023 73.9137 140.51C74.4215 140.996 74.6754 141.612 74.6754 142.358C74.6754 142.848 74.5618 143.294 74.3345 143.695C74.1072 144.093 73.7734 144.411 73.3331 144.648C72.8928 144.883 72.353 145 71.7138 145H68.2834V136.818H69.5405V143.828H71.7138C72.2109 143.828 72.6193 143.697 72.9389 143.434C73.2585 143.171 73.4183 142.834 73.4183 142.422C73.4183 141.989 73.2585 141.635 72.9389 141.362C72.6193 141.088 72.2109 140.952 71.7138 140.952H69.37V139.78Z" fill="#111927"/>
<path d="M88.9645 134.091V145H87.6435V135.476H87.5795L84.9162 137.244V135.902L87.6435 134.091H88.9645ZM95.6602 145.149C94.8576 145.149 94.174 144.931 93.6094 144.494C93.0447 144.054 92.6133 143.416 92.315 142.582C92.0167 141.744 91.8675 140.732 91.8675 139.545C91.8675 138.366 92.0167 137.36 92.315 136.525C92.6168 135.687 93.0501 135.048 93.6147 134.608C94.1829 134.164 94.8647 133.942 95.6602 133.942C96.4556 133.942 97.1357 134.164 97.7003 134.608C98.2685 135.048 98.7017 135.687 99 136.525C99.3018 137.36 99.4528 138.366 99.4528 139.545C99.4528 140.732 99.3036 141.744 99.0053 142.582C98.707 143.416 98.2756 144.054 97.7109 144.494C97.1463 144.931 96.4627 145.149 95.6602 145.149ZM95.6602 143.977C96.4556 143.977 97.0735 143.594 97.5138 142.827C97.9542 142.06 98.1744 140.966 98.1744 139.545C98.1744 138.601 98.0732 137.797 97.8707 137.132C97.6719 136.468 97.3842 135.962 97.0078 135.614C96.6349 135.266 96.1857 135.092 95.6602 135.092C94.8718 135.092 94.2557 135.481 93.8118 136.259C93.3679 137.033 93.146 138.129 93.146 139.545C93.146 140.49 93.2454 141.293 93.4442 141.953C93.6431 142.614 93.929 143.116 94.3018 143.461C94.6783 143.805 95.131 143.977 95.6602 143.977ZM102.034 145.085C101.771 145.085 101.545 144.991 101.357 144.803C101.169 144.615 101.075 144.389 101.075 144.126C101.075 143.864 101.169 143.638 101.357 143.45C101.545 143.262 101.771 143.168 102.034 143.168C102.296 143.168 102.522 143.262 102.71 143.45C102.898 143.638 102.992 143.864 102.992 144.126C102.992 144.3 102.948 144.46 102.859 144.606C102.774 144.751 102.659 144.869 102.513 144.957C102.371 145.043 102.211 145.085 102.034 145.085ZM108.404 145.149C107.602 145.149 106.918 144.931 106.354 144.494C105.789 144.054 105.357 143.416 105.059 142.582C104.761 141.744 104.612 140.732 104.612 139.545C104.612 138.366 104.761 137.36 105.059 136.525C105.361 135.687 105.794 135.048 106.359 134.608C106.927 134.164 107.609 133.942 108.404 133.942C109.2 133.942 109.88 134.164 110.444 134.608C111.013 135.048 111.446 135.687 111.744 136.525C112.046 137.36 112.197 138.366 112.197 139.545C112.197 140.732 112.048 141.744 111.749 142.582C111.451 143.416 111.02 144.054 110.455 144.494C109.89 144.931 109.207 145.149 108.404 145.149ZM108.404 143.977C109.2 143.977 109.818 143.594 110.258 142.827C110.698 142.06 110.919 140.966 110.919 139.545C110.919 138.601 110.817 137.797 110.615 137.132C110.416 136.468 110.128 135.962 109.752 135.614C109.379 135.266 108.93 135.092 108.404 135.092C107.616 135.092 107 135.481 106.556 136.259C106.112 137.033 105.89 138.129 105.89 139.545C105.89 140.49 105.99 141.293 106.188 141.953C106.387 142.614 106.673 143.116 107.046 143.461C107.422 143.805 107.875 143.977 108.404 143.977ZM117.907 145.149C117.204 145.149 116.577 145.028 116.027 144.787C115.48 144.545 115.045 144.21 114.722 143.78C114.402 143.347 114.228 142.844 114.2 142.273H115.542C115.57 142.624 115.691 142.928 115.904 143.184C116.117 143.436 116.396 143.631 116.741 143.77C117.085 143.908 117.467 143.977 117.886 143.977C118.355 143.977 118.77 143.896 119.132 143.732C119.494 143.569 119.779 143.342 119.985 143.05C120.191 142.759 120.294 142.422 120.294 142.038C120.294 141.637 120.194 141.284 119.995 140.978C119.796 140.669 119.505 140.428 119.122 140.254C118.738 140.08 118.269 139.993 117.715 139.993H116.842V138.821H117.715C118.149 138.821 118.529 138.743 118.855 138.587C119.186 138.43 119.443 138.21 119.628 137.926C119.816 137.642 119.91 137.308 119.91 136.925C119.91 136.555 119.828 136.234 119.665 135.961C119.502 135.687 119.271 135.474 118.972 135.321C118.678 135.169 118.33 135.092 117.928 135.092C117.552 135.092 117.197 135.162 116.863 135.3C116.533 135.435 116.263 135.632 116.053 135.891C115.844 136.147 115.73 136.456 115.713 136.818H114.434C114.455 136.246 114.628 135.746 114.951 135.316C115.274 134.883 115.697 134.545 116.219 134.304C116.744 134.062 117.321 133.942 117.95 133.942C118.624 133.942 119.203 134.078 119.686 134.352C120.169 134.622 120.54 134.979 120.8 135.423C121.059 135.866 121.188 136.346 121.188 136.861C121.188 137.475 121.027 137.999 120.704 138.432C120.384 138.865 119.949 139.165 119.399 139.332V139.418C120.088 139.531 120.626 139.824 121.013 140.297C121.4 140.765 121.593 141.346 121.593 142.038C121.593 142.631 121.432 143.164 121.108 143.636C120.789 144.105 120.352 144.474 119.798 144.744C119.244 145.014 118.614 145.149 117.907 145.149ZM132.699 138.96V140.131H127.927V138.96H132.699ZM142.667 145.149C141.864 145.149 141.181 144.931 140.616 144.494C140.052 144.054 139.62 143.416 139.322 142.582C139.024 141.744 138.874 140.732 138.874 139.545C138.874 138.366 139.024 137.36 139.322 136.525C139.624 135.687 140.057 135.048 140.622 134.608C141.19 134.164 141.872 133.942 142.667 133.942C143.462 133.942 144.142 134.164 144.707 134.608C145.275 135.048 145.709 135.687 146.007 136.525C146.309 137.36 146.46 138.366 146.46 139.545C146.46 140.732 146.31 141.744 146.012 142.582C145.714 143.416 145.282 144.054 144.718 144.494C144.153 144.931 143.47 145.149 142.667 145.149ZM142.667 143.977C143.462 143.977 144.08 143.594 144.521 142.827C144.961 142.06 145.181 140.966 145.181 139.545C145.181 138.601 145.08 137.797 144.878 137.132C144.679 136.468 144.391 135.962 144.015 135.614C143.642 135.266 143.193 135.092 142.667 135.092C141.879 135.092 141.263 135.481 140.819 136.259C140.375 137.033 140.153 138.129 140.153 139.545C140.153 140.49 140.252 141.293 140.451 141.953C140.65 142.614 140.936 143.116 141.309 143.461C141.685 143.805 142.138 143.977 142.667 143.977ZM151.957 133.942C152.404 133.945 152.852 134.031 153.299 134.197C153.747 134.364 154.155 134.641 154.524 135.028C154.894 135.412 155.19 135.936 155.414 136.6C155.638 137.264 155.749 138.097 155.749 139.098C155.749 140.067 155.657 140.929 155.472 141.681C155.291 142.431 155.028 143.063 154.684 143.578C154.343 144.093 153.928 144.483 153.438 144.75C152.951 145.016 152.401 145.149 151.786 145.149C151.176 145.149 150.63 145.028 150.151 144.787C149.675 144.542 149.285 144.203 148.979 143.77C148.677 143.333 148.484 142.827 148.399 142.251H149.698C149.815 142.752 150.048 143.166 150.396 143.493C150.748 143.816 151.211 143.977 151.786 143.977C152.628 143.977 153.292 143.61 153.778 142.875C154.269 142.14 154.514 141.101 154.514 139.759H154.428C154.229 140.057 153.993 140.314 153.72 140.531C153.446 140.748 153.143 140.914 152.809 141.032C152.475 141.149 152.12 141.207 151.744 141.207C151.119 141.207 150.545 141.053 150.023 140.744C149.505 140.431 149.089 140.004 148.777 139.46C148.468 138.913 148.313 138.288 148.313 137.585C148.313 136.918 148.462 136.307 148.761 135.753C149.063 135.195 149.485 134.751 150.028 134.421C150.575 134.091 151.218 133.931 151.957 133.942ZM151.957 135.114C151.509 135.114 151.106 135.225 150.748 135.449C150.392 135.669 150.11 135.968 149.901 136.344C149.695 136.717 149.592 137.131 149.592 137.585C149.592 138.04 149.691 138.453 149.89 138.826C150.092 139.196 150.368 139.49 150.716 139.711C151.067 139.927 151.467 140.036 151.914 140.036C152.252 140.036 152.566 139.97 152.857 139.838C153.148 139.703 153.402 139.521 153.619 139.29C153.839 139.055 154.011 138.791 154.135 138.496C154.26 138.198 154.322 137.887 154.322 137.564C154.322 137.138 154.219 136.738 154.013 136.365C153.81 135.993 153.53 135.691 153.171 135.46C152.816 135.229 152.411 135.114 151.957 135.114ZM158.401 145.085C158.138 145.085 157.912 144.991 157.724 144.803C157.536 144.615 157.442 144.389 157.442 144.126C157.442 143.864 157.536 143.638 157.724 143.45C157.912 143.262 158.138 143.168 158.401 143.168C158.664 143.168 158.889 143.262 159.077 143.45C159.265 143.638 159.36 143.864 159.36 144.126C159.36 144.3 159.315 144.46 159.226 144.606C159.141 144.751 159.026 144.869 158.88 144.957C158.738 145.043 158.578 145.085 158.401 145.085ZM164.771 145.149C163.969 145.149 163.285 144.931 162.721 144.494C162.156 144.054 161.725 143.416 161.426 142.582C161.128 141.744 160.979 140.732 160.979 139.545C160.979 138.366 161.128 137.36 161.426 136.525C161.728 135.687 162.161 135.048 162.726 134.608C163.294 134.164 163.976 133.942 164.771 133.942C165.567 133.942 166.247 134.164 166.812 134.608C167.38 135.048 167.813 135.687 168.111 136.525C168.413 137.36 168.564 138.366 168.564 139.545C168.564 140.732 168.415 141.744 168.117 142.582C167.818 143.416 167.387 144.054 166.822 144.494C166.258 144.931 165.574 145.149 164.771 145.149ZM164.771 143.977C165.567 143.977 166.185 143.594 166.625 142.827C167.066 142.06 167.286 140.966 167.286 139.545C167.286 138.601 167.184 137.797 166.982 137.132C166.783 136.468 166.496 135.962 166.119 135.614C165.746 135.266 165.297 135.092 164.771 135.092C163.983 135.092 163.367 135.481 162.923 136.259C162.479 137.033 162.257 138.129 162.257 139.545C162.257 140.49 162.357 141.293 162.556 141.953C162.754 142.614 163.04 143.116 163.413 143.461C163.79 143.805 164.242 143.977 164.771 143.977ZM170.333 142.763V141.676L175.127 134.091H175.915V135.774H175.382L171.76 141.506V141.591H178.216V142.763H170.333ZM175.468 145V142.433V141.926V134.091H176.725V145H175.468Z" fill="#667085"/>
</g>
<rect x="12.5" y="0.5" width="244" height="159" rx="7.5" stroke="#E5E7EB"/>
</g>
<defs>
<filter id="filter0_dd_679_77" x="0" y="0" width="269" height="184" filterUnits="userSpaceOnUse" color-interpolation-filters="sRGB">
<feFlood flood-opacity="0" result="BackgroundImageFix"/>
<feColorMatrix in="SourceAlpha" type="matrix" values="0 0 0 0 0 0 0 0 0 0 0 0 0 0 0 0 0 0 127 0" result="hardAlpha"/>
<feMorphology radius="2" operator="erode" in="SourceAlpha" result="effect1_dropShadow_679_77"/>
<feOffset dy="4"/>
<feGaussianBlur stdDeviation="3"/>
<feColorMatrix type="matrix" values="0 0 0 0 0.0627451 0 0 0 0 0.0941176 0 0 0 0 0.156863 0 0 0 0.03 0"/>
<feBlend mode="normal" in2="BackgroundImageFix" result="effect1_dropShadow_679_77"/>
<feColorMatrix in="SourceAlpha" type="matrix" values="0 0 0 0 0 0 0 0 0 0 0 0 0 0 0 0 0 0 127 0" result="hardAlpha"/>
<feMorphology radius="4" operator="erode" in="SourceAlpha" result="effect2_dropShadow_679_77"/>
<feOffset dy="12"/>
<feGaussianBlur stdDeviation="8"/>
<feColorMatrix type="matrix" values="0 0 0 0 0.0627451 0 0 0 0 0.0941176 0 0 0 0 0.156863 0 0 0 0.08 0"/>
<feBlend mode="normal" in2="effect1_dropShadow_679_77" result="effect2_dropShadow_679_77"/>
<feBlend mode="normal" in="SourceGraphic" in2="effect2_dropShadow_679_77" result="shape"/>
</filter>
<clipPath id="clip0_679_77">
<rect x="12" width="245" height="160" rx="8" fill="white"/>
</clipPath>
</defs>
</svg>
