<svg width="1102" height="226" viewBox="0 0 1102 226" fill="none" xmlns="http://www.w3.org/2000/svg">
<g filter="url(#filter0_dd_48_5271)">
<rect x="3" y="2" width="538" height="220" rx="8" fill="white"/>
<rect x="3.5" y="2.5" width="537" height="219" rx="7.5" stroke="#EAECF0"/>
<path d="M23.5114 41.5227V36.4375H24.4489C24.7708 36.1439 25.0739 35.7296 25.358 35.1946C25.6468 34.6548 25.8906 33.9351 26.0895 33.0355C26.2931 32.1312 26.428 30.983 26.4943 29.5909L26.8068 23.4545H35.4432V36.4375H37.1193V41.4943H35.4432V38H25.1875V41.5227H23.5114ZM26.5511 36.4375H33.767V25.017H28.3977L28.1705 29.5909C28.1136 30.6515 28.0142 31.6127 27.8722 32.4744C27.7301 33.3314 27.5478 34.0914 27.3253 34.7543C27.1027 35.4124 26.8447 35.9735 26.5511 36.4375ZM38.8718 35.2159H40.6616C40.6995 35.7083 40.922 36.0824 41.3292 36.3381C41.7411 36.5938 42.2762 36.7216 42.9343 36.7216C43.6067 36.7216 44.1819 36.5843 44.6602 36.3097C45.1384 36.0303 45.3775 35.5805 45.3775 34.9602C45.3775 34.5956 45.2875 34.2784 45.1076 34.0085C44.9277 33.7339 44.6744 33.5208 44.3477 33.3693C44.021 33.2178 43.6351 33.142 43.19 33.142H41.315V31.6364H43.19C43.8576 31.6364 44.35 31.4848 44.6673 31.1818C44.9892 30.8788 45.1502 30.5 45.1502 30.0455C45.1502 29.5578 44.9774 29.1671 44.6317 28.8736C44.2861 28.5753 43.796 28.4261 43.1616 28.4261C42.5224 28.4261 41.9897 28.5705 41.5636 28.8594C41.1374 29.1435 40.9125 29.5104 40.8888 29.9602H39.1275C39.1464 29.3731 39.3263 28.8546 39.6673 28.4048C40.0082 27.9503 40.4722 27.5952 41.0593 27.3395C41.6464 27.0791 42.3188 26.9489 43.0763 26.9489C43.8434 26.9489 44.5086 27.0838 45.0721 27.3537C45.6403 27.6188 46.0782 27.9811 46.386 28.4403C46.6985 28.8949 46.8548 29.411 46.8548 29.9886C46.8548 30.6042 46.6819 31.1013 46.3363 31.4801C45.9906 31.8589 45.5574 32.1288 45.0366 32.2898V32.4034C45.4485 32.4318 45.806 32.5644 46.109 32.8011C46.4168 33.0331 46.6559 33.3385 46.8263 33.7173C46.9968 34.0914 47.082 34.5057 47.082 34.9602C47.082 35.6231 46.9045 36.2008 46.5494 36.6932C46.1942 37.1809 45.7066 37.5597 45.0863 37.8295C44.466 38.0947 43.7582 38.2273 42.9627 38.2273C42.1909 38.2273 41.4996 38.1018 40.8888 37.8509C40.2781 37.5952 39.7927 37.2424 39.4329 36.7926C39.0778 36.3381 38.8907 35.8125 38.8718 35.2159ZM49.4364 38V27.0909H53.8967C55.0709 27.0909 56.0037 27.3561 56.695 27.8864C57.3862 28.4167 57.7319 29.1174 57.7319 29.9886C57.7319 30.6515 57.5354 31.1652 57.1424 31.5298C56.7494 31.8897 56.2451 32.1335 55.6296 32.2614C56.0321 32.3182 56.4227 32.4602 56.8015 32.6875C57.185 32.9148 57.5022 33.2273 57.7532 33.625C58.0041 34.018 58.1296 34.5009 58.1296 35.0739C58.1296 35.6326 57.9876 36.1321 57.7035 36.5724C57.4194 37.0128 57.0122 37.3608 56.4819 37.6165C55.9516 37.8722 55.3171 38 54.5785 38H49.4364ZM51.0273 36.4659H54.5785C55.1561 36.4659 55.6083 36.3286 55.935 36.054C56.2617 35.7794 56.4251 35.4053 56.4251 34.9318C56.4251 34.3684 56.2617 33.9257 55.935 33.6037C55.6083 33.277 55.1561 33.1136 54.5785 33.1136H51.0273V36.4659ZM51.0273 31.6648H53.8967C54.3465 31.6648 54.7324 31.6032 55.0543 31.4801C55.3763 31.3523 55.6225 31.1723 55.793 30.9403C55.9682 30.7036 56.0558 30.4242 56.0558 30.1023C56.0558 29.643 55.864 29.2831 55.4805 29.0227C55.0969 28.7576 54.569 28.625 53.8967 28.625H51.0273V31.6648ZM60.6669 38V27.0909H62.343V38H60.6669ZM61.5192 25.2727C61.1925 25.2727 60.9107 25.1615 60.674 24.9389C60.442 24.7164 60.326 24.4489 60.326 24.1364C60.326 23.8239 60.442 23.5563 60.674 23.3338C60.9107 23.1113 61.1925 23 61.5192 23C61.8459 23 62.1252 23.1113 62.3572 23.3338C62.594 23.5563 62.7124 23.8239 62.7124 24.1364C62.7124 24.4489 62.594 24.7164 62.3572 24.9389C62.1252 25.1615 61.8459 25.2727 61.5192 25.2727ZM72.7141 31.7784V33.3409H66.6914V31.7784H72.7141ZM67.0891 27.0909V38H65.413V27.0909H67.0891ZM73.9925 27.0909V38H72.3164V27.0909H73.9925ZM77.0536 38V27.0909H78.7298V31.8352H79.8377L83.7582 27.0909H85.9173L81.5138 32.3466L85.9741 38H83.815L80.2354 33.3977H78.7298V38H77.0536ZM89.4719 35.5284L94.7276 27.0909H96.6594V38H94.9833V29.5625L89.756 38H87.7958V27.0909H89.4719V35.5284ZM104.673 35.2159H106.462C106.5 35.7083 106.723 36.0824 107.13 36.3381C107.542 36.5938 108.077 36.7216 108.735 36.7216C109.407 36.7216 109.983 36.5843 110.461 36.3097C110.939 36.0303 111.178 35.5805 111.178 34.9602C111.178 34.5956 111.088 34.2784 110.908 34.0085C110.728 33.7339 110.475 33.5208 110.148 33.3693C109.822 33.2178 109.436 33.142 108.991 33.142H107.116V31.6364H108.991C109.658 31.6364 110.151 31.4848 110.468 31.1818C110.79 30.8788 110.951 30.5 110.951 30.0455C110.951 29.5578 110.778 29.1671 110.433 28.8736C110.087 28.5753 109.597 28.4261 108.962 28.4261C108.323 28.4261 107.79 28.5705 107.364 28.8594C106.938 29.1435 106.713 29.5104 106.69 29.9602H104.928C104.947 29.3731 105.127 28.8546 105.468 28.4048C105.809 27.9503 106.273 27.5952 106.86 27.3395C107.447 27.0791 108.12 26.9489 108.877 26.9489C109.644 26.9489 110.309 27.0838 110.873 27.3537C111.441 27.6188 111.879 27.9811 112.187 28.4403C112.499 28.8949 112.656 29.411 112.656 29.9886C112.656 30.6042 112.483 31.1013 112.137 31.4801C111.791 31.8589 111.358 32.1288 110.837 32.2898V32.4034C111.249 32.4318 111.607 32.5644 111.91 32.8011C112.218 33.0331 112.457 33.3385 112.627 33.7173C112.798 34.0914 112.883 34.5057 112.883 34.9602C112.883 35.6231 112.705 36.2008 112.35 36.6932C111.995 37.1809 111.507 37.5597 110.887 37.8295C110.267 38.0947 109.559 38.2273 108.763 38.2273C107.992 38.2273 107.3 38.1018 106.69 37.8509C106.079 37.5952 105.594 37.2424 105.234 36.7926C104.879 36.3381 104.692 35.8125 104.673 35.2159ZM118.447 38.2557C117.756 38.2557 117.129 38.1255 116.565 37.8651C116.002 37.5999 115.554 37.2188 115.223 36.7216C114.892 36.2197 114.726 35.6136 114.726 34.9034C114.726 34.2784 114.849 33.7718 115.095 33.3835C115.341 32.9905 115.67 32.6828 116.082 32.4602C116.494 32.2377 116.949 32.072 117.446 31.9631C117.948 31.8494 118.452 31.7595 118.959 31.6932C119.622 31.608 120.159 31.544 120.571 31.5014C120.988 31.4541 121.291 31.3759 121.48 31.267C121.674 31.1581 121.771 30.9687 121.771 30.6989V30.642C121.771 29.9413 121.58 29.3968 121.196 29.0085C120.817 28.6203 120.242 28.4261 119.47 28.4261C118.67 28.4261 118.043 28.6013 117.588 28.9517C117.134 29.3021 116.814 29.6761 116.629 30.0739L115.038 29.5057C115.322 28.8428 115.701 28.3267 116.175 27.9574C116.653 27.5833 117.174 27.3229 117.737 27.1761C118.305 27.0246 118.864 26.9489 119.413 26.9489C119.764 26.9489 120.166 26.9915 120.621 27.0767C121.08 27.1572 121.523 27.3253 121.949 27.581C122.38 27.8366 122.737 28.2225 123.021 28.7386C123.305 29.2547 123.447 29.946 123.447 30.8125V38H121.771V36.5227H121.686C121.572 36.7595 121.383 37.0128 121.118 37.2827C120.853 37.5526 120.5 37.7822 120.06 37.9716C119.619 38.161 119.082 38.2557 118.447 38.2557ZM118.703 36.75C119.366 36.75 119.925 36.6198 120.379 36.3594C120.839 36.099 121.184 35.7628 121.416 35.3509C121.653 34.9389 121.771 34.5057 121.771 34.0511V32.517C121.7 32.6023 121.544 32.6804 121.303 32.7514C121.066 32.8177 120.791 32.8769 120.479 32.929C120.171 32.9763 119.87 33.0189 119.577 33.0568C119.288 33.09 119.054 33.1184 118.874 33.142C118.438 33.1989 118.031 33.2912 117.652 33.419C117.278 33.5421 116.975 33.7292 116.743 33.9801C116.516 34.2263 116.402 34.5625 116.402 34.9886C116.402 35.571 116.617 36.0114 117.048 36.3097C117.484 36.6032 118.036 36.75 118.703 36.75Z" fill="#384250"/>
<rect x="131" y="17" width="95" height="28" rx="6" fill="#F3F4F6"/>
<path d="M143.176 36.1591C142.46 36.1591 141.844 35.9901 141.327 35.652C140.81 35.3139 140.412 34.8482 140.134 34.255C139.855 33.6617 139.716 32.9839 139.716 32.2216C139.716 31.446 139.858 30.7616 140.143 30.1683C140.432 29.5717 140.833 29.1061 141.347 28.7713C141.864 28.4332 142.467 28.2642 143.156 28.2642C143.693 28.2642 144.177 28.3636 144.608 28.5625C145.039 28.7614 145.392 29.0398 145.667 29.3977C145.942 29.7557 146.113 30.1733 146.179 30.6506H145.006C144.916 30.3026 144.717 29.9943 144.409 29.7259C144.104 29.4541 143.693 29.3182 143.176 29.3182C142.719 29.3182 142.318 29.4375 141.973 29.6761C141.632 29.9115 141.365 30.2446 141.173 30.6754C140.984 31.103 140.889 31.6051 140.889 32.1818C140.889 32.7718 140.982 33.2855 141.168 33.723C141.357 34.1605 141.622 34.5002 141.963 34.7422C142.308 34.9841 142.712 35.1051 143.176 35.1051C143.481 35.1051 143.758 35.0521 144.006 34.946C144.255 34.84 144.465 34.6875 144.638 34.4886C144.81 34.2898 144.933 34.0511 145.006 33.7727H146.179C146.113 34.2235 145.949 34.6295 145.687 34.9908C145.428 35.3487 145.085 35.6338 144.658 35.8459C144.233 36.0547 143.74 36.1591 143.176 36.1591ZM148.908 31.1278H151.096C151.991 31.1278 152.675 31.3549 153.149 31.8089C153.623 32.263 153.86 32.8381 153.86 33.5341C153.86 33.9915 153.754 34.4074 153.542 34.782C153.33 35.1532 153.018 35.4498 152.607 35.6719C152.196 35.8906 151.692 36 151.096 36H147.894V28.3636H149.067V34.9062H151.096C151.56 34.9062 151.941 34.7836 152.239 34.5384C152.538 34.2931 152.687 33.9782 152.687 33.5938C152.687 33.1894 152.538 32.8596 152.239 32.6044C151.941 32.3492 151.56 32.2216 151.096 32.2216H148.908V31.1278ZM158.748 36.1591C158.059 36.1591 157.454 35.995 156.934 35.6669C156.417 35.3388 156.012 34.8797 155.721 34.2898C155.432 33.6998 155.288 33.0104 155.288 32.2216C155.288 31.4261 155.432 30.7318 155.721 30.1385C156.012 29.5452 156.417 29.0845 156.934 28.7564C157.454 28.4283 158.059 28.2642 158.748 28.2642C159.438 28.2642 160.041 28.4283 160.558 28.7564C161.078 29.0845 161.483 29.5452 161.771 30.1385C162.063 30.7318 162.209 31.4261 162.209 32.2216C162.209 33.0104 162.063 33.6998 161.771 34.2898C161.483 34.8797 161.078 35.3388 160.558 35.6669C160.041 35.995 159.438 36.1591 158.748 36.1591ZM158.748 35.1051C159.272 35.1051 159.703 34.9709 160.041 34.7024C160.379 34.4339 160.629 34.081 160.792 33.6435C160.954 33.206 161.035 32.732 161.035 32.2216C161.035 31.7112 160.954 31.2356 160.792 30.7947C160.629 30.3539 160.379 29.9976 160.041 29.7259C159.703 29.4541 159.272 29.3182 158.748 29.3182C158.225 29.3182 157.794 29.4541 157.456 29.7259C157.118 29.9976 156.867 30.3539 156.705 30.7947C156.543 31.2356 156.461 31.7112 156.461 32.2216C156.461 32.732 156.543 33.206 156.705 33.6435C156.867 34.081 157.118 34.4339 157.456 34.7024C157.794 34.9709 158.225 35.1051 158.748 35.1051ZM168.713 28.3636V29.4574H165.173V36H164V28.3636H168.713ZM173.131 36.1591C172.442 36.1591 171.837 35.995 171.317 35.6669C170.8 35.3388 170.395 34.8797 170.104 34.2898C169.815 33.6998 169.671 33.0104 169.671 32.2216C169.671 31.4261 169.815 30.7318 170.104 30.1385C170.395 29.5452 170.8 29.0845 171.317 28.7564C171.837 28.4283 172.442 28.2642 173.131 28.2642C173.821 28.2642 174.424 28.4283 174.941 28.7564C175.461 29.0845 175.866 29.5452 176.154 30.1385C176.446 30.7318 176.591 31.4261 176.591 32.2216C176.591 33.0104 176.446 33.6998 176.154 34.2898C175.866 34.8797 175.461 35.3388 174.941 35.6669C174.424 35.995 173.821 36.1591 173.131 36.1591ZM173.131 35.1051C173.655 35.1051 174.086 34.9709 174.424 34.7024C174.762 34.4339 175.012 34.081 175.175 33.6435C175.337 33.206 175.418 32.732 175.418 32.2216C175.418 31.7112 175.337 31.2356 175.175 30.7947C175.012 30.3539 174.762 29.9976 174.424 29.7259C174.086 29.4541 173.655 29.3182 173.131 29.3182C172.608 29.3182 172.177 29.4541 171.839 29.7259C171.501 29.9976 171.25 30.3539 171.088 30.7947C170.925 31.2356 170.844 31.7112 170.844 32.2216C170.844 32.732 170.925 33.206 171.088 33.6435C171.25 34.081 171.501 34.4339 171.839 34.7024C172.177 34.9709 172.608 35.1051 173.131 35.1051ZM177.567 38.1875V34.9062H178.203C178.359 34.7438 178.493 34.5682 178.606 34.3793C178.719 34.1903 178.817 33.9666 178.9 33.7081C178.986 33.4463 179.059 33.1281 179.118 32.7536C179.178 32.3757 179.231 31.92 179.277 31.3864L179.536 28.3636H184.388V34.9062H185.561V38.1875H184.388V36H178.74V38.1875H177.567ZM179.536 34.9062H183.215V29.4574H180.63L180.431 31.3864C180.348 32.1851 180.245 32.8828 180.123 33.4794C180 34.076 179.804 34.5516 179.536 34.9062ZM192.23 31.6449V32.7386H188.014V31.6449H192.23ZM188.292 28.3636V36H187.119V28.3636H188.292ZM193.124 28.3636V36H191.951V28.3636H193.124ZM195.267 36V28.3636H196.441V36H195.267ZM195.864 27.0909C195.635 27.0909 195.438 27.013 195.272 26.8572C195.11 26.7015 195.029 26.5142 195.029 26.2955C195.029 26.0767 195.11 25.8894 195.272 25.7337C195.438 25.5779 195.635 25.5 195.864 25.5C196.093 25.5 196.288 25.5779 196.45 25.7337C196.616 25.8894 196.699 26.0767 196.699 26.2955C196.699 26.5142 196.616 26.7015 196.45 26.8572C196.288 27.013 196.093 27.0909 195.864 27.0909Z" fill="#111927"/>
<path d="M206 29L210 33L214 29" stroke="#9DA4AE" stroke-width="1.66667" stroke-linecap="round" stroke-linejoin="round"/>
<rect x="23" y="61" width="241.5" height="64" rx="6" fill="#F9FAFB"/>
<path d="M50.0849 105.741C49.4999 105.156 48.5474 105.156 47.9624 105.741L46.6724 107.035L41.9662 102.328L43.2599 101.038C43.8449 100.453 43.8449 99.5009 43.2599 98.9159L40.4924 96.1484L38.3624 98.2784C37.9462 98.6947 37.7774 99.2984 37.9274 99.8722C38.2912 101.26 39.3224 103.963 42.1799 106.821C45.0374 109.678 47.7412 110.71 49.1287 111.073C49.7024 111.223 50.3062 111.055 50.7224 110.638L52.8524 108.508L50.0849 105.741Z" fill="url(#paint0_linear_48_5271)"/>
<path d="M62.233 82V71.8182H65.7926C66.5019 71.8182 67.0869 71.9408 67.5476 72.1861C68.0083 72.428 68.3513 72.7545 68.5767 73.1655C68.8021 73.5732 68.9148 74.0256 68.9148 74.5227C68.9148 74.9602 68.8369 75.3215 68.6811 75.6065C68.5286 75.8916 68.3265 76.117 68.0746 76.2827C67.826 76.4484 67.5559 76.571 67.2642 76.6506V76.75C67.5758 76.7699 67.889 76.8793 68.2038 77.0781C68.5187 77.277 68.7822 77.562 68.9943 77.9332C69.2064 78.3045 69.3125 78.7585 69.3125 79.2955C69.3125 79.8059 69.1965 80.2649 68.9645 80.6726C68.7325 81.0803 68.3662 81.4034 67.8658 81.642C67.3653 81.8807 66.714 82 65.9119 82H62.233ZM63.4659 80.9062H65.9119C66.7173 80.9062 67.2891 80.7505 67.6271 80.4389C67.9685 80.1241 68.1392 79.7429 68.1392 79.2955C68.1392 78.9508 68.0514 78.6326 67.8757 78.3409C67.7 78.0459 67.4498 77.8106 67.125 77.6349C66.8002 77.456 66.4157 77.3665 65.9716 77.3665H63.4659V80.9062ZM63.4659 76.2926H65.7528C66.1241 76.2926 66.4588 76.2197 66.7571 76.0739C67.0587 75.928 67.2973 75.7225 67.473 75.4574C67.652 75.1922 67.7415 74.8807 67.7415 74.5227C67.7415 74.0753 67.5857 73.6958 67.2741 73.3842C66.9626 73.0694 66.4688 72.9119 65.7926 72.9119H63.4659V76.2926ZM74.2816 82.1591C73.5657 82.1591 72.9492 81.9901 72.4322 81.652C71.9151 81.3139 71.5174 80.8482 71.239 80.255C70.9606 79.6617 70.8214 78.9839 70.8214 78.2216C70.8214 77.446 70.9639 76.7616 71.2489 76.1683C71.5373 75.5717 71.9383 75.1061 72.4521 74.7713C72.9691 74.4332 73.5723 74.2642 74.2617 74.2642C74.7987 74.2642 75.2826 74.3636 75.7134 74.5625C76.1443 74.7614 76.4973 75.0398 76.7724 75.3977C77.0475 75.7557 77.2182 76.1733 77.2844 76.6506H76.1112C76.0217 76.3026 75.8228 75.9943 75.5146 75.7259C75.2096 75.4541 74.7987 75.3182 74.2816 75.3182C73.8242 75.3182 73.4232 75.4375 73.0785 75.6761C72.7371 75.9115 72.4703 76.2446 72.2781 76.6754C72.0891 77.103 71.9947 77.6051 71.9947 78.1818C71.9947 78.7718 72.0875 79.2855 72.2731 79.723C72.462 80.1605 72.7272 80.5002 73.0685 80.7422C73.4132 80.9841 73.8176 81.1051 74.2816 81.1051C74.5865 81.1051 74.8633 81.0521 75.1119 80.946C75.3604 80.84 75.5709 80.6875 75.7433 80.4886C75.9156 80.2898 76.0382 80.0511 76.1112 79.7727H77.2844C77.2182 80.2235 77.0541 80.6295 76.7923 80.9908C76.5337 81.3487 76.1907 81.6338 75.7631 81.8459C75.3389 82.0547 74.8451 82.1591 74.2816 82.1591ZM80.0138 77.1278H82.2013C83.0962 77.1278 83.7807 77.3549 84.2546 77.8089C84.7286 78.263 84.9656 78.8381 84.9656 79.5341C84.9656 79.9915 84.8595 80.4074 84.6474 80.782C84.4353 81.1532 84.1237 81.4498 83.7127 81.6719C83.3017 81.8906 82.7979 82 82.2013 82H78.9996V74.3636H80.1729V80.9062H82.2013C82.6654 80.9062 83.0465 80.7836 83.3448 80.5384C83.6431 80.2931 83.7923 79.9782 83.7923 79.5938C83.7923 79.1894 83.6431 78.8596 83.3448 78.6044C83.0465 78.3492 82.6654 78.2216 82.2013 78.2216H80.0138V77.1278ZM89.8539 82.1591C89.1645 82.1591 88.5596 81.995 88.0392 81.6669C87.5222 81.3388 87.1178 80.8797 86.8262 80.2898C86.5378 79.6998 86.3936 79.0104 86.3936 78.2216C86.3936 77.4261 86.5378 76.7318 86.8262 76.1385C87.1178 75.5452 87.5222 75.0845 88.0392 74.7564C88.5596 74.4283 89.1645 74.2642 89.8539 74.2642C90.5433 74.2642 91.1465 74.4283 91.6635 74.7564C92.1839 75.0845 92.5882 75.5452 92.8766 76.1385C93.1683 76.7318 93.3141 77.4261 93.3141 78.2216C93.3141 79.0104 93.1683 79.6998 92.8766 80.2898C92.5882 80.8797 92.1839 81.3388 91.6635 81.6669C91.1465 81.995 90.5433 82.1591 89.8539 82.1591ZM89.8539 81.1051C90.3775 81.1051 90.8084 80.9709 91.1465 80.7024C91.4846 80.4339 91.7348 80.081 91.8972 79.6435C92.0596 79.206 92.1408 78.732 92.1408 78.2216C92.1408 77.7112 92.0596 77.2356 91.8972 76.7947C91.7348 76.3539 91.4846 75.9976 91.1465 75.7259C90.8084 75.4541 90.3775 75.3182 89.8539 75.3182C89.3302 75.3182 88.8993 75.4541 88.5613 75.7259C88.2232 75.9976 87.973 76.3539 87.8105 76.7947C87.6481 77.2356 87.5669 77.7112 87.5669 78.2216C87.5669 78.732 87.6481 79.206 87.8105 79.6435C87.973 80.081 88.2232 80.4339 88.5613 80.7024C88.8993 80.9709 89.3302 81.1051 89.8539 81.1051ZM99.8182 74.3636V75.4574H96.2784V82H95.1051V74.3636H99.8182ZM104.237 82.1591C103.547 82.1591 102.942 81.995 102.422 81.6669C101.905 81.3388 101.501 80.8797 101.209 80.2898C100.921 79.6998 100.776 79.0104 100.776 78.2216C100.776 77.4261 100.921 76.7318 101.209 76.1385C101.501 75.5452 101.905 75.0845 102.422 74.7564C102.942 74.4283 103.547 74.2642 104.237 74.2642C104.926 74.2642 105.529 74.4283 106.046 74.7564C106.567 75.0845 106.971 75.5452 107.259 76.1385C107.551 76.7318 107.697 77.4261 107.697 78.2216C107.697 79.0104 107.551 79.6998 107.259 80.2898C106.971 80.8797 106.567 81.3388 106.046 81.6669C105.529 81.995 104.926 82.1591 104.237 82.1591ZM104.237 81.1051C104.76 81.1051 105.191 80.9709 105.529 80.7024C105.867 80.4339 106.118 80.081 106.28 79.6435C106.442 79.206 106.524 78.732 106.524 78.2216C106.524 77.7112 106.442 77.2356 106.28 76.7947C106.118 76.3539 105.867 75.9976 105.529 75.7259C105.191 75.4541 104.76 75.3182 104.237 75.3182C103.713 75.3182 103.282 75.4541 102.944 75.7259C102.606 75.9976 102.356 76.3539 102.193 76.7947C102.031 77.2356 101.95 77.7112 101.95 78.2216C101.95 78.732 102.031 79.206 102.193 79.6435C102.356 80.081 102.606 80.4339 102.944 80.7024C103.282 80.9709 103.713 81.1051 104.237 81.1051Z" fill="#384250"/>
<path d="M69.3011 94.5455V112H66.6591V97.1875H66.5568L62.3807 99.9148V97.392L66.7358 94.5455H69.3011ZM80.6449 94.5455V112H78.0028V97.1875H77.9006L73.7244 99.9148V97.392L78.0795 94.5455H80.6449Z" fill="#101828"/>
<rect x="279.5" y="61" width="241.5" height="64" rx="6" fill="#F9FAFB"/>
<path d="M295.5 104H307.5M307.5 104L303 99.5M307.5 104L303 108.5" stroke="#12B76A" stroke-width="2" stroke-linecap="round" stroke-linejoin="round"/>
<path d="M318.733 82V71.8182H322.293C323.002 71.8182 323.587 71.9408 324.048 72.1861C324.508 72.428 324.851 72.7545 325.077 73.1655C325.302 73.5732 325.415 74.0256 325.415 74.5227C325.415 74.9602 325.337 75.3215 325.181 75.6065C325.029 75.8916 324.826 76.117 324.575 76.2827C324.326 76.4484 324.056 76.571 323.764 76.6506V76.75C324.076 76.7699 324.389 76.8793 324.704 77.0781C325.019 77.277 325.282 77.562 325.494 77.9332C325.706 78.3045 325.812 78.7585 325.812 79.2955C325.812 79.8059 325.696 80.2649 325.464 80.6726C325.232 81.0803 324.866 81.4034 324.366 81.642C323.865 81.8807 323.214 82 322.412 82H318.733ZM319.966 80.9062H322.412C323.217 80.9062 323.789 80.7505 324.127 80.4389C324.469 80.1241 324.639 79.7429 324.639 79.2955C324.639 78.9508 324.551 78.6326 324.376 78.3409C324.2 78.0459 323.95 77.8106 323.625 77.6349C323.3 77.456 322.916 77.3665 322.472 77.3665H319.966V80.9062ZM319.966 76.2926H322.253C322.624 76.2926 322.959 76.2197 323.257 76.0739C323.559 75.928 323.797 75.7225 323.973 75.4574C324.152 75.1922 324.241 74.8807 324.241 74.5227C324.241 74.0753 324.086 73.6958 323.774 73.3842C323.463 73.0694 322.969 72.9119 322.293 72.9119H319.966V76.2926ZM328.554 74.3636L330.384 77.4858L332.213 74.3636H333.566L331.1 78.1818L333.566 82H332.213L330.384 79.0369L328.554 82H327.202L329.628 78.1818L327.202 74.3636H328.554ZM335.24 82V74.3636H336.413V82H335.24ZM335.836 73.0909C335.608 73.0909 335.411 73.013 335.245 72.8572C335.082 72.7015 335.001 72.5142 335.001 72.2955C335.001 72.0767 335.082 71.8894 335.245 71.7337C335.411 71.5779 335.608 71.5 335.836 71.5C336.065 71.5 336.261 71.5779 336.423 71.7337C336.589 71.8894 336.672 72.0767 336.672 72.2955C336.672 72.5142 336.589 72.7015 336.423 72.8572C336.261 73.013 336.065 73.0909 335.836 73.0909ZM337.747 84.1875V80.9062H338.383C338.539 80.7438 338.673 80.5682 338.786 80.3793C338.899 80.1903 338.996 79.9666 339.079 79.7081C339.165 79.4463 339.238 79.1281 339.298 78.7536C339.358 78.3757 339.411 77.92 339.457 77.3864L339.716 74.3636H344.568V80.9062H345.741V84.1875H344.568V82H338.92V84.1875H337.747ZM339.716 80.9062H343.395V75.4574H340.809L340.61 77.3864C340.528 78.1851 340.425 78.8828 340.302 79.4794C340.18 80.076 339.984 80.5516 339.716 80.9062ZM352.409 77.6449V78.7386H348.193V77.6449H352.409ZM348.472 74.3636V82H347.298V74.3636H348.472ZM353.304 74.3636V82H352.131V74.3636H353.304ZM356.62 80.2699L360.299 74.3636H361.651V82H360.478V76.0938L356.819 82H355.447V74.3636H356.62V80.2699ZM364.675 74.3636L366.505 77.4858L368.335 74.3636H369.687L367.221 78.1818L369.687 82H368.335L366.505 79.0369L364.675 82H363.323L365.749 78.1818L363.323 74.3636H364.675Z" fill="#384250"/>
<path d="M319.767 112L327.386 96.9318V96.804H318.574V94.5455H330.114V96.8807L322.52 112H319.767Z" fill="#101828"/>
<rect x="23" y="140" width="241.5" height="64" rx="6" fill="#F9FAFB"/>
<path d="M51 183H39M39 183L43.5 178.5M39 183L43.5 187.5" stroke="#4D50D9" stroke-width="2" stroke-linecap="round" stroke-linejoin="round"/>
<path d="M62.233 161V150.818H65.7926C66.5019 150.818 67.0869 150.941 67.5476 151.186C68.0083 151.428 68.3513 151.754 68.5767 152.165C68.8021 152.573 68.9148 153.026 68.9148 153.523C68.9148 153.96 68.8369 154.321 68.6811 154.607C68.5286 154.892 68.3265 155.117 68.0746 155.283C67.826 155.448 67.5559 155.571 67.2642 155.651V155.75C67.5758 155.77 67.889 155.879 68.2038 156.078C68.5187 156.277 68.7822 156.562 68.9943 156.933C69.2064 157.304 69.3125 157.759 69.3125 158.295C69.3125 158.806 69.1965 159.265 68.9645 159.673C68.7325 160.08 68.3662 160.403 67.8658 160.642C67.3653 160.881 66.714 161 65.9119 161H62.233ZM63.4659 159.906H65.9119C66.7173 159.906 67.2891 159.75 67.6271 159.439C67.9685 159.124 68.1392 158.743 68.1392 158.295C68.1392 157.951 68.0514 157.633 67.8757 157.341C67.7 157.046 67.4498 156.811 67.125 156.635C66.8002 156.456 66.4157 156.366 65.9716 156.366H63.4659V159.906ZM63.4659 155.293H65.7528C66.1241 155.293 66.4588 155.22 66.7571 155.074C67.0587 154.928 67.2973 154.723 67.473 154.457C67.652 154.192 67.7415 153.881 67.7415 153.523C67.7415 153.075 67.5857 152.696 67.2741 152.384C66.9626 152.069 66.4688 151.912 65.7926 151.912H63.4659V155.293ZM72.3526 159.27L76.0316 153.364H77.3839V161H76.2106V155.094L72.5515 161H71.1793V153.364H72.3526V159.27ZM80.4078 153.364L82.2374 156.486L84.0669 153.364H85.4192L82.9533 157.182L85.4192 161H84.0669L82.2374 158.037L80.4078 161H79.0556L81.4817 157.182L79.0556 153.364H80.4078ZM87.0934 161V153.364H88.2667V161H87.0934ZM87.69 152.091C87.4613 152.091 87.2641 152.013 87.0984 151.857C86.936 151.701 86.8548 151.514 86.8548 151.295C86.8548 151.077 86.936 150.889 87.0984 150.734C87.2641 150.578 87.4613 150.5 87.69 150.5C87.9187 150.5 88.1142 150.578 88.2766 150.734C88.4424 150.889 88.5252 151.077 88.5252 151.295C88.5252 151.514 88.4424 151.701 88.2766 151.857C88.1142 152.013 87.9187 152.091 87.69 152.091ZM89.6003 163.188V159.906H90.2367C90.3925 159.744 90.5267 159.568 90.6394 159.379C90.7521 159.19 90.8498 158.967 90.9327 158.708C91.0189 158.446 91.0918 158.128 91.1515 157.754C91.2111 157.376 91.2641 156.92 91.3105 156.386L91.5691 153.364H96.4213V159.906H97.5946V163.188H96.4213V161H90.7736V163.188H89.6003ZM91.5691 159.906H95.248V154.457H92.6628L92.464 156.386C92.3811 157.185 92.2784 157.883 92.1557 158.479C92.0331 159.076 91.8375 159.552 91.5691 159.906ZM104.263 156.645V157.739H100.047V156.645H104.263ZM100.325 153.364V161H99.152V153.364H100.325ZM105.158 153.364V161H103.984V153.364H105.158ZM108.474 159.27L112.153 153.364H113.505V161H112.332V155.094L108.673 161H107.3V153.364H108.474V159.27ZM116.529 153.364L118.358 156.486L120.188 153.364H121.54L119.074 157.182L121.54 161H120.188L118.358 158.037L116.529 161H115.177L117.603 157.182L115.177 153.364H116.529Z" fill="#384250"/>
<path d="M62.3125 187.591V185.46L69.8551 173.545H71.5341V176.682H70.4688L65.0739 185.222V185.358H75.4119V187.591H62.3125ZM70.5881 191V186.943L70.6051 185.972V173.545H73.1023V191H70.5881Z" fill="#101828"/>
<rect x="279.5" y="140" width="241.5" height="64" rx="6" fill="#F9FAFB"/>
<path d="M306.288 176.395C306.266 176.395 306.244 176.397 306.221 176.401H303.33C303.251 176.4 303.172 176.414 303.098 176.444C303.024 176.474 302.957 176.518 302.901 176.573C302.844 176.629 302.799 176.696 302.768 176.769C302.738 176.842 302.722 176.921 302.722 177.001C302.722 177.08 302.738 177.159 302.768 177.232C302.799 177.306 302.844 177.372 302.901 177.428C302.957 177.484 303.024 177.528 303.098 177.557C303.172 177.587 303.251 177.602 303.33 177.601H304.852L301.5 180.952L297.724 177.176C297.669 177.119 297.603 177.073 297.529 177.041C297.456 177.01 297.377 176.993 297.297 176.992C297.218 176.991 297.138 177.006 297.065 177.036C296.991 177.067 296.923 177.111 296.867 177.168C296.811 177.224 296.766 177.291 296.736 177.365C296.706 177.439 296.69 177.518 296.691 177.598C296.692 177.678 296.709 177.757 296.741 177.83C296.772 177.903 296.818 177.97 296.876 178.025L301.076 182.225C301.188 182.337 301.341 182.401 301.5 182.401C301.659 182.401 301.812 182.337 301.924 182.225L305.7 178.449V179.97C305.699 180.05 305.714 180.129 305.743 180.202C305.773 180.276 305.817 180.343 305.873 180.4C305.928 180.457 305.995 180.502 306.068 180.532C306.142 180.563 306.22 180.579 306.3 180.579C306.379 180.579 306.458 180.563 306.532 180.532C306.605 180.502 306.671 180.457 306.727 180.4C306.783 180.343 306.827 180.276 306.857 180.202C306.886 180.129 306.901 180.05 306.9 179.97V177.077C306.912 176.99 306.905 176.902 306.879 176.819C306.854 176.736 306.81 176.659 306.752 176.594C306.694 176.529 306.622 176.478 306.542 176.443C306.462 176.409 306.375 176.392 306.288 176.395V176.395ZM301.501 183.601C294.74 183.601 293.7 185.594 293.7 187.392C293.7 187.968 293.85 188.367 294.009 188.63C294.174 188.9 294.49 189.029 294.794 188.949C295.556 188.75 297.198 188.32 297.96 188.122C298.21 188.056 298.401 187.861 298.465 187.611L298.786 186.342C298.858 186.058 299.093 185.849 299.384 185.813C299.886 185.751 300.711 185.668 301.501 185.668C302.291 185.668 303.115 185.751 303.618 185.813C303.908 185.849 304.143 186.058 304.215 186.342L304.536 187.611C304.6 187.862 304.794 188.057 305.044 188.122L308.203 188.948C308.509 189.028 308.828 188.898 308.992 188.628C309.151 188.366 309.3 187.966 309.3 187.392C309.3 185.594 308.262 183.601 301.501 183.601Z" fill="#FEC84B"/>
<path d="M326.349 150.818V161H325.116V151.912H319.986V161H318.753V150.818H326.349ZM328.677 163.864V153.364H329.811V154.577H329.95C330.036 154.444 330.156 154.275 330.308 154.07C330.464 153.861 330.686 153.675 330.974 153.513C331.266 153.347 331.66 153.264 332.157 153.264C332.8 153.264 333.367 153.425 333.858 153.746C334.348 154.068 334.731 154.524 335.006 155.114C335.281 155.704 335.419 156.4 335.419 157.202C335.419 158.01 335.281 158.711 335.006 159.305C334.731 159.895 334.35 160.352 333.863 160.677C333.376 160.998 332.814 161.159 332.177 161.159C331.687 161.159 331.294 161.078 330.999 160.915C330.704 160.75 330.477 160.562 330.318 160.354C330.159 160.142 330.036 159.966 329.95 159.827H329.851V163.864H328.677ZM329.831 157.182C329.831 157.759 329.915 158.267 330.084 158.708C330.253 159.146 330.5 159.489 330.825 159.737C331.15 159.982 331.548 160.105 332.018 160.105C332.509 160.105 332.918 159.976 333.246 159.717C333.578 159.455 333.826 159.104 333.992 158.663C334.161 158.219 334.246 157.725 334.246 157.182C334.246 156.645 334.163 156.161 333.997 155.73C333.835 155.296 333.588 154.953 333.256 154.701C332.928 154.446 332.515 154.318 332.018 154.318C331.541 154.318 331.14 154.439 330.815 154.681C330.49 154.92 330.245 155.254 330.079 155.685C329.914 156.113 329.831 156.612 329.831 157.182ZM340.311 161.159C339.622 161.159 339.017 160.995 338.496 160.667C337.979 160.339 337.575 159.88 337.283 159.29C336.995 158.7 336.851 158.01 336.851 157.222C336.851 156.426 336.995 155.732 337.283 155.138C337.575 154.545 337.979 154.085 338.496 153.756C339.017 153.428 339.622 153.264 340.311 153.264C341 153.264 341.604 153.428 342.121 153.756C342.641 154.085 343.045 154.545 343.334 155.138C343.625 155.732 343.771 156.426 343.771 157.222C343.771 158.01 343.625 158.7 343.334 159.29C343.045 159.88 342.641 160.339 342.121 160.667C341.604 160.995 341 161.159 340.311 161.159ZM340.311 160.105C340.835 160.105 341.265 159.971 341.604 159.702C341.942 159.434 342.192 159.081 342.354 158.643C342.517 158.206 342.598 157.732 342.598 157.222C342.598 156.711 342.517 156.236 342.354 155.795C342.192 155.354 341.942 154.998 341.604 154.726C341.265 154.454 340.835 154.318 340.311 154.318C339.787 154.318 339.356 154.454 339.018 154.726C338.68 154.998 338.43 155.354 338.268 155.795C338.105 156.236 338.024 156.711 338.024 157.222C338.024 157.732 338.105 158.206 338.268 158.643C338.43 159.081 338.68 159.434 339.018 159.702C339.356 159.971 339.787 160.105 340.311 160.105ZM345.562 161V153.364H351.568V161H350.395V154.457H346.735V161H345.562ZM354.193 163.864C353.994 163.864 353.817 163.847 353.661 163.814C353.505 163.784 353.397 163.754 353.338 163.724L353.636 162.69C353.921 162.763 354.173 162.79 354.392 162.77C354.61 162.75 354.804 162.652 354.973 162.477C355.146 162.304 355.303 162.024 355.446 161.636L355.664 161.04L352.841 153.364H354.113L356.221 159.449H356.301L358.409 153.364H359.681L356.44 162.114C356.294 162.508 356.114 162.835 355.898 163.093C355.683 163.355 355.432 163.549 355.147 163.675C354.866 163.801 354.547 163.864 354.193 163.864ZM371.651 159.906L371.511 163.188H370.298V161H369.304V159.906H371.651ZM361.23 153.364H362.403V159.906H365.287V153.364H366.46V159.906H369.344V153.364H370.517V161H361.23V153.364ZM376.477 161.159C375.741 161.159 375.106 160.997 374.573 160.672C374.042 160.344 373.633 159.886 373.345 159.3C373.06 158.71 372.917 158.024 372.917 157.241C372.917 156.459 373.06 155.77 373.345 155.173C373.633 154.573 374.034 154.106 374.548 153.771C375.065 153.433 375.668 153.264 376.357 153.264C376.755 153.264 377.148 153.33 377.536 153.463C377.923 153.596 378.276 153.811 378.595 154.109C378.913 154.404 379.166 154.795 379.355 155.283C379.544 155.77 379.639 156.37 379.639 157.082V157.58H373.752V156.565H378.445C378.445 156.134 378.359 155.75 378.187 155.412C378.018 155.074 377.776 154.807 377.461 154.612C377.15 154.416 376.782 154.318 376.357 154.318C375.89 154.318 375.486 154.434 375.144 154.666C374.806 154.895 374.546 155.193 374.364 155.561C374.182 155.929 374.09 156.323 374.09 156.744V157.42C374.09 157.997 374.19 158.486 374.389 158.887C374.591 159.285 374.871 159.588 375.229 159.797C375.587 160.002 376.003 160.105 376.477 160.105C376.785 160.105 377.063 160.062 377.312 159.976C377.564 159.886 377.781 159.754 377.963 159.578C378.146 159.399 378.286 159.177 378.386 158.912L379.519 159.23C379.4 159.615 379.2 159.953 378.918 160.244C378.636 160.533 378.288 160.758 377.874 160.92C377.459 161.08 376.994 161.159 376.477 161.159ZM386.534 156.645V157.739H382.318V156.645H386.534ZM382.597 153.364V161H381.423V153.364H382.597ZM387.429 153.364V161H386.256V153.364H387.429ZM390.745 159.27L394.424 153.364H395.776V161H394.603V155.094L390.944 161H389.572V153.364H390.745V159.27ZM398.8 153.364L400.63 156.486L402.46 153.364H403.812L401.346 157.182L403.812 161H402.46L400.63 158.037L398.8 161H397.448L399.874 157.182L397.448 153.364H398.8Z" fill="#384250"/>
<path d="M319.179 191V189.091L325.085 182.972C325.716 182.307 326.236 181.724 326.645 181.224C327.06 180.719 327.369 180.239 327.574 179.784C327.778 179.33 327.881 178.847 327.881 178.335C327.881 177.756 327.744 177.256 327.472 176.835C327.199 176.409 326.827 176.082 326.355 175.855C325.884 175.622 325.352 175.506 324.761 175.506C324.136 175.506 323.591 175.634 323.125 175.889C322.659 176.145 322.301 176.506 322.051 176.972C321.801 177.437 321.676 177.983 321.676 178.608H319.162C319.162 177.545 319.406 176.616 319.895 175.821C320.384 175.026 321.054 174.409 321.906 173.972C322.759 173.528 323.727 173.307 324.812 173.307C325.909 173.307 326.875 173.526 327.71 173.963C328.551 174.395 329.207 174.986 329.679 175.736C330.151 176.48 330.386 177.321 330.386 178.259C330.386 178.906 330.264 179.54 330.02 180.159C329.781 180.778 329.364 181.469 328.767 182.23C328.17 182.986 327.341 183.903 326.278 184.983L322.81 188.614V188.741H330.668V191H319.179Z" fill="#101828"/>
</g>
<g filter="url(#filter1_dd_48_5271)">
<rect x="561" y="2" width="538" height="220" rx="8" fill="white"/>
<rect x="561.5" y="2.5" width="537" height="219" rx="7.5" stroke="#EAECF0"/>
<path d="M582.761 25.4545H584.864L589.807 37.5284H589.977L594.92 25.4545H597.023V40H595.375V28.9489H595.233L590.688 40H589.097L584.551 28.9489H584.409V40H582.761V25.4545ZM604.759 40.2273C603.774 40.2273 602.91 39.9929 602.167 39.5241C601.428 39.0554 600.85 38.3996 600.434 37.5568C600.022 36.714 599.816 35.7292 599.816 34.6023C599.816 33.4659 600.022 32.474 600.434 31.6264C600.85 30.7789 601.428 30.1207 602.167 29.652C602.91 29.1832 603.774 28.9489 604.759 28.9489C605.744 28.9489 606.605 29.1832 607.344 29.652C608.087 30.1207 608.665 30.7789 609.077 31.6264C609.494 32.474 609.702 33.4659 609.702 34.6023C609.702 35.7292 609.494 36.714 609.077 37.5568C608.665 38.3996 608.087 39.0554 607.344 39.5241C606.605 39.9929 605.744 40.2273 604.759 40.2273ZM604.759 38.7216C605.507 38.7216 606.123 38.5298 606.605 38.1463C607.088 37.7628 607.446 37.2585 607.678 36.6335C607.91 36.0085 608.026 35.3314 608.026 34.6023C608.026 33.8731 607.91 33.1937 607.678 32.5639C607.446 31.9342 607.088 31.4252 606.605 31.0369C606.123 30.6487 605.507 30.4545 604.759 30.4545C604.011 30.4545 603.395 30.6487 602.912 31.0369C602.429 31.4252 602.072 31.9342 601.84 32.5639C601.608 33.1937 601.492 33.8731 601.492 34.6023C601.492 35.3314 601.608 36.0085 601.84 36.6335C602.072 37.2585 602.429 37.7628 602.912 38.1463C603.395 38.5298 604.011 38.7216 604.759 38.7216ZM619.562 33.7784V35.3409H613.539V33.7784H619.562ZM613.937 29.0909V40H612.261V29.0909H613.937ZM620.84 29.0909V40H619.164V29.0909H620.84ZM623.901 40V29.0909H625.577V40H623.901ZM624.754 27.2727C624.427 27.2727 624.145 27.1615 623.908 26.9389C623.676 26.7164 623.56 26.4489 623.56 26.1364C623.56 25.8239 623.676 25.5563 623.908 25.3338C624.145 25.1113 624.427 25 624.754 25C625.08 25 625.36 25.1113 625.592 25.3338C625.828 25.5563 625.947 25.8239 625.947 26.1364C625.947 26.4489 625.828 26.7164 625.592 26.9389C625.36 27.1615 625.08 27.2727 624.754 27.2727ZM628.022 30.6534V29.0909H636.886V30.6534H633.306V40H631.63V30.6534H628.022ZM643.196 40.2273C642.212 40.2273 641.347 39.9929 640.604 39.5241C639.865 39.0554 639.288 38.3996 638.871 37.5568C638.459 36.714 638.253 35.7292 638.253 34.6023C638.253 33.4659 638.459 32.474 638.871 31.6264C639.288 30.7789 639.865 30.1207 640.604 29.652C641.347 29.1832 642.212 28.9489 643.196 28.9489C644.181 28.9489 645.043 29.1832 645.782 29.652C646.525 30.1207 647.103 30.7789 647.515 31.6264C647.931 32.474 648.14 33.4659 648.14 34.6023C648.14 35.7292 647.931 36.714 647.515 37.5568C647.103 38.3996 646.525 39.0554 645.782 39.5241C645.043 39.9929 644.181 40.2273 643.196 40.2273ZM643.196 38.7216C643.944 38.7216 644.56 38.5298 645.043 38.1463C645.526 37.7628 645.883 37.2585 646.115 36.6335C646.347 36.0085 646.463 35.3314 646.463 34.6023C646.463 33.8731 646.347 33.1937 646.115 32.5639C645.883 31.9342 645.526 31.4252 645.043 31.0369C644.56 30.6487 643.944 30.4545 643.196 30.4545C642.448 30.4545 641.833 30.6487 641.35 31.0369C640.867 31.4252 640.509 31.9342 640.277 32.5639C640.045 33.1937 639.929 33.8731 639.929 34.6023C639.929 35.3314 640.045 36.0085 640.277 36.6335C640.509 37.2585 640.867 37.7628 641.35 38.1463C641.833 38.5298 642.448 38.7216 643.196 38.7216ZM650.698 44.0909V29.0909H652.317V30.8239H652.516C652.639 30.6345 652.81 30.393 653.028 30.0994C653.25 29.8011 653.567 29.536 653.979 29.304C654.396 29.0672 654.96 28.9489 655.67 28.9489C656.588 28.9489 657.398 29.1785 658.099 29.6378C658.799 30.0971 659.346 30.7481 659.739 31.5909C660.132 32.4337 660.329 33.428 660.329 34.5739C660.329 35.7292 660.132 36.7306 659.739 37.5781C659.346 38.4209 658.802 39.0743 658.106 39.5384C657.41 39.9976 656.607 40.2273 655.698 40.2273C654.997 40.2273 654.436 40.1113 654.015 39.8793C653.594 39.6425 653.269 39.375 653.042 39.0767C652.815 38.7737 652.639 38.5227 652.516 38.3239H652.374V44.0909H650.698ZM652.346 34.5455C652.346 35.3693 652.467 36.0961 652.708 36.7259C652.95 37.3509 653.302 37.8409 653.766 38.196C654.23 38.5464 654.799 38.7216 655.471 38.7216C656.172 38.7216 656.756 38.5369 657.225 38.1676C657.699 37.7936 658.054 37.2917 658.29 36.6619C658.532 36.0275 658.653 35.322 658.653 34.5455C658.653 33.7784 658.534 33.0871 658.298 32.4716C658.066 31.8513 657.713 31.3613 657.239 31.0014C656.771 30.6368 656.181 30.4545 655.471 30.4545C654.789 30.4545 654.216 30.6274 653.752 30.973C653.288 31.3139 652.938 31.7921 652.701 32.4077C652.464 33.0185 652.346 33.7311 652.346 34.5455ZM664.562 37.5284L669.817 29.0909H671.749V40H670.073V31.5625L664.846 40H662.886V29.0909H664.562V37.5284ZM682.12 33.7784V35.3409H676.098V33.7784H682.12ZM676.495 29.0909V40H674.819V29.0909H676.495ZM683.399 29.0909V40H681.723V29.0909H683.399ZM693.193 29.0909V30.6534H688.136V40H686.46V29.0909H693.193ZM705.696 40.2273C704.674 40.2273 703.793 39.9858 703.054 39.5028C702.316 39.0199 701.748 38.3546 701.35 37.5071C700.952 36.6596 700.753 35.6913 700.753 34.6023C700.753 33.4943 700.957 32.5166 701.364 31.669C701.776 30.8168 702.349 30.1515 703.083 29.6733C703.821 29.1903 704.683 28.9489 705.668 28.9489C706.435 28.9489 707.126 29.0909 707.742 29.375C708.357 29.6591 708.862 30.0568 709.255 30.5682C709.648 31.0795 709.891 31.6761 709.986 32.358H708.31C708.182 31.8608 707.898 31.4205 707.458 31.0369C707.022 30.6487 706.435 30.4545 705.696 30.4545C705.043 30.4545 704.47 30.625 703.978 30.9659C703.49 31.3021 703.109 31.7779 702.834 32.3935C702.564 33.0043 702.429 33.7216 702.429 34.5455C702.429 35.3883 702.562 36.1222 702.827 36.7472C703.097 37.3722 703.476 37.8575 703.963 38.2031C704.456 38.5488 705.033 38.7216 705.696 38.7216C706.132 38.7216 706.527 38.6458 706.882 38.4943C707.238 38.3428 707.538 38.125 707.784 37.8409C708.031 37.5568 708.206 37.2159 708.31 36.8182H709.986C709.891 37.4621 709.657 38.0421 709.283 38.5582C708.914 39.0696 708.424 39.4768 707.813 39.7798C707.207 40.0781 706.501 40.2273 705.696 40.2273ZM712.436 40V29.0909H721.016V40H719.34V30.6534H714.113V40H712.436ZM724.077 40V29.0909H725.753V40H724.077ZM724.929 27.2727C724.603 27.2727 724.321 27.1615 724.084 26.9389C723.852 26.7164 723.736 26.4489 723.736 26.1364C723.736 25.8239 723.852 25.5563 724.084 25.3338C724.321 25.1113 724.603 25 724.929 25C725.256 25 725.535 25.1113 725.767 25.3338C726.004 25.5563 726.123 25.8239 726.123 26.1364C726.123 26.4489 726.004 26.7164 725.767 26.9389C725.535 27.1615 725.256 27.2727 724.929 27.2727ZM728.823 40V29.0909H733.283C734.458 29.0909 735.39 29.3561 736.082 29.8864C736.773 30.4167 737.119 31.1174 737.119 31.9886C737.119 32.6515 736.922 33.1652 736.529 33.5298C736.136 33.8897 735.632 34.1335 735.016 34.2614C735.419 34.3182 735.809 34.4602 736.188 34.6875C736.572 34.9148 736.889 35.2273 737.14 35.625C737.391 36.018 737.516 36.5009 737.516 37.0739C737.516 37.6326 737.374 38.1321 737.09 38.5724C736.806 39.0128 736.399 39.3608 735.869 39.6165C735.338 39.8722 734.704 40 733.965 40H728.823ZM730.414 38.4659H733.965C734.543 38.4659 734.995 38.3286 735.322 38.054C735.648 37.7794 735.812 37.4053 735.812 36.9318C735.812 36.3684 735.648 35.9257 735.322 35.6037C734.995 35.277 734.543 35.1136 733.965 35.1136H730.414V38.4659ZM730.414 33.6648H733.283C733.733 33.6648 734.119 33.6032 734.441 33.4801C734.763 33.3523 735.009 33.1723 735.18 32.9403C735.355 32.7036 735.442 32.4242 735.442 32.1023C735.442 31.643 735.251 31.2831 734.867 31.0227C734.484 30.7576 733.956 30.625 733.283 30.625H730.414V33.6648ZM740.054 44.0909V29.0909H741.673V30.8239H741.872C741.995 30.6345 742.165 30.393 742.383 30.0994C742.606 29.8011 742.923 29.536 743.335 29.304C743.752 29.0672 744.315 28.9489 745.025 28.9489C745.944 28.9489 746.753 29.1785 747.454 29.6378C748.155 30.0971 748.702 30.7481 749.095 31.5909C749.488 32.4337 749.684 33.428 749.684 34.5739C749.684 35.7292 749.488 36.7306 749.095 37.5781C748.702 38.4209 748.157 39.0743 747.461 39.5384C746.765 39.9976 745.963 40.2273 745.054 40.2273C744.353 40.2273 743.792 40.1113 743.37 39.8793C742.949 39.6425 742.625 39.375 742.397 39.0767C742.17 38.7737 741.995 38.5227 741.872 38.3239H741.73V44.0909H740.054ZM741.701 34.5455C741.701 35.3693 741.822 36.0961 742.064 36.7259C742.305 37.3509 742.658 37.8409 743.122 38.196C743.586 38.5464 744.154 38.7216 744.826 38.7216C745.527 38.7216 746.112 38.5369 746.581 38.1676C747.054 37.7936 747.409 37.2917 747.646 36.6619C747.887 36.0275 748.008 35.322 748.008 34.5455C748.008 33.7784 747.89 33.0871 747.653 32.4716C747.421 31.8513 747.068 31.3613 746.595 31.0014C746.126 30.6368 745.537 30.4545 744.826 30.4545C744.145 30.4545 743.572 30.6274 743.108 30.973C742.644 31.3139 742.293 31.7921 742.056 32.4077C741.82 33.0185 741.701 33.7311 741.701 34.5455ZM756.673 40.2273C755.688 40.2273 754.824 39.9929 754.081 39.5241C753.342 39.0554 752.764 38.3996 752.348 37.5568C751.936 36.714 751.73 35.7292 751.73 34.6023C751.73 33.4659 751.936 32.474 752.348 31.6264C752.764 30.7789 753.342 30.1207 754.081 29.652C754.824 29.1832 755.688 28.9489 756.673 28.9489C757.658 28.9489 758.52 29.1832 759.258 29.652C760.002 30.1207 760.579 30.7789 760.991 31.6264C761.408 32.474 761.616 33.4659 761.616 34.6023C761.616 35.7292 761.408 36.714 760.991 37.5568C760.579 38.3996 760.002 39.0554 759.258 39.5241C758.52 39.9929 757.658 40.2273 756.673 40.2273ZM756.673 38.7216C757.421 38.7216 758.037 38.5298 758.52 38.1463C759.002 37.7628 759.36 37.2585 759.592 36.6335C759.824 36.0085 759.94 35.3314 759.94 34.6023C759.94 33.8731 759.824 33.1937 759.592 32.5639C759.36 31.9342 759.002 31.4252 758.52 31.0369C758.037 30.6487 757.421 30.4545 756.673 30.4545C755.925 30.4545 755.309 30.6487 754.826 31.0369C754.343 31.4252 753.986 31.9342 753.754 32.5639C753.522 33.1937 753.406 33.8731 753.406 34.6023C753.406 35.3314 753.522 36.0085 753.754 36.6335C753.986 37.2585 754.343 37.7628 754.826 38.1463C755.309 38.5298 755.925 38.7216 756.673 38.7216ZM772.271 25L773.124 26.0227C772.792 26.3447 772.409 26.5696 771.973 26.6974C771.537 26.8253 771.045 26.9034 770.496 26.9318C769.946 26.9602 769.336 26.9886 768.663 27.017C767.906 27.0455 767.278 27.2301 766.781 27.571C766.284 27.9119 765.901 28.4044 765.631 29.0483C765.361 29.6922 765.188 30.483 765.112 31.4205H765.254C765.624 30.7386 766.135 30.2367 766.788 29.9148C767.442 29.5928 768.143 29.4318 768.891 29.4318C769.743 29.4318 770.51 29.6307 771.192 30.0284C771.874 30.4261 772.413 31.0156 772.811 31.7969C773.209 32.5781 773.408 33.5417 773.408 34.6875C773.408 35.8286 773.204 36.8134 772.797 37.642C772.394 38.4706 771.829 39.1098 771.099 39.5597C770.375 40.0047 769.525 40.2273 768.55 40.2273C767.574 40.2273 766.72 39.9976 765.986 39.5384C765.252 39.0743 764.681 38.3878 764.274 37.4787C763.867 36.5649 763.663 35.4356 763.663 34.0909V32.9261C763.663 30.4972 764.075 28.6553 764.899 27.4006C765.728 26.1458 766.973 25.4972 768.635 25.4545C769.222 25.4356 769.745 25.4309 770.205 25.4403C770.664 25.4498 771.064 25.4285 771.405 25.3764C771.746 25.3243 772.035 25.1989 772.271 25ZM768.55 38.7216C769.208 38.7216 769.774 38.5559 770.247 38.2244C770.725 37.893 771.092 37.4266 771.348 36.8253C771.604 36.2192 771.732 35.5066 771.732 34.6875C771.732 33.892 771.601 33.215 771.341 32.6562C771.085 32.0975 770.718 31.6714 770.24 31.3778C769.762 31.0843 769.189 30.9375 768.521 30.9375C768.034 30.9375 767.596 31.0204 767.207 31.1861C766.819 31.3518 766.488 31.5956 766.213 31.9176C765.938 32.2396 765.725 32.6326 765.574 33.0966C765.427 33.5606 765.349 34.0909 765.339 34.6875C765.339 35.9091 765.626 36.8868 766.199 37.6207C766.772 38.3546 767.555 38.7216 768.55 38.7216ZM775.972 40V29.0909H777.648V40H775.972ZM776.824 27.2727C776.497 27.2727 776.215 27.1615 775.979 26.9389C775.747 26.7164 775.631 26.4489 775.631 26.1364C775.631 25.8239 775.747 25.5563 775.979 25.3338C776.215 25.1113 776.497 25 776.824 25C777.151 25 777.43 25.1113 777.662 25.3338C777.899 25.5563 778.017 25.8239 778.017 26.1364C778.017 26.4489 777.899 26.7164 777.662 26.9389C777.43 27.1615 777.151 27.2727 776.824 27.2727ZM780.093 30.6534V29.0909H788.956V30.6534H785.377V40H783.701V30.6534H780.093ZM798.702 33.7784V35.3409H792.68V33.7784H798.702ZM793.077 29.0909V40H791.401V29.0909H793.077ZM799.981 29.0909V40H798.305V29.0909H799.981ZM804.718 37.5284L809.974 29.0909H811.906V40H810.229V31.5625L805.002 40H803.042V29.0909H804.718V37.5284ZM814.975 40V29.0909H816.652V33.8352H817.76L821.68 29.0909H823.839L819.436 34.3466L823.896 40H821.737L818.157 35.3977H816.652V40H814.975ZM825.718 40V29.0909H827.394V40H825.718ZM826.57 27.2727C826.243 27.2727 825.962 27.1615 825.725 26.9389C825.493 26.7164 825.377 26.4489 825.377 26.1364C825.377 25.8239 825.493 25.5563 825.725 25.3338C825.962 25.1113 826.243 25 826.57 25C826.897 25 827.176 25.1113 827.408 25.3338C827.645 25.5563 827.763 25.8239 827.763 26.1364C827.763 26.4489 827.645 26.7164 827.408 26.9389C827.176 27.1615 826.897 27.2727 826.57 27.2727ZM830.464 40V29.0909H834.924C836.098 29.0909 837.031 29.3561 837.722 29.8864C838.414 30.4167 838.759 31.1174 838.759 31.9886C838.759 32.6515 838.563 33.1652 838.17 33.5298C837.777 33.8897 837.272 34.1335 836.657 34.2614C837.059 34.3182 837.45 34.4602 837.829 34.6875C838.212 34.9148 838.53 35.2273 838.781 35.625C839.031 36.018 839.157 36.5009 839.157 37.0739C839.157 37.6326 839.015 38.1321 838.731 38.5724C838.447 39.0128 838.04 39.3608 837.509 39.6165C836.979 39.8722 836.344 40 835.606 40H830.464ZM832.055 38.4659H835.606C836.183 38.4659 836.636 38.3286 836.962 38.054C837.289 37.7794 837.452 37.4053 837.452 36.9318C837.452 36.3684 837.289 35.9257 836.962 35.6037C836.636 35.277 836.183 35.1136 835.606 35.1136H832.055V38.4659ZM832.055 33.6648H834.924C835.374 33.6648 835.76 33.6032 836.082 33.4801C836.404 33.3523 836.65 33.1723 836.82 32.9403C836.996 32.7036 837.083 32.4242 837.083 32.1023C837.083 31.643 836.891 31.2831 836.508 31.0227C836.124 30.7576 835.596 30.625 834.924 30.625H832.055V33.6648Z" fill="#384250"/>
<rect x="581" y="65" width="240.5" height="64" rx="6" fill="#F9FAFB"/>
<path d="M597.572 102.571V106.856H602.333C603.648 106.856 604.714 105.897 604.714 104.713V100.428H599.952C598.638 100.428 597.572 101.387 597.572 102.571Z" fill="url(#paint1_linear_48_5271)"/>
<path d="M608.286 116V113.619C608.286 110.989 606.002 108.857 603.184 108.857H599.102C596.284 108.857 594 110.989 594 113.619V116H608.286Z" fill="url(#paint2_linear_48_5271)"/>
<path d="M616.519 86V75.8182H620.078C620.788 75.8182 621.373 75.9408 621.833 76.1861C622.294 76.428 622.637 76.7545 622.862 77.1655C623.088 77.5732 623.2 78.0256 623.2 78.5227C623.2 78.9602 623.123 79.3215 622.967 79.6065C622.814 79.8916 622.612 80.117 622.36 80.2827C622.112 80.4484 621.842 80.571 621.55 80.6506V80.75C621.861 80.7699 622.175 80.8793 622.489 81.0781C622.804 81.277 623.068 81.562 623.28 81.9332C623.492 82.3045 623.598 82.7585 623.598 83.2955C623.598 83.8059 623.482 84.2649 623.25 84.6726C623.018 85.0803 622.652 85.4034 622.151 85.642C621.651 85.8807 621 86 620.198 86H616.519ZM617.752 84.9062H620.198C621.003 84.9062 621.575 84.7505 621.913 84.4389C622.254 84.1241 622.425 83.7429 622.425 83.2955C622.425 82.9508 622.337 82.6326 622.161 82.3409C621.986 82.0459 621.735 81.8106 621.411 81.6349C621.086 81.456 620.701 81.3665 620.257 81.3665H617.752V84.9062ZM617.752 80.2926H620.038C620.41 80.2926 620.744 80.2197 621.043 80.0739C621.344 79.928 621.583 79.7225 621.759 79.4574C621.938 79.1922 622.027 78.8807 622.027 78.5227C622.027 78.0753 621.871 77.6958 621.56 77.3842C621.248 77.0694 620.754 76.9119 620.078 76.9119H617.752V80.2926ZM628.567 86.1591C627.851 86.1591 627.235 85.9901 626.718 85.652C626.201 85.3139 625.803 84.8482 625.525 84.255C625.246 83.6617 625.107 82.9839 625.107 82.2216C625.107 81.446 625.25 80.7616 625.535 80.1683C625.823 79.5717 626.224 79.1061 626.738 78.7713C627.255 78.4332 627.858 78.2642 628.547 78.2642C629.084 78.2642 629.568 78.3636 629.999 78.5625C630.43 78.7614 630.783 79.0398 631.058 79.3977C631.333 79.7557 631.504 80.1733 631.57 80.6506H630.397C630.307 80.3026 630.108 79.9943 629.8 79.7259C629.495 79.4541 629.084 79.3182 628.567 79.3182C628.11 79.3182 627.709 79.4375 627.364 79.6761C627.023 79.9115 626.756 80.2446 626.564 80.6754C626.375 81.103 626.28 81.6051 626.28 82.1818C626.28 82.7718 626.373 83.2855 626.559 83.723C626.748 84.1605 627.013 84.5002 627.354 84.7422C627.699 84.9841 628.103 85.1051 628.567 85.1051C628.872 85.1051 629.149 85.0521 629.398 84.946C629.646 84.84 629.857 84.6875 630.029 84.4886C630.201 84.2898 630.324 84.0511 630.397 83.7727H631.57C631.504 84.2235 631.34 84.6295 631.078 84.9908C630.819 85.3487 630.476 85.6338 630.049 85.8459C629.625 86.0547 629.131 86.1591 628.567 86.1591ZM634.299 81.1278H636.487C637.382 81.1278 638.066 81.3549 638.54 81.8089C639.014 82.263 639.251 82.8381 639.251 83.5341C639.251 83.9915 639.145 84.4074 638.933 84.782C638.721 85.1532 638.409 85.4498 637.998 85.6719C637.587 85.8906 637.084 86 636.487 86H633.285V78.3636H634.459V84.9062H636.487C636.951 84.9062 637.332 84.7836 637.63 84.5384C637.929 84.2931 638.078 83.9782 638.078 83.5938C638.078 83.1894 637.929 82.8596 637.63 82.6044C637.332 82.3492 636.951 82.2216 636.487 82.2216H634.299V81.1278ZM644.14 86.1591C643.45 86.1591 642.845 85.995 642.325 85.6669C641.808 85.3388 641.403 84.8797 641.112 84.2898C640.823 83.6998 640.679 83.0104 640.679 82.2216C640.679 81.4261 640.823 80.7318 641.112 80.1385C641.403 79.5452 641.808 79.0845 642.325 78.7564C642.845 78.4283 643.45 78.2642 644.14 78.2642C644.829 78.2642 645.432 78.4283 645.949 78.7564C646.47 79.0845 646.874 79.5452 647.162 80.1385C647.454 80.7318 647.6 81.4261 647.6 82.2216C647.6 83.0104 647.454 83.6998 647.162 84.2898C646.874 84.8797 646.47 85.3388 645.949 85.6669C645.432 85.995 644.829 86.1591 644.14 86.1591ZM644.14 85.1051C644.663 85.1051 645.094 84.9709 645.432 84.7024C645.77 84.4339 646.02 84.081 646.183 83.6435C646.345 83.206 646.426 82.732 646.426 82.2216C646.426 81.7112 646.345 81.2356 646.183 80.7947C646.02 80.3539 645.77 79.9976 645.432 79.7259C645.094 79.4541 644.663 79.3182 644.14 79.3182C643.616 79.3182 643.185 79.4541 642.847 79.7259C642.509 79.9976 642.259 80.3539 642.096 80.7947C641.934 81.2356 641.853 81.7112 641.853 82.2216C641.853 82.732 641.934 83.206 642.096 83.6435C642.259 84.081 642.509 84.4339 642.847 84.7024C643.185 84.9709 643.616 85.1051 644.14 85.1051ZM654.104 78.3636V79.4574H650.564V86H649.391V78.3636H654.104ZM658.522 86.1591C657.833 86.1591 657.228 85.995 656.708 85.6669C656.191 85.3388 655.786 84.8797 655.495 84.2898C655.206 83.6998 655.062 83.0104 655.062 82.2216C655.062 81.4261 655.206 80.7318 655.495 80.1385C655.786 79.5452 656.191 79.0845 656.708 78.7564C657.228 78.4283 657.833 78.2642 658.522 78.2642C659.212 78.2642 659.815 78.4283 660.332 78.7564C660.852 79.0845 661.257 79.5452 661.545 80.1385C661.837 80.7318 661.983 81.4261 661.983 82.2216C661.983 83.0104 661.837 83.6998 661.545 84.2898C661.257 84.8797 660.852 85.3388 660.332 85.6669C659.815 85.995 659.212 86.1591 658.522 86.1591ZM658.522 85.1051C659.046 85.1051 659.477 84.9709 659.815 84.7024C660.153 84.4339 660.403 84.081 660.566 83.6435C660.728 83.206 660.809 82.732 660.809 82.2216C660.809 81.7112 660.728 81.2356 660.566 80.7947C660.403 80.3539 660.153 79.9976 659.815 79.7259C659.477 79.4541 659.046 79.3182 658.522 79.3182C657.999 79.3182 657.568 79.4541 657.23 79.7259C656.892 79.9976 656.641 80.3539 656.479 80.7947C656.317 81.2356 656.235 81.7112 656.235 82.2216C656.235 82.732 656.317 83.206 656.479 83.6435C656.641 84.081 656.892 84.4339 657.23 84.7024C657.568 84.9709 657.999 85.1051 658.522 85.1051Z" fill="#384250"/>
<path d="M623.587 98.5455V116H620.945V101.188H620.842L616.666 103.915V101.392L621.021 98.5455H623.587ZM634.931 98.5455V116H632.288V101.188H632.186L628.01 103.915V101.392L632.365 98.5455H634.931Z" fill="#101828"/>
<rect x="836.5" y="65" width="240.5" height="64" rx="6" fill="#F9FAFB"/>
<circle cx="856.645" cy="108" r="5" fill="url(#paint3_linear_48_5271)"/>
<path d="M880.614 80.9091C880.614 81.983 880.42 82.911 880.032 83.6932C879.644 84.4754 879.112 85.0786 878.436 85.5028C877.76 85.9271 876.988 86.1392 876.12 86.1392C875.251 86.1392 874.479 85.9271 873.803 85.5028C873.127 85.0786 872.595 84.4754 872.207 83.6932C871.819 82.911 871.625 81.983 871.625 80.9091C871.625 79.8352 871.819 78.9072 872.207 78.125C872.595 77.3428 873.127 76.7396 873.803 76.3153C874.479 75.8911 875.251 75.679 876.12 75.679C876.988 75.679 877.76 75.8911 878.436 76.3153C879.112 76.7396 879.644 77.3428 880.032 78.125C880.42 78.9072 880.614 79.8352 880.614 80.9091ZM879.421 80.9091C879.421 80.0275 879.273 79.2834 878.978 78.6768C878.687 78.0703 878.291 77.6113 877.79 77.2997C877.293 76.9882 876.736 76.8324 876.12 76.8324C875.503 76.8324 874.945 76.9882 874.444 77.2997C873.947 77.6113 873.551 78.0703 873.256 78.6768C872.964 79.2834 872.818 80.0275 872.818 80.9091C872.818 81.7907 872.964 82.5348 873.256 83.1413C873.551 83.7479 873.947 84.2069 874.444 84.5185C874.945 84.83 875.503 84.9858 876.12 84.9858C876.736 84.9858 877.293 84.83 877.79 84.5185C878.291 84.2069 878.687 83.7479 878.978 83.1413C879.273 82.5348 879.421 81.7907 879.421 80.9091ZM887.639 81.6449V82.7386H883.423V81.6449H887.639ZM883.701 78.3636V86H882.528V78.3636H883.701ZM888.534 78.3636V86H887.36V78.3636H888.534ZM890 86V84.9062H890.279C890.507 84.9062 890.698 84.8615 890.85 84.772C891.003 84.6792 891.126 84.5185 891.218 84.2898C891.314 84.0578 891.387 83.7363 891.437 83.3253C891.49 82.911 891.528 82.384 891.551 81.7443L891.691 78.3636H896.782V86H895.608V79.4574H892.804L892.685 82.1818C892.658 82.8082 892.602 83.3601 892.516 83.8374C892.433 84.3113 892.305 84.709 892.133 85.0305C891.964 85.352 891.739 85.594 891.457 85.7564C891.175 85.9188 890.822 86 890.398 86H890ZM901.181 86.179C900.697 86.179 900.258 86.0878 899.864 85.9055C899.469 85.7199 899.156 85.4531 898.924 85.1051C898.692 84.7538 898.576 84.3295 898.576 83.8324C898.576 83.3949 898.662 83.0402 898.835 82.7685C899.007 82.4934 899.237 82.2779 899.526 82.1222C899.814 81.9664 900.132 81.8504 900.48 81.7741C900.832 81.6946 901.185 81.6316 901.539 81.5852C902.003 81.5256 902.38 81.4808 902.668 81.451C902.96 81.4179 903.172 81.3632 903.304 81.2869C903.44 81.2107 903.508 81.0781 903.508 80.8892V80.8494C903.508 80.3589 903.374 79.9777 903.105 79.706C902.84 79.4342 902.438 79.2983 901.897 79.2983C901.337 79.2983 900.898 79.4209 900.58 79.6662C900.262 79.9115 900.038 80.1733 899.909 80.4517L898.795 80.054C898.994 79.59 899.259 79.2287 899.59 78.9702C899.925 78.7083 900.29 78.526 900.684 78.4233C901.082 78.3172 901.473 78.2642 901.858 78.2642C902.103 78.2642 902.384 78.294 902.703 78.3537C903.024 78.41 903.334 78.5277 903.632 78.7067C903.934 78.8857 904.184 79.1558 904.383 79.517C904.582 79.8783 904.681 80.3622 904.681 80.9688V86H903.508V84.9659H903.448C903.369 85.1316 903.236 85.3089 903.051 85.4979C902.865 85.6868 902.618 85.8475 902.31 85.9801C902.002 86.1127 901.626 86.179 901.181 86.179ZM901.36 85.125C901.824 85.125 902.215 85.0339 902.534 84.8516C902.855 84.6693 903.097 84.4339 903.259 84.1456C903.425 83.8572 903.508 83.554 903.508 83.2358V82.1619C903.458 82.2216 903.349 82.2763 903.18 82.326C903.014 82.3724 902.822 82.4138 902.603 82.4503C902.388 82.4834 902.177 82.5133 901.972 82.5398C901.77 82.563 901.606 82.5829 901.48 82.5994C901.175 82.6392 900.89 82.7038 900.625 82.7933C900.363 82.8795 900.151 83.0104 899.988 83.1861C899.829 83.3584 899.75 83.5937 899.75 83.892C899.75 84.2997 899.9 84.608 900.202 84.8168C900.507 85.0223 900.893 85.125 901.36 85.125ZM907.996 84.2699L911.675 78.3636H913.027V86H911.854V80.0938L908.195 86H906.823V78.3636H907.996V84.2699ZM910.9 75.8182H911.993C911.993 76.3551 911.808 76.7943 911.437 77.1357C911.065 77.477 910.562 77.6477 909.925 77.6477C909.299 77.6477 908.8 77.477 908.429 77.1357C908.061 76.7943 907.877 76.3551 907.877 75.8182H908.971C908.971 76.0767 909.042 76.3037 909.184 76.4993C909.33 76.6948 909.577 76.7926 909.925 76.7926C910.273 76.7926 910.522 76.6948 910.671 76.4993C910.823 76.3037 910.9 76.0767 910.9 75.8182ZM920.287 81.6449V82.7386H916.071V81.6449H920.287ZM916.35 78.3636V86H915.176V78.3636H916.35ZM921.182 78.3636V86H920.009V78.3636H921.182Z" fill="#384250"/>
<path d="M873.057 116L880.676 100.932V100.804H871.864V98.5455H883.404V100.881L875.81 116H873.057Z" fill="#101828"/>
<rect x="581" y="144" width="240.5" height="64" rx="6" fill="#F9FAFB"/>
<path d="M606.23 188.741C605.645 188.156 604.692 188.156 604.107 188.741L602.817 190.035L598.111 185.328L599.405 184.038C599.99 183.453 599.99 182.501 599.405 181.916L596.637 179.148L594.507 181.278C594.091 181.695 593.922 182.298 594.072 182.872C594.436 184.26 595.467 186.963 598.325 189.821C601.182 192.678 603.886 193.71 605.274 194.073C605.847 194.223 606.451 194.055 606.867 193.638L608.997 191.508L606.23 188.741Z" fill="url(#paint4_linear_48_5271)"/>
<circle cx="605.333" cy="183" r="3" fill="#FF6464"/>
<path d="M616.523 165V154.818H619.963C620.762 154.818 621.415 154.962 621.922 155.251C622.433 155.536 622.81 155.922 623.056 156.409C623.301 156.896 623.424 157.44 623.424 158.04C623.424 158.64 623.301 159.185 623.056 159.675C622.814 160.166 622.439 160.557 621.932 160.849C621.425 161.137 620.775 161.281 619.983 161.281H617.517V160.188H619.943C620.49 160.188 620.929 160.093 621.261 159.904C621.592 159.715 621.833 159.46 621.982 159.138C622.134 158.814 622.21 158.447 622.21 158.04C622.21 157.632 622.134 157.268 621.982 156.946C621.833 156.625 621.591 156.373 621.256 156.19C620.921 156.005 620.477 155.912 619.924 155.912H617.756V165H616.523ZM628.271 165.159C627.581 165.159 626.977 164.995 626.456 164.667C625.939 164.339 625.535 163.88 625.243 163.29C624.955 162.7 624.811 162.01 624.811 161.222C624.811 160.426 624.955 159.732 625.243 159.138C625.535 158.545 625.939 158.085 626.456 157.756C626.977 157.428 627.581 157.264 628.271 157.264C628.96 157.264 629.563 157.428 630.081 157.756C630.601 158.085 631.005 158.545 631.294 159.138C631.585 159.732 631.731 160.426 631.731 161.222C631.731 162.01 631.585 162.7 631.294 163.29C631.005 163.88 630.601 164.339 630.081 164.667C629.563 164.995 628.96 165.159 628.271 165.159ZM628.271 164.105C628.795 164.105 629.225 163.971 629.563 163.702C629.902 163.434 630.152 163.081 630.314 162.643C630.477 162.206 630.558 161.732 630.558 161.222C630.558 160.711 630.477 160.236 630.314 159.795C630.152 159.354 629.902 158.998 629.563 158.726C629.225 158.454 628.795 158.318 628.271 158.318C627.747 158.318 627.316 158.454 626.978 158.726C626.64 158.998 626.39 159.354 626.228 159.795C626.065 160.236 625.984 160.711 625.984 161.222C625.984 161.732 626.065 162.206 626.228 162.643C626.39 163.081 626.64 163.434 626.978 163.702C627.316 163.971 627.747 164.105 628.271 164.105ZM633.045 163.051H634.298C634.324 163.396 634.48 163.658 634.765 163.837C635.053 164.016 635.428 164.105 635.889 164.105C636.359 164.105 636.762 164.009 637.097 163.817C637.431 163.621 637.599 163.306 637.599 162.872C637.599 162.617 637.536 162.395 637.41 162.206C637.284 162.014 637.107 161.865 636.878 161.759C636.649 161.652 636.379 161.599 636.068 161.599H634.755V160.545H636.068C636.535 160.545 636.88 160.439 637.102 160.227C637.327 160.015 637.44 159.75 637.44 159.432C637.44 159.09 637.319 158.817 637.077 158.612C636.835 158.403 636.492 158.298 636.048 158.298C635.6 158.298 635.227 158.399 634.929 158.602C634.631 158.8 634.473 159.057 634.457 159.372H633.224C633.237 158.961 633.363 158.598 633.602 158.283C633.84 157.965 634.165 157.717 634.576 157.538C634.987 157.355 635.458 157.264 635.988 157.264C636.525 157.264 636.991 157.359 637.385 157.548C637.783 157.733 638.089 157.987 638.305 158.308C638.524 158.626 638.633 158.988 638.633 159.392C638.633 159.823 638.512 160.171 638.27 160.436C638.028 160.701 637.725 160.89 637.36 161.003V161.082C637.649 161.102 637.899 161.195 638.111 161.361C638.326 161.523 638.494 161.737 638.613 162.002C638.732 162.264 638.792 162.554 638.792 162.872C638.792 163.336 638.668 163.741 638.419 164.085C638.171 164.427 637.829 164.692 637.395 164.881C636.961 165.066 636.465 165.159 635.908 165.159C635.368 165.159 634.884 165.071 634.457 164.896C634.029 164.717 633.689 164.47 633.438 164.155C633.189 163.837 633.058 163.469 633.045 163.051ZM644.616 163.409L647.281 157.364H648.395L645.093 165H644.139L640.897 157.364H641.991L644.616 163.409ZM641.613 157.364V165H640.44V157.364H641.613ZM647.619 165V157.364H648.792V165H647.619ZM654.042 165.159C653.353 165.159 652.748 164.995 652.228 164.667C651.711 164.339 651.306 163.88 651.015 163.29C650.726 162.7 650.582 162.01 650.582 161.222C650.582 160.426 650.726 159.732 651.015 159.138C651.306 158.545 651.711 158.085 652.228 157.756C652.748 157.428 653.353 157.264 654.042 157.264C654.732 157.264 655.335 157.428 655.852 157.756C656.372 158.085 656.777 158.545 657.065 159.138C657.357 159.732 657.503 160.426 657.503 161.222C657.503 162.01 657.357 162.7 657.065 163.29C656.777 163.88 656.372 164.339 655.852 164.667C655.335 164.995 654.732 165.159 654.042 165.159ZM654.042 164.105C654.566 164.105 654.997 163.971 655.335 163.702C655.673 163.434 655.923 163.081 656.086 162.643C656.248 162.206 656.329 161.732 656.329 161.222C656.329 160.711 656.248 160.236 656.086 159.795C655.923 159.354 655.673 158.998 655.335 158.726C654.997 158.454 654.566 158.318 654.042 158.318C653.519 158.318 653.088 158.454 652.75 158.726C652.412 158.998 652.161 159.354 651.999 159.795C651.837 160.236 651.755 160.711 651.755 161.222C651.755 161.732 651.837 162.206 651.999 162.643C652.161 163.081 652.412 163.434 652.75 163.702C653.088 163.971 653.519 164.105 654.042 164.105ZM659.294 165V157.364H662.416C663.238 157.364 663.891 157.549 664.375 157.92C664.858 158.292 665.1 158.782 665.1 159.392C665.1 159.856 664.963 160.216 664.688 160.471C664.413 160.723 664.06 160.893 663.629 160.983C663.911 161.023 664.184 161.122 664.449 161.281C664.718 161.44 664.94 161.659 665.115 161.938C665.291 162.213 665.379 162.551 665.379 162.952C665.379 163.343 665.279 163.692 665.081 164.001C664.882 164.309 664.597 164.553 664.225 164.732C663.854 164.911 663.41 165 662.893 165H659.294ZM660.407 163.926H662.893C663.297 163.926 663.614 163.83 663.843 163.638C664.071 163.446 664.186 163.184 664.186 162.852C664.186 162.458 664.071 162.148 663.843 161.923C663.614 161.694 663.297 161.58 662.893 161.58H660.407V163.926ZM660.407 160.565H662.416C662.731 160.565 663.001 160.522 663.226 160.436C663.451 160.347 663.624 160.221 663.743 160.058C663.866 159.893 663.927 159.697 663.927 159.472C663.927 159.15 663.793 158.898 663.524 158.716C663.256 158.53 662.886 158.438 662.416 158.438H660.407V160.565ZM666.479 165V163.906H666.757C666.986 163.906 667.176 163.862 667.329 163.772C667.481 163.679 667.604 163.518 667.697 163.29C667.793 163.058 667.866 162.736 667.916 162.325C667.969 161.911 668.007 161.384 668.03 160.744L668.169 157.364H673.26V165H672.087V158.457H669.283L669.163 161.182C669.137 161.808 669.081 162.36 668.994 162.837C668.912 163.311 668.784 163.709 668.612 164.031C668.443 164.352 668.217 164.594 667.935 164.756C667.654 164.919 667.301 165 666.877 165H666.479ZM680.006 165V158.438H677.978C677.521 158.438 677.161 158.544 676.899 158.756C676.637 158.968 676.506 159.259 676.506 159.631C676.506 159.995 676.624 160.282 676.859 160.491C677.098 160.7 677.425 160.804 677.839 160.804H680.305V161.898H677.839C677.322 161.898 676.876 161.807 676.502 161.624C676.127 161.442 675.839 161.182 675.636 160.844C675.434 160.502 675.333 160.098 675.333 159.631C675.333 159.16 675.439 158.756 675.651 158.418C675.863 158.08 676.167 157.819 676.561 157.637C676.959 157.455 677.431 157.364 677.978 157.364H681.12V165H680.006ZM674.916 165L677.083 161.202H678.356L676.188 165H674.916ZM686.933 160.705V161.798H682.896V160.705H686.933ZM683.891 157.364V165H682.717V157.364H683.891ZM689.28 165.159C688.59 165.159 687.985 164.995 687.465 164.667C686.948 164.339 686.544 163.88 686.252 163.29C685.964 162.7 685.82 162.01 685.82 161.222C685.82 160.426 685.964 159.732 686.252 159.138C686.544 158.545 686.948 158.085 687.465 157.756C687.985 157.428 688.59 157.264 689.28 157.264C689.969 157.264 690.572 157.428 691.089 157.756C691.61 158.085 692.014 158.545 692.302 159.138C692.594 159.732 692.74 160.426 692.74 161.222C692.74 162.01 692.594 162.7 692.302 163.29C692.014 163.88 691.61 164.339 691.089 164.667C690.572 164.995 689.969 165.159 689.28 165.159ZM689.28 164.105C689.803 164.105 690.234 163.971 690.572 163.702C690.91 163.434 691.161 163.081 691.323 162.643C691.485 162.206 691.567 161.732 691.567 161.222C691.567 160.711 691.485 160.236 691.323 159.795C691.161 159.354 690.91 158.998 690.572 158.726C690.234 158.454 689.803 158.318 689.28 158.318C688.756 158.318 688.325 158.454 687.987 158.726C687.649 158.998 687.399 159.354 687.236 159.795C687.074 160.236 686.993 160.711 686.993 161.222C686.993 161.732 687.074 162.206 687.236 162.643C687.399 163.081 687.649 163.434 687.987 163.702C688.325 163.971 688.756 164.105 689.28 164.105ZM693.651 158.457V157.364H699.856V158.457H697.35V165H696.177V158.457H693.651ZM702.581 160.128H704.769C705.664 160.128 706.348 160.355 706.822 160.809C707.296 161.263 707.533 161.838 707.533 162.534C707.533 162.991 707.427 163.407 707.215 163.782C707.003 164.153 706.691 164.45 706.28 164.672C705.869 164.891 705.365 165 704.769 165H701.567V157.364H702.74V163.906H704.769C705.233 163.906 705.614 163.784 705.912 163.538C706.21 163.293 706.36 162.978 706.36 162.594C706.36 162.189 706.21 161.86 705.912 161.604C705.614 161.349 705.233 161.222 704.769 161.222H702.581V160.128Z" fill="#384250"/>
<path d="M622.73 195.239C621.662 195.239 620.702 195.034 619.85 194.625C619.003 194.21 618.327 193.642 617.821 192.92C617.316 192.199 617.046 191.375 617.012 190.449H619.568C619.631 191.199 619.963 191.815 620.566 192.298C621.168 192.781 621.889 193.023 622.73 193.023C623.401 193.023 623.995 192.869 624.512 192.562C625.034 192.25 625.443 191.821 625.739 191.276C626.04 190.73 626.191 190.108 626.191 189.409C626.191 188.699 626.037 188.065 625.73 187.509C625.424 186.952 625 186.514 624.46 186.196C623.926 185.878 623.313 185.716 622.62 185.71C622.091 185.71 621.56 185.801 621.026 185.983C620.492 186.165 620.06 186.403 619.73 186.699L617.318 186.341L618.299 177.545H627.895V179.804H620.489L619.935 184.688H620.037C620.378 184.358 620.83 184.082 621.392 183.861C621.96 183.639 622.568 183.528 623.216 183.528C624.279 183.528 625.225 183.781 626.054 184.287C626.889 184.793 627.546 185.483 628.023 186.358C628.506 187.227 628.745 188.227 628.739 189.358C628.745 190.489 628.489 191.497 627.972 192.384C627.46 193.27 626.75 193.969 625.841 194.48C624.938 194.986 623.901 195.239 622.73 195.239Z" fill="#101828"/>
<rect x="836.5" y="144" width="240.5" height="64" rx="6" fill="#F9FAFB"/>
<circle cx="856.645" cy="187" r="5" fill="url(#paint5_linear_48_5271)"/>
<path d="M880.614 159.909C880.614 160.983 880.42 161.911 880.032 162.693C879.644 163.475 879.112 164.079 878.436 164.503C877.76 164.927 876.988 165.139 876.12 165.139C875.251 165.139 874.479 164.927 873.803 164.503C873.127 164.079 872.595 163.475 872.207 162.693C871.819 161.911 871.625 160.983 871.625 159.909C871.625 158.835 871.819 157.907 872.207 157.125C872.595 156.343 873.127 155.74 873.803 155.315C874.479 154.891 875.251 154.679 876.12 154.679C876.988 154.679 877.76 154.891 878.436 155.315C879.112 155.74 879.644 156.343 880.032 157.125C880.42 157.907 880.614 158.835 880.614 159.909ZM879.421 159.909C879.421 159.027 879.273 158.283 878.978 157.677C878.687 157.07 878.291 156.611 877.79 156.3C877.293 155.988 876.736 155.832 876.12 155.832C875.503 155.832 874.945 155.988 874.444 156.3C873.947 156.611 873.551 157.07 873.256 157.677C872.964 158.283 872.818 159.027 872.818 159.909C872.818 160.791 872.964 161.535 873.256 162.141C873.551 162.748 873.947 163.207 874.444 163.518C874.945 163.83 875.503 163.986 876.12 163.986C876.736 163.986 877.293 163.83 877.79 163.518C878.291 163.207 878.687 162.748 878.978 162.141C879.273 161.535 879.421 160.791 879.421 159.909ZM885.63 167.605V154.818H886.804V167.605H885.63ZM885.63 165.159C885.113 165.159 884.643 165.066 884.218 164.881C883.794 164.692 883.429 164.425 883.125 164.08C882.82 163.732 882.584 163.316 882.419 162.832C882.253 162.348 882.17 161.812 882.17 161.222C882.17 160.625 882.253 160.085 882.419 159.601C882.584 159.114 882.82 158.696 883.125 158.348C883.429 158 883.794 157.733 884.218 157.548C884.643 157.359 885.113 157.264 885.63 157.264H885.988V165.159H885.63ZM885.63 164.105H885.829V158.318H885.63C885.239 158.318 884.899 158.398 884.611 158.557C884.323 158.713 884.084 158.926 883.895 159.198C883.71 159.467 883.57 159.775 883.478 160.123C883.388 160.471 883.343 160.837 883.343 161.222C883.343 161.732 883.425 162.206 883.587 162.643C883.749 163.081 884 163.434 884.338 163.702C884.676 163.971 885.107 164.105 885.63 164.105ZM886.804 165.159H886.446V157.264H886.804C887.321 157.264 887.791 157.359 888.215 157.548C888.64 157.733 889.004 158 889.309 158.348C889.614 158.696 889.849 159.114 890.015 159.601C890.181 160.085 890.264 160.625 890.264 161.222C890.264 161.812 890.181 162.348 890.015 162.832C889.849 163.316 889.614 163.732 889.309 164.08C889.004 164.425 888.64 164.692 888.215 164.881C887.791 165.066 887.321 165.159 886.804 165.159ZM886.804 164.105C887.198 164.105 887.538 164.029 887.823 163.876C888.111 163.721 888.348 163.509 888.534 163.24C888.723 162.968 888.862 162.66 888.951 162.315C889.044 161.967 889.09 161.603 889.09 161.222C889.09 160.711 889.009 160.236 888.847 159.795C888.684 159.354 888.434 158.998 888.096 158.726C887.758 158.454 887.327 158.318 886.804 158.318H886.605V164.105H886.804ZM891.381 165V163.906H891.66C891.888 163.906 892.079 163.862 892.231 163.772C892.384 163.679 892.506 163.518 892.599 163.29C892.695 163.058 892.768 162.736 892.818 162.325C892.871 161.911 892.909 161.384 892.932 160.744L893.071 157.364H898.162V165H896.989V158.457H894.185L894.066 161.182C894.039 161.808 893.983 162.36 893.897 162.837C893.814 163.311 893.686 163.709 893.514 164.031C893.345 164.352 893.12 164.594 892.838 164.756C892.556 164.919 892.203 165 891.779 165H891.381ZM902.562 165.179C902.078 165.179 901.639 165.088 901.245 164.906C900.85 164.72 900.537 164.453 900.305 164.105C900.073 163.754 899.957 163.33 899.957 162.832C899.957 162.395 900.043 162.04 900.216 161.768C900.388 161.493 900.618 161.278 900.907 161.122C901.195 160.966 901.513 160.85 901.861 160.774C902.213 160.695 902.566 160.632 902.92 160.585C903.384 160.526 903.76 160.481 904.049 160.451C904.34 160.418 904.553 160.363 904.685 160.287C904.821 160.211 904.889 160.078 904.889 159.889V159.849C904.889 159.359 904.755 158.978 904.486 158.706C904.221 158.434 903.818 158.298 903.278 158.298C902.718 158.298 902.279 158.421 901.961 158.666C901.642 158.911 901.419 159.173 901.29 159.452L900.176 159.054C900.375 158.59 900.64 158.229 900.971 157.97C901.306 157.708 901.671 157.526 902.065 157.423C902.463 157.317 902.854 157.264 903.238 157.264C903.484 157.264 903.765 157.294 904.084 157.354C904.405 157.41 904.715 157.528 905.013 157.707C905.315 157.886 905.565 158.156 905.764 158.517C905.963 158.878 906.062 159.362 906.062 159.969V165H904.889V163.966H904.829C904.75 164.132 904.617 164.309 904.432 164.498C904.246 164.687 903.999 164.848 903.691 164.98C903.383 165.113 903.006 165.179 902.562 165.179ZM902.741 164.125C903.205 164.125 903.596 164.034 903.915 163.852C904.236 163.669 904.478 163.434 904.64 163.146C904.806 162.857 904.889 162.554 904.889 162.236V161.162C904.839 161.222 904.73 161.276 904.561 161.326C904.395 161.372 904.203 161.414 903.984 161.45C903.769 161.483 903.558 161.513 903.353 161.54C903.151 161.563 902.986 161.583 902.861 161.599C902.556 161.639 902.271 161.704 902.005 161.793C901.744 161.879 901.531 162.01 901.369 162.186C901.21 162.358 901.13 162.594 901.13 162.892C901.13 163.3 901.281 163.608 901.583 163.817C901.888 164.022 902.274 164.125 902.741 164.125ZM909.377 163.27L913.056 157.364H914.408V165H913.235V159.094L909.576 165H908.204V157.364H909.377V163.27ZM912.28 154.818H913.374C913.374 155.355 913.189 155.794 912.817 156.136C912.446 156.477 911.942 156.648 911.306 156.648C910.68 156.648 910.181 156.477 909.81 156.136C909.442 155.794 909.258 155.355 909.258 154.818H910.351C910.351 155.077 910.423 155.304 910.565 155.499C910.711 155.695 910.958 155.793 911.306 155.793C911.654 155.793 911.903 155.695 912.052 155.499C912.204 155.304 912.28 155.077 912.28 154.818ZM921.668 160.645V161.739H917.452V160.645H921.668ZM917.731 157.364V165H916.557V157.364H917.731ZM922.563 157.364V165H921.39V157.364H922.563Z" fill="#384250"/>
<path d="M872.103 191.591V189.46L879.645 177.545H881.324V180.682H880.259L874.864 189.222V189.358H885.202V191.591H872.103ZM880.378 195V190.943L880.395 189.972V177.545H882.892V195H880.378Z" fill="#101828"/>
</g>
<defs>
<filter id="filter0_dd_48_5271" x="0" y="0" width="544" height="226" filterUnits="userSpaceOnUse" color-interpolation-filters="sRGB">
<feFlood flood-opacity="0" result="BackgroundImageFix"/>
<feColorMatrix in="SourceAlpha" type="matrix" values="0 0 0 0 0 0 0 0 0 0 0 0 0 0 0 0 0 0 127 0" result="hardAlpha"/>
<feOffset dy="1"/>
<feGaussianBlur stdDeviation="1"/>
<feColorMatrix type="matrix" values="0 0 0 0 0.0627451 0 0 0 0 0.0941176 0 0 0 0 0.156863 0 0 0 0.06 0"/>
<feBlend mode="normal" in2="BackgroundImageFix" result="effect1_dropShadow_48_5271"/>
<feColorMatrix in="SourceAlpha" type="matrix" values="0 0 0 0 0 0 0 0 0 0 0 0 0 0 0 0 0 0 127 0" result="hardAlpha"/>
<feOffset dy="1"/>
<feGaussianBlur stdDeviation="1.5"/>
<feColorMatrix type="matrix" values="0 0 0 0 0.0627451 0 0 0 0 0.0941176 0 0 0 0 0.156863 0 0 0 0.1 0"/>
<feBlend mode="normal" in2="effect1_dropShadow_48_5271" result="effect2_dropShadow_48_5271"/>
<feBlend mode="normal" in="SourceGraphic" in2="effect2_dropShadow_48_5271" result="shape"/>
</filter>
<filter id="filter1_dd_48_5271" x="558" y="0" width="544" height="226" filterUnits="userSpaceOnUse" color-interpolation-filters="sRGB">
<feFlood flood-opacity="0" result="BackgroundImageFix"/>
<feColorMatrix in="SourceAlpha" type="matrix" values="0 0 0 0 0 0 0 0 0 0 0 0 0 0 0 0 0 0 127 0" result="hardAlpha"/>
<feOffset dy="1"/>
<feGaussianBlur stdDeviation="1"/>
<feColorMatrix type="matrix" values="0 0 0 0 0.0627451 0 0 0 0 0.0941176 0 0 0 0 0.156863 0 0 0 0.06 0"/>
<feBlend mode="normal" in2="BackgroundImageFix" result="effect1_dropShadow_48_5271"/>
<feColorMatrix in="SourceAlpha" type="matrix" values="0 0 0 0 0 0 0 0 0 0 0 0 0 0 0 0 0 0 127 0" result="hardAlpha"/>
<feOffset dy="1"/>
<feGaussianBlur stdDeviation="1.5"/>
<feColorMatrix type="matrix" values="0 0 0 0 0.0627451 0 0 0 0 0.0941176 0 0 0 0 0.156863 0 0 0 0.1 0"/>
<feBlend mode="normal" in2="effect1_dropShadow_48_5271" result="effect2_dropShadow_48_5271"/>
<feBlend mode="normal" in="SourceGraphic" in2="effect2_dropShadow_48_5271" result="shape"/>
</filter>
<linearGradient id="paint0_linear_48_5271" x1="37.1561" y1="111.845" x2="52.5356" y2="96.4653" gradientUnits="userSpaceOnUse">
<stop stop-color="#676AE6"/>
<stop offset="1" stop-color="#3538CD"/>
</linearGradient>
<linearGradient id="paint1_linear_48_5271" x1="595.279" y1="112.783" x2="604.012" y2="95.9758" gradientUnits="userSpaceOnUse">
<stop stop-color="#262626" stop-opacity="0"/>
<stop offset="1" stop-color="#262626" stop-opacity="0.8"/>
</linearGradient>
<linearGradient id="paint2_linear_48_5271" x1="591.945" y1="129.04" x2="605.875" y2="103.19" gradientUnits="userSpaceOnUse">
<stop offset="0.005" stop-color="#262626" stop-opacity="0"/>
<stop offset="1" stop-color="#262626" stop-opacity="0.8"/>
</linearGradient>
<linearGradient id="paint3_linear_48_5271" x1="856.645" y1="103" x2="856.645" y2="113" gradientUnits="userSpaceOnUse">
<stop stop-color="#34C759"/>
<stop offset="1" stop-color="#57E77B"/>
</linearGradient>
<linearGradient id="paint4_linear_48_5271" x1="593.301" y1="194.845" x2="608.681" y2="179.465" gradientUnits="userSpaceOnUse">
<stop stop-color="#676AE6"/>
<stop offset="1" stop-color="#3538CD"/>
</linearGradient>
<linearGradient id="paint5_linear_48_5271" x1="856.645" y1="182" x2="856.645" y2="192" gradientUnits="userSpaceOnUse">
<stop stop-color="#999999"/>
<stop offset="1" stop-color="#CECECE"/>
</linearGradient>
</defs>
</svg>
