<svg width="498" height="192" viewBox="0 0 498 192" fill="none" xmlns="http://www.w3.org/2000/svg">
<path d="M1.76136 9.45455H3.86364L8.80682 21.5284H8.97727L13.9205 9.45455H16.0227V24H14.375V12.9489H14.233L9.6875 24H8.09659L3.55114 12.9489H3.40909V24H1.76136V9.45455ZM23.7589 24.2273C22.774 24.2273 21.9099 23.9929 21.1665 23.5241C20.4279 23.0554 19.8503 22.3996 19.4336 21.5568C19.0217 20.714 18.8157 19.7292 18.8157 18.6023C18.8157 17.4659 19.0217 16.474 19.4336 15.6264C19.8503 14.7789 20.4279 14.1207 21.1665 13.652C21.9099 13.1832 22.774 12.9489 23.7589 12.9489C24.7437 12.9489 25.6055 13.1832 26.3441 13.652C27.0875 14.1207 27.6651 14.7789 28.0771 15.6264C28.4937 16.474 28.7021 17.4659 28.7021 18.6023C28.7021 19.7292 28.4937 20.714 28.0771 21.5568C27.6651 22.3996 27.0875 23.0554 26.3441 23.5241C25.6055 23.9929 24.7437 24.2273 23.7589 24.2273ZM23.7589 22.7216C24.507 22.7216 25.1225 22.5298 25.6055 22.1463C26.0884 21.7628 26.4459 21.2585 26.6779 20.6335C26.9099 20.0085 27.0259 19.3314 27.0259 18.6023C27.0259 17.8731 26.9099 17.1937 26.6779 16.5639C26.4459 15.9342 26.0884 15.4252 25.6055 15.0369C25.1225 14.6487 24.507 14.4545 23.7589 14.4545C23.0108 14.4545 22.3952 14.6487 21.9123 15.0369C21.4293 15.4252 21.0719 15.9342 20.8398 16.5639C20.6078 17.1937 20.4918 17.8731 20.4918 18.6023C20.4918 19.3314 20.6078 20.0085 20.8398 20.6335C21.0719 21.2585 21.4293 21.7628 21.9123 22.1463C22.3952 22.5298 23.0108 22.7216 23.7589 22.7216ZM38.5618 17.7784V19.3409H32.5391V17.7784H38.5618ZM32.9368 13.0909V24H31.2607V13.0909H32.9368ZM39.8402 13.0909V24H38.1641V13.0909H39.8402ZM42.9013 24V13.0909H44.5774V24H42.9013ZM43.7536 11.2727C43.4268 11.2727 43.1451 11.1615 42.9084 10.9389C42.6764 10.7164 42.5604 10.4489 42.5604 10.1364C42.5604 9.82386 42.6764 9.55634 42.9084 9.33381C43.1451 9.11127 43.4268 9 43.7536 9C44.0803 9 44.3596 9.11127 44.5916 9.33381C44.8284 9.55634 44.9467 9.82386 44.9467 10.1364C44.9467 10.4489 44.8284 10.7164 44.5916 10.9389C44.3596 11.1615 44.0803 11.2727 43.7536 11.2727ZM47.0224 14.6534V13.0909H55.886V14.6534H52.3065V24H50.6303V14.6534H47.0224ZM62.1964 24.2273C61.2115 24.2273 60.3474 23.9929 59.604 23.5241C58.8654 23.0554 58.2878 22.3996 57.8711 21.5568C57.4592 20.714 57.2532 19.7292 57.2532 18.6023C57.2532 17.4659 57.4592 16.474 57.8711 15.6264C58.2878 14.7789 58.8654 14.1207 59.604 13.652C60.3474 13.1832 61.2115 12.9489 62.1964 12.9489C63.1812 12.9489 64.043 13.1832 64.7816 13.652C65.525 14.1207 66.1026 14.7789 66.5146 15.6264C66.9312 16.474 67.1396 17.4659 67.1396 18.6023C67.1396 19.7292 66.9312 20.714 66.5146 21.5568C66.1026 22.3996 65.525 23.0554 64.7816 23.5241C64.043 23.9929 63.1812 24.2273 62.1964 24.2273ZM62.1964 22.7216C62.9445 22.7216 63.56 22.5298 64.043 22.1463C64.5259 21.7628 64.8834 21.2585 65.1154 20.6335C65.3474 20.0085 65.4634 19.3314 65.4634 18.6023C65.4634 17.8731 65.3474 17.1937 65.1154 16.5639C64.8834 15.9342 64.5259 15.4252 64.043 15.0369C63.56 14.6487 62.9445 14.4545 62.1964 14.4545C61.4483 14.4545 60.8327 14.6487 60.3498 15.0369C59.8668 15.4252 59.5094 15.9342 59.2773 16.5639C59.0453 17.1937 58.9293 17.8731 58.9293 18.6023C58.9293 19.3314 59.0453 20.0085 59.2773 20.6335C59.5094 21.2585 59.8668 21.7628 60.3498 22.1463C60.8327 22.5298 61.4483 22.7216 62.1964 22.7216ZM69.6982 28.0909V13.0909H71.3175V14.8239H71.5163C71.6394 14.6345 71.8099 14.393 72.0277 14.0994C72.2502 13.8011 72.5675 13.536 72.9794 13.304C73.3961 13.0672 73.9595 12.9489 74.6697 12.9489C75.5883 12.9489 76.398 13.1785 77.0987 13.6378C77.7995 14.0971 78.3464 14.7481 78.7393 15.5909C79.1323 16.4337 79.3288 17.428 79.3288 18.5739C79.3288 19.7292 79.1323 20.7306 78.7393 21.5781C78.3464 22.4209 77.8018 23.0743 77.1058 23.5384C76.4098 23.9976 75.6072 24.2273 74.6982 24.2273C73.9974 24.2273 73.4363 24.1113 73.0149 23.8793C72.5935 23.6425 72.2692 23.375 72.0419 23.0767C71.8146 22.7737 71.6394 22.5227 71.5163 22.3239H71.3743V28.0909H69.6982ZM71.3459 18.5455C71.3459 19.3693 71.4666 20.0961 71.7081 20.7259C71.9496 21.3509 72.3023 21.8409 72.7663 22.196C73.2304 22.5464 73.7985 22.7216 74.4709 22.7216C75.1716 22.7216 75.7564 22.5369 76.2251 22.1676C76.6986 21.7936 77.0537 21.2917 77.2905 20.6619C77.532 20.0275 77.6527 19.322 77.6527 18.5455C77.6527 17.7784 77.5343 17.0871 77.2976 16.4716C77.0656 15.8513 76.7128 15.3613 76.2393 15.0014C75.7706 14.6368 75.1811 14.4545 74.4709 14.4545C73.7891 14.4545 73.2161 14.6274 72.7521 14.973C72.2881 15.3139 71.9377 15.7921 71.701 16.4077C71.4643 17.0185 71.3459 17.7311 71.3459 18.5455ZM83.5618 21.5284L88.8175 13.0909H90.7493V24H89.0732V15.5625L83.8459 24H81.8857V13.0909H83.5618V21.5284ZM101.12 17.7784V19.3409H95.0977V17.7784H101.12ZM95.4954 13.0909V24H93.8192V13.0909H95.4954ZM102.399 13.0909V24H100.723V13.0909H102.399ZM112.193 13.0909V14.6534H107.136V24H105.46V13.0909H112.193ZM124.696 24.2273C123.674 24.2273 122.793 23.9858 122.054 23.5028C121.316 23.0199 120.748 22.3546 120.35 21.5071C119.952 20.6596 119.753 19.6913 119.753 18.6023C119.753 17.4943 119.957 16.5166 120.364 15.669C120.776 14.8168 121.349 14.1515 122.083 13.6733C122.821 13.1903 123.683 12.9489 124.668 12.9489C125.435 12.9489 126.126 13.0909 126.742 13.375C127.357 13.6591 127.862 14.0568 128.255 14.5682C128.648 15.0795 128.891 15.6761 128.986 16.358H127.31C127.182 15.8608 126.898 15.4205 126.458 15.0369C126.022 14.6487 125.435 14.4545 124.696 14.4545C124.043 14.4545 123.47 14.625 122.978 14.9659C122.49 15.3021 122.109 15.7779 121.834 16.3935C121.564 17.0043 121.429 17.7216 121.429 18.5455C121.429 19.3883 121.562 20.1222 121.827 20.7472C122.097 21.3722 122.476 21.8575 122.963 22.2031C123.456 22.5488 124.033 22.7216 124.696 22.7216C125.132 22.7216 125.527 22.6458 125.882 22.4943C126.238 22.3428 126.538 22.125 126.784 21.8409C127.031 21.5568 127.206 21.2159 127.31 20.8182H128.986C128.891 21.4621 128.657 22.0421 128.283 22.5582C127.914 23.0696 127.424 23.4768 126.813 23.7798C126.207 24.0781 125.501 24.2273 124.696 24.2273ZM131.436 24V13.0909H140.016V24H138.34V14.6534H133.113V24H131.436ZM143.077 24V13.0909H144.753V24H143.077ZM143.929 11.2727C143.603 11.2727 143.321 11.1615 143.084 10.9389C142.852 10.7164 142.736 10.4489 142.736 10.1364C142.736 9.82386 142.852 9.55634 143.084 9.33381C143.321 9.11127 143.603 9 143.929 9C144.256 9 144.535 9.11127 144.767 9.33381C145.004 9.55634 145.123 9.82386 145.123 10.1364C145.123 10.4489 145.004 10.7164 144.767 10.9389C144.535 11.1615 144.256 11.2727 143.929 11.2727ZM147.823 24V13.0909H152.283C153.458 13.0909 154.39 13.3561 155.082 13.8864C155.773 14.4167 156.119 15.1174 156.119 15.9886C156.119 16.6515 155.922 17.1652 155.529 17.5298C155.136 17.8897 154.632 18.1335 154.016 18.2614C154.419 18.3182 154.809 18.4602 155.188 18.6875C155.572 18.9148 155.889 19.2273 156.14 19.625C156.391 20.018 156.516 20.5009 156.516 21.0739C156.516 21.6326 156.374 22.1321 156.09 22.5724C155.806 23.0128 155.399 23.3608 154.869 23.6165C154.338 23.8722 153.704 24 152.965 24H147.823ZM149.414 22.4659H152.965C153.543 22.4659 153.995 22.3286 154.322 22.054C154.648 21.7794 154.812 21.4053 154.812 20.9318C154.812 20.3684 154.648 19.9257 154.322 19.6037C153.995 19.277 153.543 19.1136 152.965 19.1136H149.414V22.4659ZM149.414 17.6648H152.283C152.733 17.6648 153.119 17.6032 153.441 17.4801C153.763 17.3523 154.009 17.1723 154.18 16.9403C154.355 16.7036 154.442 16.4242 154.442 16.1023C154.442 15.643 154.251 15.2831 153.867 15.0227C153.484 14.7576 152.956 14.625 152.283 14.625H149.414V17.6648ZM159.054 28.0909V13.0909H160.673V14.8239H160.872C160.995 14.6345 161.165 14.393 161.383 14.0994C161.606 13.8011 161.923 13.536 162.335 13.304C162.752 13.0672 163.315 12.9489 164.025 12.9489C164.944 12.9489 165.753 13.1785 166.454 13.6378C167.155 14.0971 167.702 14.7481 168.095 15.5909C168.488 16.4337 168.684 17.428 168.684 18.5739C168.684 19.7292 168.488 20.7306 168.095 21.5781C167.702 22.4209 167.157 23.0743 166.461 23.5384C165.765 23.9976 164.963 24.2273 164.054 24.2273C163.353 24.2273 162.792 24.1113 162.37 23.8793C161.949 23.6425 161.625 23.375 161.397 23.0767C161.17 22.7737 160.995 22.5227 160.872 22.3239H160.73V28.0909H159.054ZM160.701 18.5455C160.701 19.3693 160.822 20.0961 161.064 20.7259C161.305 21.3509 161.658 21.8409 162.122 22.196C162.586 22.5464 163.154 22.7216 163.826 22.7216C164.527 22.7216 165.112 22.5369 165.581 22.1676C166.054 21.7936 166.409 21.2917 166.646 20.6619C166.887 20.0275 167.008 19.322 167.008 18.5455C167.008 17.7784 166.89 17.0871 166.653 16.4716C166.421 15.8513 166.068 15.3613 165.595 15.0014C165.126 14.6368 164.537 14.4545 163.826 14.4545C163.145 14.4545 162.572 14.6274 162.108 14.973C161.644 15.3139 161.293 15.7921 161.056 16.4077C160.82 17.0185 160.701 17.7311 160.701 18.5455ZM175.673 24.2273C174.688 24.2273 173.824 23.9929 173.081 23.5241C172.342 23.0554 171.764 22.3996 171.348 21.5568C170.936 20.714 170.73 19.7292 170.73 18.6023C170.73 17.4659 170.936 16.474 171.348 15.6264C171.764 14.7789 172.342 14.1207 173.081 13.652C173.824 13.1832 174.688 12.9489 175.673 12.9489C176.658 12.9489 177.52 13.1832 178.258 13.652C179.002 14.1207 179.579 14.7789 179.991 15.6264C180.408 16.474 180.616 17.4659 180.616 18.6023C180.616 19.7292 180.408 20.714 179.991 21.5568C179.579 22.3996 179.002 23.0554 178.258 23.5241C177.52 23.9929 176.658 24.2273 175.673 24.2273ZM175.673 22.7216C176.421 22.7216 177.037 22.5298 177.52 22.1463C178.002 21.7628 178.36 21.2585 178.592 20.6335C178.824 20.0085 178.94 19.3314 178.94 18.6023C178.94 17.8731 178.824 17.1937 178.592 16.5639C178.36 15.9342 178.002 15.4252 177.52 15.0369C177.037 14.6487 176.421 14.4545 175.673 14.4545C174.925 14.4545 174.309 14.6487 173.826 15.0369C173.343 15.4252 172.986 15.9342 172.754 16.5639C172.522 17.1937 172.406 17.8731 172.406 18.6023C172.406 19.3314 172.522 20.0085 172.754 20.6335C172.986 21.2585 173.343 21.7628 173.826 22.1463C174.309 22.5298 174.925 22.7216 175.673 22.7216ZM191.271 9L192.124 10.0227C191.792 10.3447 191.409 10.5696 190.973 10.6974C190.537 10.8253 190.045 10.9034 189.496 10.9318C188.946 10.9602 188.336 10.9886 187.663 11.017C186.906 11.0455 186.278 11.2301 185.781 11.571C185.284 11.9119 184.901 12.4044 184.631 13.0483C184.361 13.6922 184.188 14.483 184.112 15.4205H184.254C184.624 14.7386 185.135 14.2367 185.788 13.9148C186.442 13.5928 187.143 13.4318 187.891 13.4318C188.743 13.4318 189.51 13.6307 190.192 14.0284C190.874 14.4261 191.413 15.0156 191.811 15.7969C192.209 16.5781 192.408 17.5417 192.408 18.6875C192.408 19.8286 192.204 20.8134 191.797 21.642C191.394 22.4706 190.829 23.1098 190.099 23.5597C189.375 24.0047 188.525 24.2273 187.55 24.2273C186.574 24.2273 185.72 23.9976 184.986 23.5384C184.252 23.0743 183.681 22.3878 183.274 21.4787C182.867 20.5649 182.663 19.4356 182.663 18.0909V16.9261C182.663 14.4972 183.075 12.6553 183.899 11.4006C184.728 10.1458 185.973 9.49716 187.635 9.45455C188.222 9.43561 188.745 9.43087 189.205 9.44034C189.664 9.44981 190.064 9.4285 190.405 9.37642C190.746 9.32434 191.035 9.19886 191.271 9ZM187.55 22.7216C188.208 22.7216 188.774 22.5559 189.247 22.2244C189.725 21.893 190.092 21.4266 190.348 20.8253C190.604 20.2192 190.732 19.5066 190.732 18.6875C190.732 17.892 190.601 17.215 190.341 16.6562C190.085 16.0975 189.718 15.6714 189.24 15.3778C188.762 15.0843 188.189 14.9375 187.521 14.9375C187.034 14.9375 186.596 15.0204 186.207 15.1861C185.819 15.3518 185.488 15.5956 185.213 15.9176C184.938 16.2396 184.725 16.6326 184.574 17.0966C184.427 17.5606 184.349 18.0909 184.339 18.6875C184.339 19.9091 184.626 20.8868 185.199 21.6207C185.772 22.3546 186.555 22.7216 187.55 22.7216ZM194.972 24V13.0909H196.648V24H194.972ZM195.824 11.2727C195.497 11.2727 195.215 11.1615 194.979 10.9389C194.747 10.7164 194.631 10.4489 194.631 10.1364C194.631 9.82386 194.747 9.55634 194.979 9.33381C195.215 9.11127 195.497 9 195.824 9C196.151 9 196.43 9.11127 196.662 9.33381C196.899 9.55634 197.017 9.82386 197.017 10.1364C197.017 10.4489 196.899 10.7164 196.662 10.9389C196.43 11.1615 196.151 11.2727 195.824 11.2727ZM199.093 14.6534V13.0909H207.956V14.6534H204.377V24H202.701V14.6534H199.093ZM217.702 17.7784V19.3409H211.68V17.7784H217.702ZM212.077 13.0909V24H210.401V13.0909H212.077ZM218.981 13.0909V24H217.305V13.0909H218.981ZM223.718 21.5284L228.974 13.0909H230.906V24H229.229V15.5625L224.002 24H222.042V13.0909H223.718V21.5284ZM233.975 24V13.0909H235.652V17.8352H236.76L240.68 13.0909H242.839L238.436 18.3466L242.896 24H240.737L237.157 19.3977H235.652V24H233.975ZM244.718 24V13.0909H246.394V24H244.718ZM245.57 11.2727C245.243 11.2727 244.962 11.1615 244.725 10.9389C244.493 10.7164 244.377 10.4489 244.377 10.1364C244.377 9.82386 244.493 9.55634 244.725 9.33381C244.962 9.11127 245.243 9 245.57 9C245.897 9 246.176 9.11127 246.408 9.33381C246.645 9.55634 246.763 9.82386 246.763 10.1364C246.763 10.4489 246.645 10.7164 246.408 10.9389C246.176 11.1615 245.897 11.2727 245.57 11.2727ZM249.464 24V13.0909H253.924C255.098 13.0909 256.031 13.3561 256.722 13.8864C257.414 14.4167 257.759 15.1174 257.759 15.9886C257.759 16.6515 257.563 17.1652 257.17 17.5298C256.777 17.8897 256.272 18.1335 255.657 18.2614C256.059 18.3182 256.45 18.4602 256.829 18.6875C257.212 18.9148 257.53 19.2273 257.781 19.625C258.031 20.018 258.157 20.5009 258.157 21.0739C258.157 21.6326 258.015 22.1321 257.731 22.5724C257.447 23.0128 257.04 23.3608 256.509 23.6165C255.979 23.8722 255.344 24 254.606 24H249.464ZM251.055 22.4659H254.606C255.183 22.4659 255.636 22.3286 255.962 22.054C256.289 21.7794 256.452 21.4053 256.452 20.9318C256.452 20.3684 256.289 19.9257 255.962 19.6037C255.636 19.277 255.183 19.1136 254.606 19.1136H251.055V22.4659ZM251.055 17.6648H253.924C254.374 17.6648 254.76 17.6032 255.082 17.4801C255.404 17.3523 255.65 17.1723 255.82 16.9403C255.996 16.7036 256.083 16.4242 256.083 16.1023C256.083 15.643 255.891 15.2831 255.508 15.0227C255.124 14.7576 254.596 14.625 253.924 14.625H251.055V17.6648Z" fill="#384250"/>
<rect y="49" width="240.5" height="64" rx="6" fill="#F9FAFB"/>
<path d="M16.5714 86.5716V90.8573H21.3333C22.6482 90.8573 23.7143 89.8978 23.7143 88.7144V84.4287H18.9524C17.6375 84.4287 16.5714 85.3882 16.5714 86.5716Z" fill="url(#paint0_linear_679_211)"/>
<path d="M27.2857 100V97.6193C27.2857 94.9893 25.0015 92.8574 22.1837 92.8574H18.102C15.2842 92.8574 13 94.9893 13 97.6193V100H27.2857Z" fill="url(#paint1_linear_679_211)"/>
<path d="M35.5187 70V59.8182H39.0783C39.7876 59.8182 40.3726 59.9408 40.8333 60.1861C41.294 60.428 41.637 60.7545 41.8624 61.1655C42.0878 61.5732 42.2005 62.0256 42.2005 62.5227C42.2005 62.9602 42.1226 63.3215 41.9668 63.6065C41.8144 63.8916 41.6122 64.117 41.3603 64.2827C41.1117 64.4484 40.8416 64.571 40.5499 64.6506V64.75C40.8615 64.7699 41.1747 64.8793 41.4896 65.0781C41.8044 65.277 42.0679 65.562 42.28 65.9332C42.4922 66.3045 42.5982 66.7585 42.5982 67.2955C42.5982 67.8059 42.4822 68.2649 42.2502 68.6726C42.0182 69.0803 41.652 69.4034 41.1515 69.642C40.651 69.8807 39.9997 70 39.1977 70H35.5187ZM36.7516 68.9062H39.1977C40.0031 68.9062 40.5748 68.7505 40.9129 68.4389C41.2542 68.1241 41.4249 67.7429 41.4249 67.2955C41.4249 66.9508 41.3371 66.6326 41.1614 66.3409C40.9858 66.0459 40.7355 65.8106 40.4107 65.6349C40.0859 65.456 39.7014 65.3665 39.2573 65.3665H36.7516V68.9062ZM36.7516 64.2926H39.0386C39.4098 64.2926 39.7445 64.2197 40.0428 64.0739C40.3444 63.928 40.5831 63.7225 40.7587 63.4574C40.9377 63.1922 41.0272 62.8807 41.0272 62.5227C41.0272 62.0753 40.8714 61.6958 40.5599 61.3842C40.2483 61.0694 39.7545 60.9119 39.0783 60.9119H36.7516V64.2926ZM47.5673 70.1591C46.8514 70.1591 46.2349 69.9901 45.7179 69.652C45.2008 69.3139 44.8031 68.8482 44.5247 68.255C44.2463 67.6617 44.1071 66.9839 44.1071 66.2216C44.1071 65.446 44.2496 64.7616 44.5347 64.1683C44.823 63.5717 45.224 63.1061 45.7378 62.7713C46.2548 62.4332 46.858 62.2642 47.5474 62.2642C48.0844 62.2642 48.5683 62.3636 48.9991 62.5625C49.43 62.7614 49.783 63.0398 50.0581 63.3977C50.3332 63.7557 50.5039 64.1733 50.5702 64.6506H49.3969C49.3074 64.3026 49.1085 63.9943 48.8003 63.7259C48.4954 63.4541 48.0844 63.3182 47.5673 63.3182C47.1099 63.3182 46.7089 63.4375 46.3642 63.6761C46.0228 63.9115 45.756 64.2446 45.5638 64.6754C45.3749 65.103 45.2804 65.6051 45.2804 66.1818C45.2804 66.7718 45.3732 67.2855 45.5588 67.723C45.7477 68.1605 46.0129 68.5002 46.3543 68.7422C46.699 68.9841 47.1033 69.1051 47.5673 69.1051C47.8723 69.1051 48.149 69.0521 48.3976 68.946C48.6462 68.84 48.8566 68.6875 49.029 68.4886C49.2013 68.2898 49.324 68.0511 49.3969 67.7727H50.5702C50.5039 68.2235 50.3398 68.6295 50.078 68.9908C49.8195 69.3487 49.4764 69.6338 49.0489 69.8459C48.6246 70.0547 48.1308 70.1591 47.5673 70.1591ZM53.2996 65.1278H55.4871C56.382 65.1278 57.0664 65.3549 57.5403 65.8089C58.0143 66.263 58.2513 66.8381 58.2513 67.5341C58.2513 67.9915 58.1452 68.4074 57.9331 68.782C57.721 69.1532 57.4094 69.4498 56.9984 69.6719C56.5874 69.8906 56.0837 70 55.4871 70H52.2854V62.3636H53.4587V68.9062H55.4871C55.9511 68.9062 56.3322 68.7836 56.6305 68.5384C56.9288 68.2931 57.078 67.9782 57.078 67.5938C57.078 67.1894 56.9288 66.8596 56.6305 66.6044C56.3322 66.3492 55.9511 66.2216 55.4871 66.2216H53.2996V65.1278ZM63.1396 70.1591C62.4502 70.1591 61.8453 69.995 61.325 69.6669C60.8079 69.3388 60.4036 68.8797 60.1119 68.2898C59.8235 67.6998 59.6794 67.0104 59.6794 66.2216C59.6794 65.4261 59.8235 64.7318 60.1119 64.1385C60.4036 63.5452 60.8079 63.0845 61.325 62.7564C61.8453 62.4283 62.4502 62.2642 63.1396 62.2642C63.829 62.2642 64.4322 62.4283 64.9493 62.7564C65.4696 63.0845 65.874 63.5452 66.1623 64.1385C66.454 64.7318 66.5998 65.4261 66.5998 66.2216C66.5998 67.0104 66.454 67.6998 66.1623 68.2898C65.874 68.8797 65.4696 69.3388 64.9493 69.6669C64.4322 69.995 63.829 70.1591 63.1396 70.1591ZM63.1396 69.1051C63.6633 69.1051 64.0941 68.9709 64.4322 68.7024C64.7703 68.4339 65.0205 68.081 65.1829 67.6435C65.3453 67.206 65.4265 66.732 65.4265 66.2216C65.4265 65.7112 65.3453 65.2356 65.1829 64.7947C65.0205 64.3539 64.7703 63.9976 64.4322 63.7259C64.0941 63.4541 63.6633 63.3182 63.1396 63.3182C62.6159 63.3182 62.185 63.4541 61.847 63.7259C61.5089 63.9976 61.2587 64.3539 61.0963 64.7947C60.9339 65.2356 60.8527 65.7112 60.8527 66.2216C60.8527 66.732 60.9339 67.206 61.0963 67.6435C61.2587 68.081 61.5089 68.4339 61.847 68.7024C62.185 68.9709 62.6159 69.1051 63.1396 69.1051ZM73.1039 62.3636V63.4574H69.5641V70H68.3908V62.3636H73.1039ZM77.5224 70.1591C76.833 70.1591 76.2281 69.995 75.7078 69.6669C75.1907 69.3388 74.7864 68.8797 74.4947 68.2898C74.2064 67.6998 74.0622 67.0104 74.0622 66.2216C74.0622 65.4261 74.2064 64.7318 74.4947 64.1385C74.7864 63.5452 75.1907 63.0845 75.7078 62.7564C76.2281 62.4283 76.833 62.2642 77.5224 62.2642C78.2118 62.2642 78.815 62.4283 79.3321 62.7564C79.8524 63.0845 80.2568 63.5452 80.5451 64.1385C80.8368 64.7318 80.9826 65.4261 80.9826 66.2216C80.9826 67.0104 80.8368 67.6998 80.5451 68.2898C80.2568 68.8797 79.8524 69.3388 79.3321 69.6669C78.815 69.995 78.2118 70.1591 77.5224 70.1591ZM77.5224 69.1051C78.0461 69.1051 78.4769 68.9709 78.815 68.7024C79.1531 68.4339 79.4033 68.081 79.5657 67.6435C79.7281 67.206 79.8093 66.732 79.8093 66.2216C79.8093 65.7112 79.7281 65.2356 79.5657 64.7947C79.4033 64.3539 79.1531 63.9976 78.815 63.7259C78.4769 63.4541 78.0461 63.3182 77.5224 63.3182C76.9987 63.3182 76.5679 63.4541 76.2298 63.7259C75.8917 63.9976 75.6415 64.3539 75.4791 64.7947C75.3167 65.2356 75.2355 65.7112 75.2355 66.2216C75.2355 66.732 75.3167 67.206 75.4791 67.6435C75.6415 68.081 75.8917 68.4339 76.2298 68.7024C76.5679 68.9709 76.9987 69.1051 77.5224 69.1051Z" fill="#384250"/>
<path d="M42.5869 82.5455V100H39.9448V85.1875H39.8425L35.6664 87.9148V85.392L40.0215 82.5455H42.5869ZM53.9306 82.5455V100H51.2886V85.1875H51.1863L47.0102 87.9148V85.392L51.3653 82.5455H53.9306Z" fill="#101828"/>
<rect x="255.5" y="49" width="240.5" height="64" rx="6" fill="#F9FAFB"/>
<circle cx="275.645" cy="92" r="5" fill="url(#paint2_linear_679_211)"/>
<path d="M299.614 64.9091C299.614 65.983 299.42 66.911 299.032 67.6932C298.644 68.4754 298.112 69.0786 297.436 69.5028C296.76 69.9271 295.988 70.1392 295.12 70.1392C294.251 70.1392 293.479 69.9271 292.803 69.5028C292.127 69.0786 291.595 68.4754 291.207 67.6932C290.819 66.911 290.625 65.983 290.625 64.9091C290.625 63.8352 290.819 62.9072 291.207 62.125C291.595 61.3428 292.127 60.7396 292.803 60.3153C293.479 59.8911 294.251 59.679 295.12 59.679C295.988 59.679 296.76 59.8911 297.436 60.3153C298.112 60.7396 298.644 61.3428 299.032 62.125C299.42 62.9072 299.614 63.8352 299.614 64.9091ZM298.421 64.9091C298.421 64.0275 298.273 63.2834 297.978 62.6768C297.687 62.0703 297.29 61.6113 296.79 61.2997C296.293 60.9882 295.736 60.8324 295.12 60.8324C294.503 60.8324 293.945 60.9882 293.444 61.2997C292.947 61.6113 292.551 62.0703 292.256 62.6768C291.964 63.2834 291.818 64.0275 291.818 64.9091C291.818 65.7907 291.964 66.5348 292.256 67.1413C292.551 67.7479 292.947 68.2069 293.444 68.5185C293.945 68.83 294.503 68.9858 295.12 68.9858C295.736 68.9858 296.293 68.83 296.79 68.5185C297.29 68.2069 297.687 67.7479 297.978 67.1413C298.273 66.5348 298.421 65.7907 298.421 64.9091ZM306.639 65.6449V66.7386H302.423V65.6449H306.639ZM302.701 62.3636V70H301.528V62.3636H302.701ZM307.534 62.3636V70H306.36V62.3636H307.534ZM309 70V68.9062H309.279C309.507 68.9062 309.698 68.8615 309.85 68.772C310.003 68.6792 310.125 68.5185 310.218 68.2898C310.314 68.0578 310.387 67.7363 310.437 67.3253C310.49 66.911 310.528 66.384 310.551 65.7443L310.691 62.3636H315.781V70H314.608V63.4574H311.804L311.685 66.1818C311.658 66.8082 311.602 67.3601 311.516 67.8374C311.433 68.3113 311.305 68.709 311.133 69.0305C310.964 69.352 310.739 69.594 310.457 69.7564C310.175 69.9188 309.822 70 309.398 70H309ZM320.181 70.179C319.697 70.179 319.258 70.0878 318.864 69.9055C318.469 69.7199 318.156 69.4531 317.924 69.1051C317.692 68.7538 317.576 68.3295 317.576 67.8324C317.576 67.3949 317.662 67.0402 317.835 66.7685C318.007 66.4934 318.237 66.2779 318.526 66.1222C318.814 65.9664 319.132 65.8504 319.48 65.7741C319.832 65.6946 320.185 65.6316 320.539 65.5852C321.003 65.5256 321.379 65.4808 321.668 65.451C321.96 65.4179 322.172 65.3632 322.304 65.2869C322.44 65.2107 322.508 65.0781 322.508 64.8892V64.8494C322.508 64.3589 322.374 63.9777 322.105 63.706C321.84 63.4342 321.437 63.2983 320.897 63.2983C320.337 63.2983 319.898 63.4209 319.58 63.6662C319.262 63.9115 319.038 64.1733 318.909 64.4517L317.795 64.054C317.994 63.59 318.259 63.2287 318.59 62.9702C318.925 62.7083 319.29 62.526 319.684 62.4233C320.082 62.3172 320.473 62.2642 320.857 62.2642C321.103 62.2642 321.384 62.294 321.703 62.3537C322.024 62.41 322.334 62.5277 322.632 62.7067C322.934 62.8857 323.184 63.1558 323.383 63.517C323.582 63.8783 323.681 64.3622 323.681 64.9688V70H322.508V68.9659H322.448C322.369 69.1316 322.236 69.3089 322.051 69.4979C321.865 69.6868 321.618 69.8475 321.31 69.9801C321.002 70.1127 320.625 70.179 320.181 70.179ZM320.36 69.125C320.824 69.125 321.215 69.0339 321.534 68.8516C321.855 68.6693 322.097 68.4339 322.259 68.1456C322.425 67.8572 322.508 67.554 322.508 67.2358V66.1619C322.458 66.2216 322.349 66.2763 322.18 66.326C322.014 66.3724 321.822 66.4138 321.603 66.4503C321.388 66.4834 321.177 66.5133 320.972 66.5398C320.77 66.563 320.606 66.5829 320.48 66.5994C320.175 66.6392 319.89 66.7038 319.625 66.7933C319.363 66.8795 319.151 67.0104 318.988 67.1861C318.829 67.3584 318.75 67.5937 318.75 67.892C318.75 68.2997 318.9 68.608 319.202 68.8168C319.507 69.0223 319.893 69.125 320.36 69.125ZM326.996 68.2699L330.675 62.3636H332.027V70H330.854V64.0938L327.195 70H325.823V62.3636H326.996V68.2699ZM329.9 59.8182H330.993C330.993 60.3551 330.808 60.7943 330.436 61.1357C330.065 61.477 329.561 61.6477 328.925 61.6477C328.299 61.6477 327.8 61.477 327.429 61.1357C327.061 60.7943 326.877 60.3551 326.877 59.8182H327.971C327.971 60.0767 328.042 60.3037 328.184 60.4993C328.33 60.6948 328.577 60.7926 328.925 60.7926C329.273 60.7926 329.522 60.6948 329.671 60.4993C329.823 60.3037 329.9 60.0767 329.9 59.8182ZM339.287 65.6449V66.7386H335.071V65.6449H339.287ZM335.35 62.3636V70H334.176V62.3636H335.35ZM340.182 62.3636V70H339.009V62.3636H340.182Z" fill="#384250"/>
<path d="M292.057 100L299.676 84.9318V84.804H290.864V82.5455H302.404V84.8807L294.81 100H292.057Z" fill="#101828"/>
<rect y="128" width="240.5" height="64" rx="6" fill="#F9FAFB"/>
<path d="M25.23 172.74C24.645 172.155 23.6925 172.155 23.1075 172.74L21.8175 174.034L17.1113 169.327L18.405 168.037C18.99 167.452 18.99 166.5 18.405 165.915L15.6375 163.147L13.5075 165.277C13.0913 165.694 12.9225 166.297 13.0725 166.871C13.4363 168.259 14.4675 170.962 17.325 173.82C20.1825 176.677 22.8863 177.709 24.2738 178.072C24.8475 178.222 25.4512 178.054 25.8675 177.637L27.9975 175.507L25.23 172.74Z" fill="url(#paint3_linear_679_211)"/>
<circle cx="24.3335" cy="167" r="3" fill="#FF6464"/>
<path d="M35.523 149V138.818H38.9633C39.7621 138.818 40.415 138.962 40.9221 139.251C41.4325 139.536 41.8104 139.922 42.0556 140.409C42.3009 140.896 42.4235 141.44 42.4235 142.04C42.4235 142.64 42.3009 143.185 42.0556 143.675C41.8137 144.166 41.4391 144.557 40.932 144.849C40.4249 145.137 39.7753 145.281 38.9832 145.281H36.5173V144.188H38.9434C39.4903 144.188 39.9294 144.093 40.2609 143.904C40.5923 143.715 40.8326 143.46 40.9818 143.138C41.1342 142.814 41.2105 142.447 41.2105 142.04C41.2105 141.632 41.1342 141.268 40.9818 140.946C40.8326 140.625 40.5907 140.373 40.2559 140.19C39.9212 140.005 39.477 139.912 38.9235 139.912H36.7559V149H35.523ZM47.2708 149.159C46.5814 149.159 45.9766 148.995 45.4562 148.667C44.9391 148.339 44.5348 147.88 44.2431 147.29C43.9548 146.7 43.8106 146.01 43.8106 145.222C43.8106 144.426 43.9548 143.732 44.2431 143.138C44.5348 142.545 44.9391 142.085 45.4562 141.756C45.9766 141.428 46.5814 141.264 47.2708 141.264C47.9602 141.264 48.5634 141.428 49.0805 141.756C49.6008 142.085 50.0052 142.545 50.2936 143.138C50.5852 143.732 50.7311 144.426 50.7311 145.222C50.7311 146.01 50.5852 146.7 50.2936 147.29C50.0052 147.88 49.6008 148.339 49.0805 148.667C48.5634 148.995 47.9602 149.159 47.2708 149.159ZM47.2708 148.105C47.7945 148.105 48.2254 147.971 48.5634 147.702C48.9015 147.434 49.1517 147.081 49.3141 146.643C49.4766 146.206 49.5578 145.732 49.5578 145.222C49.5578 144.711 49.4766 144.236 49.3141 143.795C49.1517 143.354 48.9015 142.998 48.5634 142.726C48.2254 142.454 47.7945 142.318 47.2708 142.318C46.7472 142.318 46.3163 142.454 45.9782 142.726C45.6401 142.998 45.3899 143.354 45.2275 143.795C45.0651 144.236 44.9839 144.711 44.9839 145.222C44.9839 145.732 45.0651 146.206 45.2275 146.643C45.3899 147.081 45.6401 147.434 45.9782 147.702C46.3163 147.971 46.7472 148.105 47.2708 148.105ZM52.0448 147.051H53.2976C53.3242 147.396 53.4799 147.658 53.765 147.837C54.0533 148.016 54.4278 148.105 54.8885 148.105C55.3592 148.105 55.7619 148.009 56.0966 147.817C56.4314 147.621 56.5988 147.306 56.5988 146.872C56.5988 146.617 56.5358 146.395 56.4099 146.206C56.2839 146.014 56.1066 145.865 55.8779 145.759C55.6492 145.652 55.3791 145.599 55.0675 145.599H53.755V144.545H55.0675C55.5349 144.545 55.8795 144.439 56.1016 144.227C56.327 144.015 56.4397 143.75 56.4397 143.432C56.4397 143.09 56.3187 142.817 56.0768 142.612C55.8348 142.403 55.4918 142.298 55.0476 142.298C54.6002 142.298 54.2273 142.399 53.929 142.602C53.6307 142.8 53.4733 143.057 53.4567 143.372H52.2238C52.237 142.961 52.363 142.598 52.6016 142.283C52.8402 141.965 53.1651 141.717 53.576 141.538C53.987 141.355 54.4577 141.264 54.988 141.264C55.5249 141.264 55.9906 141.359 56.385 141.548C56.7827 141.733 57.0893 141.987 57.3047 142.308C57.5235 142.626 57.6329 142.988 57.6329 143.392C57.6329 143.823 57.5119 144.171 57.2699 144.436C57.028 144.701 56.7247 144.89 56.3601 145.003V145.082C56.6485 145.102 56.8987 145.195 57.1108 145.361C57.3263 145.523 57.4937 145.737 57.613 146.002C57.7323 146.264 57.792 146.554 57.792 146.872C57.792 147.336 57.6677 147.741 57.4191 148.085C57.1705 148.427 56.8291 148.692 56.3949 148.881C55.9608 149.066 55.4652 149.159 54.9084 149.159C54.3682 149.159 53.8843 149.071 53.4567 148.896C53.0292 148.717 52.6894 148.47 52.4376 148.155C52.189 147.837 52.0581 147.469 52.0448 147.051ZM63.6162 147.409L66.2809 141.364H67.3946L64.0934 149H63.1389L59.8974 141.364H60.9912L63.6162 147.409ZM60.6133 141.364V149H59.44V141.364H60.6133ZM66.619 149V141.364H67.7923V149H66.619ZM73.0423 149.159C72.3529 149.159 71.748 148.995 71.2277 148.667C70.7106 148.339 70.3063 147.88 70.0146 147.29C69.7263 146.7 69.5821 146.01 69.5821 145.222C69.5821 144.426 69.7263 143.732 70.0146 143.138C70.3063 142.545 70.7106 142.085 71.2277 141.756C71.748 141.428 72.3529 141.264 73.0423 141.264C73.7317 141.264 74.3349 141.428 74.852 141.756C75.3723 142.085 75.7767 142.545 76.065 143.138C76.3567 143.732 76.5025 144.426 76.5025 145.222C76.5025 146.01 76.3567 146.7 76.065 147.29C75.7767 147.88 75.3723 148.339 74.852 148.667C74.3349 148.995 73.7317 149.159 73.0423 149.159ZM73.0423 148.105C73.566 148.105 73.9969 147.971 74.3349 147.702C74.673 147.434 74.9232 147.081 75.0856 146.643C75.248 146.206 75.3292 145.732 75.3292 145.222C75.3292 144.711 75.248 144.236 75.0856 143.795C74.9232 143.354 74.673 142.998 74.3349 142.726C73.9969 142.454 73.566 142.318 73.0423 142.318C72.5186 142.318 72.0878 142.454 71.7497 142.726C71.4116 142.998 71.1614 143.354 70.999 143.795C70.8366 144.236 70.7554 144.711 70.7554 145.222C70.7554 145.732 70.8366 146.206 70.999 146.643C71.1614 147.081 71.4116 147.434 71.7497 147.702C72.0878 147.971 72.5186 148.105 73.0423 148.105ZM78.2936 149V141.364H81.4157C82.2377 141.364 82.8906 141.549 83.3745 141.92C83.8584 142.292 84.1004 142.782 84.1004 143.392C84.1004 143.856 83.9628 144.216 83.6877 144.471C83.4126 144.723 83.0597 144.893 82.6288 144.983C82.9105 145.023 83.1839 145.122 83.4491 145.281C83.7176 145.44 83.9396 145.659 84.1153 145.938C84.2909 146.213 84.3788 146.551 84.3788 146.952C84.3788 147.343 84.2793 147.692 84.0805 148.001C83.8816 148.309 83.5966 148.553 83.2254 148.732C82.8542 148.911 82.41 149 81.893 149H78.2936ZM79.4072 147.926H81.893C82.2973 147.926 82.6139 147.83 82.8426 147.638C83.0713 147.446 83.1856 147.184 83.1856 146.852C83.1856 146.458 83.0713 146.148 82.8426 145.923C82.6139 145.694 82.2973 145.58 81.893 145.58H79.4072V147.926ZM79.4072 144.565H81.4157C81.7306 144.565 82.0007 144.522 82.2261 144.436C82.4515 144.347 82.6238 144.221 82.7431 144.058C82.8658 143.893 82.9271 143.697 82.9271 143.472C82.9271 143.15 82.7928 142.898 82.5244 142.716C82.2559 142.53 81.8864 142.438 81.4157 142.438H79.4072V144.565ZM85.4787 149V147.906H85.7572C85.9858 147.906 86.1764 147.862 86.3289 147.772C86.4813 147.679 86.604 147.518 86.6968 147.29C86.7929 147.058 86.8658 146.736 86.9155 146.325C86.9686 145.911 87.0067 145.384 87.0299 144.744L87.1691 141.364H92.26V149H91.0867V142.457H88.2827L88.1634 145.182C88.1369 145.808 88.0805 146.36 87.9944 146.837C87.9115 147.311 87.7839 147.709 87.6116 148.031C87.4425 148.352 87.2171 148.594 86.9354 148.756C86.6537 148.919 86.3007 149 85.8765 149H85.4787ZM99.0064 149V142.438H96.978C96.5206 142.438 96.161 142.544 95.8992 142.756C95.6374 142.968 95.5064 143.259 95.5064 143.631C95.5064 143.995 95.6241 144.282 95.8594 144.491C96.0981 144.7 96.4245 144.804 96.8388 144.804H99.3047V145.898H96.8388C96.3218 145.898 95.876 145.807 95.5015 145.624C95.1269 145.442 94.8386 145.182 94.6364 144.844C94.4342 144.502 94.3331 144.098 94.3331 143.631C94.3331 143.16 94.4392 142.756 94.6513 142.418C94.8635 142.08 95.1667 141.819 95.5611 141.637C95.9589 141.455 96.4312 141.364 96.978 141.364H100.12V149H99.0064ZM93.9155 149L96.0831 145.202H97.3559L95.1883 149H93.9155ZM105.933 144.705V145.798H101.896V144.705H105.933ZM102.89 141.364V149H101.717V141.364H102.89ZM108.28 149.159C107.59 149.159 106.985 148.995 106.465 148.667C105.948 148.339 105.544 147.88 105.252 147.29C104.964 146.7 104.819 146.01 104.819 145.222C104.819 144.426 104.964 143.732 105.252 143.138C105.544 142.545 105.948 142.085 106.465 141.756C106.985 141.428 107.59 141.264 108.28 141.264C108.969 141.264 109.572 141.428 110.089 141.756C110.61 142.085 111.014 142.545 111.302 143.138C111.594 143.732 111.74 144.426 111.74 145.222C111.74 146.01 111.594 146.7 111.302 147.29C111.014 147.88 110.61 148.339 110.089 148.667C109.572 148.995 108.969 149.159 108.28 149.159ZM108.28 148.105C108.803 148.105 109.234 147.971 109.572 147.702C109.91 147.434 110.161 147.081 110.323 146.643C110.485 146.206 110.567 145.732 110.567 145.222C110.567 144.711 110.485 144.236 110.323 143.795C110.161 143.354 109.91 142.998 109.572 142.726C109.234 142.454 108.803 142.318 108.28 142.318C107.756 142.318 107.325 142.454 106.987 142.726C106.649 142.998 106.399 143.354 106.236 143.795C106.074 144.236 105.993 144.711 105.993 145.222C105.993 145.732 106.074 146.206 106.236 146.643C106.399 147.081 106.649 147.434 106.987 147.702C107.325 147.971 107.756 148.105 108.28 148.105ZM112.651 142.457V141.364H118.856V142.457H116.35V149H115.177V142.457H112.651ZM121.581 144.128H123.769C124.664 144.128 125.348 144.355 125.822 144.809C126.296 145.263 126.533 145.838 126.533 146.534C126.533 146.991 126.427 147.407 126.215 147.782C126.003 148.153 125.691 148.45 125.28 148.672C124.869 148.891 124.365 149 123.769 149H120.567V141.364H121.74V147.906H123.769C124.233 147.906 124.614 147.784 124.912 147.538C125.21 147.293 125.36 146.978 125.36 146.594C125.36 146.189 125.21 145.86 124.912 145.604C124.614 145.349 124.233 145.222 123.769 145.222H121.581V144.128Z" fill="#384250"/>
<path d="M41.7303 179.239C40.6622 179.239 39.7019 179.034 38.8497 178.625C38.0031 178.21 37.3269 177.642 36.8213 176.92C36.3156 176.199 36.0457 175.375 36.0116 174.449H38.5684C38.6309 175.199 38.9633 175.815 39.5656 176.298C40.1678 176.781 40.8894 177.023 41.7303 177.023C42.4008 177.023 42.9945 176.869 43.5116 176.562C44.0343 176.25 44.4434 175.821 44.7389 175.276C45.04 174.73 45.1906 174.108 45.1906 173.409C45.1906 172.699 45.0372 172.065 44.7303 171.509C44.4235 170.952 44.0002 170.514 43.4605 170.196C42.9264 169.878 42.3127 169.716 41.6195 169.71C41.0911 169.71 40.5599 169.801 40.0258 169.983C39.4917 170.165 39.0599 170.403 38.7303 170.699L36.3184 170.341L37.2985 161.545H46.8951V163.804H39.4889L38.9349 168.688H39.0372C39.3781 168.358 39.8298 168.082 40.3923 167.861C40.9605 167.639 41.5684 167.528 42.2161 167.528C43.2786 167.528 44.2247 167.781 45.0542 168.287C45.8894 168.793 46.5457 169.483 47.023 170.358C47.5059 171.227 47.7445 172.227 47.7389 173.358C47.7445 174.489 47.4889 175.497 46.9718 176.384C46.4605 177.27 45.7502 177.969 44.8411 178.48C43.9377 178.986 42.9008 179.239 41.7303 179.239Z" fill="#101828"/>
<rect x="255.5" y="128" width="240.5" height="64" rx="6" fill="#F9FAFB"/>
<circle cx="275.645" cy="171" r="5" fill="url(#paint4_linear_679_211)"/>
<path d="M299.614 143.909C299.614 144.983 299.42 145.911 299.032 146.693C298.644 147.475 298.112 148.079 297.436 148.503C296.76 148.927 295.988 149.139 295.12 149.139C294.251 149.139 293.479 148.927 292.803 148.503C292.127 148.079 291.595 147.475 291.207 146.693C290.819 145.911 290.625 144.983 290.625 143.909C290.625 142.835 290.819 141.907 291.207 141.125C291.595 140.343 292.127 139.74 292.803 139.315C293.479 138.891 294.251 138.679 295.12 138.679C295.988 138.679 296.76 138.891 297.436 139.315C298.112 139.74 298.644 140.343 299.032 141.125C299.42 141.907 299.614 142.835 299.614 143.909ZM298.421 143.909C298.421 143.027 298.273 142.283 297.978 141.677C297.687 141.07 297.29 140.611 296.79 140.3C296.293 139.988 295.736 139.832 295.12 139.832C294.503 139.832 293.945 139.988 293.444 140.3C292.947 140.611 292.551 141.07 292.256 141.677C291.964 142.283 291.818 143.027 291.818 143.909C291.818 144.791 291.964 145.535 292.256 146.141C292.551 146.748 292.947 147.207 293.444 147.518C293.945 147.83 294.503 147.986 295.12 147.986C295.736 147.986 296.293 147.83 296.79 147.518C297.29 147.207 297.687 146.748 297.978 146.141C298.273 145.535 298.421 144.791 298.421 143.909ZM304.63 151.605V138.818H305.804V151.605H304.63ZM304.63 149.159C304.113 149.159 303.643 149.066 303.218 148.881C302.794 148.692 302.429 148.425 302.125 148.08C301.82 147.732 301.584 147.316 301.419 146.832C301.253 146.348 301.17 145.812 301.17 145.222C301.17 144.625 301.253 144.085 301.419 143.601C301.584 143.114 301.82 142.696 302.125 142.348C302.429 142 302.794 141.733 303.218 141.548C303.643 141.359 304.113 141.264 304.63 141.264H304.988V149.159H304.63ZM304.63 148.105H304.829V142.318H304.63C304.239 142.318 303.899 142.398 303.611 142.557C303.323 142.713 303.084 142.926 302.895 143.198C302.71 143.467 302.57 143.775 302.478 144.123C302.388 144.471 302.343 144.837 302.343 145.222C302.343 145.732 302.424 146.206 302.587 146.643C302.749 147.081 303 147.434 303.338 147.702C303.676 147.971 304.107 148.105 304.63 148.105ZM305.804 149.159H305.446V141.264H305.804C306.321 141.264 306.791 141.359 307.215 141.548C307.64 141.733 308.004 142 308.309 142.348C308.614 142.696 308.849 143.114 309.015 143.601C309.181 144.085 309.264 144.625 309.264 145.222C309.264 145.812 309.181 146.348 309.015 146.832C308.849 147.316 308.614 147.732 308.309 148.08C308.004 148.425 307.64 148.692 307.215 148.881C306.791 149.066 306.321 149.159 305.804 149.159ZM305.804 148.105C306.198 148.105 306.538 148.029 306.823 147.876C307.111 147.721 307.348 147.509 307.534 147.24C307.723 146.968 307.862 146.66 307.951 146.315C308.044 145.967 308.09 145.603 308.09 145.222C308.09 144.711 308.009 144.236 307.847 143.795C307.684 143.354 307.434 142.998 307.096 142.726C306.758 142.454 306.327 142.318 305.804 142.318H305.605V148.105H305.804ZM310.381 149V147.906H310.66C310.888 147.906 311.079 147.862 311.231 147.772C311.384 147.679 311.506 147.518 311.599 147.29C311.695 147.058 311.768 146.736 311.818 146.325C311.871 145.911 311.909 145.384 311.932 144.744L312.071 141.364H317.162V149H315.989V142.457H313.185L313.066 145.182C313.039 145.808 312.983 146.36 312.897 146.837C312.814 147.311 312.686 147.709 312.514 148.031C312.345 148.352 312.119 148.594 311.838 148.756C311.556 148.919 311.203 149 310.779 149H310.381ZM321.562 149.179C321.078 149.179 320.639 149.088 320.245 148.906C319.85 148.72 319.537 148.453 319.305 148.105C319.073 147.754 318.957 147.33 318.957 146.832C318.957 146.395 319.043 146.04 319.216 145.768C319.388 145.493 319.618 145.278 319.907 145.122C320.195 144.966 320.513 144.85 320.861 144.774C321.213 144.695 321.566 144.632 321.92 144.585C322.384 144.526 322.76 144.481 323.049 144.451C323.34 144.418 323.552 144.363 323.685 144.287C323.821 144.211 323.889 144.078 323.889 143.889V143.849C323.889 143.359 323.755 142.978 323.486 142.706C323.221 142.434 322.818 142.298 322.278 142.298C321.718 142.298 321.279 142.421 320.961 142.666C320.642 142.911 320.419 143.173 320.289 143.452L319.176 143.054C319.375 142.59 319.64 142.229 319.971 141.97C320.306 141.708 320.671 141.526 321.065 141.423C321.463 141.317 321.854 141.264 322.238 141.264C322.484 141.264 322.765 141.294 323.084 141.354C323.405 141.41 323.715 141.528 324.013 141.707C324.315 141.886 324.565 142.156 324.764 142.517C324.963 142.878 325.062 143.362 325.062 143.969V149H323.889V147.966H323.829C323.75 148.132 323.617 148.309 323.432 148.498C323.246 148.687 322.999 148.848 322.691 148.98C322.383 149.113 322.006 149.179 321.562 149.179ZM321.741 148.125C322.205 148.125 322.596 148.034 322.914 147.852C323.236 147.669 323.478 147.434 323.64 147.146C323.806 146.857 323.889 146.554 323.889 146.236V145.162C323.839 145.222 323.73 145.276 323.561 145.326C323.395 145.372 323.203 145.414 322.984 145.45C322.769 145.483 322.558 145.513 322.353 145.54C322.151 145.563 321.986 145.583 321.86 145.599C321.556 145.639 321.271 145.704 321.005 145.793C320.744 145.879 320.531 146.01 320.369 146.186C320.21 146.358 320.13 146.594 320.13 146.892C320.13 147.3 320.281 147.608 320.583 147.817C320.888 148.022 321.274 148.125 321.741 148.125ZM328.377 147.27L332.056 141.364H333.408V149H332.235V143.094L328.576 149H327.204V141.364H328.377V147.27ZM331.28 138.818H332.374C332.374 139.355 332.189 139.794 331.817 140.136C331.446 140.477 330.942 140.648 330.306 140.648C329.68 140.648 329.181 140.477 328.81 140.136C328.442 139.794 328.258 139.355 328.258 138.818H329.351C329.351 139.077 329.423 139.304 329.565 139.499C329.711 139.695 329.958 139.793 330.306 139.793C330.654 139.793 330.903 139.695 331.052 139.499C331.204 139.304 331.28 139.077 331.28 138.818ZM340.668 144.645V145.739H336.452V144.645H340.668ZM336.731 141.364V149H335.557V141.364H336.731ZM341.563 141.364V149H340.39V141.364H341.563Z" fill="#384250"/>
<path d="M291.103 175.591V173.46L298.645 161.545H300.324V164.682H299.259L293.864 173.222V173.358H304.202V175.591H291.103ZM299.378 179V174.943L299.395 173.972V161.545H301.892V179H299.378Z" fill="#101828"/>
<defs>
<linearGradient id="paint0_linear_679_211" x1="14.2786" y1="96.7844" x2="23.0118" y2="79.9768" gradientUnits="userSpaceOnUse">
<stop stop-color="#262626" stop-opacity="0"/>
<stop offset="1" stop-color="#262626" stop-opacity="0.8"/>
</linearGradient>
<linearGradient id="paint1_linear_679_211" x1="10.9454" y1="113.04" x2="24.8747" y2="87.1897" gradientUnits="userSpaceOnUse">
<stop offset="0.005" stop-color="#262626" stop-opacity="0"/>
<stop offset="1" stop-color="#262626" stop-opacity="0.8"/>
</linearGradient>
<linearGradient id="paint2_linear_679_211" x1="275.645" y1="87" x2="275.645" y2="97" gradientUnits="userSpaceOnUse">
<stop stop-color="#34C759"/>
<stop offset="1" stop-color="#57E77B"/>
</linearGradient>
<linearGradient id="paint3_linear_679_211" x1="12.3011" y1="178.844" x2="27.6806" y2="163.464" gradientUnits="userSpaceOnUse">
<stop stop-color="#676AE6"/>
<stop offset="1" stop-color="#3538CD"/>
</linearGradient>
<linearGradient id="paint4_linear_679_211" x1="275.645" y1="166" x2="275.645" y2="176" gradientUnits="userSpaceOnUse">
<stop stop-color="#999999"/>
<stop offset="1" stop-color="#CECECE"/>
</linearGradient>
</defs>
</svg>
