<svg width="1126" height="371" viewBox="0 0 1126 371" fill="none" xmlns="http://www.w3.org/2000/svg">
<rect width="1126" height="371" fill="white"/>
<path d="M49.6932 80.1648V66.1023H52.0795V80.1648H49.6932ZM43.8551 74.3267V71.9403H57.9176V74.3267H43.8551ZM70.0545 84.2983C68.6483 84.2983 67.3947 84.0568 66.2939 83.5739C65.2001 83.0909 64.3301 82.4197 63.6838 81.5604C63.0446 80.6939 62.6966 79.6889 62.6397 78.5455H65.3244C65.3812 79.2486 65.6227 79.8558 66.0488 80.3672C66.475 80.8714 67.0325 81.2621 67.7214 81.5391C68.4103 81.8161 69.1738 81.9545 70.0119 81.9545C70.9494 81.9545 71.7804 81.7912 72.5048 81.4645C73.2292 81.1378 73.7974 80.6832 74.2093 80.1009C74.6213 79.5185 74.8272 78.8438 74.8272 78.0767C74.8272 77.2741 74.6284 76.5675 74.2306 75.9567C73.8329 75.3388 73.2505 74.8558 72.4835 74.5078C71.7164 74.1598 70.7789 73.9858 69.671 73.9858H67.9238V71.642H69.671C70.5375 71.642 71.2974 71.4858 71.9508 71.1733C72.6113 70.8608 73.1262 70.4205 73.4956 69.8523C73.872 69.2841 74.0602 68.6165 74.0602 67.8494C74.0602 67.1108 73.8968 66.468 73.5701 65.9212C73.2434 65.3743 72.7818 64.9482 72.1852 64.6428C71.5957 64.3374 70.8997 64.1847 70.0971 64.1847C69.3443 64.1847 68.6341 64.3232 67.9664 64.6001C67.3059 64.87 66.7662 65.2642 66.3471 65.7827C65.9281 66.294 65.7008 66.9119 65.6653 67.6364H63.1085C63.1511 66.4929 63.4956 65.4915 64.1419 64.6321C64.7882 63.7656 65.6333 63.0909 66.6774 62.608C67.7285 62.125 68.8826 61.8835 70.1397 61.8835C71.4892 61.8835 72.6468 62.157 73.6127 62.7038C74.5787 63.2436 75.3208 63.9574 75.8393 64.8452C76.3578 65.733 76.617 66.6918 76.617 67.7216C76.617 68.9503 76.2939 69.9979 75.6475 70.8643C75.0083 71.7308 74.1383 72.331 73.0375 72.6648V72.8352C74.4153 73.0625 75.4913 73.6484 76.2654 74.593C77.0396 75.5305 77.4267 76.6918 77.4267 78.0767C77.4267 79.2628 77.1035 80.3281 76.4572 81.2727C75.818 82.2102 74.9444 82.9489 73.8365 83.4886C72.7285 84.0284 71.4679 84.2983 70.0545 84.2983ZM88.7726 84.2983C87.3095 84.2983 86.0169 84.0391 84.8947 83.5206C83.7797 82.995 82.9096 82.2741 82.2846 81.358C81.6596 80.4347 81.3507 79.3835 81.3578 78.2045C81.3507 77.2812 81.5318 76.429 81.9011 75.6477C82.2704 74.8594 82.7747 74.2024 83.4139 73.6768C84.0602 73.1442 84.7811 72.8068 85.5765 72.6648V72.5369C84.5325 72.267 83.7015 71.6811 83.0836 70.7791C82.4657 69.87 82.1603 68.8366 82.1674 67.679C82.1603 66.571 82.4409 65.5803 83.0091 64.7067C83.5772 63.8331 84.3585 63.1442 85.3528 62.6399C86.3542 62.1357 87.4941 61.8835 88.7726 61.8835C90.0368 61.8835 91.166 62.1357 92.1603 62.6399C93.1547 63.1442 93.9359 63.8331 94.5041 64.7067C95.0794 65.5803 95.3706 66.571 95.3777 67.679C95.3706 68.8366 95.0545 69.87 94.4295 70.7791C93.8116 71.6811 92.9913 72.267 91.9686 72.5369V72.6648C92.7569 72.8068 93.4672 73.1442 94.0993 73.6768C94.7314 74.2024 95.2356 74.8594 95.612 75.6477C95.9885 76.429 96.1802 77.2812 96.1873 78.2045C96.1802 79.3835 95.8606 80.4347 95.2285 81.358C94.6035 82.2741 93.7335 82.995 92.6184 83.5206C91.5105 84.0391 90.2285 84.2983 88.7726 84.2983ZM88.7726 81.9545C89.7598 81.9545 90.612 81.7947 91.3294 81.4751C92.0467 81.1555 92.6007 80.7045 92.9913 80.1222C93.3819 79.5398 93.5808 78.858 93.5879 78.0767C93.5808 77.2528 93.3677 76.5249 92.9487 75.8928C92.5297 75.2607 91.9579 74.7635 91.2335 74.4013C90.5162 74.0391 89.6958 73.858 88.7726 73.858C87.8422 73.858 87.0112 74.0391 86.2797 74.4013C85.5552 74.7635 84.9835 75.2607 84.5645 75.8928C84.1525 76.5249 83.9501 77.2528 83.9572 78.0767C83.9501 78.858 84.1383 79.5398 84.5218 80.1222C84.9125 80.7045 85.47 81.1555 86.1944 81.4751C86.9189 81.7947 87.7782 81.9545 88.7726 81.9545ZM88.7726 71.5994C89.5538 71.5994 90.2463 71.4432 90.85 71.1307C91.4608 70.8182 91.9402 70.3814 92.2882 69.8203C92.6362 69.2592 92.8137 68.6023 92.8208 67.8494C92.8137 67.1108 92.6397 66.468 92.2988 65.9212C91.9579 65.3672 91.4856 64.9411 90.8819 64.6428C90.2782 64.3374 89.5751 64.1847 88.7726 64.1847C87.9558 64.1847 87.242 64.3374 86.6312 64.6428C86.0204 64.9411 85.5481 65.3672 85.2143 65.9212C84.8805 66.468 84.7172 67.1108 84.7243 67.8494C84.7172 68.6023 84.8841 69.2592 85.225 69.8203C85.573 70.3814 86.0524 70.8182 86.6632 71.1307C87.274 71.4432 87.9771 71.5994 88.7726 71.5994ZM109.645 73.0909C109.645 70.4062 109.993 67.9382 110.689 65.6868C111.392 63.4283 112.394 61.3509 113.694 59.4545H115.909C115.398 60.1577 114.919 61.0241 114.471 62.054C114.031 63.0767 113.644 64.2024 113.31 65.4311C112.976 66.6527 112.713 67.9169 112.522 69.2237C112.337 70.5305 112.245 71.8196 112.245 73.0909C112.245 74.7812 112.408 76.4964 112.735 78.2365C113.061 79.9766 113.502 81.5923 114.056 83.0838C114.61 84.5753 115.228 85.7898 115.909 86.7273H113.694C112.394 84.831 111.392 82.7571 110.689 80.5057C109.993 78.2472 109.645 75.7756 109.645 73.0909ZM126.693 84.2983C125.088 84.2983 123.721 83.8615 122.592 82.9879C121.463 82.1072 120.6 80.8324 120.003 79.1634C119.406 77.4872 119.108 75.4631 119.108 73.0909C119.108 70.733 119.406 68.7195 120.003 67.0504C120.607 65.3743 121.473 64.0959 122.602 63.2152C123.739 62.3274 125.102 61.8835 126.693 61.8835C128.284 61.8835 129.644 62.3274 130.774 63.2152C131.91 64.0959 132.776 65.3743 133.373 67.0504C133.977 68.7195 134.279 70.733 134.279 73.0909C134.279 75.4631 133.98 77.4872 133.384 79.1634C132.787 80.8324 131.924 82.1072 130.795 82.9879C129.666 83.8615 128.298 84.2983 126.693 84.2983ZM126.693 81.9545C128.284 81.9545 129.52 81.1875 130.401 79.6534C131.281 78.1193 131.722 75.9318 131.722 73.0909C131.722 71.2017 131.519 69.593 131.115 68.2649C130.717 66.9368 130.142 65.9247 129.389 65.2287C128.643 64.5327 127.744 64.1847 126.693 64.1847C125.117 64.1847 123.884 64.9624 122.997 66.5178C122.109 68.0661 121.665 70.2571 121.665 73.0909C121.665 74.9801 121.864 76.5852 122.262 77.9062C122.659 79.2273 123.231 80.2322 123.977 80.9212C124.73 81.6101 125.635 81.9545 126.693 81.9545ZM137.816 79.5256V77.3523L147.404 62.1818H148.98V65.5483H147.915L140.671 77.0114V77.1818H153.583V79.5256H137.816ZM148.085 84V78.8651V77.853V62.1818H150.6V84H148.085ZM157.064 79.5256V77.3523L166.652 62.1818H168.228V65.5483H167.163L159.919 77.0114V77.1818H172.831V79.5256H157.064ZM167.333 84V78.8651V77.853V62.1818H169.848V84H167.333ZM182.235 73.0909C182.235 75.7756 181.883 78.2472 181.18 80.5057C180.484 82.7571 179.486 84.831 178.187 86.7273H175.971C176.482 86.0241 176.958 85.1577 177.398 84.1278C177.846 83.1051 178.236 81.983 178.57 80.7614C178.904 79.5327 179.163 78.2649 179.348 76.9581C179.54 75.6442 179.635 74.3551 179.635 73.0909C179.635 71.4006 179.472 69.6854 179.145 67.9453C178.819 66.2053 178.378 64.5895 177.824 63.098C177.27 61.6065 176.653 60.392 175.971 59.4545H178.187C179.486 61.3509 180.484 63.4283 181.18 65.6868C181.883 67.9382 182.235 70.4062 182.235 73.0909ZM203.502 84.2983C202.096 84.2983 200.842 84.0568 199.741 83.5739C198.647 83.0909 197.777 82.4197 197.131 81.5604C196.492 80.6939 196.144 79.6889 196.087 78.5455H198.772C198.828 79.2486 199.07 79.8558 199.496 80.3672C199.922 80.8714 200.48 81.2621 201.169 81.5391C201.858 81.8161 202.621 81.9545 203.459 81.9545C204.397 81.9545 205.228 81.7912 205.952 81.4645C206.676 81.1378 207.245 80.6832 207.657 80.1009C208.069 79.5185 208.275 78.8438 208.275 78.0767C208.275 77.2741 208.076 76.5675 207.678 75.9567C207.28 75.3388 206.698 74.8558 205.931 74.5078C205.164 74.1598 204.226 73.9858 203.118 73.9858H201.371V71.642H203.118C203.985 71.642 204.745 71.4858 205.398 71.1733C206.059 70.8608 206.574 70.4205 206.943 69.8523C207.319 69.2841 207.507 68.6165 207.507 67.8494C207.507 67.1108 207.344 66.468 207.017 65.9212C206.691 65.3743 206.229 64.9482 205.632 64.6428C205.043 64.3374 204.347 64.1847 203.544 64.1847C202.792 64.1847 202.081 64.3232 201.414 64.6001C200.753 64.87 200.213 65.2642 199.794 65.7827C199.375 66.294 199.148 66.9119 199.113 67.6364H196.556C196.598 66.4929 196.943 65.4915 197.589 64.6321C198.235 63.7656 199.081 63.0909 200.125 62.608C201.176 62.125 202.33 61.8835 203.587 61.8835C204.936 61.8835 206.094 62.157 207.06 62.7038C208.026 63.2436 208.768 63.9574 209.287 64.8452C209.805 65.733 210.064 66.6918 210.064 67.7216C210.064 68.9503 209.741 69.9979 209.095 70.8643C208.456 71.7308 207.586 72.331 206.485 72.6648V72.8352C207.863 73.0625 208.939 73.6484 209.713 74.593C210.487 75.5305 210.874 76.6918 210.874 78.0767C210.874 79.2628 210.551 80.3281 209.904 81.2727C209.265 82.2102 208.392 82.9489 207.284 83.4886C206.176 84.0284 204.915 84.2983 203.502 84.2983ZM222.603 84.2983C221.197 84.2983 219.944 84.0568 218.843 83.5739C217.749 83.0909 216.879 82.4197 216.233 81.5604C215.593 80.6939 215.245 79.6889 215.189 78.5455H217.873C217.93 79.2486 218.172 79.8558 218.598 80.3672C219.024 80.8714 219.581 81.2621 220.27 81.5391C220.959 81.8161 221.723 81.9545 222.561 81.9545C223.498 81.9545 224.329 81.7912 225.054 81.4645C225.778 81.1378 226.346 80.6832 226.758 80.1009C227.17 79.5185 227.376 78.8438 227.376 78.0767C227.376 77.2741 227.177 76.5675 226.779 75.9567C226.382 75.3388 225.799 74.8558 225.032 74.5078C224.265 74.1598 223.328 73.9858 222.22 73.9858H220.473V71.642H222.22C223.086 71.642 223.846 71.4858 224.5 71.1733C225.16 70.8608 225.675 70.4205 226.044 69.8523C226.421 69.2841 226.609 68.6165 226.609 67.8494C226.609 67.1108 226.446 66.468 226.119 65.9212C225.792 65.3743 225.331 64.9482 224.734 64.6428C224.145 64.3374 223.449 64.1847 222.646 64.1847C221.893 64.1847 221.183 64.3232 220.515 64.6001C219.855 64.87 219.315 65.2642 218.896 65.7827C218.477 66.294 218.25 66.9119 218.214 67.6364H215.657C215.7 66.4929 216.044 65.4915 216.691 64.6321C217.337 63.7656 218.182 63.0909 219.226 62.608C220.277 62.125 221.431 61.8835 222.689 61.8835C224.038 61.8835 225.196 62.157 226.162 62.7038C227.127 63.2436 227.87 63.9574 228.388 64.8452C228.907 65.733 229.166 66.6918 229.166 67.7216C229.166 68.9503 228.843 69.9979 228.196 70.8643C227.557 71.7308 226.687 72.331 225.586 72.6648V72.8352C226.964 73.0625 228.04 73.6484 228.814 74.593C229.588 75.5305 229.975 76.6918 229.975 78.0767C229.975 79.2628 229.652 80.3281 229.006 81.2727C228.367 82.2102 227.493 82.9489 226.385 83.4886C225.277 84.0284 224.017 84.2983 222.603 84.2983ZM241.449 84.2983C239.844 84.2983 238.477 83.8615 237.348 82.9879C236.218 82.1072 235.355 80.8324 234.759 79.1634C234.162 77.4872 233.864 75.4631 233.864 73.0909C233.864 70.733 234.162 68.7195 234.759 67.0504C235.363 65.3743 236.229 64.0959 237.358 63.2152C238.495 62.3274 239.858 61.8835 241.449 61.8835C243.04 61.8835 244.4 62.3274 245.529 63.2152C246.666 64.0959 247.532 65.3743 248.129 67.0504C248.733 68.7195 249.034 70.733 249.034 73.0909C249.034 75.4631 248.736 77.4872 248.14 79.1634C247.543 80.8324 246.68 82.1072 245.551 82.9879C244.422 83.8615 243.054 84.2983 241.449 84.2983ZM241.449 81.9545C243.04 81.9545 244.276 81.1875 245.157 79.6534C246.037 78.1193 246.478 75.9318 246.478 73.0909C246.478 71.2017 246.275 69.593 245.87 68.2649C245.473 66.9368 244.897 65.9247 244.145 65.2287C243.399 64.5327 242.5 64.1847 241.449 64.1847C239.873 64.1847 238.64 64.9624 237.752 66.5178C236.865 68.0661 236.421 70.2571 236.421 73.0909C236.421 74.9801 236.62 76.5852 237.017 77.9062C237.415 79.2273 237.987 80.2322 238.733 80.9212C239.485 81.6101 240.391 81.9545 241.449 81.9545ZM262.5 71.919V74.2628H252.955V71.919H262.5ZM271.1 74.4545L271.271 69.767L267.308 72.2812L266.285 70.4915L270.461 68.3182L266.285 66.1449L267.308 64.3551L271.271 66.8693L271.1 62.1818H273.146L272.975 66.8693L276.938 64.3551L277.961 66.1449L273.785 68.3182L277.961 70.4915L276.938 72.2812L272.975 69.767L273.146 74.4545H271.1ZM286.1 74.4545L286.271 69.767L282.308 72.2812L281.285 70.4915L285.461 68.3182L281.285 66.1449L282.308 64.3551L286.271 66.8693L286.1 62.1818H288.146L287.975 66.8693L291.938 64.3551L292.961 66.1449L288.785 68.3182L292.961 70.4915L291.938 72.2812L287.975 69.767L288.146 74.4545H286.1ZM306.299 73.4744V75.8182H296.754V73.4744H306.299ZM314.899 74.4545L315.07 69.767L311.107 72.2812L310.084 70.4915L314.26 68.3182L310.084 66.1449L311.107 64.3551L315.07 66.8693L314.899 62.1818H316.945L316.774 66.8693L320.737 64.3551L321.76 66.1449L317.584 68.3182L321.76 70.4915L320.737 72.2812L316.774 69.767L316.945 74.4545H314.899ZM329.899 74.4545L330.07 69.767L326.107 72.2812L325.084 70.4915L329.26 68.3182L325.084 66.1449L326.107 64.3551L330.07 66.8693L329.899 62.1818H331.945L331.774 66.8693L335.737 64.3551L336.76 66.1449L332.584 68.3182L336.76 70.4915L335.737 72.2812L331.774 69.767L331.945 74.4545H329.899Z" fill="black"/>
<path d="M429.747 79.5256V77.3523L439.335 62.1818H440.912V65.5483H439.847L432.602 77.0114V77.1818H445.514V79.5256H429.747ZM440.017 84V78.8651V77.853V62.1818H442.531V84H440.017Z" fill="black"/>
<g filter="url(#filter0_b_6064_30718)">
<rect x="262" y="51" width="101" height="48" fill="white" fill-opacity="0.7"/>
</g>
<path d="M49.25 44L45.25 38.6591H43.8182V44H42.4091V32.3636H43.8182V37.4091H44.4318L49.0909 32.3636H50.7727L46.0682 37.4773L50.9318 44H49.25ZM52.794 47.2727C52.5668 47.2727 52.3641 47.2538 52.1861 47.2159C52.008 47.1818 51.8849 47.1477 51.8168 47.1136L52.1577 45.9318C52.4834 46.0152 52.7713 46.0455 53.0213 46.0227C53.2713 46 53.4929 45.8883 53.6861 45.6875C53.883 45.4905 54.063 45.1705 54.2259 44.7273L54.4759 44.0455L51.2486 35.2727H52.7031L55.1122 42.2273H55.2031L57.6122 35.2727H59.0668L55.3622 45.2727C55.1955 45.7235 54.9891 46.0966 54.7429 46.392C54.4967 46.6913 54.2107 46.9129 53.8849 47.0568C53.563 47.2008 53.1993 47.2727 52.794 47.2727ZM60.8366 44V35.2727H67.7003V44H66.3594V36.5227H62.1776V44H60.8366ZM69.3764 44V42.75H69.6946C69.956 42.75 70.1738 42.6989 70.348 42.5966C70.5223 42.4905 70.6624 42.3068 70.7685 42.0455C70.8783 41.7803 70.9616 41.4129 71.0185 40.9432C71.0791 40.4697 71.1226 39.8674 71.1491 39.1364L71.3082 35.2727H77.1264V44H75.7855V36.5227H72.581L72.4446 39.6364C72.4143 40.3523 72.3499 40.983 72.2514 41.5284C72.1567 42.0701 72.0109 42.5246 71.8139 42.892C71.6207 43.2595 71.3632 43.536 71.0412 43.7216C70.7192 43.9072 70.3158 44 69.831 44H69.3764ZM83.2457 44.1818C82.4048 44.1818 81.6795 43.9962 81.0696 43.625C80.4635 43.25 79.9957 42.7273 79.6662 42.0568C79.3404 41.3826 79.1776 40.5985 79.1776 39.7045C79.1776 38.8106 79.3404 38.0227 79.6662 37.3409C79.9957 36.6553 80.4541 36.1212 81.0412 35.7386C81.6321 35.3523 82.3215 35.1591 83.1094 35.1591C83.5639 35.1591 84.0128 35.2348 84.456 35.3864C84.8991 35.5379 85.3026 35.7841 85.6662 36.125C86.0298 36.4621 86.3196 36.9091 86.5355 37.4659C86.7514 38.0227 86.8594 38.7083 86.8594 39.5227V40.0909H80.1321V38.9318H85.4957C85.4957 38.4394 85.3973 38 85.2003 37.6136C85.0071 37.2273 84.7306 36.9223 84.3707 36.6989C84.0147 36.4754 83.5942 36.3636 83.1094 36.3636C82.5753 36.3636 82.1132 36.4962 81.723 36.7614C81.3366 37.0227 81.0393 37.3636 80.831 37.7841C80.6226 38.2045 80.5185 38.6553 80.5185 39.1364V39.9091C80.5185 40.5682 80.6321 41.1269 80.8594 41.5852C81.0904 42.0398 81.4105 42.3864 81.8196 42.625C82.2287 42.8598 82.7041 42.9773 83.2457 42.9773C83.598 42.9773 83.9162 42.928 84.2003 42.8295C84.4882 42.7273 84.7363 42.5758 84.9446 42.375C85.1529 42.1705 85.3139 41.9167 85.4276 41.6136L86.723 41.9773C86.5866 42.4167 86.3575 42.803 86.0355 43.1364C85.7135 43.4659 85.3158 43.7235 84.8423 43.9091C84.3688 44.0909 83.8366 44.1818 83.2457 44.1818ZM94.7401 39.0227V40.2727H89.9219V39.0227H94.7401ZM90.2401 35.2727V44H88.8991V35.2727H90.2401ZM95.7628 35.2727V44H94.4219V35.2727H95.7628ZM99.5526 42.0227L103.757 35.2727H105.303V44H103.962V37.25L99.7798 44H98.2116V35.2727H99.5526V42.0227ZM109.099 42.0227L113.304 35.2727H114.849V44H113.509V37.25L109.327 44H107.759V35.2727H109.099V42.0227ZM112.418 32.3636H113.668C113.668 32.9773 113.455 33.4792 113.031 33.8693C112.607 34.2595 112.031 34.4545 111.304 34.4545C110.588 34.4545 110.018 34.2595 109.594 33.8693C109.173 33.4792 108.963 32.9773 108.963 32.3636H110.213C110.213 32.6591 110.295 32.9186 110.457 33.142C110.624 33.3655 110.906 33.4773 111.304 33.4773C111.702 33.4773 111.986 33.3655 112.156 33.142C112.33 32.9186 112.418 32.6591 112.418 32.3636ZM127.646 39.0227V40.2727H122.828V39.0227H127.646ZM123.146 35.2727V44H121.805V35.2727H123.146ZM128.669 35.2727V44H127.328V35.2727H128.669ZM134.663 44.1818C133.875 44.1818 133.184 43.9943 132.589 43.6193C131.999 43.2443 131.536 42.7197 131.203 42.0455C130.874 41.3712 130.709 40.5833 130.709 39.6818C130.709 38.7727 130.874 37.9792 131.203 37.3011C131.536 36.6231 131.999 36.0966 132.589 35.7216C133.184 35.3466 133.875 35.1591 134.663 35.1591C135.451 35.1591 136.141 35.3466 136.732 35.7216C137.326 36.0966 137.788 36.6231 138.118 37.3011C138.451 37.9792 138.618 38.7727 138.618 39.6818C138.618 40.5833 138.451 41.3712 138.118 42.0455C137.788 42.7197 137.326 43.2443 136.732 43.6193C136.141 43.9943 135.451 44.1818 134.663 44.1818ZM134.663 42.9773C135.262 42.9773 135.754 42.8239 136.141 42.517C136.527 42.2102 136.813 41.8068 136.999 41.3068C137.184 40.8068 137.277 40.2652 137.277 39.6818C137.277 39.0985 137.184 38.5549 136.999 38.0511C136.813 37.5473 136.527 37.1402 136.141 36.8295C135.754 36.5189 135.262 36.3636 134.663 36.3636C134.065 36.3636 133.572 36.5189 133.186 36.8295C132.8 37.1402 132.514 37.5473 132.328 38.0511C132.143 38.5549 132.05 39.0985 132.05 39.6818C132.05 40.2652 132.143 40.8068 132.328 41.3068C132.514 41.8068 132.8 42.2102 133.186 42.517C133.572 42.8239 134.065 42.9773 134.663 42.9773ZM145.438 42.1818L148.483 35.2727H149.756L145.983 44H144.892L141.188 35.2727H142.438L145.438 42.1818ZM142.006 35.2727V44H140.665V35.2727H142.006ZM148.869 44V35.2727H150.21V44H148.869ZM156.324 44.1818C155.483 44.1818 154.758 43.9962 154.148 43.625C153.542 43.25 153.074 42.7273 152.744 42.0568C152.419 41.3826 152.256 40.5985 152.256 39.7045C152.256 38.8106 152.419 38.0227 152.744 37.3409C153.074 36.6553 153.532 36.1212 154.119 35.7386C154.71 35.3523 155.4 35.1591 156.188 35.1591C156.642 35.1591 157.091 35.2348 157.534 35.3864C157.977 35.5379 158.381 35.7841 158.744 36.125C159.108 36.4621 159.398 36.9091 159.614 37.4659C159.83 38.0227 159.938 38.7083 159.938 39.5227V40.0909H153.21V38.9318H158.574C158.574 38.4394 158.475 38 158.278 37.6136C158.085 37.2273 157.809 36.9223 157.449 36.6989C157.093 36.4754 156.672 36.3636 156.188 36.3636C155.653 36.3636 155.191 36.4962 154.801 36.7614C154.415 37.0227 154.117 37.3636 153.909 37.7841C153.701 38.2045 153.597 38.6553 153.597 39.1364V39.9091C153.597 40.5682 153.71 41.1269 153.938 41.5852C154.169 42.0398 154.489 42.3864 154.898 42.625C155.307 42.8598 155.782 42.9773 156.324 42.9773C156.676 42.9773 156.994 42.928 157.278 42.8295C157.566 42.7273 157.814 42.5758 158.023 42.375C158.231 42.1705 158.392 41.9167 158.506 41.6136L159.801 41.9773C159.665 42.4167 159.436 42.803 159.114 43.1364C158.792 43.4659 158.394 43.7235 157.92 43.9091C157.447 44.0909 156.915 44.1818 156.324 44.1818ZM161.977 47.2727V35.2727H163.273V36.6591H163.432C163.53 36.5076 163.667 36.3144 163.841 36.0795C164.019 35.8409 164.273 35.6288 164.602 35.4432C164.936 35.2538 165.386 35.1591 165.955 35.1591C166.689 35.1591 167.337 35.3428 167.898 35.7102C168.458 36.0777 168.896 36.5985 169.21 37.2727C169.525 37.947 169.682 38.7424 169.682 39.6591C169.682 40.5833 169.525 41.3845 169.21 42.0625C168.896 42.7367 168.46 43.2595 167.903 43.6307C167.347 43.9981 166.705 44.1818 165.977 44.1818C165.417 44.1818 164.968 44.089 164.631 43.9034C164.294 43.714 164.034 43.5 163.852 43.2614C163.67 43.0189 163.53 42.8182 163.432 42.6591H163.318V47.2727H161.977ZM163.295 39.6364C163.295 40.2955 163.392 40.8769 163.585 41.3807C163.778 41.8807 164.061 42.2727 164.432 42.5568C164.803 42.8371 165.258 42.9773 165.795 42.9773C166.356 42.9773 166.824 42.8295 167.199 42.5341C167.578 42.2348 167.862 41.8333 168.051 41.3295C168.244 40.822 168.341 40.2576 168.341 39.6364C168.341 39.0227 168.246 38.4697 168.057 37.9773C167.871 37.4811 167.589 37.089 167.21 36.8011C166.835 36.5095 166.364 36.3636 165.795 36.3636C165.25 36.3636 164.792 36.5019 164.42 36.7784C164.049 37.0511 163.769 37.4337 163.58 37.9261C163.39 38.4148 163.295 38.9848 163.295 39.6364Z" fill="black" fill-opacity="0.5"/>
<path d="M51.1136 136.364V148H49.7045V137.614H43.8409V148H42.4318V136.364H51.1136ZM53.7741 151.273V139.273H55.0696V140.659H55.2287C55.3272 140.508 55.4635 140.314 55.6378 140.08C55.8158 139.841 56.0696 139.629 56.3991 139.443C56.7325 139.254 57.1832 139.159 57.7514 139.159C58.4863 139.159 59.134 139.343 59.6946 139.71C60.2552 140.078 60.6927 140.598 61.0071 141.273C61.3215 141.947 61.4787 142.742 61.4787 143.659C61.4787 144.583 61.3215 145.384 61.0071 146.062C60.6927 146.737 60.2571 147.259 59.7003 147.631C59.1435 147.998 58.5014 148.182 57.7741 148.182C57.2135 148.182 56.7647 148.089 56.4276 147.903C56.0904 147.714 55.831 147.5 55.6491 147.261C55.4673 147.019 55.3272 146.818 55.2287 146.659H55.1151V151.273H53.7741ZM55.0923 143.636C55.0923 144.295 55.1889 144.877 55.3821 145.381C55.5753 145.881 55.8575 146.273 56.2287 146.557C56.5999 146.837 57.0545 146.977 57.5923 146.977C58.1529 146.977 58.6207 146.83 58.9957 146.534C59.3745 146.235 59.6586 145.833 59.848 145.33C60.0412 144.822 60.1378 144.258 60.1378 143.636C60.1378 143.023 60.0431 142.47 59.8537 141.977C59.6681 141.481 59.3859 141.089 59.0071 140.801C58.6321 140.509 58.1605 140.364 57.5923 140.364C57.0469 140.364 56.5885 140.502 56.2173 140.778C55.8461 141.051 55.5658 141.434 55.3764 141.926C55.187 142.415 55.0923 142.985 55.0923 143.636ZM64.8651 146.023L69.0696 139.273H70.6151V148H69.2741V141.25L65.0923 148H63.5241V139.273H64.8651V146.023ZM73.071 148V139.273H74.4119V143.068H75.2983L78.4347 139.273H80.1619L76.6392 143.477L80.2074 148H78.4801L75.6165 144.318H74.4119V148H73.071ZM80.892 148V146.75H81.2102C81.4716 146.75 81.6894 146.699 81.8636 146.597C82.0379 146.491 82.178 146.307 82.2841 146.045C82.3939 145.78 82.4773 145.413 82.5341 144.943C82.5947 144.47 82.6383 143.867 82.6648 143.136L82.8239 139.273H88.642V148H87.3011V140.523H84.0966L83.9602 143.636C83.9299 144.352 83.8655 144.983 83.767 145.528C83.6723 146.07 83.5265 146.525 83.3295 146.892C83.1364 147.259 82.8788 147.536 82.5568 147.722C82.2348 147.907 81.8314 148 81.3466 148H80.892ZM93.6705 148.205C93.1174 148.205 92.6155 148.1 92.1648 147.892C91.714 147.68 91.3561 147.375 91.0909 146.977C90.8258 146.576 90.6932 146.091 90.6932 145.523C90.6932 145.023 90.7917 144.617 90.9886 144.307C91.1856 143.992 91.4489 143.746 91.7784 143.568C92.108 143.39 92.4716 143.258 92.8693 143.17C93.2708 143.08 93.6742 143.008 94.0795 142.955C94.6098 142.886 95.0398 142.835 95.3693 142.801C95.7027 142.763 95.9451 142.701 96.0966 142.614C96.2519 142.527 96.3295 142.375 96.3295 142.159V142.114C96.3295 141.553 96.1761 141.117 95.8693 140.807C95.5663 140.496 95.1061 140.341 94.4886 140.341C93.8485 140.341 93.3466 140.481 92.983 140.761C92.6193 141.042 92.3636 141.341 92.2159 141.659L90.9432 141.205C91.1705 140.674 91.4735 140.261 91.8523 139.966C92.2348 139.667 92.6515 139.458 93.1023 139.341C93.5568 139.22 94.0038 139.159 94.4432 139.159C94.7235 139.159 95.0455 139.193 95.4091 139.261C95.7765 139.326 96.1307 139.46 96.4716 139.665C96.8163 139.869 97.1023 140.178 97.3295 140.591C97.5568 141.004 97.6705 141.557 97.6705 142.25V148H96.3295V146.818H96.2614C96.1705 147.008 96.0189 147.21 95.8068 147.426C95.5947 147.642 95.3125 147.826 94.9602 147.977C94.608 148.129 94.178 148.205 93.6705 148.205ZM93.875 147C94.4053 147 94.8523 146.896 95.2159 146.688C95.5833 146.479 95.8598 146.21 96.0455 145.881C96.2348 145.551 96.3295 145.205 96.3295 144.841V143.614C96.2727 143.682 96.1477 143.744 95.9545 143.801C95.7652 143.854 95.5455 143.902 95.2955 143.943C95.0492 143.981 94.8087 144.015 94.5739 144.045C94.3428 144.072 94.1553 144.095 94.0114 144.114C93.6629 144.159 93.3371 144.233 93.0341 144.335C92.7348 144.434 92.4924 144.583 92.3068 144.784C92.125 144.981 92.0341 145.25 92.0341 145.591C92.0341 146.057 92.2064 146.409 92.5511 146.648C92.8996 146.883 93.3409 147 93.875 147ZM99.1861 150.5V146.75H99.9134C100.091 146.564 100.245 146.364 100.374 146.148C100.502 145.932 100.614 145.676 100.709 145.381C100.807 145.081 100.891 144.718 100.959 144.29C101.027 143.858 101.088 143.337 101.141 142.727L101.436 139.273H106.982V146.75H108.322V150.5H106.982V148H100.527V150.5H99.1861ZM101.436 146.75H105.641V140.523H102.686L102.459 142.727C102.364 143.64 102.247 144.437 102.107 145.119C101.966 145.801 101.743 146.345 101.436 146.75ZM118.943 148L120.852 136.364H121.989L120.08 148H118.943ZM113.648 144.773L113.83 143.636H122.511L122.33 144.773H113.648ZM114.852 148L116.761 136.364H117.898L115.989 148H114.852ZM114.33 140.727L114.511 139.591H123.193L123.011 140.727H114.33ZM128.764 136.364V148H127.355V137.841H127.287L124.446 139.727V138.295L127.355 136.364H128.764Z" fill="black"/>
<path d="M431.114 136.364V148H429.705V137.614H423.841V148H422.432V136.364H431.114ZM433.774 151.273V139.273H435.07V140.659H435.229C435.327 140.508 435.464 140.314 435.638 140.08C435.816 139.841 436.07 139.629 436.399 139.443C436.732 139.254 437.183 139.159 437.751 139.159C438.486 139.159 439.134 139.343 439.695 139.71C440.255 140.078 440.693 140.598 441.007 141.273C441.321 141.947 441.479 142.742 441.479 143.659C441.479 144.583 441.321 145.384 441.007 146.062C440.693 146.737 440.257 147.259 439.7 147.631C439.143 147.998 438.501 148.182 437.774 148.182C437.214 148.182 436.765 148.089 436.428 147.903C436.09 147.714 435.831 147.5 435.649 147.261C435.467 147.019 435.327 146.818 435.229 146.659H435.115V151.273H433.774ZM435.092 143.636C435.092 144.295 435.189 144.877 435.382 145.381C435.575 145.881 435.857 146.273 436.229 146.557C436.6 146.837 437.054 146.977 437.592 146.977C438.153 146.977 438.621 146.83 438.996 146.534C439.375 146.235 439.659 145.833 439.848 145.33C440.041 144.822 440.138 144.258 440.138 143.636C440.138 143.023 440.043 142.47 439.854 141.977C439.668 141.481 439.386 141.089 439.007 140.801C438.632 140.509 438.161 140.364 437.592 140.364C437.047 140.364 436.589 140.502 436.217 140.778C435.846 141.051 435.566 141.434 435.376 141.926C435.187 142.415 435.092 142.985 435.092 143.636ZM444.865 146.023L449.07 139.273H450.615V148H449.274V141.25L445.092 148H443.524V139.273H444.865V146.023ZM453.071 148V139.273H454.412V143.068H455.298L458.435 139.273H460.162L456.639 143.477L460.207 148H458.48L455.616 144.318H454.412V148H453.071ZM460.892 148V146.75H461.21C461.472 146.75 461.689 146.699 461.864 146.597C462.038 146.491 462.178 146.307 462.284 146.045C462.394 145.78 462.477 145.413 462.534 144.943C462.595 144.47 462.638 143.867 462.665 143.136L462.824 139.273H468.642V148H467.301V140.523H464.097L463.96 143.636C463.93 144.352 463.866 144.983 463.767 145.528C463.672 146.07 463.527 146.525 463.33 146.892C463.136 147.259 462.879 147.536 462.557 147.722C462.235 147.907 461.831 148 461.347 148H460.892ZM473.67 148.205C473.117 148.205 472.616 148.1 472.165 147.892C471.714 147.68 471.356 147.375 471.091 146.977C470.826 146.576 470.693 146.091 470.693 145.523C470.693 145.023 470.792 144.617 470.989 144.307C471.186 143.992 471.449 143.746 471.778 143.568C472.108 143.39 472.472 143.258 472.869 143.17C473.271 143.08 473.674 143.008 474.08 142.955C474.61 142.886 475.04 142.835 475.369 142.801C475.703 142.763 475.945 142.701 476.097 142.614C476.252 142.527 476.33 142.375 476.33 142.159V142.114C476.33 141.553 476.176 141.117 475.869 140.807C475.566 140.496 475.106 140.341 474.489 140.341C473.848 140.341 473.347 140.481 472.983 140.761C472.619 141.042 472.364 141.341 472.216 141.659L470.943 141.205C471.17 140.674 471.473 140.261 471.852 139.966C472.235 139.667 472.652 139.458 473.102 139.341C473.557 139.22 474.004 139.159 474.443 139.159C474.723 139.159 475.045 139.193 475.409 139.261C475.777 139.326 476.131 139.46 476.472 139.665C476.816 139.869 477.102 140.178 477.33 140.591C477.557 141.004 477.67 141.557 477.67 142.25V148H476.33V146.818H476.261C476.17 147.008 476.019 147.21 475.807 147.426C475.595 147.642 475.313 147.826 474.96 147.977C474.608 148.129 474.178 148.205 473.67 148.205ZM473.875 147C474.405 147 474.852 146.896 475.216 146.688C475.583 146.479 475.86 146.21 476.045 145.881C476.235 145.551 476.33 145.205 476.33 144.841V143.614C476.273 143.682 476.148 143.744 475.955 143.801C475.765 143.854 475.545 143.902 475.295 143.943C475.049 143.981 474.809 144.015 474.574 144.045C474.343 144.072 474.155 144.095 474.011 144.114C473.663 144.159 473.337 144.233 473.034 144.335C472.735 144.434 472.492 144.583 472.307 144.784C472.125 144.981 472.034 145.25 472.034 145.591C472.034 146.057 472.206 146.409 472.551 146.648C472.9 146.883 473.341 147 473.875 147ZM479.186 150.5V146.75H479.913C480.091 146.564 480.245 146.364 480.374 146.148C480.502 145.932 480.614 145.676 480.709 145.381C480.807 145.081 480.891 144.718 480.959 144.29C481.027 143.858 481.088 143.337 481.141 142.727L481.436 139.273H486.982V146.75H488.322V150.5H486.982V148H480.527V150.5H479.186ZM481.436 146.75H485.641V140.523H482.686L482.459 142.727C482.364 143.64 482.247 144.437 482.107 145.119C481.966 145.801 481.743 146.345 481.436 146.75ZM498.943 148L500.852 136.364H501.989L500.08 148H498.943ZM493.648 144.773L493.83 143.636H502.511L502.33 144.773H493.648ZM494.852 148L496.761 136.364H497.898L495.989 148H494.852ZM494.33 140.727L494.511 139.591H503.193L503.011 140.727H494.33ZM504.673 148V146.977L508.514 142.773C508.965 142.28 509.336 141.852 509.628 141.489C509.92 141.121 510.135 140.777 510.276 140.455C510.42 140.129 510.491 139.788 510.491 139.432C510.491 139.023 510.393 138.669 510.196 138.369C510.003 138.07 509.738 137.839 509.401 137.676C509.063 137.513 508.685 137.432 508.264 137.432C507.817 137.432 507.427 137.525 507.094 137.71C506.764 137.892 506.509 138.148 506.327 138.477C506.149 138.807 506.06 139.193 506.06 139.636H504.719C504.719 138.955 504.876 138.356 505.19 137.841C505.505 137.326 505.933 136.924 506.474 136.636C507.02 136.348 507.632 136.205 508.31 136.205C508.991 136.205 509.596 136.348 510.122 136.636C510.649 136.924 511.062 137.312 511.361 137.801C511.66 138.29 511.81 138.833 511.81 139.432C511.81 139.86 511.732 140.278 511.577 140.688C511.425 141.093 511.16 141.545 510.781 142.045C510.406 142.542 509.885 143.148 509.219 143.864L506.605 146.659V146.75H512.014V148H504.673Z" fill="black"/>
<path d="M811.114 136.364V148H809.705V137.614H803.841V148H802.432V136.364H811.114ZM813.774 151.273V139.273H815.07V140.659H815.229C815.327 140.508 815.464 140.314 815.638 140.08C815.816 139.841 816.07 139.629 816.399 139.443C816.732 139.254 817.183 139.159 817.751 139.159C818.486 139.159 819.134 139.343 819.695 139.71C820.255 140.078 820.693 140.598 821.007 141.273C821.321 141.947 821.479 142.742 821.479 143.659C821.479 144.583 821.321 145.384 821.007 146.062C820.693 146.737 820.257 147.259 819.7 147.631C819.143 147.998 818.501 148.182 817.774 148.182C817.214 148.182 816.765 148.089 816.428 147.903C816.09 147.714 815.831 147.5 815.649 147.261C815.467 147.019 815.327 146.818 815.229 146.659H815.115V151.273H813.774ZM815.092 143.636C815.092 144.295 815.189 144.877 815.382 145.381C815.575 145.881 815.857 146.273 816.229 146.557C816.6 146.837 817.054 146.977 817.592 146.977C818.153 146.977 818.621 146.83 818.996 146.534C819.375 146.235 819.659 145.833 819.848 145.33C820.041 144.822 820.138 144.258 820.138 143.636C820.138 143.023 820.043 142.47 819.854 141.977C819.668 141.481 819.386 141.089 819.007 140.801C818.632 140.509 818.161 140.364 817.592 140.364C817.047 140.364 816.589 140.502 816.217 140.778C815.846 141.051 815.566 141.434 815.376 141.926C815.187 142.415 815.092 142.985 815.092 143.636ZM824.865 146.023L829.07 139.273H830.615V148H829.274V141.25L825.092 148H823.524V139.273H824.865V146.023ZM833.071 148V139.273H834.412V143.068H835.298L838.435 139.273H840.162L836.639 143.477L840.207 148H838.48L835.616 144.318H834.412V148H833.071ZM840.892 148V146.75H841.21C841.472 146.75 841.689 146.699 841.864 146.597C842.038 146.491 842.178 146.307 842.284 146.045C842.394 145.78 842.477 145.413 842.534 144.943C842.595 144.47 842.638 143.867 842.665 143.136L842.824 139.273H848.642V148H847.301V140.523H844.097L843.96 143.636C843.93 144.352 843.866 144.983 843.767 145.528C843.672 146.07 843.527 146.525 843.33 146.892C843.136 147.259 842.879 147.536 842.557 147.722C842.235 147.907 841.831 148 841.347 148H840.892ZM853.67 148.205C853.117 148.205 852.616 148.1 852.165 147.892C851.714 147.68 851.356 147.375 851.091 146.977C850.826 146.576 850.693 146.091 850.693 145.523C850.693 145.023 850.792 144.617 850.989 144.307C851.186 143.992 851.449 143.746 851.778 143.568C852.108 143.39 852.472 143.258 852.869 143.17C853.271 143.08 853.674 143.008 854.08 142.955C854.61 142.886 855.04 142.835 855.369 142.801C855.703 142.763 855.945 142.701 856.097 142.614C856.252 142.527 856.33 142.375 856.33 142.159V142.114C856.33 141.553 856.176 141.117 855.869 140.807C855.566 140.496 855.106 140.341 854.489 140.341C853.848 140.341 853.347 140.481 852.983 140.761C852.619 141.042 852.364 141.341 852.216 141.659L850.943 141.205C851.17 140.674 851.473 140.261 851.852 139.966C852.235 139.667 852.652 139.458 853.102 139.341C853.557 139.22 854.004 139.159 854.443 139.159C854.723 139.159 855.045 139.193 855.409 139.261C855.777 139.326 856.131 139.46 856.472 139.665C856.816 139.869 857.102 140.178 857.33 140.591C857.557 141.004 857.67 141.557 857.67 142.25V148H856.33V146.818H856.261C856.17 147.008 856.019 147.21 855.807 147.426C855.595 147.642 855.313 147.826 854.96 147.977C854.608 148.129 854.178 148.205 853.67 148.205ZM853.875 147C854.405 147 854.852 146.896 855.216 146.688C855.583 146.479 855.86 146.21 856.045 145.881C856.235 145.551 856.33 145.205 856.33 144.841V143.614C856.273 143.682 856.148 143.744 855.955 143.801C855.765 143.854 855.545 143.902 855.295 143.943C855.049 143.981 854.809 144.015 854.574 144.045C854.343 144.072 854.155 144.095 854.011 144.114C853.663 144.159 853.337 144.233 853.034 144.335C852.735 144.434 852.492 144.583 852.307 144.784C852.125 144.981 852.034 145.25 852.034 145.591C852.034 146.057 852.206 146.409 852.551 146.648C852.9 146.883 853.341 147 853.875 147ZM859.186 150.5V146.75H859.913C860.091 146.564 860.245 146.364 860.374 146.148C860.502 145.932 860.614 145.676 860.709 145.381C860.807 145.081 860.891 144.718 860.959 144.29C861.027 143.858 861.088 143.337 861.141 142.727L861.436 139.273H866.982V146.75H868.322V150.5H866.982V148H860.527V150.5H859.186ZM861.436 146.75H865.641V140.523H862.686L862.459 142.727C862.364 143.64 862.247 144.437 862.107 145.119C861.966 145.801 861.743 146.345 861.436 146.75ZM878.943 148L880.852 136.364H881.989L880.08 148H878.943ZM873.648 144.773L873.83 143.636H882.511L882.33 144.773H873.648ZM874.852 148L876.761 136.364H877.898L875.989 148H874.852ZM874.33 140.727L874.511 139.591H883.193L883.011 140.727H874.33ZM888.605 148.159C887.855 148.159 887.187 148.03 886.599 147.773C886.016 147.515 885.552 147.157 885.207 146.699C884.866 146.237 884.681 145.701 884.651 145.091H886.082C886.113 145.466 886.241 145.79 886.469 146.062C886.696 146.331 886.993 146.54 887.361 146.688C887.728 146.835 888.135 146.909 888.582 146.909C889.082 146.909 889.526 146.822 889.912 146.648C890.298 146.473 890.601 146.231 890.821 145.92C891.041 145.61 891.151 145.25 891.151 144.841C891.151 144.413 891.045 144.036 890.832 143.71C890.62 143.381 890.31 143.123 889.901 142.938C889.491 142.752 888.991 142.659 888.401 142.659H887.469V141.409H888.401C888.863 141.409 889.268 141.326 889.616 141.159C889.969 140.992 890.243 140.758 890.44 140.455C890.641 140.152 890.741 139.795 890.741 139.386C890.741 138.992 890.654 138.65 890.48 138.358C890.306 138.066 890.06 137.839 889.741 137.676C889.427 137.513 889.056 137.432 888.628 137.432C888.226 137.432 887.848 137.506 887.491 137.653C887.139 137.797 886.851 138.008 886.628 138.284C886.404 138.557 886.283 138.886 886.264 139.273H884.901C884.923 138.663 885.107 138.129 885.452 137.67C885.796 137.208 886.247 136.848 886.804 136.591C887.365 136.333 887.98 136.205 888.651 136.205C889.37 136.205 889.988 136.35 890.503 136.642C891.018 136.93 891.414 137.311 891.69 137.784C891.967 138.258 892.105 138.769 892.105 139.318C892.105 139.973 891.933 140.532 891.588 140.994C891.247 141.456 890.783 141.777 890.196 141.955V142.045C890.931 142.167 891.505 142.479 891.918 142.983C892.33 143.483 892.537 144.102 892.537 144.841C892.537 145.473 892.365 146.042 892.02 146.545C891.679 147.045 891.213 147.439 890.622 147.727C890.031 148.015 889.359 148.159 888.605 148.159Z" fill="black"/>
<path d="M436.25 44L432.25 38.6591H430.818V44H429.409V32.3636H430.818V37.4091H431.432L436.091 32.3636H437.773L433.068 37.4773L437.932 44H436.25ZM442.139 44.2045C441.586 44.2045 441.084 44.1004 440.634 43.892C440.183 43.6799 439.825 43.375 439.56 42.9773C439.295 42.5758 439.162 42.0909 439.162 41.5227C439.162 41.0227 439.26 40.6174 439.457 40.3068C439.654 39.9924 439.918 39.7462 440.247 39.5682C440.577 39.3902 440.94 39.2576 441.338 39.1705C441.74 39.0795 442.143 39.0076 442.548 38.9545C443.079 38.8864 443.509 38.8352 443.838 38.8011C444.171 38.7633 444.414 38.7008 444.565 38.6136C444.721 38.5265 444.798 38.375 444.798 38.1591V38.1136C444.798 37.553 444.645 37.1174 444.338 36.8068C444.035 36.4962 443.575 36.3409 442.957 36.3409C442.317 36.3409 441.815 36.4811 441.452 36.7614C441.088 37.0417 440.832 37.3409 440.685 37.6591L439.412 37.2045C439.639 36.6742 439.942 36.2614 440.321 35.9659C440.704 35.6667 441.12 35.4583 441.571 35.3409C442.026 35.2197 442.473 35.1591 442.912 35.1591C443.192 35.1591 443.514 35.1932 443.878 35.2614C444.245 35.3258 444.599 35.4602 444.94 35.6648C445.285 35.8693 445.571 36.178 445.798 36.5909C446.026 37.0038 446.139 37.5568 446.139 38.25V44H444.798V42.8182H444.73C444.639 43.0076 444.488 43.2102 444.276 43.4261C444.063 43.642 443.781 43.8258 443.429 43.9773C443.077 44.1288 442.647 44.2045 442.139 44.2045ZM442.344 43C442.874 43 443.321 42.8958 443.685 42.6875C444.052 42.4792 444.329 42.2102 444.514 41.8807C444.704 41.5511 444.798 41.2045 444.798 40.8409V39.6136C444.741 39.6818 444.616 39.7443 444.423 39.8011C444.234 39.8542 444.014 39.9015 443.764 39.9432C443.518 39.9811 443.277 40.0152 443.043 40.0455C442.812 40.072 442.624 40.0947 442.48 40.1136C442.132 40.1591 441.806 40.233 441.503 40.3352C441.204 40.4337 440.961 40.5833 440.776 40.7841C440.594 40.9811 440.503 41.25 440.503 41.5909C440.503 42.0568 440.675 42.4091 441.02 42.6477C441.368 42.8826 441.81 43 442.344 43ZM454.428 39.0227V40.2727H449.609V39.0227H454.428ZM449.928 35.2727V44H448.587V35.2727H449.928ZM455.45 35.2727V44H454.109V35.2727H455.45ZM460.467 44.2045C459.914 44.2045 459.412 44.1004 458.962 43.892C458.511 43.6799 458.153 43.375 457.888 42.9773C457.623 42.5758 457.49 42.0909 457.49 41.5227C457.49 41.0227 457.589 40.6174 457.786 40.3068C457.982 39.9924 458.246 39.7462 458.575 39.5682C458.905 39.3902 459.268 39.2576 459.666 39.1705C460.068 39.0795 460.471 39.0076 460.876 38.9545C461.407 38.8864 461.837 38.8352 462.166 38.8011C462.5 38.7633 462.742 38.7008 462.893 38.6136C463.049 38.5265 463.126 38.375 463.126 38.1591V38.1136C463.126 37.553 462.973 37.1174 462.666 36.8068C462.363 36.4962 461.903 36.3409 461.286 36.3409C460.645 36.3409 460.143 36.4811 459.78 36.7614C459.416 37.0417 459.161 37.3409 459.013 37.6591L457.74 37.2045C457.967 36.6742 458.27 36.2614 458.649 35.9659C459.032 35.6667 459.448 35.4583 459.899 35.3409C460.354 35.2197 460.801 35.1591 461.24 35.1591C461.52 35.1591 461.842 35.1932 462.206 35.2614C462.573 35.3258 462.928 35.4602 463.268 35.6648C463.613 35.8693 463.899 36.178 464.126 36.5909C464.354 37.0038 464.467 37.5568 464.467 38.25V44H463.126V42.8182H463.058C462.967 43.0076 462.816 43.2102 462.604 43.4261C462.392 43.642 462.109 43.8258 461.757 43.9773C461.405 44.1288 460.975 44.2045 460.467 44.2045ZM460.672 43C461.202 43 461.649 42.8958 462.013 42.6875C462.38 42.4792 462.657 42.2102 462.842 41.8807C463.032 41.5511 463.126 41.2045 463.126 40.8409V39.6136C463.07 39.6818 462.945 39.7443 462.751 39.8011C462.562 39.8542 462.342 39.9015 462.092 39.9432C461.846 39.9811 461.606 40.0152 461.371 40.0455C461.14 40.072 460.952 40.0947 460.808 40.1136C460.46 40.1591 460.134 40.233 459.831 40.3352C459.532 40.4337 459.289 40.5833 459.104 40.7841C458.922 40.9811 458.831 41.25 458.831 41.5909C458.831 42.0568 459.003 42.4091 459.348 42.6477C459.696 42.8826 460.138 43 460.672 43ZM466.142 44V42.75H466.46C466.722 42.75 466.939 42.6989 467.114 42.5966C467.288 42.4905 467.428 42.3068 467.534 42.0455C467.644 41.7803 467.727 41.4129 467.784 40.9432C467.845 40.4697 467.888 39.8674 467.915 39.1364L468.074 35.2727H473.892V44H472.551V36.5227H469.347L469.21 39.6364C469.18 40.3523 469.116 40.983 469.017 41.5284C468.922 42.0701 468.777 42.5246 468.58 42.892C468.386 43.2595 468.129 43.536 467.807 43.7216C467.485 43.9072 467.081 44 466.597 44H466.142ZM477.693 42.0227L481.898 35.2727H483.443V44H482.102V37.25L477.92 44H476.352V35.2727H477.693V42.0227Z" fill="black" fill-opacity="0.5"/>
<path d="M64.9393 339.061C65.5251 339.646 66.4749 339.646 67.0607 339.061L76.6066 329.515C77.1924 328.929 77.1924 327.979 76.6066 327.393C76.0208 326.808 75.0711 326.808 74.4853 327.393L66 335.879L57.5147 327.393C56.9289 326.808 55.9792 326.808 55.3934 327.393C54.8076 327.979 54.8076 328.929 55.3934 329.515L64.9393 339.061ZM64.5 177L64.5 338L67.5 338L67.5 177L64.5 177Z" fill="#2E327D"/>
<path d="M444.939 339.061C445.525 339.646 446.475 339.646 447.061 339.061L456.607 329.515C457.192 328.929 457.192 327.979 456.607 327.393C456.021 326.808 455.071 326.808 454.485 327.393L446 335.879L437.515 327.393C436.929 326.808 435.979 326.808 435.393 327.393C434.808 327.979 434.808 328.929 435.393 329.515L444.939 339.061ZM444.5 177L444.5 338L447.5 338L447.5 177L444.5 177Z" fill="#2E327D"/>
<path d="M144.939 339.061C145.525 339.646 146.475 339.646 147.061 339.061L156.607 329.515C157.192 328.929 157.192 327.979 156.607 327.393C156.021 326.808 155.071 326.808 154.485 327.393L146 335.879L137.515 327.393C136.929 326.808 135.979 326.808 135.393 327.393C134.808 327.979 134.808 328.929 135.393 329.515L144.939 339.061ZM144.5 177L144.5 338L147.5 338L147.5 177L144.5 177Z" fill="#2E327D"/>
<path d="M524.939 339.061C525.525 339.646 526.475 339.646 527.061 339.061L536.607 329.515C537.192 328.929 537.192 327.979 536.607 327.393C536.021 326.808 535.071 326.808 534.485 327.393L526 335.879L517.515 327.393C516.929 326.808 515.979 326.808 515.393 327.393C514.808 327.979 514.808 328.929 515.393 329.515L524.939 339.061ZM524.5 177L524.5 338L527.5 338L527.5 177L524.5 177Z" fill="#2E327D"/>
<path d="M604.939 339.061C605.525 339.646 606.475 339.646 607.061 339.061L616.607 329.515C617.192 328.929 617.192 327.979 616.607 327.393C616.021 326.808 615.071 326.808 614.485 327.393L606 335.879L597.515 327.393C596.929 326.808 595.979 326.808 595.393 327.393C594.808 327.979 594.808 328.929 595.393 329.515L604.939 339.061ZM604.5 177L604.5 338L607.5 338L607.5 177L604.5 177Z" fill="#2E327D"/>
<path d="M227.061 175.939C226.475 175.354 225.525 175.354 224.939 175.939L215.393 185.485C214.808 186.071 214.808 187.021 215.393 187.607C215.979 188.192 216.929 188.192 217.515 187.607L226 179.121L234.485 187.607C235.071 188.192 236.021 188.192 236.607 187.607C237.192 187.021 237.192 186.071 236.607 185.485L227.061 175.939ZM227.5 338L227.5 177H224.5L224.5 338H227.5Z" fill="#54B471"/>
<path d="M307.061 175.939C306.475 175.354 305.525 175.354 304.939 175.939L295.393 185.485C294.808 186.071 294.808 187.021 295.393 187.607C295.979 188.192 296.929 188.192 297.515 187.607L306 179.121L314.485 187.607C315.071 188.192 316.021 188.192 316.607 187.607C317.192 187.021 317.192 186.071 316.607 185.485L307.061 175.939ZM307.5 338V177H304.5V338H307.5Z" fill="#54B471"/>
<path d="M687.061 175.939C686.475 175.354 685.525 175.354 684.939 175.939L675.393 185.485C674.808 186.071 674.808 187.021 675.393 187.607C675.979 188.192 676.929 188.192 677.515 187.607L686 179.121L694.485 187.607C695.071 188.192 696.021 188.192 696.607 187.607C697.192 187.021 697.192 186.071 696.607 185.485L687.061 175.939ZM687.5 338V177H684.5V338H687.5Z" fill="#54B471"/>
<path d="M1067.06 175.939C1066.47 175.354 1065.53 175.354 1064.94 175.939L1055.39 185.485C1054.81 186.071 1054.81 187.021 1055.39 187.607C1055.98 188.192 1056.93 188.192 1057.51 187.607L1066 179.121L1074.49 187.607C1075.07 188.192 1076.02 188.192 1076.61 187.607C1077.19 187.021 1077.19 186.071 1076.61 185.485L1067.06 175.939ZM1067.5 338V177H1064.5V338H1067.5Z" fill="#54B471"/>
<path d="M987.061 175.939C986.475 175.354 985.525 175.354 984.939 175.939L975.393 185.485C974.808 186.071 974.808 187.021 975.393 187.607C975.979 188.192 976.929 188.192 977.515 187.607L986 179.121L994.485 187.607C995.071 188.192 996.021 188.192 996.607 187.607C997.192 187.021 997.192 186.071 996.607 185.485L987.061 175.939ZM987.5 338V177H984.5V338H987.5Z" fill="#54B471"/>
<path d="M907.061 175.939C906.475 175.354 905.525 175.354 904.939 175.939L895.393 185.485C894.808 186.071 894.808 187.021 895.393 187.607C895.979 188.192 896.929 188.192 897.515 187.607L906 179.121L914.485 187.607C915.071 188.192 916.021 188.192 916.607 187.607C917.192 187.021 917.192 186.071 916.607 185.485L907.061 175.939ZM907.5 338V177H904.5V338H907.5Z" fill="#54B471"/>
<path d="M827.061 175.939C826.475 175.354 825.525 175.354 824.939 175.939L815.393 185.485C814.808 186.071 814.808 187.021 815.393 187.607C815.979 188.192 816.929 188.192 817.515 187.607L826 179.121L834.485 187.607C835.071 188.192 836.021 188.192 836.607 187.607C837.192 187.021 837.192 186.071 836.607 185.485L827.061 175.939ZM827.5 338V177H824.5V338H827.5Z" fill="#54B471"/>
<path d="M51 285.926L43.3636 285.926L43.3636 282.804C43.3636 281.982 43.5492 281.329 43.9205 280.845C44.2917 280.361 44.7822 280.119 45.392 280.119C45.8561 280.119 46.2157 280.257 46.4709 280.532C46.7228 280.807 46.8935 281.16 46.983 281.591C47.0227 281.309 47.1222 281.036 47.2813 280.771C47.4403 280.502 47.6591 280.28 47.9375 280.104C48.2126 279.929 48.5507 279.841 48.9517 279.841C49.3428 279.841 49.6925 279.94 50.0007 280.139C50.3089 280.338 50.5526 280.623 50.7315 280.994C50.9105 281.366 51 281.81 51 282.327L51 285.926ZM49.9261 284.813L49.9261 282.327C49.9261 281.922 49.83 281.606 49.6378 281.377C49.4455 281.148 49.1837 281.034 48.8523 281.034C48.4579 281.034 48.148 281.148 47.9226 281.377C47.6939 281.606 47.5795 281.922 47.5795 282.327L47.5795 284.813L49.9261 284.813ZM46.5653 284.813L46.5653 282.804C46.5653 282.489 46.5223 282.219 46.4361 281.994C46.3466 281.768 46.2206 281.596 46.0582 281.477C45.8925 281.354 45.697 281.293 45.4716 281.293C45.1501 281.293 44.8982 281.427 44.7159 281.695C44.5303 281.964 44.4375 282.333 44.4375 282.804L44.4375 284.813L46.5653 284.813ZM49.2699 276.892L43.3636 273.213L43.3636 271.86L51 271.86L51 273.034L45.0938 273.034L51 276.693L51 278.065L43.3636 278.065L43.3636 276.892L49.2699 276.892ZM43.3636 268.836L46.4858 267.007L43.3636 265.177L43.3636 263.825L47.1818 266.291L51 263.825L51 265.177L48.0369 267.007L51 268.836L51 270.189L47.1818 267.762L43.3636 270.189L43.3636 268.836ZM51 262.151L43.3636 262.151L43.3636 260.977L51 260.977L51 262.151ZM42.0909 261.554C42.0909 261.783 42.013 261.98 41.8572 262.146C41.7015 262.308 41.5142 262.389 41.2955 262.389C41.0767 262.389 40.8894 262.308 40.7337 262.146C40.5779 261.98 40.5 261.783 40.5 261.554C40.5 261.325 40.5779 261.13 40.7337 260.968C40.8894 260.802 41.0767 260.719 41.2955 260.719C41.5142 260.719 41.7015 260.802 41.8572 260.968C42.013 261.13 42.0909 261.325 42.0909 261.554ZM53.1875 259.644L49.9063 259.644L49.9063 259.007C49.7438 258.852 49.5682 258.717 49.3793 258.605C49.1903 258.492 48.9666 258.394 48.7081 258.311C48.4463 258.225 48.1281 258.152 47.7536 258.093C47.3757 258.033 46.92 257.98 46.3864 257.934L43.3636 257.675L43.3636 252.823L49.9063 252.823L49.9063 251.65L53.1875 251.65L53.1875 252.823L51 252.823L51 258.471L53.1875 258.471L53.1875 259.644ZM49.9063 257.675L49.9063 253.996L44.4574 253.996L44.4574 256.581L46.3864 256.78C47.1851 256.863 47.8828 256.966 48.4794 257.088C49.076 257.211 49.5516 257.407 49.9063 257.675ZM46.6449 244.981L47.7386 244.981L47.7386 249.197L46.6449 249.197L46.6449 244.981ZM43.3636 248.919L51 248.919L51 250.092L43.3636 250.092L43.3636 248.919ZM43.3636 244.086L51 244.086L51 245.26L43.3636 245.26L43.3636 244.086ZM49.2699 240.77L43.3636 237.091L43.3636 235.739L51 235.739L51 236.912L45.0938 236.912L51 240.572L51 241.944L43.3636 241.944L43.3636 240.77L49.2699 240.77ZM49.2699 232.417L43.3636 228.738L43.3636 227.386L51 227.386L51 228.559L45.0938 228.559L51 232.218L51 233.59L43.3636 233.59L43.3636 232.417L49.2699 232.417ZM40.8182 229.513L40.8182 228.42C41.3551 228.42 41.7943 228.605 42.1357 228.977C42.477 229.348 42.6477 229.852 42.6477 230.488C42.6477 231.114 42.477 231.613 42.1357 231.984C41.7943 232.352 41.3551 232.536 40.8182 232.536L40.8182 231.442C41.0767 231.442 41.3037 231.371 41.4993 231.229C41.6948 231.083 41.7926 230.836 41.7926 230.488C41.7926 230.14 41.6948 229.891 41.4993 229.742C41.3037 229.59 41.0767 229.513 40.8182 229.513Z" fill="black" fill-opacity="0.5"/>
<path d="M431 285.926L423.364 285.926L423.364 282.804C423.364 281.982 423.549 281.329 423.92 280.845C424.292 280.361 424.782 280.119 425.392 280.119C425.856 280.119 426.216 280.257 426.471 280.532C426.723 280.807 426.893 281.16 426.983 281.591C427.023 281.309 427.122 281.036 427.281 280.771C427.44 280.502 427.659 280.28 427.938 280.104C428.213 279.929 428.551 279.841 428.952 279.841C429.343 279.841 429.692 279.94 430.001 280.139C430.309 280.338 430.553 280.623 430.732 280.994C430.911 281.366 431 281.81 431 282.327L431 285.926ZM429.926 284.813L429.926 282.327C429.926 281.922 429.83 281.606 429.638 281.377C429.446 281.148 429.184 281.034 428.852 281.034C428.458 281.034 428.148 281.148 427.923 281.377C427.694 281.606 427.58 281.922 427.58 282.327L427.58 284.813L429.926 284.813ZM426.565 284.813L426.565 282.804C426.565 282.489 426.522 282.219 426.436 281.994C426.347 281.768 426.221 281.596 426.058 281.477C425.893 281.354 425.697 281.293 425.472 281.293C425.15 281.293 424.898 281.427 424.716 281.695C424.53 281.964 424.438 282.333 424.438 282.804L424.438 284.813L426.565 284.813ZM429.27 276.892L423.364 273.213L423.364 271.86L431 271.86L431 273.034L425.094 273.034L431 276.693L431 278.065L423.364 278.065L423.364 276.892L429.27 276.892ZM423.364 268.836L426.486 267.007L423.364 265.177L423.364 263.825L427.182 266.291L431 263.825L431 265.177L428.037 267.007L431 268.836L431 270.189L427.182 267.762L423.364 270.189L423.364 268.836ZM431 262.151L423.364 262.151L423.364 260.977L431 260.977L431 262.151ZM422.091 261.554C422.091 261.783 422.013 261.98 421.857 262.146C421.701 262.308 421.514 262.389 421.295 262.389C421.077 262.389 420.889 262.308 420.734 262.146C420.578 261.98 420.5 261.783 420.5 261.554C420.5 261.325 420.578 261.13 420.734 260.968C420.889 260.802 421.077 260.719 421.295 260.719C421.514 260.719 421.701 260.802 421.857 260.968C422.013 261.13 422.091 261.325 422.091 261.554ZM433.188 259.644L429.906 259.644L429.906 259.007C429.744 258.852 429.568 258.717 429.379 258.605C429.19 258.492 428.967 258.394 428.708 258.311C428.446 258.225 428.128 258.152 427.754 258.093C427.376 258.033 426.92 257.98 426.386 257.934L423.364 257.675L423.364 252.823L429.906 252.823L429.906 251.65L433.188 251.65L433.188 252.823L431 252.823L431 258.471L433.188 258.471L433.188 259.644ZM429.906 257.675L429.906 253.996L424.457 253.996L424.457 256.581L426.386 256.78C427.185 256.863 427.883 256.966 428.479 257.088C429.076 257.211 429.552 257.407 429.906 257.675ZM426.645 244.981L427.739 244.981L427.739 249.197L426.645 249.197L426.645 244.981ZM423.364 248.919L431 248.919L431 250.092L423.364 250.092L423.364 248.919ZM423.364 244.086L431 244.086L431 245.26L423.364 245.26L423.364 244.086ZM429.27 240.77L423.364 237.091L423.364 235.739L431 235.739L431 236.912L425.094 236.912L431 240.572L431 241.944L423.364 241.944L423.364 240.77L429.27 240.77ZM429.27 232.417L423.364 228.738L423.364 227.386L431 227.386L431 228.559L425.094 228.559L431 232.218L431 233.59L423.364 233.59L423.364 232.417L429.27 232.417ZM420.818 229.513L420.818 228.42C421.355 228.42 421.794 228.605 422.136 228.977C422.477 229.348 422.648 229.852 422.648 230.488C422.648 231.114 422.477 231.613 422.136 231.984C421.794 232.352 421.355 232.536 420.818 232.536L420.818 231.442C421.077 231.442 421.304 231.371 421.499 231.229C421.695 231.083 421.793 230.836 421.793 230.488C421.793 230.14 421.695 229.891 421.499 229.742C421.304 229.59 421.077 229.513 420.818 229.513Z" fill="black" fill-opacity="0.5"/>
<path d="M511 285.926L503.364 285.926L503.364 282.804C503.364 281.982 503.549 281.329 503.92 280.845C504.292 280.361 504.782 280.119 505.392 280.119C505.856 280.119 506.216 280.257 506.471 280.532C506.723 280.807 506.893 281.16 506.983 281.591C507.023 281.309 507.122 281.036 507.281 280.771C507.44 280.502 507.659 280.28 507.938 280.104C508.213 279.929 508.551 279.841 508.952 279.841C509.343 279.841 509.692 279.94 510.001 280.139C510.309 280.338 510.553 280.623 510.732 280.994C510.911 281.366 511 281.81 511 282.327L511 285.926ZM509.926 284.813L509.926 282.327C509.926 281.922 509.83 281.606 509.638 281.377C509.446 281.148 509.184 281.034 508.852 281.034C508.458 281.034 508.148 281.148 507.923 281.377C507.694 281.606 507.58 281.922 507.58 282.327L507.58 284.813L509.926 284.813ZM506.565 284.813L506.565 282.804C506.565 282.489 506.522 282.219 506.436 281.994C506.347 281.768 506.221 281.596 506.058 281.477C505.893 281.354 505.697 281.293 505.472 281.293C505.15 281.293 504.898 281.427 504.716 281.695C504.53 281.964 504.438 282.333 504.438 282.804L504.438 284.813L506.565 284.813ZM509.27 276.892L503.364 273.213L503.364 271.86L511 271.86L511 273.034L505.094 273.034L511 276.693L511 278.065L503.364 278.065L503.364 276.892L509.27 276.892ZM503.364 268.836L506.486 267.007L503.364 265.177L503.364 263.825L507.182 266.291L511 263.825L511 265.177L508.037 267.007L511 268.836L511 270.189L507.182 267.762L503.364 270.189L503.364 268.836ZM511 262.151L503.364 262.151L503.364 260.977L511 260.977L511 262.151ZM502.091 261.554C502.091 261.783 502.013 261.98 501.857 262.146C501.701 262.308 501.514 262.389 501.295 262.389C501.077 262.389 500.889 262.308 500.734 262.146C500.578 261.98 500.5 261.783 500.5 261.554C500.5 261.325 500.578 261.13 500.734 260.968C500.889 260.802 501.077 260.719 501.295 260.719C501.514 260.719 501.701 260.802 501.857 260.968C502.013 261.13 502.091 261.325 502.091 261.554ZM513.188 259.644L509.906 259.644L509.906 259.007C509.744 258.852 509.568 258.717 509.379 258.605C509.19 258.492 508.967 258.394 508.708 258.311C508.446 258.225 508.128 258.152 507.754 258.093C507.376 258.033 506.92 257.98 506.386 257.934L503.364 257.675L503.364 252.823L509.906 252.823L509.906 251.65L513.188 251.65L513.188 252.823L511 252.823L511 258.471L513.188 258.471L513.188 259.644ZM509.906 257.675L509.906 253.996L504.457 253.996L504.457 256.581L506.386 256.78C507.185 256.863 507.883 256.966 508.479 257.088C509.076 257.211 509.552 257.407 509.906 257.675ZM506.645 244.981L507.739 244.981L507.739 249.197L506.645 249.197L506.645 244.981ZM503.364 248.919L511 248.919L511 250.092L503.364 250.092L503.364 248.919ZM503.364 244.086L511 244.086L511 245.26L503.364 245.26L503.364 244.086ZM509.27 240.77L503.364 237.091L503.364 235.739L511 235.739L511 236.912L505.094 236.912L511 240.572L511 241.944L503.364 241.944L503.364 240.77L509.27 240.77ZM509.27 232.417L503.364 228.738L503.364 227.386L511 227.386L511 228.559L505.094 228.559L511 232.218L511 233.59L503.364 233.59L503.364 232.417L509.27 232.417ZM500.818 229.513L500.818 228.42C501.355 228.42 501.794 228.605 502.136 228.977C502.477 229.348 502.648 229.852 502.648 230.488C502.648 231.114 502.477 231.613 502.136 231.984C501.794 232.352 501.355 232.536 500.818 232.536L500.818 231.442C501.077 231.442 501.304 231.371 501.499 231.229C501.695 231.083 501.793 230.836 501.793 230.488C501.793 230.14 501.695 229.891 501.499 229.742C501.304 229.59 501.077 229.513 500.818 229.513Z" fill="black" fill-opacity="0.5"/>
<path d="M591 285.926L583.364 285.926L583.364 282.804C583.364 281.982 583.549 281.329 583.92 280.845C584.292 280.361 584.782 280.119 585.392 280.119C585.856 280.119 586.216 280.257 586.471 280.532C586.723 280.807 586.893 281.16 586.983 281.591C587.023 281.309 587.122 281.036 587.281 280.771C587.44 280.502 587.659 280.28 587.938 280.104C588.213 279.929 588.551 279.841 588.952 279.841C589.343 279.841 589.692 279.94 590.001 280.139C590.309 280.338 590.553 280.623 590.732 280.994C590.911 281.366 591 281.81 591 282.327L591 285.926ZM589.926 284.813L589.926 282.327C589.926 281.922 589.83 281.606 589.638 281.377C589.446 281.148 589.184 281.034 588.852 281.034C588.458 281.034 588.148 281.148 587.923 281.377C587.694 281.606 587.58 281.922 587.58 282.327L587.58 284.813L589.926 284.813ZM586.565 284.813L586.565 282.804C586.565 282.489 586.522 282.219 586.436 281.994C586.347 281.768 586.221 281.596 586.058 281.477C585.893 281.354 585.697 281.293 585.472 281.293C585.15 281.293 584.898 281.427 584.716 281.695C584.53 281.964 584.438 282.333 584.438 282.804L584.438 284.813L586.565 284.813ZM589.27 276.892L583.364 273.213L583.364 271.86L591 271.86L591 273.034L585.094 273.034L591 276.693L591 278.065L583.364 278.065L583.364 276.892L589.27 276.892ZM583.364 268.836L586.486 267.007L583.364 265.177L583.364 263.825L587.182 266.291L591 263.825L591 265.177L588.037 267.007L591 268.836L591 270.189L587.182 267.762L583.364 270.189L583.364 268.836ZM591 262.151L583.364 262.151L583.364 260.977L591 260.977L591 262.151ZM582.091 261.554C582.091 261.783 582.013 261.98 581.857 262.146C581.701 262.308 581.514 262.389 581.295 262.389C581.077 262.389 580.889 262.308 580.734 262.146C580.578 261.98 580.5 261.783 580.5 261.554C580.5 261.325 580.578 261.13 580.734 260.968C580.889 260.802 581.077 260.719 581.295 260.719C581.514 260.719 581.701 260.802 581.857 260.968C582.013 261.13 582.091 261.325 582.091 261.554ZM593.188 259.644L589.906 259.644L589.906 259.007C589.744 258.852 589.568 258.717 589.379 258.605C589.19 258.492 588.967 258.394 588.708 258.311C588.446 258.225 588.128 258.152 587.754 258.093C587.376 258.033 586.92 257.98 586.386 257.934L583.364 257.675L583.364 252.823L589.906 252.823L589.906 251.65L593.188 251.65L593.188 252.823L591 252.823L591 258.471L593.188 258.471L593.188 259.644ZM589.906 257.675L589.906 253.996L584.457 253.996L584.457 256.581L586.386 256.78C587.185 256.863 587.883 256.966 588.479 257.088C589.076 257.211 589.552 257.407 589.906 257.675ZM586.645 244.981L587.739 244.981L587.739 249.197L586.645 249.197L586.645 244.981ZM583.364 248.919L591 248.919L591 250.092L583.364 250.092L583.364 248.919ZM583.364 244.086L591 244.086L591 245.26L583.364 245.26L583.364 244.086ZM589.27 240.77L583.364 237.091L583.364 235.739L591 235.739L591 236.912L585.094 236.912L591 240.572L591 241.944L583.364 241.944L583.364 240.77L589.27 240.77ZM589.27 232.417L583.364 228.738L583.364 227.386L591 227.386L591 228.559L585.094 228.559L591 232.218L591 233.59L583.364 233.59L583.364 232.417L589.27 232.417ZM580.818 229.513L580.818 228.42C581.355 228.42 581.794 228.605 582.136 228.977C582.477 229.348 582.648 229.852 582.648 230.488C582.648 231.114 582.477 231.613 582.136 231.984C581.794 232.352 581.355 232.536 580.818 232.536L580.818 231.442C581.077 231.442 581.304 231.371 581.499 231.229C581.695 231.083 581.793 230.836 581.793 230.488C581.793 230.14 581.695 229.891 581.499 229.742C581.304 229.59 581.077 229.513 580.818 229.513Z" fill="black" fill-opacity="0.5"/>
<path d="M671 280.926L663.364 280.926L663.364 277.804C663.364 276.982 663.549 276.329 663.92 275.845C664.292 275.361 664.782 275.119 665.392 275.119C665.856 275.119 666.216 275.257 666.471 275.532C666.723 275.807 666.893 276.16 666.983 276.591C667.023 276.309 667.122 276.036 667.281 275.771C667.44 275.502 667.659 275.28 667.938 275.104C668.213 274.929 668.551 274.841 668.952 274.841C669.343 274.841 669.692 274.94 670.001 275.139C670.309 275.338 670.553 275.623 670.732 275.994C670.911 276.366 671 276.81 671 277.327L671 280.926ZM669.926 279.813L669.926 277.327C669.926 276.922 669.83 276.606 669.638 276.377C669.446 276.148 669.184 276.034 668.852 276.034C668.458 276.034 668.148 276.148 667.923 276.377C667.694 276.606 667.58 276.922 667.58 277.327L667.58 279.813L669.926 279.813ZM666.565 279.813L666.565 277.804C666.565 277.489 666.522 277.219 666.436 276.994C666.347 276.768 666.221 276.596 666.058 276.477C665.893 276.354 665.697 276.293 665.472 276.293C665.15 276.293 664.898 276.427 664.716 276.695C664.53 276.964 664.438 277.333 664.438 277.804L664.438 279.813L666.565 279.813ZM663.364 272.19L666.486 270.36L663.364 268.531L663.364 267.178L667.182 269.644L671 267.178L671 268.531L668.037 270.36L671 272.19L671 273.542L667.182 271.116L663.364 273.542L663.364 272.19ZM671 265.504L663.364 265.504L663.364 264.331L671 264.331L671 265.504ZM662.091 264.908C662.091 265.136 662.013 265.334 661.857 265.499C661.701 265.662 661.514 265.743 661.295 265.743C661.077 265.743 660.889 265.662 660.734 265.499C660.578 265.334 660.5 265.136 660.5 264.908C660.5 264.679 660.578 264.483 660.734 264.321C660.889 264.155 661.077 264.072 661.295 264.072C661.514 264.072 661.701 264.155 661.857 264.321C662.013 264.483 662.091 264.679 662.091 264.908ZM673.188 262.997L669.906 262.997L669.906 262.361C669.744 262.205 669.568 262.071 669.379 261.958C669.19 261.846 668.967 261.748 668.708 261.665C668.446 261.579 668.128 261.506 667.754 261.446C667.376 261.387 666.92 261.334 666.386 261.287L663.364 261.029L663.364 256.176L669.906 256.176L669.906 255.003L673.188 255.003L673.188 256.176L671 256.176L671 261.824L673.188 261.824L673.188 262.997ZM669.906 261.029L669.906 257.35L664.457 257.35L664.457 259.935L666.386 260.134C667.185 260.217 667.883 260.319 668.479 260.442C669.076 260.565 669.552 260.76 669.906 261.029ZM666.645 248.335L667.739 248.335L667.739 252.551L666.645 252.551L666.645 248.335ZM663.364 252.272L671 252.272L671 253.446L663.364 253.446L663.364 252.272ZM663.364 247.44L671 247.44L671 248.613L663.364 248.613L663.364 247.44ZM669.27 244.124L663.364 240.445L663.364 239.093L671 239.093L671 240.266L665.094 240.266L671 243.925L671 245.297L663.364 245.297L663.364 244.124L669.27 244.124ZM669.27 235.77L663.364 232.091L663.364 230.739L671 230.739L671 231.912L665.094 231.912L671 235.572L671 236.944L663.364 236.944L663.364 235.77L669.27 235.77ZM660.818 232.867L660.818 231.773C661.355 231.773 661.794 231.959 662.136 232.33C662.477 232.701 662.648 233.205 662.648 233.841C662.648 234.468 662.477 234.967 662.136 235.338C661.794 235.706 661.355 235.89 660.818 235.89L660.818 234.796C661.077 234.796 661.304 234.725 661.499 234.582C661.695 234.436 661.793 234.189 661.793 233.841C661.793 233.493 661.695 233.245 661.499 233.096C661.304 232.943 661.077 232.867 660.818 232.867Z" fill="black" fill-opacity="0.5"/>
<path d="M131 285.926L123.364 285.926L123.364 282.804C123.364 281.982 123.549 281.329 123.92 280.845C124.292 280.361 124.782 280.119 125.392 280.119C125.856 280.119 126.216 280.257 126.471 280.532C126.723 280.807 126.893 281.16 126.983 281.591C127.023 281.309 127.122 281.036 127.281 280.771C127.44 280.502 127.659 280.28 127.938 280.104C128.213 279.929 128.551 279.841 128.952 279.841C129.343 279.841 129.692 279.94 130.001 280.139C130.309 280.338 130.553 280.623 130.732 280.994C130.911 281.366 131 281.81 131 282.327L131 285.926ZM129.926 284.813L129.926 282.327C129.926 281.922 129.83 281.606 129.638 281.377C129.446 281.148 129.184 281.034 128.852 281.034C128.458 281.034 128.148 281.148 127.923 281.377C127.694 281.606 127.58 281.922 127.58 282.327L127.58 284.813L129.926 284.813ZM126.565 284.813L126.565 282.804C126.565 282.489 126.522 282.219 126.436 281.994C126.347 281.768 126.221 281.596 126.058 281.477C125.893 281.354 125.697 281.293 125.472 281.293C125.15 281.293 124.898 281.427 124.716 281.695C124.53 281.964 124.438 282.333 124.438 282.804L124.438 284.813L126.565 284.813ZM129.27 276.892L123.364 273.213L123.364 271.86L131 271.86L131 273.034L125.094 273.034L131 276.693L131 278.065L123.364 278.065L123.364 276.892L129.27 276.892ZM123.364 268.836L126.486 267.007L123.364 265.177L123.364 263.825L127.182 266.291L131 263.825L131 265.177L128.037 267.007L131 268.836L131 270.189L127.182 267.762L123.364 270.189L123.364 268.836ZM131 262.151L123.364 262.151L123.364 260.977L131 260.977L131 262.151ZM122.091 261.554C122.091 261.783 122.013 261.98 121.857 262.146C121.701 262.308 121.514 262.389 121.295 262.389C121.077 262.389 120.889 262.308 120.734 262.146C120.578 261.98 120.5 261.783 120.5 261.554C120.5 261.325 120.578 261.13 120.734 260.968C120.889 260.802 121.077 260.719 121.295 260.719C121.514 260.719 121.701 260.802 121.857 260.968C122.013 261.13 122.091 261.325 122.091 261.554ZM133.188 259.644L129.906 259.644L129.906 259.007C129.744 258.852 129.568 258.717 129.379 258.605C129.19 258.492 128.967 258.394 128.708 258.311C128.446 258.225 128.128 258.152 127.754 258.093C127.376 258.033 126.92 257.98 126.386 257.934L123.364 257.675L123.364 252.823L129.906 252.823L129.906 251.65L133.188 251.65L133.188 252.823L131 252.823L131 258.471L133.188 258.471L133.188 259.644ZM129.906 257.675L129.906 253.996L124.457 253.996L124.457 256.581L126.386 256.78C127.185 256.863 127.883 256.966 128.479 257.088C129.076 257.211 129.552 257.407 129.906 257.675ZM126.645 244.981L127.739 244.981L127.739 249.197L126.645 249.197L126.645 244.981ZM123.364 248.919L131 248.919L131 250.092L123.364 250.092L123.364 248.919ZM123.364 244.086L131 244.086L131 245.26L123.364 245.26L123.364 244.086ZM129.27 240.77L123.364 237.091L123.364 235.739L131 235.739L131 236.912L125.094 236.912L131 240.572L131 241.944L123.364 241.944L123.364 240.77L129.27 240.77ZM129.27 232.417L123.364 228.738L123.364 227.386L131 227.386L131 228.559L125.094 228.559L131 232.218L131 233.59L123.364 233.59L123.364 232.417L129.27 232.417ZM120.818 229.513L120.818 228.42C121.355 228.42 121.794 228.605 122.136 228.977C122.477 229.348 122.648 229.852 122.648 230.488C122.648 231.114 122.477 231.613 122.136 231.984C121.794 232.352 121.355 232.536 120.818 232.536L120.818 231.442C121.077 231.442 121.304 231.371 121.499 231.229C121.695 231.083 121.793 230.836 121.793 230.488C121.793 230.14 121.695 229.891 121.499 229.742C121.304 229.59 121.077 229.513 120.818 229.513Z" fill="black" fill-opacity="0.5"/>
<path d="M211 280.926L203.364 280.926L203.364 277.804C203.364 276.982 203.549 276.329 203.92 275.845C204.292 275.361 204.782 275.119 205.392 275.119C205.856 275.119 206.216 275.257 206.471 275.532C206.723 275.807 206.893 276.16 206.983 276.591C207.023 276.309 207.122 276.036 207.281 275.771C207.44 275.502 207.659 275.28 207.938 275.104C208.213 274.929 208.551 274.841 208.952 274.841C209.343 274.841 209.692 274.94 210.001 275.139C210.309 275.338 210.553 275.623 210.732 275.994C210.911 276.366 211 276.81 211 277.327L211 280.926ZM209.926 279.813L209.926 277.327C209.926 276.922 209.83 276.606 209.638 276.377C209.446 276.148 209.184 276.034 208.852 276.034C208.458 276.034 208.148 276.148 207.923 276.377C207.694 276.606 207.58 276.922 207.58 277.327L207.58 279.813L209.926 279.813ZM206.565 279.813L206.565 277.804C206.565 277.489 206.522 277.219 206.436 276.994C206.347 276.768 206.221 276.596 206.058 276.477C205.893 276.354 205.697 276.293 205.472 276.293C205.15 276.293 204.898 276.427 204.716 276.695C204.53 276.964 204.438 277.333 204.438 277.804L204.438 279.813L206.565 279.813ZM203.364 272.19L206.486 270.36L203.364 268.531L203.364 267.178L207.182 269.644L211 267.178L211 268.531L208.037 270.36L211 272.19L211 273.542L207.182 271.116L203.364 273.542L203.364 272.19ZM211 265.504L203.364 265.504L203.364 264.331L211 264.331L211 265.504ZM202.091 264.908C202.091 265.136 202.013 265.334 201.857 265.499C201.701 265.662 201.514 265.743 201.295 265.743C201.077 265.743 200.889 265.662 200.734 265.499C200.578 265.334 200.5 265.136 200.5 264.908C200.5 264.679 200.578 264.483 200.734 264.321C200.889 264.155 201.077 264.072 201.295 264.072C201.514 264.072 201.701 264.155 201.857 264.321C202.013 264.483 202.091 264.679 202.091 264.908ZM213.188 262.997L209.906 262.997L209.906 262.361C209.744 262.205 209.568 262.071 209.379 261.958C209.19 261.846 208.967 261.748 208.708 261.665C208.446 261.579 208.128 261.506 207.754 261.446C207.376 261.387 206.92 261.334 206.386 261.287L203.364 261.029L203.364 256.176L209.906 256.176L209.906 255.003L213.188 255.003L213.188 256.176L211 256.176L211 261.824L213.188 261.824L213.188 262.997ZM209.906 261.029L209.906 257.35L204.457 257.35L204.457 259.935L206.386 260.134C207.185 260.217 207.883 260.319 208.479 260.442C209.076 260.565 209.552 260.76 209.906 261.029ZM206.645 248.335L207.739 248.335L207.739 252.551L206.645 252.551L206.645 248.335ZM203.364 252.272L211 252.272L211 253.446L203.364 253.446L203.364 252.272ZM203.364 247.44L211 247.44L211 248.613L203.364 248.613L203.364 247.44ZM209.27 244.124L203.364 240.445L203.364 239.093L211 239.093L211 240.266L205.094 240.266L211 243.925L211 245.297L203.364 245.297L203.364 244.124L209.27 244.124ZM209.27 235.77L203.364 232.091L203.364 230.739L211 230.739L211 231.912L205.094 231.912L211 235.572L211 236.944L203.364 236.944L203.364 235.77L209.27 235.77ZM200.818 232.867L200.818 231.773C201.355 231.773 201.794 231.959 202.136 232.33C202.477 232.701 202.648 233.205 202.648 233.841C202.648 234.468 202.477 234.967 202.136 235.338C201.794 235.706 201.355 235.89 200.818 235.89L200.818 234.796C201.077 234.796 201.304 234.725 201.499 234.582C201.695 234.436 201.793 234.189 201.793 233.841C201.793 233.493 201.695 233.245 201.499 233.096C201.304 232.943 201.077 232.867 200.818 232.867Z" fill="black" fill-opacity="0.5"/>
<path d="M291 280.926L283.364 280.926L283.364 277.804C283.364 276.982 283.549 276.329 283.92 275.845C284.292 275.361 284.782 275.119 285.392 275.119C285.856 275.119 286.216 275.257 286.471 275.532C286.723 275.807 286.893 276.16 286.983 276.591C287.023 276.309 287.122 276.036 287.281 275.771C287.44 275.502 287.659 275.28 287.938 275.104C288.213 274.929 288.551 274.841 288.952 274.841C289.343 274.841 289.692 274.94 290.001 275.139C290.309 275.338 290.553 275.623 290.732 275.994C290.911 276.366 291 276.81 291 277.327L291 280.926ZM289.926 279.813L289.926 277.327C289.926 276.922 289.83 276.606 289.638 276.377C289.446 276.148 289.184 276.034 288.852 276.034C288.458 276.034 288.148 276.148 287.923 276.377C287.694 276.606 287.58 276.922 287.58 277.327L287.58 279.813L289.926 279.813ZM286.565 279.813L286.565 277.804C286.565 277.489 286.522 277.219 286.436 276.994C286.347 276.768 286.221 276.596 286.058 276.477C285.893 276.354 285.697 276.293 285.472 276.293C285.15 276.293 284.898 276.427 284.716 276.695C284.53 276.964 284.438 277.333 284.438 277.804L284.438 279.813L286.565 279.813ZM283.364 272.19L286.486 270.36L283.364 268.531L283.364 267.178L287.182 269.644L291 267.178L291 268.531L288.037 270.36L291 272.19L291 273.542L287.182 271.116L283.364 273.542L283.364 272.19ZM291 265.504L283.364 265.504L283.364 264.331L291 264.331L291 265.504ZM282.091 264.908C282.091 265.136 282.013 265.334 281.857 265.499C281.701 265.662 281.514 265.743 281.295 265.743C281.077 265.743 280.889 265.662 280.734 265.499C280.578 265.334 280.5 265.136 280.5 264.908C280.5 264.679 280.578 264.483 280.734 264.321C280.889 264.155 281.077 264.072 281.295 264.072C281.514 264.072 281.701 264.155 281.857 264.321C282.013 264.483 282.091 264.679 282.091 264.908ZM293.188 262.997L289.906 262.997L289.906 262.361C289.744 262.205 289.568 262.071 289.379 261.958C289.19 261.846 288.967 261.748 288.708 261.665C288.446 261.579 288.128 261.506 287.754 261.446C287.376 261.387 286.92 261.334 286.386 261.287L283.364 261.029L283.364 256.176L289.906 256.176L289.906 255.003L293.188 255.003L293.188 256.176L291 256.176L291 261.824L293.188 261.824L293.188 262.997ZM289.906 261.029L289.906 257.35L284.457 257.35L284.457 259.935L286.386 260.134C287.185 260.217 287.883 260.319 288.479 260.442C289.076 260.565 289.552 260.76 289.906 261.029ZM286.645 248.335L287.739 248.335L287.739 252.551L286.645 252.551L286.645 248.335ZM283.364 252.272L291 252.272L291 253.446L283.364 253.446L283.364 252.272ZM283.364 247.44L291 247.44L291 248.613L283.364 248.613L283.364 247.44ZM289.27 244.124L283.364 240.445L283.364 239.093L291 239.093L291 240.266L285.094 240.266L291 243.925L291 245.297L283.364 245.297L283.364 244.124L289.27 244.124ZM289.27 235.77L283.364 232.091L283.364 230.739L291 230.739L291 231.912L285.094 231.912L291 235.572L291 236.944L283.364 236.944L283.364 235.77L289.27 235.77ZM280.818 232.867L280.818 231.773C281.355 231.773 281.794 231.959 282.136 232.33C282.477 232.701 282.648 233.205 282.648 233.841C282.648 234.468 282.477 234.967 282.136 235.338C281.794 235.706 281.355 235.89 280.818 235.89L280.818 234.796C281.077 234.796 281.304 234.725 281.499 234.582C281.695 234.436 281.793 234.189 281.793 233.841C281.793 233.493 281.695 233.245 281.499 233.096C281.304 232.943 281.077 232.867 280.818 232.867Z" fill="black" fill-opacity="0.5"/>
<path d="M1051 280.926L1043.36 280.926L1043.36 277.804C1043.36 276.982 1043.55 276.329 1043.92 275.845C1044.29 275.361 1044.78 275.119 1045.39 275.119C1045.86 275.119 1046.22 275.257 1046.47 275.532C1046.72 275.807 1046.89 276.16 1046.98 276.591C1047.02 276.309 1047.12 276.036 1047.28 275.771C1047.44 275.502 1047.66 275.28 1047.94 275.104C1048.21 274.929 1048.55 274.841 1048.95 274.841C1049.34 274.841 1049.69 274.94 1050 275.139C1050.31 275.338 1050.55 275.623 1050.73 275.994C1050.91 276.366 1051 276.81 1051 277.327L1051 280.926ZM1049.93 279.813L1049.93 277.327C1049.93 276.922 1049.83 276.606 1049.64 276.377C1049.45 276.148 1049.18 276.034 1048.85 276.034C1048.46 276.034 1048.15 276.148 1047.92 276.377C1047.69 276.606 1047.58 276.922 1047.58 277.327L1047.58 279.813L1049.93 279.813ZM1046.57 279.813L1046.57 277.804C1046.57 277.489 1046.52 277.219 1046.44 276.994C1046.35 276.768 1046.22 276.596 1046.06 276.477C1045.89 276.354 1045.7 276.293 1045.47 276.293C1045.15 276.293 1044.9 276.427 1044.72 276.695C1044.53 276.964 1044.44 277.333 1044.44 277.804L1044.44 279.813L1046.57 279.813ZM1043.36 272.19L1046.49 270.36L1043.36 268.531L1043.36 267.178L1047.18 269.644L1051 267.178L1051 268.531L1048.04 270.36L1051 272.19L1051 273.542L1047.18 271.116L1043.36 273.542L1043.36 272.19ZM1051 265.504L1043.36 265.504L1043.36 264.331L1051 264.331L1051 265.504ZM1042.09 264.908C1042.09 265.136 1042.01 265.334 1041.86 265.499C1041.7 265.662 1041.51 265.743 1041.3 265.743C1041.08 265.743 1040.89 265.662 1040.73 265.499C1040.58 265.334 1040.5 265.136 1040.5 264.908C1040.5 264.679 1040.58 264.483 1040.73 264.321C1040.89 264.155 1041.08 264.072 1041.3 264.072C1041.51 264.072 1041.7 264.155 1041.86 264.321C1042.01 264.483 1042.09 264.679 1042.09 264.908ZM1053.19 262.997L1049.91 262.997L1049.91 262.361C1049.74 262.205 1049.57 262.071 1049.38 261.958C1049.19 261.846 1048.97 261.748 1048.71 261.665C1048.45 261.579 1048.13 261.506 1047.75 261.446C1047.38 261.387 1046.92 261.334 1046.39 261.287L1043.36 261.029L1043.36 256.176L1049.91 256.176L1049.91 255.003L1053.19 255.003L1053.19 256.176L1051 256.176L1051 261.824L1053.19 261.824L1053.19 262.997ZM1049.91 261.029L1049.91 257.35L1044.46 257.35L1044.46 259.935L1046.39 260.134C1047.19 260.217 1047.88 260.319 1048.48 260.442C1049.08 260.565 1049.55 260.76 1049.91 261.029ZM1046.64 248.335L1047.74 248.335L1047.74 252.551L1046.64 252.551L1046.64 248.335ZM1043.36 252.272L1051 252.272L1051 253.446L1043.36 253.446L1043.36 252.272ZM1043.36 247.44L1051 247.44L1051 248.613L1043.36 248.613L1043.36 247.44ZM1049.27 244.124L1043.36 240.445L1043.36 239.093L1051 239.093L1051 240.266L1045.09 240.266L1051 243.925L1051 245.297L1043.36 245.297L1043.36 244.124L1049.27 244.124ZM1049.27 235.77L1043.36 232.091L1043.36 230.739L1051 230.739L1051 231.912L1045.09 231.912L1051 235.572L1051 236.944L1043.36 236.944L1043.36 235.77L1049.27 235.77ZM1040.82 232.867L1040.82 231.773C1041.36 231.773 1041.79 231.959 1042.14 232.33C1042.48 232.701 1042.65 233.205 1042.65 233.841C1042.65 234.468 1042.48 234.967 1042.14 235.338C1041.79 235.706 1041.36 235.89 1040.82 235.89L1040.82 234.796C1041.08 234.796 1041.3 234.725 1041.5 234.582C1041.69 234.436 1041.79 234.189 1041.79 233.841C1041.79 233.493 1041.69 233.245 1041.5 233.096C1041.3 232.943 1041.08 232.867 1040.82 232.867Z" fill="black" fill-opacity="0.5"/>
<path d="M971 280.926L963.364 280.926L963.364 277.804C963.364 276.982 963.549 276.329 963.92 275.845C964.292 275.361 964.782 275.119 965.392 275.119C965.856 275.119 966.216 275.257 966.471 275.532C966.723 275.807 966.893 276.16 966.983 276.591C967.023 276.309 967.122 276.036 967.281 275.771C967.44 275.502 967.659 275.28 967.938 275.104C968.213 274.929 968.551 274.841 968.952 274.841C969.343 274.841 969.692 274.94 970.001 275.139C970.309 275.338 970.553 275.623 970.732 275.994C970.911 276.366 971 276.81 971 277.327L971 280.926ZM969.926 279.813L969.926 277.327C969.926 276.922 969.83 276.606 969.638 276.377C969.446 276.148 969.184 276.034 968.852 276.034C968.458 276.034 968.148 276.148 967.923 276.377C967.694 276.606 967.58 276.922 967.58 277.327L967.58 279.813L969.926 279.813ZM966.565 279.813L966.565 277.804C966.565 277.489 966.522 277.219 966.436 276.994C966.347 276.768 966.221 276.596 966.058 276.477C965.893 276.354 965.697 276.293 965.472 276.293C965.15 276.293 964.898 276.427 964.716 276.695C964.53 276.964 964.438 277.333 964.438 277.804L964.438 279.813L966.565 279.813ZM963.364 272.19L966.486 270.36L963.364 268.531L963.364 267.178L967.182 269.644L971 267.178L971 268.531L968.037 270.36L971 272.19L971 273.542L967.182 271.116L963.364 273.542L963.364 272.19ZM971 265.504L963.364 265.504L963.364 264.331L971 264.331L971 265.504ZM962.091 264.908C962.091 265.136 962.013 265.334 961.857 265.499C961.701 265.662 961.514 265.743 961.295 265.743C961.077 265.743 960.889 265.662 960.734 265.499C960.578 265.334 960.5 265.136 960.5 264.908C960.5 264.679 960.578 264.483 960.734 264.321C960.889 264.155 961.077 264.072 961.295 264.072C961.514 264.072 961.701 264.155 961.857 264.321C962.013 264.483 962.091 264.679 962.091 264.908ZM973.188 262.997L969.906 262.997L969.906 262.361C969.744 262.205 969.568 262.071 969.379 261.958C969.19 261.846 968.967 261.748 968.708 261.665C968.446 261.579 968.128 261.506 967.754 261.446C967.376 261.387 966.92 261.334 966.386 261.287L963.364 261.029L963.364 256.176L969.906 256.176L969.906 255.003L973.188 255.003L973.188 256.176L971 256.176L971 261.824L973.188 261.824L973.188 262.997ZM969.906 261.029L969.906 257.35L964.457 257.35L964.457 259.935L966.386 260.134C967.185 260.217 967.883 260.319 968.479 260.442C969.076 260.565 969.552 260.76 969.906 261.029ZM966.645 248.335L967.739 248.335L967.739 252.551L966.645 252.551L966.645 248.335ZM963.364 252.272L971 252.272L971 253.446L963.364 253.446L963.364 252.272ZM963.364 247.44L971 247.44L971 248.613L963.364 248.613L963.364 247.44ZM969.27 244.124L963.364 240.445L963.364 239.093L971 239.093L971 240.266L965.094 240.266L971 243.925L971 245.297L963.364 245.297L963.364 244.124L969.27 244.124ZM969.27 235.77L963.364 232.091L963.364 230.739L971 230.739L971 231.912L965.094 231.912L971 235.572L971 236.944L963.364 236.944L963.364 235.77L969.27 235.77ZM960.818 232.867L960.818 231.773C961.355 231.773 961.794 231.959 962.136 232.33C962.477 232.701 962.648 233.205 962.648 233.841C962.648 234.468 962.477 234.967 962.136 235.338C961.794 235.706 961.355 235.89 960.818 235.89L960.818 234.796C961.077 234.796 961.304 234.725 961.499 234.582C961.695 234.436 961.793 234.189 961.793 233.841C961.793 233.493 961.695 233.245 961.499 233.096C961.304 232.943 961.077 232.867 960.818 232.867Z" fill="black" fill-opacity="0.5"/>
<path d="M891 280.926L883.364 280.926L883.364 277.804C883.364 276.982 883.549 276.329 883.92 275.845C884.292 275.361 884.782 275.119 885.392 275.119C885.856 275.119 886.216 275.257 886.471 275.532C886.723 275.807 886.893 276.16 886.983 276.591C887.023 276.309 887.122 276.036 887.281 275.771C887.44 275.502 887.659 275.28 887.938 275.104C888.213 274.929 888.551 274.841 888.952 274.841C889.343 274.841 889.692 274.94 890.001 275.139C890.309 275.338 890.553 275.623 890.732 275.994C890.911 276.366 891 276.81 891 277.327L891 280.926ZM889.926 279.813L889.926 277.327C889.926 276.922 889.83 276.606 889.638 276.377C889.446 276.148 889.184 276.034 888.852 276.034C888.458 276.034 888.148 276.148 887.923 276.377C887.694 276.606 887.58 276.922 887.58 277.327L887.58 279.813L889.926 279.813ZM886.565 279.813L886.565 277.804C886.565 277.489 886.522 277.219 886.436 276.994C886.347 276.768 886.221 276.596 886.058 276.477C885.893 276.354 885.697 276.293 885.472 276.293C885.15 276.293 884.898 276.427 884.716 276.695C884.53 276.964 884.438 277.333 884.438 277.804L884.438 279.813L886.565 279.813ZM883.364 272.19L886.486 270.36L883.364 268.531L883.364 267.178L887.182 269.644L891 267.178L891 268.531L888.037 270.36L891 272.19L891 273.542L887.182 271.116L883.364 273.542L883.364 272.19ZM891 265.504L883.364 265.504L883.364 264.331L891 264.331L891 265.504ZM882.091 264.908C882.091 265.136 882.013 265.334 881.857 265.499C881.701 265.662 881.514 265.743 881.295 265.743C881.077 265.743 880.889 265.662 880.734 265.499C880.578 265.334 880.5 265.136 880.5 264.908C880.5 264.679 880.578 264.483 880.734 264.321C880.889 264.155 881.077 264.072 881.295 264.072C881.514 264.072 881.701 264.155 881.857 264.321C882.013 264.483 882.091 264.679 882.091 264.908ZM893.188 262.997L889.906 262.997L889.906 262.361C889.744 262.205 889.568 262.071 889.379 261.958C889.19 261.846 888.967 261.748 888.708 261.665C888.446 261.579 888.128 261.506 887.754 261.446C887.376 261.387 886.92 261.334 886.386 261.287L883.364 261.029L883.364 256.176L889.906 256.176L889.906 255.003L893.188 255.003L893.188 256.176L891 256.176L891 261.824L893.188 261.824L893.188 262.997ZM889.906 261.029L889.906 257.35L884.457 257.35L884.457 259.935L886.386 260.134C887.185 260.217 887.883 260.319 888.479 260.442C889.076 260.565 889.552 260.76 889.906 261.029ZM886.645 248.335L887.739 248.335L887.739 252.551L886.645 252.551L886.645 248.335ZM883.364 252.272L891 252.272L891 253.446L883.364 253.446L883.364 252.272ZM883.364 247.44L891 247.44L891 248.613L883.364 248.613L883.364 247.44ZM889.27 244.124L883.364 240.445L883.364 239.093L891 239.093L891 240.266L885.094 240.266L891 243.925L891 245.297L883.364 245.297L883.364 244.124L889.27 244.124ZM889.27 235.77L883.364 232.091L883.364 230.739L891 230.739L891 231.912L885.094 231.912L891 235.572L891 236.944L883.364 236.944L883.364 235.77L889.27 235.77ZM880.818 232.867L880.818 231.773C881.355 231.773 881.794 231.959 882.136 232.33C882.477 232.701 882.648 233.205 882.648 233.841C882.648 234.468 882.477 234.967 882.136 235.338C881.794 235.706 881.355 235.89 880.818 235.89L880.818 234.796C881.077 234.796 881.304 234.725 881.499 234.582C881.695 234.436 881.793 234.189 881.793 233.841C881.793 233.493 881.695 233.245 881.499 233.096C881.304 232.943 881.077 232.867 880.818 232.867Z" fill="black" fill-opacity="0.5"/>
<path d="M811 280.926L803.364 280.926L803.364 277.804C803.364 276.982 803.549 276.329 803.92 275.845C804.292 275.361 804.782 275.119 805.392 275.119C805.856 275.119 806.216 275.257 806.471 275.532C806.723 275.807 806.893 276.16 806.983 276.591C807.023 276.309 807.122 276.036 807.281 275.771C807.44 275.502 807.659 275.28 807.938 275.104C808.213 274.929 808.551 274.841 808.952 274.841C809.343 274.841 809.692 274.94 810.001 275.139C810.309 275.338 810.553 275.623 810.732 275.994C810.911 276.366 811 276.81 811 277.327L811 280.926ZM809.926 279.813L809.926 277.327C809.926 276.922 809.83 276.606 809.638 276.377C809.446 276.148 809.184 276.034 808.852 276.034C808.458 276.034 808.148 276.148 807.923 276.377C807.694 276.606 807.58 276.922 807.58 277.327L807.58 279.813L809.926 279.813ZM806.565 279.813L806.565 277.804C806.565 277.489 806.522 277.219 806.436 276.994C806.347 276.768 806.221 276.596 806.058 276.477C805.893 276.354 805.697 276.293 805.472 276.293C805.15 276.293 804.898 276.427 804.716 276.695C804.53 276.964 804.438 277.333 804.438 277.804L804.438 279.813L806.565 279.813ZM803.364 272.19L806.486 270.36L803.364 268.531L803.364 267.178L807.182 269.644L811 267.178L811 268.531L808.037 270.36L811 272.19L811 273.542L807.182 271.116L803.364 273.542L803.364 272.19ZM811 265.504L803.364 265.504L803.364 264.331L811 264.331L811 265.504ZM802.091 264.908C802.091 265.136 802.013 265.334 801.857 265.499C801.701 265.662 801.514 265.743 801.295 265.743C801.077 265.743 800.889 265.662 800.734 265.499C800.578 265.334 800.5 265.136 800.5 264.908C800.5 264.679 800.578 264.483 800.734 264.321C800.889 264.155 801.077 264.072 801.295 264.072C801.514 264.072 801.701 264.155 801.857 264.321C802.013 264.483 802.091 264.679 802.091 264.908ZM813.188 262.997L809.906 262.997L809.906 262.361C809.744 262.205 809.568 262.071 809.379 261.958C809.19 261.846 808.967 261.748 808.708 261.665C808.446 261.579 808.128 261.506 807.754 261.446C807.376 261.387 806.92 261.334 806.386 261.287L803.364 261.029L803.364 256.176L809.906 256.176L809.906 255.003L813.188 255.003L813.188 256.176L811 256.176L811 261.824L813.188 261.824L813.188 262.997ZM809.906 261.029L809.906 257.35L804.457 257.35L804.457 259.935L806.386 260.134C807.185 260.217 807.883 260.319 808.479 260.442C809.076 260.565 809.552 260.76 809.906 261.029ZM806.645 248.335L807.739 248.335L807.739 252.551L806.645 252.551L806.645 248.335ZM803.364 252.272L811 252.272L811 253.446L803.364 253.446L803.364 252.272ZM803.364 247.44L811 247.44L811 248.613L803.364 248.613L803.364 247.44ZM809.27 244.124L803.364 240.445L803.364 239.093L811 239.093L811 240.266L805.094 240.266L811 243.925L811 245.297L803.364 245.297L803.364 244.124L809.27 244.124ZM809.27 235.77L803.364 232.091L803.364 230.739L811 230.739L811 231.912L805.094 231.912L811 235.572L811 236.944L803.364 236.944L803.364 235.77L809.27 235.77ZM800.818 232.867L800.818 231.773C801.355 231.773 801.794 231.959 802.136 232.33C802.477 232.701 802.648 233.205 802.648 233.841C802.648 234.468 802.477 234.967 802.136 235.338C801.794 235.706 801.355 235.89 800.818 235.89L800.818 234.796C801.077 234.796 801.304 234.725 801.499 234.582C801.695 234.436 801.793 234.189 801.793 233.841C801.793 233.493 801.695 233.245 801.499 233.096C801.304 232.943 801.077 232.867 800.818 232.867Z" fill="black" fill-opacity="0.5"/>
<defs>
<filter id="filter0_b_6064_30718" x="257" y="46" width="111" height="58" filterUnits="userSpaceOnUse" color-interpolation-filters="sRGB">
<feFlood flood-opacity="0" result="BackgroundImageFix"/>
<feGaussianBlur in="BackgroundImageFix" stdDeviation="2.5"/>
<feComposite in2="SourceAlpha" operator="in" result="effect1_backgroundBlur_6064_30718"/>
<feBlend mode="normal" in="SourceGraphic" in2="effect1_backgroundBlur_6064_30718" result="shape"/>
</filter>
</defs>
</svg>
